<?xml version="1.0" encoding="UTF-8" standalone="no"?>
<!-- Created with Inkscape (http://www.inkscape.org/) -->

<svg
   xmlns:dc="http://purl.org/dc/elements/1.1/"
   xmlns:cc="http://creativecommons.org/ns#"
   xmlns:rdf="http://www.w3.org/1999/02/22-rdf-syntax-ns#"
   xmlns:svg="http://www.w3.org/2000/svg"
   xmlns="http://www.w3.org/2000/svg"
   xmlns:sodipodi="http://sodipodi.sourceforge.net/DTD/sodipodi-0.dtd"
   xmlns:inkscape="http://www.inkscape.org/namespaces/inkscape"
   width="87.716286mm"
   height="30.088223mm"
   viewBox="0 0 87.716286 30.088223"
   version="1.1"
   id="svg713"
   inkscape:version="0.92.3 (2405546, 2018-03-11)"
   sodipodi:docname="logocarnotarts.svg">
  <defs
     id="defs707" />
  <sodipodi:namedview
     id="base"
     pagecolor="#ffffff"
     bordercolor="#666666"
     borderopacity="1.0"
     inkscape:pageopacity="0.0"
     inkscape:pageshadow="2"
     inkscape:zoom="2.8"
     inkscape:cx="108.89674"
     inkscape:cy="8.7213305"
     inkscape:document-units="mm"
     inkscape:current-layer="layer1"
     showgrid="false"
     fit-margin-top="0"
     fit-margin-left="0"
     fit-margin-right="0"
     fit-margin-bottom="0"
     inkscape:window-width="1920"
     inkscape:window-height="1016"
     inkscape:window-x="0"
     inkscape:window-y="27"
     inkscape:window-maximized="1" />
  <metadata
     id="metadata710">
    <rdf:RDF>
      <cc:Work
         rdf:about="">
        <dc:format>image/svg+xml</dc:format>
        <dc:type
           rdf:resource="http://purl.org/dc/dcmitype/StillImage" />
        <dc:title></dc:title>
      </cc:Work>
    </rdf:RDF>
  </metadata>
  <g
     inkscape:label="Calque 1"
     inkscape:groupmode="layer"
     id="layer1"
     transform="translate(-0.56449718,-74.561559)">
    <g
       id="g1235"
       transform="matrix(1.7705907,0,0,1.7705907,-0.43499628,-57.456445)">
      <path
         inkscape:connector-curvature="0"
         id="path312"
         style="fill:#313370;fill-opacity:1;fill-rule:nonzero;stroke:none;stroke-width:0.35277775"
         d="M 49.794323,91.554884 H 20.419222 v -5.7404 h 29.375101 z" />
      <path
         d="m 23.018482,87.672994 h -0.0099 l -0.412397,1.441097 h 0.779992 z m 0.516819,2.027414 h -1.088319 l -0.238478,0.775053 h -0.78493 l 1.152525,-3.468159 h 0.894644 l 1.113014,3.468159 h -0.835025 z"
         style="fill:#ffffff;fill-opacity:1;fill-rule:nonzero;stroke:none;stroke-width:0.35277778"
         id="path316"
         inkscape:connector-curvature="0" />
      <path
         d="m 25.851467,88.487936 h 0.253294 c 0.313267,0 0.477309,-0.208492 0.477309,-0.4572 0,-0.143933 -0.0448,-0.437092 -0.482247,-0.437092 H 25.851467 Z M 25.066536,87.007328 H 26.3383 c 0.5715,0 1.058686,0.253294 1.058686,0.894291 0,0.144286 -0.02011,0.715434 -0.690738,0.849842 v 0.0099 c 0.253294,0.02963 0.352777,0.168628 0.481894,0.581025 l 0.357717,1.133122 H 26.691078 L 26.422967,89.546269 C 26.288559,89.074253 26.17955,89.074253 25.881453,89.074253 v 1.401233 h -0.814917 z"
         style="fill:#ffffff;fill-opacity:1;fill-rule:nonzero;stroke:none;stroke-width:0.35277778"
         id="path328"
         inkscape:connector-curvature="0" />
      <path
         d="m 28.644408,87.633296 h -0.755297 v -0.626181 h 2.325511 v 0.626181 h -0.755297 v 2.84233 h -0.814917 z"
         style="fill:#ffffff;fill-opacity:1;fill-rule:nonzero;stroke:none;stroke-width:0.35277778"
         id="path332"
         inkscape:connector-curvature="0" />
      <path
         d="m 32.635207,87.712812 c -0.193675,-0.09948 -0.467078,-0.178858 -0.6858,-0.178858 -0.263172,0 -0.462139,0.119239 -0.462139,0.377472 0,0.631119 1.366661,0.337961 1.366661,1.570214 0,0.655814 -0.521758,1.053394 -1.212497,1.053394 -0.422275,0 -0.785283,-0.09948 -0.934156,-0.143933 l 0.04445,-0.675922 c 0.243417,0.09454 0.4572,0.213783 0.760589,0.213783 0.258234,0 0.506589,-0.129469 0.506589,-0.412397 0,-0.670984 -1.366308,-0.3429 -1.366308,-1.580092 0,-0.104422 0.03986,-0.988836 1.202267,-0.988836 0.318205,0 0.516819,0.05468 0.815269,0.119239 z"
         style="fill:#ffffff;fill-opacity:1;fill-rule:nonzero;stroke:none;stroke-width:0.35277778"
         id="path336"
         inkscape:connector-curvature="0" />
      <path
         inkscape:connector-curvature="0"
         id="path338"
         style="fill:#313370;fill-opacity:1;fill-rule:nonzero;stroke:none;stroke-width:0.35277778"
         d="M 17.865813,91.55488 H 0.56453246 V 74.745724 H 17.865813 Z" />
      <path
         inkscape:connector-curvature="0"
         id="path340"
         style="fill:#3892d7;fill-opacity:1;fill-rule:nonzero;stroke:none;stroke-width:0.35277778"
         d="M 17.865813,91.55488 H 7.7844823 V 81.758241 H 17.865813 Z" />
      <path
         d="m 0.95255273,88.455586 c -0.0843139,0 -0.24800277,-0.0042 -0.38805555,-0.01305 v -4.094691 c 0.14851944,0.0056 0.31044444,0.0127 0.38805555,0.0127 5.25286097,0 9.52641127,-4.155722 9.52641127,-9.261828 0,-0.08184 -0.0067,-0.229658 -0.01235,-0.35313 h 4.223809 c 0.0014,0.119944 0.0071,0.2667 0.0071,0.35313 0,2.423231 -0.667808,4.697942 -1.833739,6.659739 H 7.784447 v 4.926894 c -2.0140083,1.125714 -4.3469277,1.770239 -6.83189427,1.770239"
         style="fill:#dce1ed;fill-opacity:1;fill-rule:nonzero;stroke:none;stroke-width:0.35277778"
         id="path344"
         inkscape:connector-curvature="0" />
      <path
         d="m 7.7845176,86.685206 v -4.926894 h 5.0792944 c -1.215672,2.0447 -2.9728583,3.749322 -5.0792944,4.926894"
         style="fill:#e1f0fa;fill-opacity:1;fill-rule:nonzero;stroke:none;stroke-width:0.35277778"
         id="path348"
         inkscape:connector-curvature="0" />
      <path
         d="m 17.865742,77.84202 c -0.180975,-0.006 -0.376414,-0.01058 -0.467078,-0.01058 -7.578019,0 -13.7435161,5.992283 -13.7435161,13.355813 0,0.07056 0.00564,0.225778 0.00917,0.367595 H 7.87719 C 7.87472,91.408445 7.87225,91.253575 7.87225,91.187253 c 0,-5.103989 4.272845,-9.258652 9.526411,-9.258652 0.09243,0 0.288925,0.0071 0.467078,0.01482 z"
         style="fill:#ffffff;fill-opacity:1;fill-rule:nonzero;stroke:none;stroke-width:0.35277778"
         id="path352"
         inkscape:connector-curvature="0" />
      <path
         d="m 24.56478,80.513641 -0.341489,0.254706 c -0.188383,-0.238478 -0.414867,-0.419453 -0.678744,-0.54222 -0.264231,-0.123119 -0.554214,-0.184855 -0.86995,-0.184855 -0.345723,0 -0.665692,0.08079 -0.959909,0.242005 -0.294569,0.16122 -0.522816,0.377825 -0.684741,0.649464 -0.161925,0.271992 -0.243064,0.57785 -0.243064,0.917222 0,0.513292 0.181328,0.941564 0.54363,1.284817 0.36195,0.343253 0.818798,0.515055 1.370542,0.515055 0.606425,0 1.113719,-0.231069 1.522236,-0.692502 l 0.341489,0.251883 c -0.2159,0.267053 -0.485422,0.473428 -0.808214,0.619478 -0.323144,0.14605 -0.683683,0.218722 -1.081969,0.218722 -0.757767,0 -1.355725,-0.245181 -1.79317,-0.735542 -0.367241,-0.413808 -0.550686,-0.913341 -0.550686,-1.498952 0,-0.616303 0.22225,-1.134887 0.66675,-1.555398 0.444853,-0.420511 1.001536,-0.630766 1.671108,-0.630766 0.404284,0 0.769409,0.07761 1.095375,0.232833 0.325614,0.155575 0.592667,0.373592 0.800806,0.65405"
         style="fill:#3892d7;fill-opacity:1;fill-rule:nonzero;stroke:none;stroke-width:0.35277778"
         id="path356"
         inkscape:connector-curvature="0" />
      <path
         d="m 24.56478,80.513641 -0.03104,-0.04163 -0.341489,0.254706 0.03104,0.04163 0.04057,-0.0321 c -0.19297,-0.244475 -0.426156,-0.430742 -0.697442,-0.557036 -0.271286,-0.126648 -0.569383,-0.189795 -0.891822,-0.189442 -0.353836,-3.53e-4 -0.682978,0.0829 -0.984956,0.248003 -0.301625,0.1651 -0.537633,0.388761 -0.704144,0.668514 -0.166864,0.280105 -0.250472,0.595841 -0.250472,0.94368 -3.53e-4,0.525286 0.187677,0.970492 0.559505,1.322211 0.371828,0.353131 0.844197,0.529872 1.406525,0.52952 0.619831,7.05e-4 1.144764,-0.238478 1.561042,-0.710142 l -0.03881,-0.03422 -0.03069,0.04163 0.341489,0.251884 0.03069,-0.04163 -0.04022,-0.03281 c -0.210961,0.261055 -0.473427,0.462138 -0.789516,0.605013 -0.315384,0.142523 -0.668514,0.214137 -1.06045,0.214137 -0.747184,-3.53e-4 -1.326797,-0.239537 -1.754717,-0.717903 l 3.53e-4,3.53e-4 v -3.53e-4 c -0.358775,-0.404989 -0.537281,-0.890058 -0.537633,-1.464733 3.52e-4,-0.603956 0.215547,-1.105253 0.650522,-1.51765 0.435328,-0.411339 0.976841,-0.616303 1.635477,-0.616656 0.397581,0 0.754592,0.0762 1.07315,0.227894 0.318559,0.152048 0.578203,0.36442 0.781403,0.638175 l 0.04163,-0.03104 -0.03104,-0.04163 0.03104,0.04163 0.04163,-0.03104 c -0.213078,-0.287162 -0.487186,-0.510823 -0.820209,-0.669573 -0.333375,-0.159102 -0.706613,-0.238125 -1.1176,-0.238125 -0.680155,-3.52e-4 -1.252713,0.214842 -1.706738,0.644878 -0.454025,0.428978 -0.683684,0.964142 -0.682978,1.593145 -3.53e-4,0.596194 0.18803,1.110544 0.563739,1.533524 l -3.53e-4,-3.52e-4 3.53e-4,3.52e-4 c 0.447322,0.502356 1.063272,0.753534 1.831975,0.752828 0.404636,0 0.772936,-0.07408 1.103136,-0.223308 0.329847,-0.149225 0.606425,-0.360892 0.827264,-0.634295 l 0.03422,-0.04198 -0.423333,-0.312208 -0.0314,0.03563 c -0.400403,0.451556 -0.890059,0.674158 -1.483431,0.674864 -0.541161,-3.53e-4 -0.982486,-0.166864 -1.334911,-0.500944 -0.352425,-0.334786 -0.526697,-0.746125 -0.527403,-1.24707 3.53e-4,-0.331258 0.07867,-0.626886 0.235656,-0.890764 0.157339,-0.263525 0.377825,-0.473075 0.664986,-0.630414 0.287161,-0.156986 0.597605,-0.235302 0.935214,-0.235655 0.309033,0 0.591255,0.06032 0.848077,0.179917 0.25647,0.119591 0.475898,0.294922 0.660048,0.527402 l 0.03104,0.03951 0.423333,-0.315736 -0.03069,-0.04163 z"
         style="fill:#3892d7;fill-opacity:1;fill-rule:nonzero;stroke:none;stroke-width:0.35277778"
         id="path360"
         inkscape:connector-curvature="0" />
      <path
         d="m 27.781337,80.626812 -0.742244,1.523647 h 1.480961 z m 0.05468,-0.894292 2.019652,4.208992 h -0.46743 l -0.681214,-1.385006 h -1.865842 l -0.674864,1.385006 H 25.683367 L 27.72983,79.73252 Z"
         style="fill:#3892d7;fill-opacity:1;fill-rule:nonzero;stroke:none;stroke-width:0.35277778"
         id="path364"
         inkscape:connector-curvature="0" />
      <path
         d="m 27.781337,80.626812 -0.04657,-0.02258 -0.77858,1.598084 h 1.646414 l -0.821267,-1.694039 -0.04657,0.09596 0.04657,0.02258 -0.04657,0.02258 0.702381,1.449211 h -1.315156 l 0.705909,-1.449211 -0.04657,-0.02258 -0.04657,0.02258 z m 0.05468,-0.894292 -0.04692,0.02258 1.984375,4.134556 h -0.35313 L 28.73948,82.505003 h -1.930752 l -0.674864,1.384653 H 25.76627 l 1.996017,-4.105275 h 0.07373 v -0.05186 l -0.04692,0.02258 0.04692,-0.02258 v -0.05186 H 27.72983 27.69737 l -2.096558,4.312708 h 0.597958 l 0.674864,-1.385005 h 1.801283 l 0.681214,1.385005 h 0.581731 l -2.069395,-4.312708 h -0.03246 z"
         style="fill:#3892d7;fill-opacity:1;fill-rule:nonzero;stroke:none;stroke-width:0.35277778"
         id="path368"
         inkscape:connector-curvature="0" />
      <path
         d="m 31.827698,80.14453 v 1.430867 l 0.746478,0.0056 c 0.288925,0 0.502355,-0.02681 0.64135,-0.08008 0.138289,-0.05362 0.246591,-0.138995 0.324203,-0.256117 0.07796,-0.117475 0.116416,-0.248356 0.116416,-0.3937 0,-0.141111 -0.03916,-0.26917 -0.117828,-0.384528 -0.07867,-0.115711 -0.182033,-0.197908 -0.309738,-0.24765 -0.127706,-0.04974 -0.340431,-0.07444 -0.636764,-0.07444 z M 31.39484,79.732486 h 0.862894 c 0.480483,0 0.80645,0.01905 0.977547,0.05715 0.257175,0.0575 0.46602,0.180269 0.627239,0.3683 0.160867,0.188383 0.2413,0.419805 0.2413,0.694972 0,0.228953 -0.05539,0.430741 -0.166511,0.604308 -0.110772,0.17392 -0.269169,0.305153 -0.475544,0.394053 -0.206023,0.0889 -0.490714,0.134055 -0.853723,0.136172 l 1.557514,1.954036 H 33.63004 l -1.557514,-1.954036 h -0.244828 v 1.954036 H 31.39484 Z"
         style="fill:#3892d7;fill-opacity:1;fill-rule:nonzero;stroke:none;stroke-width:0.35277778"
         id="path372"
         inkscape:connector-curvature="0" />
      <path
         d="m 31.827698,80.14453 h -0.05151 v 1.482019 l 0.797631,0.0063 h 3.53e-4 c 0.2921,-3.52e-4 0.509764,-0.02611 0.659694,-0.08361 0.147461,-0.0568 0.265642,-0.149578 0.34925,-0.275872 v 0 c 0.0829,-0.125589 0.124884,-0.267758 0.124884,-0.422275 0,-0.150636 -0.04233,-0.290336 -0.126648,-0.413808 -0.08396,-0.123473 -0.19685,-0.213784 -0.33408,-0.2667 -0.1397,-0.05398 -0.3556,-0.07761 -0.655461,-0.07796 h -0.815623 v 0.05186 h 0.05151 v 0.05186 h 0.764117 c 0.293511,-3.52e-4 0.502355,0.0254 0.618066,0.07091 0.118181,0.04621 0.21202,0.121002 0.28575,0.228247 0.07267,0.107597 0.108656,0.224014 0.108656,0.3556 0,0.136172 -0.03563,0.255764 -0.107597,0.365125 v 0 c -0.07197,0.108303 -0.170392,0.185914 -0.299861,0.236361 -0.127706,0.04939 -0.337256,0.07691 -0.622653,0.07655 l -0.69462,-0.0053 V 80.14453 h -0.05186 v 0.05186 z M 31.39484,79.732486 v 0.05186 h 0.862894 c 0.47872,-3.53e-4 0.804333,0.0194 0.966258,0.05609 0.24765,0.05539 0.445206,0.171802 0.599017,0.351366 0.1524,0.178506 0.2286,0.395817 0.228953,0.661106 -3.53e-4,0.220839 -0.05292,0.411339 -0.158397,0.576439 -0.105128,0.164747 -0.254,0.288925 -0.451909,0.374297 -0.196144,0.08467 -0.474839,0.130175 -0.833614,0.131939 l -0.107244,3.53e-4 1.557161,1.954036 h -0.402872 l -1.557514,-1.954389 h -0.269875 -0.05151 v 1.954389 h -0.329141 v -4.157486 h -0.05221 v 0.05186 -0.05186 h -0.05186 v 4.260849 h 0.536575 v -1.954388 h 0.167923 l 1.557866,1.954388 h 0.667809 l -1.624542,-2.038349 -0.04057,0.03245 v 0.05151 c 0.367595,-0.0018 0.657931,-0.04727 0.874184,-0.140406 0.214489,-0.09172 0.382411,-0.230364 0.49918,-0.413455 0.116064,-0.182387 0.174273,-0.394759 0.17392,-0.632178 7.05e-4,-0.285045 -0.08396,-0.530931 -0.253647,-0.728486 -0.168275,-0.19685 -0.388409,-0.325967 -0.655462,-0.385234 -0.179563,-0.03986 -0.505883,-0.05821 -0.988483,-0.05856 h -0.914753 v 0.05186 z"
         style="fill:#3892d7;fill-opacity:1;fill-rule:nonzero;stroke:none;stroke-width:0.35277778"
         id="path376"
         inkscape:connector-curvature="0" />
      <path
         d="m 36.210398,83.941618 v -4.208992 h 0.09419 l 2.882547,3.226506 v -3.226506 h 0.426861 v 4.208992 h -0.09701 L 36.65772,80.754271 v 3.187347 z"
         style="fill:#3892d7;fill-opacity:1;fill-rule:nonzero;stroke:none;stroke-width:0.35277778"
         id="path380"
         inkscape:connector-curvature="0" />
      <path
         d="m 36.210398,83.941618 h 0.05151 v -4.157133 h 0.0194 l 2.957689,3.310466 v -3.310466 h 0.323145 v 4.105275 h -0.02222 l -2.934053,-3.270956 v 3.270956 h -0.395464 v 0.05186 h 0.05151 -0.05151 v 0.05186 h 0.499181 v -3.103738 l 2.784122,3.103738 h 0.120297 0.0515 V 79.680772 H 39.13528 v 3.142544 l -2.80776,-3.142548 h -0.117122 -0.05186 v 4.312708 h 0.05186 z"
         style="fill:#3892d7;fill-opacity:1;fill-rule:nonzero;stroke:none;stroke-width:0.35277778"
         id="path384"
         inkscape:connector-curvature="0" />
      <path
         d="m 43.925683,80.035698 c -0.320675,0 -0.624417,0.08114 -0.911225,0.243417 -0.287161,0.162277 -0.511175,0.381 -0.672747,0.655814 -0.160867,0.274813 -0.241653,0.581377 -0.241653,0.919338 0,0.500239 0.178506,0.922514 0.535517,1.267178 0.356658,0.344664 0.786694,0.51682 1.290108,0.51682 0.336197,0 0.647347,-0.07937 0.933097,-0.237773 0.286103,-0.158397 0.509411,-0.375002 0.669572,-0.649816 0.160162,-0.274814 0.240595,-0.580672 0.240595,-0.916517 0,-0.33408 -0.08043,-0.636058 -0.240595,-0.906286 -0.160161,-0.270228 -0.385938,-0.486481 -0.676627,-0.648758 -0.291042,-0.162278 -0.599723,-0.243417 -0.926042,-0.243417 m -0.01905,-0.409222 c 0.655814,0 1.205089,0.212725 1.646767,0.638175 0.44203,0.42545 0.662869,0.948972 0.662869,1.570919 0,0.616303 -0.220486,1.138767 -0.661458,1.568097 -0.44062,0.428978 -0.978606,0.64382 -1.6129,0.64382 -0.642409,0 -1.184628,-0.213784 -1.626306,-0.640997 -0.44203,-0.427214 -0.662869,-0.944386 -0.662869,-1.550811 0,-0.404284 0.100541,-0.779287 0.301625,-1.124656 0.201436,-0.345369 0.475897,-0.615597 0.823383,-0.811036 0.347839,-0.195792 0.7239,-0.293511 1.128889,-0.293511"
         style="fill:#3892d7;fill-opacity:1;fill-rule:nonzero;stroke:none;stroke-width:0.35277778"
         id="path388"
         inkscape:connector-curvature="0" />
      <path
         d="m 43.925683,80.035698 v -0.05186 c -0.329142,0 -0.642761,0.08396 -0.936625,0.250119 -0.294569,0.166511 -0.525992,0.391936 -0.691797,0.674864 -0.165806,0.282928 -0.249061,0.599369 -0.249061,0.945444 -3.53e-4,0.512587 0.184855,0.951442 0.551391,1.304573 0.365125,0.353483 0.811036,0.531636 1.326092,0.531283 0.344311,0 0.664633,-0.08149 0.958497,-0.244122 0.293511,-0.162631 0.524228,-0.386645 0.689328,-0.66922 0.164747,-0.282927 0.247297,-0.598311 0.247297,-0.942622 0,-0.342194 -0.0829,-0.654755 -0.24765,-0.932744 -0.1651,-0.278342 -0.398286,-0.501298 -0.696383,-0.667456 -0.298097,-0.166158 -0.616303,-0.250119 -0.951089,-0.250119 v 0.05186 0.05186 c 0.317853,0 0.616656,0.07867 0.900642,0.236714 0.283633,0.158397 0.50165,0.367947 0.657577,0.630061 0.155575,0.262114 0.233187,0.554214 0.233187,0.879828 0,0.327731 -0.07796,0.623358 -0.233187,0.890411 -0.155927,0.267053 -0.371475,0.47625 -0.649816,0.630767 -0.278695,0.154164 -0.58032,0.231069 -0.908403,0.231069 -0.491419,-3.53e-4 -0.905933,-0.166511 -1.254125,-0.502355 -0.347839,-0.336198 -0.519289,-0.741892 -0.519994,-1.229784 3.52e-4,-0.329847 0.07867,-0.62618 0.23495,-0.89288 0.156986,-0.267406 0.373591,-0.47872 0.653344,-0.637117 0.279753,-0.158044 0.574322,-0.236714 0.885825,-0.236714 z m -0.01905,-0.409222 v 0.05186 c 0.644878,7.06e-4 1.177925,0.207786 1.610783,0.623711 0.432506,0.416984 0.646642,0.923925 0.646995,1.533525 -3.53e-4,0.603956 -0.214136,1.109839 -0.645584,1.531056 -0.432505,0.420158 -0.954263,0.62865 -1.576916,0.629002 -0.630767,-3.52e-4 -1.157111,-0.208138 -1.590322,-0.626533 -0.432859,-0.4191 -0.646642,-0.919339 -0.647348,-1.513416 3.53e-4,-0.395817 0.09807,-0.760589 0.295275,-1.09855 0.19685,-0.337609 0.463903,-0.600781 0.803981,-0.791987 0.340078,-0.191205 0.706614,-0.286455 1.103136,-0.286808 v -0.05186 -0.05151 c -0.413103,-3.53e-4 -0.799042,0.09984 -1.153936,0.299861 -0.355247,0.199673 -0.637117,0.477309 -0.842786,0.830086 -0.206022,0.353131 -0.309386,0.737659 -0.309034,1.150762 -7.05e-4,0.619125 0.227189,1.152524 0.678745,1.588205 0.450497,0.436386 1.008592,0.655814 1.662289,0.655461 0.645936,3.53e-4 1.199797,-0.220486 1.649236,-0.658636 0.450144,-0.437444 0.677686,-0.976489 0.67698,-1.605139 7.06e-4,-0.633941 -0.227188,-1.174397 -0.678744,-1.608314 -0.451203,-0.434622 -1.015647,-0.652991 -1.68275,-0.652286 z"
         style="fill:#3892d7;fill-opacity:1;fill-rule:nonzero;stroke:none;stroke-width:0.35277778"
         id="path392"
         inkscape:connector-curvature="0" />
      <path
         d="m 47.680191,80.14453 v -0.412044 h 2.373136 v 0.412044 h -0.965905 v 3.796947 H 48.646097 V 80.14453 Z"
         style="fill:#3892d7;fill-opacity:1;fill-rule:nonzero;stroke:none;stroke-width:0.35277778"
         id="path396"
         inkscape:connector-curvature="0" />
      <path
         d="m 47.680191,80.14453 h 0.05186 v -0.360186 h 2.26942 v 0.308328 h -0.965553 v 3.7973 h -0.337961 v -3.7973 h -1.017764 v 0.05186 h 0.05186 -0.05186 v 0.05186 h 0.914047 v 3.796947 h 0.545042 v -3.796947 h 0.965905 v -0.515761 h -2.476852 v 0.515761 h 0.05186 z"
         style="fill:#3892d7;fill-opacity:1;fill-rule:nonzero;stroke:none;stroke-width:0.35277778"
         id="path400"
         inkscape:connector-curvature="0" />
      <path
         inkscape:connector-curvature="0"
         id="path402"
         style="fill:#3892d7;fill-opacity:1;fill-rule:nonzero;stroke:none;stroke-width:0.35277778"
         d="m 20.911343,74.705508 h 0.378883 v 3.683 h -0.378883 z" />
      <path
         d="m 20.911308,74.705684 v 0.05186 h 0.327025 v 3.579284 h -0.275167 v -3.631142 h -0.05186 v 0.05186 -0.05186 h -0.05186 v 3.734858 h 0.4826 v -3.786716 h -0.4826 v 0.05186 z"
         style="fill:#3892d7;fill-opacity:1;fill-rule:nonzero;stroke:none;stroke-width:0.35277778"
         id="path406"
         inkscape:connector-curvature="0" />
      <path
         d="m 23.654084,78.388684 v -3.683 h 0.08255 l 2.522008,2.823281 v -2.823281 h 0.373945 v 3.683 h -0.08537 L 24.04567,75.599976 v 2.788708 z"
         style="fill:#3892d7;fill-opacity:1;fill-rule:nonzero;stroke:none;stroke-width:0.35277778"
         id="path410"
         inkscape:connector-curvature="0" />
      <path
         d="m 23.654084,78.388684 h 0.05186 v -3.631142 h 0.0074 l 2.59715,2.907242 v -2.907242 h 0.270227 v 3.579284 h -0.01023 l -2.576689,-2.872317 v 2.872317 h -0.339725 v 0.05186 h 0.05186 -0.05186 v 0.05186 h 0.391583 0.05186 V 75.73509 l 2.426758,2.705452 h 0.108303 0.0515 v -3.786716 h -0.476955 v 2.739319 l -2.447572,-2.739319 h -0.105481 -0.05186 v 3.786716 h 0.05186 z"
         style="fill:#3892d7;fill-opacity:1;fill-rule:nonzero;stroke:none;stroke-width:0.35277778"
         id="path414"
         inkscape:connector-curvature="0" />
      <path
         d="m 28.65612,77.702637 0.322086,-0.187678 c 0.226483,0.405342 0.488597,0.608189 0.785989,0.608189 0.127,0 0.246239,-0.02858 0.358069,-0.08608 0.111478,-0.05786 0.196498,-0.134761 0.254706,-0.231775 0.05856,-0.09666 0.08784,-0.199319 0.08784,-0.307975 0,-0.123472 -0.04304,-0.244475 -0.128764,-0.363008 -0.118534,-0.163336 -0.335139,-0.360539 -0.649464,-0.590903 -0.315736,-0.232128 -0.512586,-0.399697 -0.589845,-0.503061 -0.133702,-0.173919 -0.20073,-0.361597 -0.20073,-0.563386 0,-0.160161 0.03916,-0.306564 0.118533,-0.43815 0.07867,-0.131939 0.190147,-0.236008 0.333375,-0.311855 0.143228,-0.07585 0.299156,-0.113948 0.467431,-0.113948 0.178858,0 0.345722,0.04304 0.501297,0.129117 0.155575,0.08572 0.319969,0.243769 0.493183,0.474486 l -0.309033,0.227894 c -0.142522,-0.183797 -0.264231,-0.304799 -0.364419,-0.363361 -0.100542,-0.05821 -0.209903,-0.08749 -0.328437,-0.08749 -0.153105,0 -0.277988,0.04515 -0.375002,0.135113 -0.09701,0.09031 -0.145698,0.201084 -0.145698,0.333023 0,0.08008 0.01729,0.157691 0.05151,0.232833 0.03457,0.07514 0.09737,0.156986 0.188383,0.245533 0.04974,0.04657 0.212725,0.169334 0.489303,0.367947 0.328083,0.235303 0.553156,0.444853 0.675217,0.62865 0.122061,0.183445 0.182739,0.367948 0.182739,0.553156 0,0.267053 -0.104423,0.499181 -0.312914,0.696031 -0.208845,0.19685 -0.462492,0.295627 -0.761295,0.295627 -0.230011,0 -0.439208,-0.05997 -0.62618,-0.179211 -0.186972,-0.119239 -0.359834,-0.319264 -0.517878,-0.599722"
         style="fill:#3892d7;fill-opacity:1;fill-rule:nonzero;stroke:none;stroke-width:0.35277778"
         id="path418"
         inkscape:connector-curvature="0" />
      <path
         d="m 28.65612,77.702637 0.02611,0.0448 0.322086,-0.187678 -0.02611,-0.0448 -0.04516,0.0254 c 0.229658,0.412397 0.507294,0.634647 0.831144,0.634647 0.134761,0 0.262819,-0.03069 0.381706,-0.09207 l -0.0011,3.53e-4 0.0011,-3.53e-4 c 0.118886,-0.06103 0.212372,-0.145344 0.275872,-0.250825 l -0.0018,0.0025 0.0014,-0.0025 c 0.06279,-0.104069 0.09525,-0.216958 0.09525,-0.334786 0,-0.135819 -0.04798,-0.268111 -0.138642,-0.393347 -0.12453,-0.17145 -0.343958,-0.370064 -0.660752,-0.602192 -0.314325,-0.230363 -0.51047,-0.399344 -0.578909,-0.492477 l -3.53e-4,-3.53e-4 -3.52e-4,-3.53e-4 c -0.127706,-0.166158 -0.189795,-0.341136 -0.190148,-0.531636 3.53e-4,-0.151694 0.03704,-0.287867 0.111478,-0.411692 v 0 c 0.07373,-0.123472 0.177447,-0.220486 0.313267,-0.292452 l -0.0014,7.05e-4 0.0014,-7.05e-4 c 0.136172,-0.07197 0.282575,-0.10795 0.443089,-0.10795 0.170391,3.52e-4 0.328083,0.04057 0.47625,0.122414 0.145697,0.08043 0.306564,0.233186 0.476955,0.460374 l 0.04127,-0.03104 -0.03034,-0.04198 -0.309386,0.227894 0.03069,0.04198 0.04127,-0.0321 c -0.145344,-0.185914 -0.268464,-0.310797 -0.379942,-0.376061 -0.10795,-0.0628 -0.227541,-0.09454 -0.354189,-0.09454 -0.162983,-3.53e-4 -0.303388,0.04939 -0.41028,0.148872 l 0.0011,-7.05e-4 -0.0011,0.0011 c -0.106892,0.09807 -0.162983,0.226131 -0.162278,0.37077 0,0.08749 0.01905,0.172861 0.05645,0.254352 0.03845,0.08396 0.105127,0.169686 0.198966,0.261056 l 3.53e-4,3.53e-4 3.53e-4,3.52e-4 c 0.05574,0.05186 0.216958,0.172862 0.494947,0.372534 v 0 c 0.325261,0.232833 0.5461,0.440266 0.661811,0.614891 0.117475,0.177095 0.174272,0.351014 0.174272,0.524581 -3.52e-4,0.253294 -0.09666,0.468842 -0.296333,0.658283 -0.200025,0.188031 -0.438503,0.280811 -0.726017,0.281517 -0.221544,-3.53e-4 -0.419452,-0.05715 -0.598311,-0.171097 -0.177094,-0.112889 -0.345369,-0.305506 -0.500591,-0.581378 l -0.04516,0.0254 0.02611,0.0448 -0.02611,-0.0448 -0.0448,0.0254 c 0.160514,0.285397 0.337609,0.492125 0.534811,0.618067 0.195086,0.12453 0.414867,0.187325 0.65405,0.186972 0.310092,7.05e-4 0.579261,-0.103717 0.796925,-0.309386 0.217311,-0.204611 0.329848,-0.452967 0.329142,-0.733778 0,-0.19685 -0.06526,-0.391936 -0.191558,-0.582083 -0.128411,-0.192617 -0.357011,-0.404284 -0.687917,-0.641703 l 0.0018,0.0011 -0.0018,-0.0011 C 29.77119,76.068276 29.606442,75.943745 29.562698,75.90247 l -0.03563,0.03775 0.03598,-0.03739 c -0.08819,-0.08537 -0.146756,-0.163336 -0.177095,-0.229659 -0.0314,-0.06879 -0.04692,-0.138641 -0.04692,-0.211313 7.05e-4,-0.118887 0.04163,-0.213078 0.129116,-0.294923 l -0.0014,0.0014 0.0014,-0.0014 c 0.08714,-0.08043 0.196498,-0.121002 0.339725,-0.121355 0.110067,0 0.20955,0.02681 0.302331,0.08043 0.08996,0.05186 0.20955,0.168981 0.349956,0.350308 l 0.03069,0.03986 0.391936,-0.288925 -0.0314,-0.04198 c -0.176036,-0.233539 -0.344311,-0.396875 -0.509764,-0.488597 -0.162983,-0.08996 -0.339372,-0.135467 -0.526344,-0.135114 -0.176036,-3.53e-4 -0.340784,0.03986 -0.491772,0.119591 h 3.52e-4 c -0.150989,0.07973 -0.27058,0.190853 -0.354189,0.330906 v 0 c -0.08396,0.1397 -0.125941,0.296333 -0.125588,0.464961 -3.53e-4,0.213431 0.07161,0.413808 0.211666,0.594783 l 0.04092,-0.0314 -0.04163,0.03105 c 0.08573,0.113594 0.28328,0.280105 0.601133,0.513997 v 0 c 0.311856,0.228247 0.525286,0.423686 0.637822,0.579261 0.08079,0.11183 0.118886,0.221544 0.118886,0.332669 0,0.09913 -0.02646,0.191911 -0.08008,0.281164 l -0.0014,0.0025 0.0011,-0.0021 c -0.05292,0.08784 -0.129822,0.158044 -0.234244,0.212019 l 0.0011,-3.52e-4 -0.0011,3.52e-4 c -0.104423,0.05398 -0.214842,0.08043 -0.334081,0.08043 -0.270933,3.53e-4 -0.517172,-0.183092 -0.740833,-0.581731 l -0.02575,-0.04586 -0.411692,0.239889 0.0254,0.04445 z"
         style="fill:#3892d7;fill-opacity:1;fill-rule:nonzero;stroke:none;stroke-width:0.35277778"
         id="path422"
         inkscape:connector-curvature="0" />
      <path
         d="m 32.792934,75.066294 v -0.360539 h 2.076097 v 0.360539 h -0.84455 v 3.322461 h -0.386644 v -3.322461 z"
         style="fill:#3892d7;fill-opacity:1;fill-rule:nonzero;stroke:none;stroke-width:0.35277778"
         id="path426"
         inkscape:connector-curvature="0" />
      <path
         d="m 32.792934,75.066294 h 0.05151 v -0.308681 h 1.973086 v 0.256823 h -0.844903 v 3.322461 h -0.283281 v -3.322461 h -0.896408 v 0.05186 h 0.05151 -0.05151 v 0.05186 h 0.793044 v 3.322461 h 0.490009 v -3.322461 h 0.844903 V 74.653901 H 32.74108 v 0.464255 h 0.05186 z"
         style="fill:#3892d7;fill-opacity:1;fill-rule:nonzero;stroke:none;stroke-width:0.35277778"
         id="path430"
         inkscape:connector-curvature="0" />
      <path
         inkscape:connector-curvature="0"
         id="path432"
         style="fill:#3892d7;fill-opacity:1;fill-rule:nonzero;stroke:none;stroke-width:0.35277778"
         d="m 36.854429,74.705508 h 0.378883 v 3.683 h -0.378883 z" />
      <path
         d="m 36.854464,74.705684 v 0.05186 h 0.326672 v 3.579284 h -0.274814 v -3.631142 h -0.05186 v 0.05186 -0.05186 h -0.05186 v 3.734858 h 0.4826 v -3.786716 h -0.4826 v 0.05186 z"
         style="fill:#3892d7;fill-opacity:1;fill-rule:nonzero;stroke:none;stroke-width:0.35277778"
         id="path436"
         inkscape:connector-curvature="0" />
      <path
         d="m 39.218534,75.066294 v -0.360539 h 2.07645 v 0.360539 h -0.844903 v 3.322461 h -0.386644 v -3.322461 z"
         style="fill:#3892d7;fill-opacity:1;fill-rule:nonzero;stroke:none;stroke-width:0.35277778"
         id="path440"
         inkscape:connector-curvature="0" />
      <path
         d="m 39.218534,75.066294 h 0.05186 v -0.308681 h 1.972734 v 0.256823 h -0.844903 v 3.322461 h -0.282928 v -3.322461 h -0.896761 v 0.05186 h 0.05186 -0.05186 v 0.05186 h 0.793044 v 3.322461 h 0.490362 v -3.322461 h 0.844902 V 74.653901 H 39.16703 v 0.464255 h 0.05151 z"
         style="fill:#3892d7;fill-opacity:1;fill-rule:nonzero;stroke:none;stroke-width:0.35277778"
         id="path444"
         inkscape:connector-curvature="0" />
      <path
         d="m 43.347268,74.705684 h 0.378883 v 2.223206 c 0,0.263877 0.0053,0.428272 0.01552,0.493536 0.0187,0.144991 0.06244,0.266347 0.131233,0.364066 0.06879,0.09772 0.174272,0.179564 0.316794,0.245534 0.142523,0.06597 0.286103,0.09878 0.430389,0.09878 0.125236,0 0.245534,-0.02575 0.360892,-0.07761 0.114653,-0.05186 0.210961,-0.123472 0.288219,-0.215194 0.07761,-0.09172 0.134056,-0.202847 0.170039,-0.333022 0.02575,-0.09349 0.03881,-0.285398 0.03881,-0.576086 v -2.223206 h 0.378883 v 2.223206 c 0,0.328788 -0.03316,0.594783 -0.09948,0.79763 -0.06632,0.202847 -0.198261,0.379236 -0.396522,0.529519 -0.198614,0.150284 -0.438503,0.225425 -0.720373,0.225425 -0.305505,0 -0.567619,-0.07091 -0.785636,-0.213077 -0.218369,-0.141817 -0.364419,-0.329495 -0.43815,-0.563034 -0.04621,-0.14358 -0.0695,-0.402519 -0.0695,-0.776463 z"
         style="fill:#3892d7;fill-opacity:1;fill-rule:nonzero;stroke:none;stroke-width:0.35277778"
         id="path448"
         inkscape:connector-curvature="0" />
      <path
         d="m 43.347268,74.705684 v 0.05186 h 0.326672 v 2.171348 c 3.53e-4,0.265288 0.0053,0.428272 0.01623,0.501297 l 0.05151,-0.0078 -0.05151,0.0063 c 0.01976,0.151694 0.06597,0.281869 0.140053,0.387702 0.07585,0.106892 0.189441,0.194028 0.337608,0.262467 l -0.0011,-7.06e-4 0.0011,7.06e-4 c 0.14852,0.06879 0.299861,0.103717 0.452261,0.103717 0.132645,0 0.26035,-0.02752 0.381706,-0.0822 0.121708,-0.05468 0.225072,-0.131233 0.307269,-0.229305 0.08255,-0.09807 0.142522,-0.2159 0.179917,-0.352425 h 3.53e-4 c 0.02822,-0.105128 0.03986,-0.297039 0.04057,-0.589844 v -2.171348 h 0.274814 v 2.171348 c 0,0.325261 -0.03281,0.586669 -0.09631,0.781402 -0.0628,0.191911 -0.187325,0.359128 -0.379236,0.504472 -0.188737,0.142875 -0.415925,0.214489 -0.688623,0.214842 -0.297744,0 -0.548569,-0.06879 -0.757414,-0.204611 C 43.67394,78.08847 43.53671,77.912081 43.466154,77.689478 v 0 c -0.04304,-0.131939 -0.06738,-0.389114 -0.06703,-0.760588 v -2.223206 h -0.05186 v 0.05186 -0.05186 h -0.05151 v 2.223206 c 3.53e-4,0.376766 0.02222,0.637116 0.07197,0.792338 v -3.52e-4 c 0.07691,0.244827 0.232128,0.443794 0.458964,0.590902 0.227189,0.148167 0.500592,0.221545 0.813858,0.221545 0.290689,0 0.543631,-0.07832 0.751417,-0.236009 0.204964,-0.155222 0.345017,-0.340783 0.414867,-0.554566 0.06844,-0.210961 0.101952,-0.481542 0.101952,-0.813858 v -2.275064 h -0.4826 v 2.275064 c 3.53e-4,0.288219 -0.01376,0.480483 -0.03704,0.562327 v 0 c -0.03387,0.123825 -0.08749,0.227895 -0.159456,0.313267 -0.07232,0.08572 -0.161572,0.152753 -0.270228,0.201436 -0.108655,0.04904 -0.221191,0.07303 -0.339372,0.07303 -0.136525,0 -0.271991,-0.03069 -0.408164,-0.09419 h -3.52e-4 c -0.136878,-0.06315 -0.234245,-0.1397 -0.296334,-0.227894 -0.06315,-0.08961 -0.104422,-0.202495 -0.122414,-0.341136 v -7.06e-4 l -3.52e-4,-7.05e-4 c -0.0088,-0.0568 -0.01482,-0.222956 -0.01446,-0.485422 v -2.275064 h -0.482248 v 0.05186 z"
         style="fill:#3892d7;fill-opacity:1;fill-rule:nonzero;stroke:none;stroke-width:0.35277778"
         id="path452"
         inkscape:connector-curvature="0" />
      <path
         d="m 47.906568,75.066294 v -0.360539 h 2.07645 v 0.360539 h -0.844903 v 3.322461 h -0.386644 v -3.322461 z"
         style="fill:#3892d7;fill-opacity:1;fill-rule:nonzero;stroke:none;stroke-width:0.35277778"
         id="path456"
         inkscape:connector-curvature="0" />
      <path
         d="m 47.906568,75.066294 h 0.05186 v -0.308681 h 1.972734 v 0.256823 h -0.844903 v 3.322461 H 48.803331 V 75.014436 H 47.90657 v 0.05186 h 0.05186 -0.05186 v 0.05186 h 0.793044 v 3.322461 h 0.490362 v -3.322461 h 0.844902 V 74.653897 H 47.85471 v 0.464255 h 0.05186 z"
         style="fill:#3892d7;fill-opacity:1;fill-rule:nonzero;stroke:none;stroke-width:0.35277778"
         id="path460"
         inkscape:connector-curvature="0" />
    </g>
  </g>
</svg>
