<?xml version="1.0" encoding="UTF-8" standalone="no"?>
<!-- Created with Inkscape (http://www.inkscape.org/) -->

<svg
   version="1.1"
   id="svg2"
   xml:space="preserve"
   width="228.46823"
   height="67.182663"
   viewBox="0 0 228.46823 67.182663"
   sodipodi:docname="spimlogo.svg"
   inkscape:version="1.1.2 (0a00cf5339, 2022-02-04)"
   xmlns:inkscape="http://www.inkscape.org/namespaces/inkscape"
   xmlns:sodipodi="http://sodipodi.sourceforge.net/DTD/sodipodi-0.dtd"
   xmlns="http://www.w3.org/2000/svg"
   xmlns:svg="http://www.w3.org/2000/svg"><defs
     id="defs6" /><sodipodi:namedview
     id="namedview4"
     pagecolor="#ffffff"
     bordercolor="#666666"
     borderopacity="1.0"
     inkscape:pageshadow="2"
     inkscape:pageopacity="0.0"
     inkscape:pagecheckerboard="0"
     showgrid="false"
     fit-margin-top="0"
     fit-margin-left="0"
     fit-margin-right="0"
     fit-margin-bottom="0"
     inkscape:zoom="0.93664575"
     inkscape:cx="173.49142"
     inkscape:cy="43.2394"
     inkscape:window-width="1920"
     inkscape:window-height="1016"
     inkscape:window-x="0"
     inkscape:window-y="0"
     inkscape:window-maximized="1"
     inkscape:current-layer="g8" /><g
     id="g8"
     inkscape:groupmode="layer"
     inkscape:label="spimlogo"
     transform="matrix(1.3333333,0,0,-1.3333333,-0.00109766,86.946664)"><path
       d="m 66.008,36.433 h 4 c 7.789,0 12,4.492 12,11.652 0,7.16 -4.211,11.653 -10.598,11.653 h -5.402 z m 0,-20.488 -4.352,-0.559 v 48.703 h 9.055 c 9.754,0 16.07,-5.687 16.07,-16.004 0,-10.316 -6.316,-16.004 -17.476,-16.004 h -3.297"
       style="fill:#121722;fill-opacity:1;fill-rule:nonzero;stroke:none"
       id="path12" /><path
       d="m 100.891,64.089 4.347,1.121 -0.004,-38.215 h -4.351"
       style="fill:#121722;fill-opacity:1;fill-rule:nonzero;stroke:none"
       id="path14" /><path
       d="m 161.523,65.21 h 0.141 L 171.352,15.945 167,15.386 160.121,51.034 H 159.98 L 145.387,14.823 h -0.141 l -15.16,36.211 h -0.141 l -4.418,-24.05 -4.308,0.007 7.605,38.219 h 0.141 l 16.351,-39.234"
       style="fill:#121722;fill-opacity:1;fill-rule:nonzero;stroke:none"
       id="path16" /><path
       d="m 37.301,37.73 c 4.59,2.578 6.902,5.843 7.23,11.14 0.352,5.7 -2.715,10.118 -8.625,10.477 C 22.875,60.152 28.527,35.823 12.305,36.82 3.82,37.343 -0.453,44.284 0.039,52.226 c 0.285,4.613 2.742,9.097 6.32,11.941 L 9.324,61.398 C 6.566,58.636 4.496,56.038 4.246,51.968 3.914,46.534 6.414,41.816 12.32,41.448 23.93,40.734 19.293,65.011 35.785,63.988 44.273,63.464 49.242,56.757 48.73,48.546 48.344,42.226 45.445,37.23 39.68,34.316"
       style="fill:#121722;fill-opacity:1;fill-rule:nonzero;stroke:none"
       id="path18" /></g></svg>
