<?xml version="1.0" encoding="UTF-8" standalone="no"?>
<!-- Created with Inkscape (http://www.inkscape.org/) -->

<svg
   version="1.1"
   id="svg2"
   xml:space="preserve"
   width="89.034668"
   height="54.843464"
   viewBox="0 0 89.034668 54.843464"
   xmlns="http://www.w3.org/2000/svg"
   xmlns:svg="http://www.w3.org/2000/svg"><defs
     id="defs6"><clipPath
       clipPathUnits="userSpaceOnUse"
       id="clipPath20"><path
         d="M 0,0 H 67 V 42 H 0 Z"
         id="path18" /></clipPath><clipPath
       clipPathUnits="userSpaceOnUse"
       id="clipPath32"><path
         d="M 0,0 H 67 V 42 H 0 Z"
         id="path30" /></clipPath></defs><g
     id="g8"
     transform="matrix(1.3333333,0,0,-1.3333333,0,54.843465)"><g
       id="g10"><g
         id="g12"
         transform="translate(0,-0.867401)"><g
           id="g14"><g
             id="g16"
             clip-path="url(#clipPath20)"><g
               id="g22"><g
                 id="g24"><g
                   id="g26"><g
                     id="g28"
                     clip-path="url(#clipPath32)"><g
                       id="g34"><path
                         d="m 21.145,4.973 c 0,0.699 0,2.203 0.214,3.601 H 21.305 C 19.637,6.211 16.848,4.383 12.766,4.383 c -5.907,0 -7.895,3.863 -7.895,8.433 v 11.547 c -1.289,0.215 -3.059,0.426 -4.617,0.535 v 6.391 c 4.723,0.484 9.664,0.645 14.394,0.484 V 14.855 c 0,-1.343 0.372,-2.199 1.504,-2.199 2.145,0 4.184,3.11 4.184,6.067 v 12.996 h 9.777 V 12.387 c 1.289,-0.215 3.114,-0.43 4.672,-0.539 V 4.883 C 30.328,4.402 25.547,4.812 21.145,4.973"
                         style="fill:#f36917;fill-opacity:1;fill-rule:nonzero;stroke:none"
                         id="path36" /><path
                         d="m 51.816,16.52 c 0,-2.254 -1.824,-3.438 -4.511,-3.438 -0.856,0 -1.934,0.055 -2.578,0.109 v 6.606 c 0.593,0.055 2.207,0.055 2.578,0.055 3.117,0 4.511,-1.45 4.511,-3.332 z m 10.797,0.109 c 0,3.488 -2.097,6.766 -5.211,7.84 v 0.164 c 2.793,1.449 4.672,4.347 4.672,7.57 0,6.336 -5.047,9.344 -12.886,9.344 -4.512,0 -10.797,-0.106 -14.446,-0.324 V 5.027 c 6.121,0 10.309,-0.105 12.512,-0.105 10.367,0 15.359,5.152 15.359,11.707 z M 51.441,30.645 c 0,-2.094 -1.449,-3.438 -4.562,-3.438 -0.859,0 -1.559,0 -2.152,0.055 v 6.121 c 0.859,0.055 1.722,0.109 2.851,0.109 2.36,0 3.863,-0.965 3.863,-2.847"
                         style="fill:#ffffff;fill-opacity:1;fill-rule:evenodd;stroke:none"
                         id="path38" /><path
                         d="m 51.816,16.52 c 0,-2.254 -1.824,-3.438 -4.511,-3.438 -0.856,0 -1.934,0.055 -2.578,0.109 v 6.606 c 0.593,0.055 2.207,0.055 2.578,0.055 3.117,0 4.511,-1.45 4.511,-3.332 z m 10.797,0.109 c 0,3.488 -2.097,6.766 -5.211,7.84 v 0.164 c 2.793,1.449 4.672,4.347 4.672,7.57 0,6.336 -5.047,9.344 -12.886,9.344 -4.512,0 -10.797,-0.106 -14.446,-0.324 V 5.027 c 6.121,0 10.309,-0.105 12.512,-0.105 10.367,0 15.359,5.152 15.359,11.707 z M 51.441,30.645 c 0,-2.094 -1.449,-3.438 -4.562,-3.438 -0.859,0 -1.559,0 -2.152,0.055 v 6.121 c 0.859,0.055 1.722,0.109 2.851,0.109 2.36,0 3.863,-0.965 3.863,-2.847 z"
                         style="fill:none;stroke:#f36917;stroke-width:0.905;stroke-linecap:butt;stroke-linejoin:miter;stroke-miterlimit:4;stroke-dasharray:none;stroke-opacity:1"
                         id="path40" /><path
                         d="M 0,5.047 H 66.777 V 0.867 H 0 Z"
                         style="fill:#f36917;fill-opacity:1;fill-rule:nonzero;stroke:none"
                         id="path42" /><path
                         d="m 5.984,1.727 c -0.722,0 -0.886,0.39 -0.886,0.828 V 4.051 H 5.539 V 2.582 c 0,-0.289 0.098,-0.488 0.473,-0.488 0.34,0 0.484,0.136 0.484,0.527 v 1.43 H 6.934 V 2.648 C 6.934,2.027 6.59,1.727 5.984,1.727"
                         style="fill:#ffffff;fill-opacity:1;fill-rule:nonzero;stroke:none"
                         id="path44" /><path
                         d="M 9.461,1.762 8.789,2.918 C 8.688,3.09 8.609,3.258 8.543,3.41 8.555,3.215 8.562,2.852 8.562,2.578 V 1.762 H 8.137 v 2.289 h 0.57 L 9.344,2.957 C 9.445,2.781 9.539,2.594 9.625,2.418 9.605,2.648 9.602,3.055 9.602,3.34 v 0.711 h 0.429 V 1.762"
                         style="fill:#ffffff;fill-opacity:1;fill-rule:nonzero;stroke:none"
                         id="path46" /><path
                         d="m 11.254,4.051 h 0.441 V 1.762 h -0.441 z"
                         style="fill:#ffffff;fill-opacity:1;fill-rule:nonzero;stroke:none"
                         id="path48" /><path
                         d="m 13.898,1.762 h -0.507 l -0.797,2.289 h 0.484 L 13.52,2.711 C 13.562,2.582 13.613,2.43 13.656,2.266 h 0.004 c 0.031,0.152 0.074,0.277 0.137,0.468 l 0.449,1.317 h 0.449"
                         style="fill:#ffffff;fill-opacity:1;fill-rule:nonzero;stroke:none"
                         id="path50" /><path
                         d="M 15.602,1.762 V 4.051 H 16.84 V 3.676 H 16.039 V 3.117 h 0.762 V 2.758 H 16.039 V 2.141 H 16.84 V 1.762"
                         style="fill:#ffffff;fill-opacity:1;fill-rule:nonzero;stroke:none"
                         id="path52" /><path
                         d="m 19.562,1.762 -0.55,0.769 c -0.055,0.074 -0.117,0.168 -0.184,0.25 0.348,0.055 0.582,0.297 0.582,0.637 0,0.465 -0.324,0.644 -0.828,0.644 -0.266,0 -0.477,-0.007 -0.656,-0.011 V 1.762 h 0.437 v 0.945 h 0.016 l 0.637,-0.945 z m -0.613,1.613 c 0,-0.215 -0.16,-0.352 -0.426,-0.352 -0.066,0 -0.128,0.004 -0.16,0.008 v 0.66 c 0.043,0.008 0.11,0.012 0.172,0.012 0.277,0 0.414,-0.109 0.414,-0.328"
                         style="fill:#ffffff;fill-opacity:1;fill-rule:nonzero;stroke:none"
                         id="path54" /><path
                         d="m 21.043,1.727 c -0.164,0 -0.328,0.015 -0.465,0.05 l 0.024,0.411 c 0.128,-0.043 0.312,-0.083 0.476,-0.083 0.227,0 0.399,0.094 0.399,0.301 0,0.442 -0.961,0.239 -0.961,0.992 0,0.407 0.32,0.684 0.871,0.684 0.129,0 0.277,-0.012 0.414,-0.039 L 21.777,3.66 c -0.129,0.035 -0.269,0.059 -0.41,0.059 -0.254,0 -0.383,-0.114 -0.383,-0.278 0,-0.41 0.961,-0.257 0.961,-0.968 0,-0.434 -0.343,-0.746 -0.902,-0.746"
                         style="fill:#ffffff;fill-opacity:1;fill-rule:nonzero;stroke:none"
                         id="path56" /><path
                         d="m 22.977,4.051 h 0.438 V 1.762 h -0.438 z"
                         style="fill:#ffffff;fill-opacity:1;fill-rule:nonzero;stroke:none"
                         id="path58" /><path
                         d="m 25.434,3.672 v -1.91 h -0.438 v 1.91 h -0.594 v 0.375 h 1.629 V 3.672"
                         style="fill:#ffffff;fill-opacity:1;fill-rule:nonzero;stroke:none"
                         id="path60" /><path
                         d="m 26.969,1.762 v 2.289 h 1.246 V 3.676 H 27.41 V 3.117 h 0.762 V 2.758 H 27.41 V 2.141 h 0.805 V 1.762 Z m 0.465,2.433 -0.153,0.25 0.594,0.371 0.184,-0.296"
                         style="fill:#ffffff;fill-opacity:1;fill-rule:nonzero;stroke:none"
                         id="path62" /><path
                         d="m 33.02,2.941 c 0,0.805 -0.45,1.121 -1.161,1.121 -0.281,0 -0.558,-0.011 -0.738,-0.019 V 1.766 c 0.195,-0.008 0.402,-0.016 0.637,-0.016 0.746,0 1.262,0.406 1.262,1.191 z M 32.543,2.91 c 0,-0.543 -0.316,-0.785 -0.742,-0.785 -0.086,0 -0.18,0.008 -0.239,0.016 v 1.543 c 0.071,0.004 0.165,0.007 0.266,0.007 0.52,0 0.715,-0.289 0.715,-0.781"
                         style="fill:#ffffff;fill-opacity:1;fill-rule:nonzero;stroke:none"
                         id="path64" /><path
                         d="m 34.035,1.762 v 2.289 h 1.246 V 3.676 H 34.477 V 3.117 h 0.761 V 2.758 H 34.477 V 2.141 h 0.804 V 1.762"
                         style="fill:#ffffff;fill-opacity:1;fill-rule:nonzero;stroke:none"
                         id="path66" /><path
                         d="m 39.301,2.457 c 0,-0.207 -0.145,-0.344 -0.434,-0.344 -0.101,0 -0.183,0.008 -0.238,0.016 v 0.637 c 0.047,0.004 0.16,0.004 0.191,0.004 0.289,0 0.481,-0.09 0.481,-0.313 z m 0.472,0.012 c 0,0.23 -0.136,0.449 -0.406,0.508 v 0.007 c 0.219,0.086 0.363,0.286 0.363,0.512 0,0.367 -0.273,0.566 -0.769,0.566 -0.281,0 -0.582,-0.007 -0.773,-0.019 V 1.762 c 0.289,0 0.527,-0.004 0.664,-0.004 0.691,0 0.921,0.379 0.921,0.711 z m -0.507,0.953 c 0,-0.199 -0.157,-0.324 -0.457,-0.324 -0.075,0 -0.125,0 -0.18,0.004 v 0.597 c 0.078,0.004 0.164,0.008 0.258,0.008 0.277,0 0.379,-0.117 0.379,-0.285"
                         style="fill:#ffffff;fill-opacity:1;fill-rule:nonzero;stroke:none"
                         id="path68" /><path
                         d="m 42.887,2.938 c 0,0.781 -0.43,1.144 -1.043,1.144 -0.61,0 -1.114,-0.449 -1.114,-1.203 0,-0.711 0.34,-1.152 1.04,-1.152 0.617,0 1.117,0.453 1.117,1.211 z M 42.414,2.902 c 0,-0.547 -0.316,-0.777 -0.613,-0.777 -0.41,0 -0.602,0.313 -0.602,0.801 0,0.512 0.293,0.762 0.606,0.762 0.394,0 0.609,-0.278 0.609,-0.786"
                         style="fill:#ffffff;fill-opacity:1;fill-rule:nonzero;stroke:none"
                         id="path70" /><path
                         d="m 44.77,1.727 c -0.715,0 -0.879,0.39 -0.879,0.828 v 1.496 h 0.437 V 2.582 c 0,-0.289 0.098,-0.488 0.473,-0.488 0.34,0 0.484,0.136 0.484,0.527 v 1.43 h 0.434 V 2.648 c 0,-0.621 -0.344,-0.921 -0.949,-0.921"
                         style="fill:#ffffff;fill-opacity:1;fill-rule:nonzero;stroke:none"
                         id="path72" /><path
                         d="m 48.602,1.762 -0.551,0.769 c -0.059,0.074 -0.125,0.168 -0.192,0.25 0.348,0.055 0.582,0.297 0.582,0.637 0,0.465 -0.32,0.644 -0.828,0.644 -0.261,0 -0.476,-0.007 -0.652,-0.011 V 1.762 h 0.441 v 0.945 h 0.012 l 0.637,-0.945 z m -0.618,1.613 c 0,-0.215 -0.164,-0.352 -0.425,-0.352 -0.071,0 -0.129,0.004 -0.157,0.008 v 0.66 c 0.043,0.008 0.106,0.012 0.168,0.012 0.282,0 0.414,-0.109 0.414,-0.328"
                         style="fill:#ffffff;fill-opacity:1;fill-rule:nonzero;stroke:none"
                         id="path74" /><path
                         d="m 51.285,3.574 c -0.187,0.071 -0.398,0.114 -0.609,0.114 -0.449,0 -0.774,-0.282 -0.774,-0.797 0,-0.485 0.262,-0.766 0.727,-0.766 0.109,0 0.203,0.016 0.289,0.039 v 0.797 h 0.441 V 1.871 C 51.133,1.777 50.852,1.727 50.578,1.727 c -0.726,0 -1.156,0.429 -1.156,1.125 0,0.718 0.492,1.23 1.281,1.23 0.227,0 0.453,-0.039 0.645,-0.098"
                         style="fill:#ffffff;fill-opacity:1;fill-rule:nonzero;stroke:none"
                         id="path76" /><path
                         d="m 54.508,2.938 c 0,0.781 -0.43,1.144 -1.039,1.144 -0.614,0 -1.117,-0.449 -1.117,-1.203 0,-0.711 0.339,-1.152 1.043,-1.152 0.613,0 1.113,0.453 1.113,1.211 z M 54.039,2.902 c 0,-0.547 -0.32,-0.777 -0.617,-0.777 -0.41,0 -0.598,0.313 -0.598,0.801 0,0.512 0.289,0.762 0.606,0.762 0.394,0 0.609,-0.278 0.609,-0.786"
                         style="fill:#ffffff;fill-opacity:1;fill-rule:nonzero;stroke:none"
                         id="path78" /><path
                         d="m 57.266,3.574 c -0.184,0.071 -0.395,0.114 -0.61,0.114 -0.449,0 -0.773,-0.282 -0.773,-0.797 0,-0.485 0.262,-0.766 0.726,-0.766 0.11,0 0.207,0.016 0.293,0.039 v 0.797 h 0.442 V 1.871 C 57.113,1.777 56.832,1.727 56.559,1.727 c -0.723,0 -1.153,0.429 -1.153,1.125 0,0.718 0.489,1.23 1.282,1.23 0.222,0 0.445,-0.039 0.644,-0.098"
                         style="fill:#ffffff;fill-opacity:1;fill-rule:nonzero;stroke:none"
                         id="path80" /><path
                         d="m 59.781,1.762 -0.668,1.156 c -0.101,0.172 -0.179,0.34 -0.246,0.492 0.012,-0.195 0.02,-0.558 0.02,-0.832 V 1.762 h -0.43 v 2.289 h 0.574 L 59.668,2.957 C 59.773,2.781 59.863,2.594 59.949,2.418 59.93,2.648 59.926,3.055 59.926,3.34 v 0.711 h 0.426 V 1.762"
                         style="fill:#ffffff;fill-opacity:1;fill-rule:nonzero;stroke:none"
                         id="path82" /><path
                         d="m 61.672,1.762 v 2.289 h 1.242 V 3.676 H 62.109 V 3.117 h 0.766 V 2.758 H 62.109 V 2.141 h 0.805 V 1.762"
                         style="fill:#ffffff;fill-opacity:1;fill-rule:nonzero;stroke:none"
                         id="path84" /></g></g></g></g></g></g></g></g></g></g></svg>
