<?xml version="1.0" encoding="UTF-8" standalone="no"?>
<!-- Created with Inkscape (http://www.inkscape.org/) -->

<svg
   version="1.1"
   id="svg2"
   xml:space="preserve"
   width="196.69254"
   height="80.513206"
   viewBox="0 0 196.69254 80.513206"
   xmlns="http://www.w3.org/2000/svg"
   xmlns:svg="http://www.w3.org/2000/svg"><defs
     id="defs6" /><g
     id="g8"
     transform="matrix(1.3333333,0,0,-1.3333333,0,80.513209)"><g
       id="g10"><path
         d="m 63.375,23.397 h 83.898"
         style="fill:none;stroke:#706d6e;stroke-width:0.492;stroke-linecap:butt;stroke-linejoin:miter;stroke-miterlimit:4;stroke-dasharray:none;stroke-opacity:1"
         id="path12" /><path
         d="M 79.234,26.565 H 76.32 v 2.906 c -2.472,-2.172 -4.902,-3.238 -7.683,-3.238 -3.797,0 -6.004,1.914 -6.004,5.336 v 14.238 h 3.179 V 32.561 c 0,-2.762 0.969,-4.012 3.708,-4.012 2.296,0 4.414,0.957 6.535,2.91 v 14.348 h 3.179 z"
         style="fill:#585e6a;fill-opacity:1;fill-rule:nonzero;stroke:none"
         id="path14" /><path
         d="m 93.66,26.639 c -1.015,-0.297 -2.121,-0.406 -3.402,-0.406 -3.488,0 -5.254,1.25 -5.254,3.753 v 13.54 h -3.445 v 2.281 h 3.445 v 6.219 h 3.355 v -6.219 h 5.254 V 43.526 H 88.359 V 31.201 c 0,-1.953 0.356,-2.613 3.047,-2.613 0.883,0 1.547,0.148 2.254,0.293 z"
         style="fill:#585e6a;fill-opacity:1;fill-rule:nonzero;stroke:none"
         id="path16" /><path
         d="m 105.246,28.44 c 3.664,0 5.961,2.648 5.961,7.507 0,5.297 -2.078,7.911 -6.316,7.911 -2.293,0 -4.239,-0.957 -5.649,-2.872 v -9.601 c 1.633,-1.988 3.531,-2.945 6.004,-2.945 m -9.184,4.23 v 20.496 h 3.18 v -9.64 c 1.41,1.73 3.309,2.613 5.871,2.613 5.918,0 9.403,-3.57 9.403,-10.047 0,-6.402 -3.399,-9.859 -9.446,-9.859 -2.695,0 -4.636,0.847 -6.093,2.648 l -0.75,-2.316 h -2.473 c 0.219,2.097 0.308,4.156 0.308,6.105"
         style="fill:#585e6a;fill-opacity:1;fill-rule:nonzero;stroke:none"
         id="path18" /><path
         d="m 117.703,45.807 h 2.957 v -2.906 c 2.473,2.207 4.68,3.238 7.551,3.238 3.09,0 4.812,-1.324 5.562,-3.238 2.473,2.207 4.77,3.238 7.641,3.238 3.75,0 5.914,-1.914 5.914,-5.336 V 26.565 h -3.18 v 13.394 c 0,2.649 -0.968,3.863 -3.617,3.863 -2.34,0 -4.418,-0.957 -6.492,-2.91 V 26.565 h -3.047 v 13.316 c 0,2.688 -1.015,3.941 -3.664,3.941 -2.383,0 -4.328,-0.957 -6.445,-2.91 V 26.565 h -3.18 z"
         style="fill:#585e6a;fill-opacity:1;fill-rule:nonzero;stroke:none"
         id="path20" /><path
         d="m 66.898,16.037 h -0.746 v 0.41 h -0.011 c -0.243,-0.293 -0.582,-0.48 -0.996,-0.48 -0.715,0 -1.028,0.508 -1.028,1.187 v 1.915 h 0.789 v -1.618 c 0,-0.371 0.004,-0.871 0.512,-0.871 0.57,0 0.691,0.617 0.691,1.008 v 1.481 h 0.789 z"
         style="fill:#585e6a;fill-opacity:1;fill-rule:nonzero;stroke:none"
         id="path22" /><path
         d="m 68.137,19.069 h 0.746 v -0.411 h 0.012 c 0.25,0.348 0.585,0.481 0.996,0.481 0.718,0 1.031,-0.508 1.031,-1.188 v -1.914 h -0.789 v 1.621 c 0,0.368 -0.008,0.871 -0.516,0.871 -0.57,0 -0.691,-0.621 -0.691,-1.007 v -1.485 h -0.789 z"
         style="fill:#585e6a;fill-opacity:1;fill-rule:nonzero;stroke:none"
         id="path24" /><path
         d="m 72.176,20.377 h 0.785 v -0.754 h -0.785 z m 0,-1.308 h 0.785 v -3.032 h -0.785 z"
         style="fill:#585e6a;fill-opacity:1;fill-rule:nonzero;stroke:none"
         id="path26" /><path
         d="m 73.883,19.069 h 0.847 l 0.75,-2.208 h 0.012 l 0.731,2.208 h 0.789 l -1.117,-3.032 h -0.891 z"
         style="fill:#585e6a;fill-opacity:1;fill-rule:nonzero;stroke:none"
         id="path28" /><path
         d="m 79.816,17.85 c -0.023,0.383 -0.203,0.715 -0.644,0.715 -0.442,0 -0.664,-0.309 -0.699,-0.715 z m 0.528,-1.641 c -0.289,-0.16 -0.617,-0.242 -1.043,-0.242 -1,0 -1.582,0.578 -1.582,1.57 0,0.879 0.465,1.602 1.406,1.602 1.125,0 1.441,-0.77 1.441,-1.832 h -2.093 c 0.035,-0.485 0.375,-0.762 0.863,-0.762 0.383,0 0.715,0.141 1.008,0.305 z"
         style="fill:#585e6a;fill-opacity:1;fill-rule:nonzero;stroke:none"
         id="path30" /><path
         d="m 81.629,19.069 h 0.699 v -0.688 h 0.012 c 0.035,0.281 0.359,0.758 0.832,0.758 0.074,0 0.156,0 0.238,-0.024 v -0.793 c -0.07,0.039 -0.211,0.063 -0.351,0.063 -0.641,0 -0.641,-0.797 -0.641,-1.234 v -1.114 h -0.789 z"
         style="fill:#585e6a;fill-opacity:1;fill-rule:nonzero;stroke:none"
         id="path32" /><path
         d="m 86.125,18.432 c -0.242,0.082 -0.418,0.133 -0.707,0.133 -0.211,0 -0.465,-0.079 -0.465,-0.336 0,-0.485 1.371,-0.18 1.371,-1.274 0,-0.707 -0.629,-0.988 -1.269,-0.988 -0.301,0 -0.606,0.051 -0.895,0.129 l 0.047,0.648 c 0.246,-0.125 0.504,-0.199 0.773,-0.199 0.204,0 0.52,0.074 0.52,0.371 0,0.594 -1.371,0.188 -1.371,1.281 0,0.653 0.57,0.942 1.191,0.942 0.368,0 0.61,-0.059 0.856,-0.11 z"
         style="fill:#585e6a;fill-opacity:1;fill-rule:nonzero;stroke:none"
         id="path34" /><path
         d="m 87.379,20.377 h 0.789 v -0.754 h -0.789 z m 0,-1.308 h 0.789 v -3.032 h -0.789 z"
         style="fill:#585e6a;fill-opacity:1;fill-rule:nonzero;stroke:none"
         id="path36" /><path
         d="m 89.68,18.49 h -0.582 v 0.579 h 0.582 v 0.605 l 0.789,0.254 v -0.859 h 0.699 V 18.49 h -0.699 v -1.41 c 0,-0.258 0.07,-0.5 0.371,-0.5 0.14,0 0.277,0.028 0.359,0.082 l 0.024,-0.625 c -0.164,-0.047 -0.348,-0.07 -0.582,-0.07 -0.618,0 -0.961,0.383 -0.961,0.984 z"
         style="fill:#585e6a;fill-opacity:1;fill-rule:nonzero;stroke:none"
         id="path38" /><path
         d="m 94.566,16.209 c -0.289,-0.16 -0.621,-0.242 -1.043,-0.242 -1,0 -1.582,0.578 -1.582,1.57 0,0.879 0.465,1.602 1.407,1.602 1.125,0 1.441,-0.77 1.441,-1.828 h -2.098 c 0.039,-0.489 0.379,-0.766 0.868,-0.766 0.382,0 0.714,0.141 1.007,0.305 z m -0.531,1.641 c -0.023,0.383 -0.199,0.715 -0.64,0.715 -0.442,0 -0.665,-0.305 -0.704,-0.715 z m -0.617,2.492 h 0.809 L 93.418,19.479 H 92.93 Z"
         style="fill:#585e6a;fill-opacity:1;fill-rule:nonzero;stroke:none"
         id="path40" /><path
         d="m 99.188,16.58 c 0.523,0 0.695,0.555 0.695,0.981 0,0.425 -0.203,0.968 -0.707,0.968 -0.512,0 -0.656,-0.562 -0.656,-0.968 0,-0.418 0.148,-0.981 0.668,-0.981 m 0.722,-0.199 h -0.012 c -0.234,-0.297 -0.558,-0.414 -0.929,-0.414 -0.93,0 -1.274,0.766 -1.274,1.594 0,0.836 0.344,1.578 1.274,1.578 0.394,0 0.672,-0.133 0.906,-0.422 h 0.012 v 1.734 h 0.789 V 16.037 H 99.91 Z"
         style="fill:#585e6a;fill-opacity:1;fill-rule:nonzero;stroke:none"
         id="path42" /><path
         d="m 103.812,17.85 c -0.023,0.383 -0.199,0.715 -0.644,0.715 -0.438,0 -0.66,-0.309 -0.699,-0.715 z m 0.532,-1.641 c -0.289,-0.16 -0.621,-0.242 -1.043,-0.242 -1,0 -1.586,0.578 -1.586,1.57 0,0.879 0.469,1.602 1.41,1.602 1.125,0 1.441,-0.77 1.441,-1.832 h -2.097 c 0.039,-0.485 0.379,-0.762 0.867,-0.762 0.383,0 0.711,0.141 1.008,0.305 z"
         style="fill:#585e6a;fill-opacity:1;fill-rule:nonzero;stroke:none"
         id="path44" /><path
         d="m 107.926,18.49 h -0.582 v 0.579 h 0.582 v 0.605 l 0.789,0.254 v -0.859 h 0.703 V 18.49 h -0.703 v -1.41 c 0,-0.258 0.07,-0.5 0.371,-0.5 0.141,0 0.277,0.028 0.359,0.082 l 0.024,-0.625 c -0.164,-0.047 -0.348,-0.07 -0.582,-0.07 -0.617,0 -0.961,0.383 -0.961,0.984 z"
         style="fill:#585e6a;fill-opacity:1;fill-rule:nonzero;stroke:none"
         id="path46" /><path
         d="m 112.281,17.85 c -0.023,0.383 -0.199,0.715 -0.64,0.715 -0.442,0 -0.664,-0.309 -0.7,-0.715 z m 0.531,-1.641 c -0.289,-0.16 -0.617,-0.242 -1.042,-0.242 -1,0 -1.582,0.578 -1.582,1.57 0,0.879 0.464,1.602 1.406,1.602 1.125,0 1.445,-0.77 1.445,-1.832 h -2.098 c 0.036,-0.485 0.375,-0.762 0.864,-0.762 0.383,0 0.715,0.141 1.007,0.305 z"
         style="fill:#585e6a;fill-opacity:1;fill-rule:nonzero;stroke:none"
         id="path48" /><path
         d="m 116.047,18.416 c -0.145,0.063 -0.297,0.113 -0.539,0.113 -0.488,0 -0.801,-0.39 -0.801,-0.96 0,-0.559 0.266,-0.989 0.82,-0.989 0.223,0 0.473,0.082 0.606,0.141 l 0.035,-0.656 c -0.23,-0.067 -0.465,-0.098 -0.789,-0.098 -0.992,0 -1.492,0.68 -1.492,1.602 0,0.875 0.515,1.57 1.465,1.57 0.316,0 0.546,-0.035 0.765,-0.098 z"
         style="fill:#585e6a;fill-opacity:1;fill-rule:nonzero;stroke:none"
         id="path50" /><path
         d="m 117.117,20.451 h 0.789 v -1.797 h 0.012 c 0.199,0.297 0.539,0.485 0.953,0.485 0.719,0 1.031,-0.504 1.031,-1.188 v -1.914 h -0.793 v 1.617 c 0,0.372 -0.004,0.875 -0.507,0.875 -0.575,0 -0.696,-0.621 -0.696,-1.007 v -1.485 h -0.789 z"
         style="fill:#585e6a;fill-opacity:1;fill-rule:nonzero;stroke:none"
         id="path52" /><path
         d="m 121.137,19.069 h 0.746 v -0.411 h 0.015 c 0.247,0.348 0.582,0.481 0.993,0.481 0.718,0 1.031,-0.508 1.031,-1.188 v -1.914 h -0.789 v 1.621 c 0,0.368 -0.008,0.871 -0.516,0.871 -0.57,0 -0.691,-0.621 -0.691,-1.007 v -1.485 h -0.789 z"
         style="fill:#585e6a;fill-opacity:1;fill-rule:nonzero;stroke:none"
         id="path54" /><path
         d="m 126.547,16.58 c 0.605,0 0.765,0.539 0.765,1.047 0,0.465 -0.25,0.902 -0.765,0.902 -0.512,0 -0.762,-0.449 -0.762,-0.902 0,-0.5 0.16,-1.047 0.762,-1.047 m 0,2.559 c 0.898,0 1.59,-0.606 1.59,-1.606 0,-0.871 -0.586,-1.566 -1.59,-1.566 -1,0 -1.586,0.695 -1.586,1.566 0,1 0.687,1.606 1.586,1.606"
         style="fill:#585e6a;fill-opacity:1;fill-rule:nonzero;stroke:none"
         id="path56" /><path
         d="m 129.195,20.451 h 0.789 v -4.414 h -0.789 z"
         style="fill:#585e6a;fill-opacity:1;fill-rule:nonzero;stroke:none"
         id="path58" /><path
         d="m 132.625,16.58 c 0.605,0 0.766,0.539 0.766,1.047 0,0.465 -0.246,0.902 -0.766,0.902 -0.512,0 -0.758,-0.449 -0.758,-0.902 0,-0.5 0.156,-1.047 0.758,-1.047 m 0,2.559 c 0.902,0 1.59,-0.606 1.59,-1.606 0,-0.871 -0.582,-1.566 -1.59,-1.566 -1,0 -1.582,0.695 -1.582,1.566 0,1 0.687,1.606 1.582,1.606"
         style="fill:#585e6a;fill-opacity:1;fill-rule:nonzero;stroke:none"
         id="path60" /><path
         d="m 137.254,17.584 c 0,0.52 -0.199,0.945 -0.66,0.945 -0.535,0 -0.707,-0.496 -0.707,-0.96 0,-0.415 0.218,-0.918 0.672,-0.918 0.496,0 0.695,0.429 0.695,0.933 m 0.789,1.485 V 16.33 c 0,-0.82 -0.332,-1.597 -1.605,-1.597 -0.309,0 -0.668,0.046 -1.043,0.207 l 0.062,0.668 c 0.242,-0.129 0.637,-0.262 0.883,-0.262 0.871,0 0.914,0.652 0.914,1.176 h -0.012 c -0.148,-0.258 -0.5,-0.485 -0.945,-0.485 -0.895,0 -1.235,0.719 -1.235,1.532 0,0.73 0.376,1.57 1.286,1.57 0.398,0 0.711,-0.137 0.925,-0.485 h 0.016 v 0.415 z"
         style="fill:#585e6a;fill-opacity:1;fill-rule:nonzero;stroke:none"
         id="path62" /><path
         d="m 139.297,20.377 h 0.789 v -0.754 h -0.789 z m 0,-1.308 h 0.789 v -3.032 h -0.789 z"
         style="fill:#585e6a;fill-opacity:1;fill-rule:nonzero;stroke:none"
         id="path64" /><path
         d="m 143.238,17.85 c -0.023,0.383 -0.199,0.715 -0.64,0.715 -0.442,0 -0.668,-0.309 -0.703,-0.715 z m 0.532,-1.641 c -0.29,-0.16 -0.622,-0.242 -1.043,-0.242 -1,0 -1.582,0.578 -1.582,1.57 0,0.879 0.464,1.602 1.406,1.602 1.121,0 1.441,-0.77 1.441,-1.832 h -2.097 c 0.035,-0.485 0.378,-0.762 0.867,-0.762 0.383,0 0.711,0.141 1.008,0.305 z"
         style="fill:#585e6a;fill-opacity:1;fill-rule:nonzero;stroke:none"
         id="path66" /><path
         d="m 65.012,11.127 h 0.336 c 0.343,0 0.777,0.078 0.777,0.5 0,0.477 -0.422,0.512 -0.797,0.512 h -0.316 z m 0,-1.801 h 0.386 c 0.383,0 0.848,0.094 0.848,0.571 0,0.535 -0.434,0.617 -0.848,0.617 h -0.386 z m -0.824,3.461 h 1.437 c 0.527,0 1.324,-0.152 1.324,-1.054 0,-0.489 -0.332,-0.829 -0.82,-0.918 v -0.012 c 0.559,-0.055 0.941,-0.43 0.941,-0.938 0,-1.035 -0.929,-1.187 -1.445,-1.187 h -1.437 z"
         style="fill:#585e6a;fill-opacity:1;fill-rule:nonzero;stroke:none"
         id="path68" /><path
         d="m 70.039,10.49 c -0.023,0.383 -0.203,0.715 -0.644,0.715 -0.442,0 -0.665,-0.308 -0.7,-0.715 z M 70.566,8.846 C 70.277,8.69 69.949,8.608 69.527,8.608 c -1.004,0 -1.586,0.578 -1.586,1.57 0,0.879 0.465,1.601 1.407,1.601 1.125,0 1.445,-0.769 1.445,-1.832 h -2.098 c 0.035,-0.484 0.379,-0.761 0.864,-0.761 0.382,0 0.714,0.14 1.007,0.304 z"
         style="fill:#585e6a;fill-opacity:1;fill-rule:nonzero;stroke:none"
         id="path70" /><path
         d="m 71.852,13.092 h 0.789 V 8.678 h -0.789 z"
         style="fill:#585e6a;fill-opacity:1;fill-rule:nonzero;stroke:none"
         id="path72" /><path
         d="m 74.18,11.131 h -0.582 v 0.578 h 0.582 v 0.426 c 0,0.605 0.343,1.027 0.965,1.027 0.203,0 0.425,-0.027 0.578,-0.062 L 75.66,12.444 c -0.07,0.042 -0.172,0.109 -0.344,0.109 -0.261,0 -0.347,-0.231 -0.347,-0.469 V 11.709 H 75.66 V 11.131 H 74.969 V 8.678 H 74.18 Z"
         style="fill:#585e6a;fill-opacity:1;fill-rule:nonzero;stroke:none"
         id="path74" /><path
         d="m 77.996,9.221 c 0.606,0 0.766,0.539 0.766,1.047 0,0.465 -0.246,0.898 -0.766,0.898 -0.512,0 -0.758,-0.445 -0.758,-0.898 0,-0.5 0.157,-1.047 0.758,-1.047 m 0,2.558 c 0.902,0 1.59,-0.605 1.59,-1.605 0,-0.871 -0.586,-1.566 -1.59,-1.566 -1,0 -1.586,0.695 -1.586,1.566 0,1 0.692,1.605 1.586,1.605"
         style="fill:#585e6a;fill-opacity:1;fill-rule:nonzero;stroke:none"
         id="path76" /><path
         d="m 80.645,11.709 h 0.699 v -0.687 h 0.011 c 0.036,0.281 0.36,0.757 0.833,0.757 0.074,0 0.16,0 0.242,-0.023 v -0.793 c -0.075,0.039 -0.215,0.063 -0.356,0.063 -0.64,0 -0.64,-0.797 -0.64,-1.235 V 8.678 h -0.789 z"
         style="fill:#585e6a;fill-opacity:1;fill-rule:nonzero;stroke:none"
         id="path78" /><path
         d="m 83.598,11.131 h -0.582 v 0.578 h 0.582 v 0.61 l 0.789,0.25 v -0.86 h 0.703 v -0.578 h -0.703 v -1.41 c 0,-0.262 0.074,-0.5 0.371,-0.5 0.14,0 0.277,0.027 0.359,0.082 l 0.024,-0.625 c -0.164,-0.047 -0.344,-0.07 -0.582,-0.07 -0.618,0 -0.961,0.382 -0.961,0.984 z"
         style="fill:#585e6a;fill-opacity:1;fill-rule:nonzero;stroke:none"
         id="path80" /><path
         d="m 85.855,10.584 h 1.547 V 9.939 h -1.547 z"
         style="fill:#585e6a;fill-opacity:1;fill-rule:nonzero;stroke:none"
         id="path82" /><path
         d="m 88.508,12.787 h 1.32 l 0.977,-3.113 h 0.011 l 0.977,3.113 h 1.316 V 8.678 H 92.32 v 3.391 H 92.312 L 91.203,8.678 h -0.789 l -1.105,3.391 -0.012,-0.012 V 8.678 h -0.789 z"
         style="fill:#585e6a;fill-opacity:1;fill-rule:nonzero;stroke:none"
         id="path84" /><path
         d="m 95.809,9.221 c 0.605,0 0.761,0.539 0.761,1.047 0,0.465 -0.246,0.898 -0.761,0.898 -0.512,0 -0.762,-0.445 -0.762,-0.898 0,-0.5 0.16,-1.047 0.762,-1.047 m 0,2.558 c 0.898,0 1.589,-0.605 1.589,-1.605 0,-0.871 -0.582,-1.566 -1.589,-1.566 -1,0 -1.582,0.695 -1.582,1.566 0,1 0.683,1.605 1.582,1.605"
         style="fill:#585e6a;fill-opacity:1;fill-rule:nonzero;stroke:none"
         id="path86" /><path
         d="m 98.438,11.709 h 0.75 v -0.41 h 0.011 c 0.246,0.348 0.582,0.48 0.992,0.48 0.719,0 1.032,-0.503 1.032,-1.187 V 8.678 h -0.789 v 1.617 c 0,0.371 -0.004,0.871 -0.512,0.871 -0.57,0 -0.695,-0.617 -0.695,-1.004 V 8.678 h -0.789 z"
         style="fill:#585e6a;fill-opacity:1;fill-rule:nonzero;stroke:none"
         id="path88" /><path
         d="m 102.719,11.131 h -0.582 v 0.578 h 0.582 v 0.61 l 0.789,0.25 v -0.86 h 0.699 v -0.578 h -0.699 v -1.41 c 0,-0.262 0.07,-0.5 0.371,-0.5 0.141,0 0.273,0.027 0.359,0.082 l 0.024,-0.625 c -0.168,-0.047 -0.348,-0.07 -0.582,-0.07 -0.621,0 -0.961,0.382 -0.961,0.984 z"
         style="fill:#585e6a;fill-opacity:1;fill-rule:nonzero;stroke:none"
         id="path90" /><path
         d="m 106.66,9.221 c 0.52,0 0.668,0.562 0.668,0.98 0,0.41 -0.144,0.965 -0.656,0.965 -0.504,0 -0.703,-0.539 -0.703,-0.965 0,-0.429 0.168,-0.98 0.691,-0.98 m -1.488,3.871 h 0.789 v -1.77 h 0.012 c 0.218,0.289 0.496,0.457 0.906,0.457 0.93,0 1.273,-0.742 1.273,-1.578 0,-0.828 -0.343,-1.593 -1.273,-1.593 -0.336,0 -0.699,0.117 -0.93,0.441 h -0.011 V 8.678 h -0.766 z"
         style="fill:#585e6a;fill-opacity:1;fill-rule:nonzero;stroke:none"
         id="path92" /><path
         d="m 111.625,8.846 c -0.289,-0.156 -0.617,-0.238 -1.043,-0.238 -1,0 -1.582,0.578 -1.582,1.57 0,0.879 0.465,1.601 1.406,1.601 1.125,0 1.442,-0.773 1.442,-1.828 h -2.094 c 0.035,-0.492 0.375,-0.765 0.863,-0.765 0.383,0 0.711,0.14 1.008,0.304 z m -0.531,1.644 c -0.024,0.383 -0.199,0.715 -0.641,0.715 -0.441,0 -0.664,-0.308 -0.699,-0.715 z m -0.617,2.493 h 0.804 l -0.804,-0.864 h -0.489 z"
         style="fill:#585e6a;fill-opacity:1;fill-rule:nonzero;stroke:none"
         id="path94" /><path
         d="m 112.906,13.092 h 0.789 V 8.678 h -0.789 z"
         style="fill:#585e6a;fill-opacity:1;fill-rule:nonzero;stroke:none"
         id="path96" /><path
         d="m 114.969,13.018 h 0.789 v -0.754 h -0.789 z m 0,-1.309 h 0.789 V 8.678 h -0.789 z"
         style="fill:#585e6a;fill-opacity:1;fill-rule:nonzero;stroke:none"
         id="path98" /><path
         d="m 118.07,9.186 c 0.242,0 0.43,0.105 0.555,0.269 0.125,0.172 0.164,0.387 0.164,0.625 h -0.344 c -0.355,0 -0.875,-0.058 -0.875,-0.523 0,-0.262 0.215,-0.371 0.5,-0.371 m -0.925,2.363 c 0.304,0.145 0.718,0.23 1.054,0.23 0.926,0 1.305,-0.382 1.305,-1.277 v -0.387 c 0,-0.308 0.008,-0.535 0.012,-0.761 0.007,-0.231 0.019,-0.442 0.035,-0.676 h -0.692 c -0.031,0.16 -0.031,0.359 -0.035,0.453 h -0.012 c -0.183,-0.336 -0.578,-0.523 -0.937,-0.523 -0.535,0 -1.059,0.324 -1.059,0.898 0,0.457 0.215,0.719 0.52,0.867 0.297,0.149 0.687,0.176 1.016,0.176 h 0.437 c 0,0.488 -0.219,0.656 -0.684,0.656 -0.335,0 -0.671,-0.129 -0.937,-0.332 z"
         style="fill:#585e6a;fill-opacity:1;fill-rule:nonzero;stroke:none"
         id="path100" /><path
         d="m 120.723,11.709 h 0.703 v -0.687 h 0.012 c 0.035,0.281 0.359,0.757 0.828,0.757 0.078,0 0.16,0 0.242,-0.023 v -0.793 c -0.07,0.039 -0.211,0.063 -0.352,0.063 -0.644,0 -0.644,-0.797 -0.644,-1.235 V 8.678 h -0.789 z"
         style="fill:#585e6a;fill-opacity:1;fill-rule:nonzero;stroke:none"
         id="path102" /><path
         d="m 124.609,9.221 c 0.524,0 0.696,0.551 0.696,0.98 0,0.426 -0.2,0.965 -0.707,0.965 -0.512,0 -0.653,-0.555 -0.653,-0.965 0,-0.418 0.149,-0.98 0.664,-0.98 m 0.727,-0.199 h -0.012 c -0.238,-0.297 -0.558,-0.414 -0.929,-0.414 -0.93,0 -1.274,0.765 -1.274,1.593 0,0.836 0.344,1.578 1.274,1.578 0.39,0 0.667,-0.132 0.902,-0.421 h 0.015 v 1.734 h 0.79 V 8.678 h -0.766 z"
         style="fill:#585e6a;fill-opacity:1;fill-rule:nonzero;stroke:none"
         id="path104" /><path
         d="m 29.027,46.502 c -7.066,-0.851 -13.57,-0.82 -18.429,-0.086 l 1.683,-12.34 c 3.207,0.278 7.781,0.7 11.024,1.106 13.968,1.734 24.972,6.863 24.492,10.976 -0.098,0.836 -0.664,1.582 -1.613,2.227 4.285,-0.824 7.007,-2.262 7.238,-4.168 C 53.918,40.104 42.629,35.358 28.211,33.623 22.344,32.916 16.867,32.819 12.398,33.229 l 1.668,-12.254 c 2.977,0.265 6.563,0.609 9.239,0.941 13.968,1.738 24.972,6.863 24.492,10.981 -0.098,0.836 -0.664,1.582 -1.613,2.222 4.285,-0.82 7.007,-2.258 7.238,-4.164 C 53.918,26.838 42.629,22.096 28.211,20.358 23.121,19.748 18.324,19.596 14.223,19.83 L 15.676,9.186 h 5.097 c 0.856,0.078 1.723,0.168 2.606,0.273 13.965,1.738 24.898,6.481 24.418,10.598 -0.098,0.836 -0.664,1.582 -1.613,2.222 4.285,-0.82 7.007,-2.257 7.238,-4.164 C 53.801,14.963 47.258,11.44 37.695,9.186 H 53.441 V 54.877 C 50.645,51.401 40.902,47.932 29.027,46.502"
         style="fill:#127bca;fill-opacity:1;fill-rule:nonzero;stroke:none"
         id="path106" /><path
         d="M 4.375,32.385 V 9.186 h 6.742 z"
         style="fill:#0d80c8;fill-opacity:1;fill-rule:nonzero;stroke:none"
         id="path108" /><path
         d="M 21.891,59.916 C 8.859,58.74 -0.078,55.756 0.016,52.674 0.02,52.576 0.031,52.483 0.055,52.389 L 0,52.393 15.688,-0.002 8.691,49.151 c 4.11,-0.43 9.371,-0.438 15.09,0.078 13.031,1.179 23.524,4.632 23.43,7.711 -0.094,3.082 -12.285,4.156 -25.32,2.976"
         style="fill:#585e6a;fill-opacity:1;fill-rule:nonzero;stroke:none"
         id="path110" /></g></g></svg>
