<?xml version="1.0" encoding="UTF-8" standalone="no"?>
<!-- Created with Inkscape (http://www.inkscape.org/) -->

<svg
   width="22.707661mm"
   height="22.707661mm"
   viewBox="0 0 22.707661 22.707661"
   version="1.1"
   id="svg5"
   inkscape:version="1.1.2 (0a00cf5339, 2022-02-04)"
   sodipodi:docname="favicon.svg"
   xmlns:inkscape="http://www.inkscape.org/namespaces/inkscape"
   xmlns:sodipodi="http://sodipodi.sourceforge.net/DTD/sodipodi-0.dtd"
   xmlns="http://www.w3.org/2000/svg"
   xmlns:svg="http://www.w3.org/2000/svg">
  <sodipodi:namedview
     id="namedview7"
     pagecolor="#ffffff"
     bordercolor="#666666"
     borderopacity="1.0"
     inkscape:pageshadow="2"
     inkscape:pageopacity="0.0"
     inkscape:pagecheckerboard="0"
     inkscape:document-units="mm"
     showgrid="false"
     inkscape:zoom="2.7023502"
     inkscape:cx="130.07196"
     inkscape:cy="72.714484"
     inkscape:window-width="1920"
     inkscape:window-height="1016"
     inkscape:window-x="0"
     inkscape:window-y="0"
     inkscape:window-maximized="1"
     inkscape:current-layer="layer1"
     fit-margin-top="0"
     fit-margin-left="0"
     fit-margin-right="0"
     fit-margin-bottom="0"
     width="22.70766mm" />
  <defs
     id="defs2">
    <clipPath
       clipPathUnits="userSpaceOnUse"
       id="clipPath20">
      <path
         d="M 0,0 H 67 V 42 H 0 Z"
         id="path18" />
    </clipPath>
    <clipPath
       clipPathUnits="userSpaceOnUse"
       id="clipPath32">
      <path
         d="M 0,0 H 67 V 42 H 0 Z"
         id="path30" />
    </clipPath>
    <clipPath
       clipPathUnits="userSpaceOnUse"
       id="clipPath1405">
      <path
         d="M 0,0 H 467 V 407 H 0 Z"
         id="path1403" />
    </clipPath>
  </defs>
  <g
     inkscape:label="Calque 1"
     inkscape:groupmode="layer"
     id="layer1"
     transform="translate(-35.539267,-55.268408)">
    <g
       id="g851"
       transform="translate(0,0.3916344)">
      <path
         d="m 47.845178,56.088415 c -0.351367,-0.0056 -0.702734,0.0067 -1.0541,0.03704 l -0.0085,0.0014 c -0.399697,0.03845 -0.797983,0.100542 -1.190625,0.184856 0.680861,0.742597 1.134181,1.704622 1.225197,2.779183 0.06879,0.792692 -0.06773,1.556103 -0.361244,2.243667 l 3.639608,2.845505 c 0.69462,-0.540102 1.543403,-0.895702 2.478969,-0.976841 h 0.0042 c 0.172155,-0.01376 0.343253,-0.01799 0.512586,-0.01376 l 0.299155,-1.677105 c -0.740127,-0.425803 -1.269294,-1.193447 -1.347963,-2.101497 -0.06597,-0.771878 0.206727,-1.495425 0.690386,-2.031295 -1.500717,-0.819855 -3.17747,-1.262239 -4.887736,-1.291166 z m 8.801452,4.970638 c -0.412044,0.420159 -0.963083,0.709436 -1.583266,0.788106 l -0.301978,1.696508 c 1.586089,0.652992 2.770011,2.146653 2.925586,3.964517 0.220486,2.586566 -1.716969,4.887736 -4.303536,5.109633 -1.700389,0.144639 -3.272719,-0.644878 -4.216753,-1.936044 l -4.613627,1.63583 c 0.02893,1.463322 -0.620184,2.808464 -1.66617,3.716514 1.757186,0.903817 3.733095,1.2954 5.7023,1.131358 5.809897,-0.497416 10.114844,-5.610225 9.618839,-11.418358 -0.141817,-1.664758 -0.678039,-3.271661 -1.561395,-4.688064 z m -18.472502,1.03752 c -0.815975,1.695097 -1.161697,3.578577 -1.004711,5.452886 0.02222,0.26035 0.05503,0.519641 0.09807,0.777169 0.614539,-0.378883 1.320094,-0.626886 2.086328,-0.693208 l 0.0025,-0.0014 c 1.783292,-0.151342 3.430058,0.706966 4.375503,2.094794 L 48.266747,68.1199 c -0.02752,-0.595136 0.05644,-1.172633 0.238478,-1.709913 L 44.70475,63.437481 c -0.635353,0.420158 -1.382183,0.693208 -2.191103,0.763411 -1.773766,0.151342 -3.413477,-0.712611 -4.339519,-2.104319 z"
         style="fill:#95bc0f;fill-opacity:1;fill-rule:nonzero;stroke:none;stroke-width:0.352778"
         id="path938" />
      <path
         d="M 52.604855,67.123656 39.604642,71.73305 40.169439,73.329017 53.170005,68.71927 Z"
         style="fill:#000000;fill-opacity:1;fill-rule:evenodd;stroke:none;stroke-width:0.352778"
         id="path940" />
      <path
         d="m 42.276581,58.725781 -1.043164,1.334206 11.117791,8.695266 1.043164,-1.333853 z"
         style="fill:#000000;fill-opacity:1;fill-rule:evenodd;stroke:none;stroke-width:0.352778"
         id="path942" />
      <path
         d="m 54.321825,58.727192 -1.414992,7.954081 0.833614,0.148872 1.413933,-7.95408 z"
         style="fill:#000000;fill-opacity:1;fill-rule:evenodd;stroke:none;stroke-width:0.352778"
         id="path944" />
      <g
         id="g946"
         transform="matrix(0.35277777,0,0,0.35277777,34.570503,54.313394)">
        <path
           d="m 51.391,29.246 c 5.132,-0.441 9.652,3.367 10.089,8.5 0.442,5.137 -3.367,9.652 -8.5,10.094 -5.132,0.437 -9.652,-3.367 -10.093,-8.5 -0.442,-5.133 3.363,-9.652 8.496,-10.094"
           style="fill:#ffffff;fill-opacity:1;fill-rule:nonzero;stroke:#000000;stroke-width:5.29088;stroke-linecap:butt;stroke-linejoin:miter;stroke-miterlimit:1;stroke-dasharray:none;stroke-opacity:1"
           id="path948" />
      </g>
      <g
         id="g950"
         transform="matrix(0.35277777,0,0,0.35277777,34.570503,54.313394)">
        <path
           d="m 56.684,8.496 c 2.925,-0.25 5.5,1.918 5.75,4.844 0.25,2.926 -1.922,5.5 -4.844,5.75 -2.926,0.25 -5.504,-1.918 -5.754,-4.84 -0.25,-2.926 1.918,-5.504 4.844,-5.754"
           style="fill:#ffffff;fill-opacity:1;fill-rule:nonzero;stroke:#000000;stroke-width:3.015;stroke-linecap:butt;stroke-linejoin:miter;stroke-miterlimit:1;stroke-dasharray:none;stroke-opacity:1"
           id="path952" />
      </g>
      <g
         id="g954"
         transform="matrix(0.35277777,0,0,0.35277777,34.570503,54.313394)">
        <path
           d="m 20.582,5.387 c 5.133,-0.442 9.652,3.367 10.09,8.5 0.437,5.136 -3.367,9.652 -8.5,10.093 -5.133,0.438 -9.652,-3.367 -10.094,-8.5 -0.441,-5.132 3.363,-9.652 8.496,-10.093"
           style="fill:#ffffff;fill-opacity:1;fill-rule:nonzero;stroke:#000000;stroke-width:5.29088;stroke-linecap:butt;stroke-linejoin:miter;stroke-miterlimit:1;stroke-dasharray:none;stroke-opacity:1"
           id="path956" />
      </g>
      <g
         id="g958"
         transform="matrix(0.35277777,0,0,0.35277777,34.570503,54.313394)">
        <path
           d="m 13.93,42 c 5.136,-0.438 9.652,3.371 10.09,8.504 0.441,5.133 -3.364,9.652 -8.5,10.094 -5.133,0.437 -9.653,-3.368 -10.094,-8.5 -0.442,-5.133 3.363,-9.653 8.496,-10.094"
           style="fill:#ffffff;fill-opacity:1;fill-rule:nonzero;stroke:#000000;stroke-width:5.29088;stroke-linecap:butt;stroke-linejoin:miter;stroke-miterlimit:1;stroke-dasharray:none;stroke-opacity:1"
           id="path960" />
      </g>
    </g>
  </g>
</svg>
