<?xml version="1.0" encoding="UTF-8" standalone="no"?>
<!-- Generator: Adobe Illustrator 19.0.0, SVG Export Plug-In . SVG Version: 6.00 Build 0)  -->

<svg
   xmlns:dc="http://purl.org/dc/elements/1.1/"
   xmlns:cc="http://creativecommons.org/ns#"
   xmlns:rdf="http://www.w3.org/1999/02/22-rdf-syntax-ns#"
   xmlns:svg="http://www.w3.org/2000/svg"
   xmlns="http://www.w3.org/2000/svg"
   xmlns:sodipodi="http://sodipodi.sourceforge.net/DTD/sodipodi-0.dtd"
   xmlns:inkscape="http://www.inkscape.org/namespaces/inkscape"
   version="1.1"
   id="Capa_1"
   x="0px"
   y="0px"
   viewBox="0 0 490.305 490.305"
   style="enable-background:new 0 0 490.305 490.305;"
   xml:space="preserve"
   sodipodi:docname="edit_icon.svg"
   inkscape:version="0.92.5 (2060ec1f9f, 2020-04-08)"><metadata
   id="metadata41"><rdf:RDF><cc:Work
       rdf:about=""><dc:format>image/svg+xml</dc:format><dc:type
         rdf:resource="http://purl.org/dc/dcmitype/StillImage" /></cc:Work></rdf:RDF></metadata><defs
   id="defs39" /><sodipodi:namedview
   pagecolor="#ffffff"
   bordercolor="#666666"
   borderopacity="1"
   objecttolerance="10"
   gridtolerance="10"
   guidetolerance="10"
   inkscape:pageopacity="0"
   inkscape:pageshadow="2"
   inkscape:window-width="1920"
   inkscape:window-height="1016"
   id="namedview37"
   showgrid="false"
   inkscape:zoom="0.48133305"
   inkscape:cx="245.1525"
   inkscape:cy="245.1525"
   inkscape:window-x="0"
   inkscape:window-y="27"
   inkscape:window-maximized="1"
   inkscape:current-layer="Capa_1" />
<g
   id="g4"
   transform="matrix(0.73241122,0,0,0.73241122,70.79397,60.249397)">
	<path
   d="m 472.469,81.443 -63.6,-63.6 c -13.1,-16.4 -53.2,-30.2 -83.4,0 l -290.9,289.9 v 0 c -4.4,4.4 -6.5,10.1 -6.2,15.6 l -27.1,141.8 c -4.2,16.2 11.9,26.6 22.9,25 l 147,-29.2 c 4.2,0 7.3,-2.1 10.4,-5.2 l 290.9,-289.8 c 23,-23 23,-61.5 0,-84.5 z m -117.8,-35.4 c 6.3,-7.3 18.8,-7.3 26.1,0 l 17.3,17 -289.7,289.7 -30.1,-30.4 z m -292.9,318 64.4,64.4 -80.1,15.8 z m 382.6,-228.4 -276.8,276.8 -30.1,-30.4 290,-290 16.8,16.5 c 9.2,9.8 4.9,22.2 0.1,27.1 z"
   id="path2"
   inkscape:connector-curvature="0" />
</g>
<g
   id="g6">
</g>
<g
   id="g8">
</g>
<g
   id="g10">
</g>
<g
   id="g12">
</g>
<g
   id="g14">
</g>
<g
   id="g16">
</g>
<g
   id="g18">
</g>
<g
   id="g20">
</g>
<g
   id="g22">
</g>
<g
   id="g24">
</g>
<g
   id="g26">
</g>
<g
   id="g28">
</g>
<g
   id="g30">
</g>
<g
   id="g32">
</g>
<g
   id="g34">
</g>
</svg>