<?xml version="1.0" encoding="UTF-8" standalone="no"?>
<svg
   data-name="Layer 1"
   viewBox="0 0 81.279999 81.279999"
   version="1.1"
   id="svg28"
   sodipodi:docname="europe.svg"
   width="81.279999"
   height="81.279999"
   inkscape:version="1.1.2 (0a00cf5339, 2022-02-04)"
   xmlns:inkscape="http://www.inkscape.org/namespaces/inkscape"
   xmlns:sodipodi="http://sodipodi.sourceforge.net/DTD/sodipodi-0.dtd"
   xmlns="http://www.w3.org/2000/svg"
   xmlns:svg="http://www.w3.org/2000/svg">
  <defs
     id="defs32" />
  <sodipodi:namedview
     id="namedview30"
     pagecolor="#ffffff"
     bordercolor="#666666"
     borderopacity="1.0"
     inkscape:pageshadow="2"
     inkscape:pageopacity="0.0"
     inkscape:pagecheckerboard="0"
     showgrid="false"
     fit-margin-top="0"
     fit-margin-left="0"
     fit-margin-right="0"
     fit-margin-bottom="0"
     inkscape:zoom="6.0153846"
     inkscape:cx="58.433504"
     inkscape:cy="40.56266"
     inkscape:window-width="2560"
     inkscape:window-height="1403"
     inkscape:window-x="0"
     inkscape:window-y="0"
     inkscape:window-maximized="1"
     inkscape:current-layer="svg28" />
  <rect
     width="81.279999"
     height="81.279999"
     x="0"
     y="0"
     fill="#284999"
     id="rect2"
     style="stroke-width:0.796869"
     ry="11.392014" />
  <g
     id="g861"
     transform="translate(-22.76,-22.955001)">
    <polygon
       fill="#ffc943"
       points="59.47,36.81 61.63,38.92 61.12,41.9 63.79,40.49 66.47,41.9 65.96,38.92 68.12,36.81 65.13,36.38 63.79,33.67 62.46,36.38 "
       id="polygon4" />
    <polygon
       fill="#ffc943"
       points="59.47,88.43 61.63,90.54 61.12,93.52 63.79,92.11 66.47,93.52 65.96,90.54 68.12,88.43 65.13,88 63.79,85.29 62.46,88 "
       id="polygon6" />
    <polygon
       fill="#ffc943"
       points="89.27,59.18 87.88,61.86 84.89,62.24 87.01,64.39 86.45,67.35 89.15,66 91.8,67.44 91.34,64.46 93.53,62.39 90.56,61.91 "
       id="polygon8" />
    <polygon
       fill="#ffc943"
       points="37.65,59.18 36.27,61.86 33.27,62.24 35.4,64.39 34.83,67.35 37.53,65.99 40.17,67.45 39.72,64.46 41.92,62.39 38.94,61.91 "
       id="polygon10" />
    <polygon
       fill="#ffc943"
       points="73.21,41.44 75.44,43.47 75.03,46.46 77.65,44.97 80.37,46.28 79.76,43.33 81.85,41.15 78.85,40.81 77.42,38.15 76.18,40.9 "
       id="polygon12" />
    <polygon
       fill="#ffc943"
       points="45.35,83.88 47.51,85.99 47,88.97 49.67,87.56 52.34,88.97 51.83,86 54,83.89 51.01,83.45 49.68,80.75 48.34,83.45 "
       id="polygon14" />
    <polygon
       fill="#ffc943"
       points="84.72,72.02 83.47,74.77 80.5,75.29 82.72,77.33 82.3,80.32 84.93,78.83 87.64,80.16 87.04,77.2 89.14,75.03 86.14,74.68 "
       id="polygon16" />
    <polygon
       fill="#ffc943"
       points="41.1,46.03 39.74,48.73 36.75,49.13 38.89,51.26 38.36,54.23 41.04,52.85 43.7,54.28 43.22,51.3 45.4,49.21 42.41,48.75 "
       id="polygon18" />
    <polygon
       fill="#ffc943"
       points="80.32,83.54 77.32,83.17 75.93,80.48 74.65,83.22 71.67,83.71 73.87,85.77 73.42,88.76 76.06,87.3 78.76,88.66 78.19,85.69 "
       id="polygon20" />
    <polygon
       fill="#ffc943"
       points="54.51,39.95 51.54,39.4 50.32,36.64 48.87,39.29 45.87,39.6 47.94,41.8 47.31,44.75 50.04,43.45 52.65,44.96 52.26,41.97 "
       id="polygon22" />
    <polygon
       fill="#ffc943"
       points="86.59,46.96 85.22,49.65 82.23,50.04 84.37,52.18 83.82,55.15 86.51,53.78 89.16,55.21 88.69,52.23 90.88,50.15 87.9,49.68 "
       id="polygon24" />
    <polygon
       fill="#ffc943"
       points="41.27,71.17 39.85,73.84 36.85,74.18 38.95,76.35 38.35,79.31 41.07,77.99 43.69,79.47 43.27,76.48 45.5,74.44 42.52,73.92 "
       id="polygon26" />
  </g>
</svg>
