<?xml version="1.0" encoding="UTF-8" standalone="no"?>
<!-- Created with Inkscape (http://www.inkscape.org/) -->

<svg
   width="141.27151mm"
   height="141.51996mm"
   viewBox="0 0 141.27151 141.51996"
   version="1.1"
   id="svg5"
   inkscape:version="1.1.2 (0a00cf5339, 2022-02-04)"
   sodipodi:docname="hal.svg"
   xmlns:inkscape="http://www.inkscape.org/namespaces/inkscape"
   xmlns:sodipodi="http://sodipodi.sourceforge.net/DTD/sodipodi-0.dtd"
   xmlns="http://www.w3.org/2000/svg"
   xmlns:svg="http://www.w3.org/2000/svg">
  <sodipodi:namedview
     id="namedview7"
     pagecolor="#ffffff"
     bordercolor="#666666"
     borderopacity="1.0"
     inkscape:pageshadow="2"
     inkscape:pageopacity="0.0"
     inkscape:pagecheckerboard="0"
     inkscape:document-units="mm"
     showgrid="false"
     fit-margin-top="0"
     fit-margin-left="0"
     fit-margin-right="0"
     fit-margin-bottom="0"
     inkscape:zoom="0.69664703"
     inkscape:cx="48.08748"
     inkscape:cy="338.04781"
     inkscape:window-width="1920"
     inkscape:window-height="1016"
     inkscape:window-x="0"
     inkscape:window-y="0"
     inkscape:window-maximized="1"
     inkscape:current-layer="layer1" />
  <defs
     id="defs2" />
  <g
     inkscape:label="Calque 1"
     inkscape:groupmode="layer"
     id="layer1"
     transform="translate(-39.479648,-58.763352)">
    <g
       id="g854"
       transform="translate(4.6984865,4.9061849)">
      <path
         style="display:inline;fill:#fdcdbb;stroke-width:0.264583"
         d="m 98.374437,192.33441 c 0.0029,-0.58208 0.05712,-0.78905 0.120407,-0.45993 0.06329,0.32911 0.06088,0.80536 -0.0053,1.05833 -0.06622,0.25296 -0.118004,-0.0163 -0.115067,-0.5984 z m 0,-3.96875 c 0.0029,-0.58208 0.05712,-0.78905 0.120407,-0.45993 0.06329,0.32911 0.06088,0.80536 -0.0053,1.05833 -0.06622,0.25296 -0.118004,-0.0163 -0.115067,-0.5984 z m 48.611383,-10.91406 -2.50831,-2.57969 2.57968,2.50832 c 2.39599,2.3297 2.70005,2.65106 2.50832,2.65106 -0.0392,0 -1.20011,-1.16086 -2.57969,-2.57969 z m -89.986855,-0.52917 c -0.329107,-0.41964 -0.319749,-0.429 0.0999,-0.0999 0.254661,0.19972 0.463021,0.40808 0.463021,0.46302 0,0.21776 -0.217273,0.0776 -0.562917,-0.36313 z m 13.120679,-16.00729 -1.312971,-1.38906 1.389063,1.31297 c 1.290741,1.22003 1.5104,1.46515 1.312971,1.46515 -0.04185,0 -0.66693,-0.62508 -1.389063,-1.38906 z m 78.323696,-4.7625 -4.495,-4.56406 4.56406,4.495 c 2.51024,2.47224 4.56406,4.52607 4.56406,4.56406 0,0.18867 -0.45701,-0.25473 -4.63312,-4.495 z m -59.165209,-6.21771 c -0.329107,-0.41964 -0.319749,-0.429 0.0999,-0.0999 0.44073,0.34564 0.580888,0.56291 0.363125,0.56291 -0.05494,0 -0.2633,-0.20836 -0.463021,-0.46302 z m -49.770976,-1.57619 c 0.329117,-0.0633 0.805367,-0.0609 1.058333,0.005 0.252965,0.0662 -0.01633,0.11801 -0.598398,0.11507 -0.582083,-0.003 -0.789053,-0.0571 -0.459935,-0.1204 z m 72.556055,-6.09673 -4.62737,-4.69635 4.69635,4.62737 c 4.36326,4.29917 4.81593,4.76534 4.62738,4.76534 -0.0379,0 -2.1513,-2.11336 -4.69636,-4.69636 z m -12.325425,-4.6302 -0.504029,-0.59532 0.595313,0.50403 c 0.559441,0.47366 0.715761,0.6866 0.504031,0.6866 -0.0502,0 -0.3181,-0.26789 -0.595315,-0.59531 z m -63.656762,-5.14168 c 0.190995,-0.0764 0.4192,-0.067 0.507119,0.0209 0.08792,0.0879 -0.06835,0.15046 -0.347266,0.13897 -0.308226,-0.0127 -0.370919,-0.0754 -0.159853,-0.15985 z m 7.408333,0 c 0.190995,-0.0764 0.419201,-0.067 0.507119,0.0209 0.08792,0.0879 -0.06835,0.15046 -0.347266,0.13897 -0.308226,-0.0127 -0.370919,-0.0754 -0.159853,-0.15985 z m 49.757525,-1.34062 c -0.329107,-0.41964 -0.319749,-0.429 0.0999,-0.0999 0.254662,0.19972 0.463021,0.40808 0.463021,0.46302 0,0.21776 -0.217273,0.0776 -0.562917,-0.36313 z m 18.287159,-12.17083 -4.62737,-4.69635 4.69636,4.62737 c 2.58299,2.54506 4.69635,4.65841 4.69635,4.69635 0,0.18856 -0.46617,-0.26412 -4.76534,-4.62737 z m 8.43576,1.5875 c -0.32911,-0.41964 -0.31975,-0.429 0.0999,-0.0999 0.25467,0.19973 0.46302,0.40809 0.46302,0.46303 0,0.21776 -0.21727,0.0776 -0.56291,-0.36313 z m 47.07997,-2.89272 c 0.191,-0.0764 0.4192,-0.067 0.50712,0.0209 0.0879,0.0879 -0.0684,0.15045 -0.34727,0.13896 -0.30822,-0.0127 -0.37091,-0.0754 -0.15985,-0.15985 z m -56.86956,-6.89686 c -0.3291,-0.41965 -0.31974,-0.42901 0.0999,-0.0999 0.44073,0.34565 0.58089,0.56292 0.36313,0.56292 -0.055,0 -0.2633,-0.20836 -0.46303,-0.46302 z m -35.158665,-5.82084 -4.627372,-4.69635 4.696354,4.62737 c 4.363252,4.29917 4.815928,4.76534 4.627372,4.76534 -0.03794,0 -2.151298,-2.11336 -4.696354,-4.69636 z m 53.428645,1.5875 -0.64143,-0.7276 0.7276,0.64143 c 0.40018,0.35279 0.7276,0.68021 0.7276,0.72761 0,0.2075 -0.21426,0.0386 -0.81377,-0.64144 z m -4.23334,-4.23333 -0.64143,-0.7276 0.72761,0.64143 c 0.40018,0.35279 0.7276,0.68021 0.7276,0.7276 0,0.20751 -0.21426,0.0386 -0.81378,-0.64143 z m 7.6592,0 c -0.32911,-0.41964 -0.31975,-0.429 0.0999,-0.0999 0.25466,0.19973 0.46302,0.40808 0.46302,0.46303 0,0.21776 -0.21727,0.0776 -0.56291,-0.36313 z m 37.94034,-0.51408 c 0.25744,-0.0671 0.61462,-0.0627 0.79375,0.01 0.17914,0.0725 -0.0315,0.12737 -0.46805,0.12197 -0.43656,-0.005 -0.58313,-0.0647 -0.3257,-0.13177 z m -41.23902,-2.793211 -0.50403,-0.595313 0.59531,0.504029 c 0.32742,0.277215 0.59531,0.545105 0.59531,0.595313 0,0.211732 -0.21293,0.05542 -0.68659,-0.504029 z m -7.54924,-0.132292 c -0.32911,-0.419645 -0.31975,-0.429003 0.0999,-0.0999 0.44073,0.345644 0.58088,0.562917 0.36312,0.562917 -0.0549,0 -0.2633,-0.208359 -0.46302,-0.463021 z m 34.90914,-8.978135 c 0.191,-0.07643 0.4192,-0.06703 0.50712,0.02088 0.0879,0.08792 -0.0684,0.150453 -0.34727,0.138965 -0.30822,-0.0127 -0.37091,-0.07539 -0.15985,-0.159851 z m -81.444891,-8.219782 -4.627372,-4.696354 4.696354,4.627372 c 4.363251,4.299164 4.815927,4.765336 4.627372,4.765336 -0.03794,0 -2.151298,-2.113359 -4.696354,-4.696354 z m -21.95758,-4.928542 c 0,-0.05494 0.208359,-0.2633 0.46302,-0.463021 0.419645,-0.329107 0.429004,-0.319749 0.0999,0.0999 -0.345644,0.44073 -0.562917,0.580888 -0.562917,0.363125 z m 88.450121,-2.01677 c 0,-0.800365 0.0496,-1.127787 0.11022,-0.727605 0.0606,0.400183 0.0606,1.055026 0,1.455209 -0.0606,0.400182 -0.11022,0.07276 -0.11022,-0.727604 z M 56.768132,72.510555 c 0,-0.05494 0.208359,-0.2633 0.463021,-0.463021 0.419645,-0.329107 0.429003,-0.319749 0.0999,0.0999 -0.345644,0.44073 -0.562917,0.580887 -0.562917,0.363125 z m 56.662608,-9.160521 c 0,-0.363802 0.0601,-0.51263 0.13345,-0.330729 0.0734,0.181901 0.0734,0.479557 0,0.661458 -0.0734,0.181901 -0.13345,0.03307 -0.13345,-0.330729 z m 15.90529,-3.439584 c 0,-0.654843 0.0516,-0.922734 0.11466,-0.595312 0.0631,0.327422 0.0631,0.863203 0,1.190625 -0.0631,0.327422 -0.11466,0.05953 -0.11466,-0.595313 z m -15.90529,-3.439583 c 0,-0.363802 0.0601,-0.51263 0.13345,-0.330729 0.0734,0.181901 0.0734,0.479557 0,0.661458 -0.0734,0.181901 -0.13345,0.03307 -0.13345,-0.330729 z m 0.43778,-2.56199 c 0.191,-0.07643 0.4192,-0.06703 0.50712,0.02088 0.0879,0.08792 -0.0684,0.150453 -0.34726,0.138965 -0.30823,-0.0127 -0.37092,-0.07539 -0.15986,-0.159851 z"
         id="path884"
         sodipodi:nodetypes="csccccscccscssssssssscsssscsssssssscccccscsssscssssssssssssssssssscsssssssssssssssssscsssscsssscsssssssscccccscsssssssssssssscsssssssssssssssssscssscssscssscsss" />
      <path
         style="display:inline;fill:#e5aca2;stroke-width:0.264583"
         d="m 157.83896,172.52306 c 0,-0.0549 0.20836,-0.2633 0.46302,-0.46302 0.41965,-0.32911 0.42901,-0.31975 0.0999,0.0999 -0.34564,0.44073 -0.56292,0.58089 -0.56292,0.36313 z m -36.51533,-21.00063 -4.62737,-4.69635 4.69635,4.62737 c 4.36325,4.29916 4.81593,4.76534 4.62737,4.76534 -0.0379,0 -2.1513,-2.11336 -4.69635,-4.69636 z m 17.85945,-4.63021 -4.75974,-4.82864 4.82865,4.75974 c 2.65575,2.61786 4.82864,4.79075 4.82864,4.82865 0,0.18844 -0.47533,-0.27351 -4.89755,-4.75975 z m -17.3612,-24.73854 c -0.32911,-0.41964 -0.31975,-0.429 0.0999,-0.0999 0.44073,0.34564 0.58088,0.56291 0.36312,0.56291 -0.0549,0 -0.2633,-0.20836 -0.46302,-0.46302 z m -2.64583,-2.38125 c -0.32911,-0.41964 -0.31975,-0.429 0.0999,-0.0999 0.25467,0.19973 0.46302,0.40809 0.46302,0.46303 0,0.21776 -0.21727,0.0776 -0.56291,-0.36313 z m -34.894088,-5.55625 -4.627372,-4.69635 4.696354,4.62737 c 4.363252,4.29916 4.815927,4.76534 4.627372,4.76534 -0.03794,0 -2.151298,-2.11336 -4.696354,-4.69636 z m 83.545018,3.46279 c 0.18191,-0.0734 0.47956,-0.0734 0.66146,0 0.1819,0.0734 0.0331,0.13346 -0.33073,0.13346 -0.3638,0 -0.51263,-0.0601 -0.33073,-0.13346 z m 7.40834,0 c 0.1819,-0.0734 0.47956,-0.0734 0.66146,0 0.1819,0.0734 0.0331,0.13346 -0.33073,0.13346 -0.3638,0 -0.51263,-0.0601 -0.33073,-0.13346 z m -73.0939,-8.093 -4.759747,-4.82864 4.828647,4.75974 c 2.65575,2.61786 4.82864,4.79075 4.82864,4.82865 0,0.18844 -0.47533,-0.27351 -4.89754,-4.75975 z m 8.83254,1.98438 c -0.3291,-0.41965 -0.31974,-0.42901 0.0999,-0.0999 0.25466,0.19972 0.46302,0.40808 0.46302,0.46302 0,0.21776 -0.21727,0.0776 -0.56292,-0.36312 z m 18.66174,-3.83646 -0.50403,-0.59531 0.59532,0.50403 c 0.32742,0.27721 0.59531,0.5451 0.59531,0.59531 0,0.21173 -0.21294,0.0554 -0.6866,-0.50403 z m 0.6866,-6.94531 c -0.64268,-0.65485 -1.10898,-1.190629 -1.03622,-1.190629 0.0728,0 0.65812,0.535779 1.3008,1.190629 0.64268,0.65484 1.10898,1.19062 1.03622,1.19062 -0.0728,0 -0.65812,-0.53578 -1.3008,-1.19062 z m 38.29843,1.01539 c 0.18191,-0.0734 0.47956,-0.0734 0.66146,0 0.1819,0.0734 0.0331,0.13346 -0.33073,0.13346 -0.3638,0 -0.51263,-0.0601 -0.33073,-0.13346 z m -45.59961,-0.68466 -0.50403,-0.59532 0.59531,0.50403 c 0.32742,0.27722 0.59531,0.54511 0.59531,0.59531 0,0.21174 -0.21293,0.0554 -0.68659,-0.50402 z m -72.088064,-20.505213 -0.911799,-0.992188 0.992187,0.911799 c 0.545704,0.501489 0.992188,0.947973 0.992188,0.992188 0,0.202041 -0.223896,0.0117 -1.072576,-0.911799 z m 14.695517,-7.805209 -4.230233,-4.299479 4.299479,4.230233 c 3.994322,3.929988 4.41915,4.368726 4.230233,4.368726 -0.03809,0 -1.972853,-1.934766 -4.299479,-4.29948 z m -10.712524,1.521354 c 0.937477,-0.945885 1.764035,-1.719791 1.836795,-1.719791 0.07276,0 -0.634735,0.773906 -1.572212,1.719791 -0.937477,0.945886 -1.764035,1.719792 -1.836796,1.719792 -0.07276,0 0.634736,-0.773906 1.572213,-1.719792 z M 113.46103,61.762534 c 0,-0.654844 0.0516,-0.922735 0.11466,-0.595313 0.0631,0.327422 0.0631,0.863203 0,1.190625 -0.0631,0.327422 -0.11466,0.05953 -0.11466,-0.595312 z m 15.86432,0 c 0,-0.509323 0.0545,-0.717682 0.121,-0.463021 0.0666,0.254661 0.0666,0.67138 0,0.926042 -0.0666,0.254661 -0.121,0.0463 -0.121,-0.463021 z m -15.86071,-3.571875 c 0.002,-0.727604 0.0534,-0.993857 0.11418,-0.591675 0.0608,0.402183 0.0592,0.997495 -0.004,1.322917 -0.0628,0.325422 -0.11256,-0.0037 -0.11058,-0.731242 z m 15.8509,0 c 0.005,-0.436563 0.0647,-0.583126 0.13178,-0.325694 0.0671,0.257431 0.0627,0.614619 -0.01,0.79375 -0.0725,0.179131 -0.12736,-0.03149 -0.12197,-0.468056 z"
         id="path882"
         sodipodi:nodetypes="sssssscsssscsssssssssssssscssssssscsscscsssssssscsssssssscsscscsssscsssscssssssssscssscsscsccccsccc" />
      <path
         style="display:inline;fill:#a799ca;stroke-width:0.264583"
         d="m 96.935189,195.19638 c 0.190994,-0.0764 0.4192,-0.067 0.507119,0.0209 0.08792,0.0879 -0.06835,0.15045 -0.347266,0.13896 -0.308226,-0.0127 -0.370919,-0.0754 -0.159853,-0.15985 z m -14.426801,-4.97863 c 0.0021,-0.72761 0.05337,-0.99386 0.114187,-0.59168 0.06082,0.40218 0.05919,0.9975 -0.0036,1.32292 -0.0628,0.32542 -0.112559,-0.004 -0.110574,-0.73124 z m 15.871389,0.13229 c 0,-0.65485 0.0516,-0.92274 0.114662,-0.59532 0.06307,0.32743 0.06307,0.86321 0,1.19063 -0.06306,0.32742 -0.114662,0.0595 -0.114662,-0.59531 z m -0.315757,-5.44601 c 0.0127,-0.30823 0.07539,-0.37092 0.159851,-0.15985 0.07643,0.19099 0.06703,0.4192 -0.02088,0.50712 -0.08792,0.0879 -0.150452,-0.0684 -0.138964,-0.34727 z m -43.155615,-10.09826 -1.712148,-1.78594 1.785937,1.71215 c 0.982266,0.94168 1.785938,1.74535 1.785938,1.78593 0,0.19474 -0.269409,-0.0533 -1.859727,-1.71214 z m 15.638949,-1.80799 c 0.0127,-0.30823 0.07539,-0.37092 0.159851,-0.15985 0.07643,0.19099 0.06703,0.4192 -0.02088,0.50712 -0.08792,0.0879 -0.150453,-0.0684 -0.138965,-0.34727 z m -4.287972,-8.24618 c -0.329108,-0.41965 -0.319749,-0.429 0.0999,-0.0999 0.254661,0.19972 0.46302,0.40808 0.46302,0.46302 0,0.21777 -0.217273,0.0776 -0.562916,-0.36312 z m 5.556249,-2.11667 c -0.329107,-0.41964 -0.319749,-0.429 0.0999,-0.0999 0.254661,0.19972 0.46302,0.40808 0.46302,0.46302 0,0.21776 -0.217273,0.0776 -0.562917,-0.36313 z m -18.288645,-2.09346 c 0.181901,-0.0734 0.479557,-0.0734 0.661458,0 0.181901,0.0734 0.03307,0.13346 -0.330729,0.13346 -0.363802,0 -0.51263,-0.0601 -0.330729,-0.13346 z m 3.985286,-0.006 c 0.190995,-0.0764 0.419201,-0.067 0.507119,0.0209 0.08792,0.0879 -0.06835,0.15045 -0.347265,0.13896 -0.308227,-0.0127 -0.37092,-0.0754 -0.159854,-0.15985 z m 10.863776,-1.34062 c -0.329107,-0.41965 -0.319749,-0.429 0.0999,-0.0999 0.254662,0.19972 0.463021,0.40808 0.463021,0.46302 0,0.21777 -0.217273,0.0776 -0.562917,-0.36312 z m 15.345833,-7.14375 c -0.329107,-0.41965 -0.319749,-0.429 0.0999,-0.0999 0.44073,0.34565 0.580888,0.56292 0.363125,0.56292 -0.05494,0 -0.2633,-0.20836 -0.463021,-0.46302 z m 6.35,-1.32292 c -0.329107,-0.41964 -0.319749,-0.429 0.0999,-0.0999 0.254662,0.19972 0.463021,0.40808 0.463021,0.46302 0,0.21776 -0.217273,0.0776 -0.562917,-0.36313 z m -51.609608,-2.36355 c 0.190994,-0.0764 0.4192,-0.067 0.507119,0.0209 0.08792,0.0879 -0.06835,0.15045 -0.347266,0.13896 -0.308226,-0.0127 -0.370919,-0.0754 -0.159853,-0.15985 z m 2.761588,-0.002 c 0.254662,-0.0666 0.67138,-0.0666 0.926042,0 0.254661,0.0666 0.0463,0.121 -0.463021,0.121 -0.509323,0 -0.717682,-0.0545 -0.463021,-0.121 z m 37.73552,-1.07444 c -0.329107,-0.41965 -0.319749,-0.42901 0.0999,-0.0999 0.254662,0.19972 0.463021,0.40808 0.463021,0.46302 0,0.21777 -0.217273,0.0776 -0.562917,-0.36312 z m 6.376107,-1.5875 -1.712148,-1.78594 1.785937,1.71215 c 0.982266,0.94168 1.785938,1.74535 1.785938,1.78594 0,0.19473 -0.269409,-0.0533 -1.859727,-1.71215 z m -5.05319,-4.7625 c -0.329107,-0.41965 -0.319749,-0.42901 0.0999,-0.0999 0.44073,0.34565 0.580888,0.56292 0.363125,0.56292 -0.05494,0 -0.2633,-0.20836 -0.463021,-0.46302 z m 21.695832,-0.79375 c -0.32911,-0.41965 -0.31975,-0.42901 0.0999,-0.0999 0.25466,0.19972 0.46302,0.40808 0.46302,0.46302 0,0.21777 -0.21728,0.0776 -0.56292,-0.36312 z m -3.684658,-3.96875 -0.911799,-0.99219 0.992188,0.9118 c 0.923506,0.84868 1.11384,1.07258 0.911799,1.07258 -0.04421,0 -0.490699,-0.44649 -0.992188,-0.99219 z m -3.570081,-3.57188 -1.045885,-1.12448 1.12448,1.04589 c 0.618463,0.57523 1.124479,1.08125 1.124479,1.12448 0,0.20018 -0.230413,-1.3e-4 -1.203074,-1.04589 z M 37.12282,132.48414 c 0.327421,-0.0631 0.863203,-0.0631 1.190625,0 0.327421,0.0631 0.05953,0.11467 -0.595313,0.11467 -0.654844,0 -0.922734,-0.0516 -0.595312,-0.11467 z m 4.497916,0 c 0.327422,-0.0631 0.863203,-0.0631 1.190625,0 0.327422,0.0631 0.05953,0.11467 -0.595312,0.11467 -0.654844,0 -0.922735,-0.0516 -0.595313,-0.11467 z m 49.244895,-3.45129 c -0.329107,-0.41965 -0.319749,-0.42901 0.0999,-0.0999 0.44073,0.34565 0.580888,0.56292 0.363125,0.56292 -0.05494,0 -0.2633,-0.20836 -0.463021,-0.46302 z"
         id="path880" />
      <path
         style="display:inline;fill:#fb9975;stroke-width:0.264583"
         d="m 141.4348,89.411493 c -0.64268,-0.654844 -1.10898,-1.190625 -1.03622,-1.190625 0.0728,0 0.65812,0.535781 1.3008,1.190625 0.64268,0.654844 1.10898,1.190625 1.03622,1.190625 -0.0728,0 -0.65812,-0.535781 -1.3008,-1.190625 z m 16.10583,-13.03073 c -0.32911,-0.419645 -0.31975,-0.429003 0.0999,-0.0999 0.44073,0.345644 0.58088,0.562917 0.36312,0.562917 -0.0549,0 -0.2633,-0.208359 -0.46302,-0.463021 z m -4.09243,-4.101041 -0.50403,-0.595313 0.59531,0.504029 c 0.32743,0.277214 0.59532,0.545105 0.59532,0.595312 0,0.211733 -0.21294,0.05542 -0.6866,-0.504028 z"
         id="path878"
         sodipodi:nodetypes="ssssssssssscsss" />
      <path
         style="display:inline;fill:#f1744b;stroke-width:0.264583"
         d="m 169.41757,117.66707 c 0.32912,-0.0633 0.80537,-0.0609 1.05833,0.005 0.25297,0.0662 -0.0163,0.118 -0.59839,0.11506 -0.58209,-0.003 -0.78906,-0.0571 -0.45994,-0.1204 z m 4.23333,0 c 0.32912,-0.0633 0.80537,-0.0609 1.05834,0.005 0.25296,0.0662 -0.0163,0.118 -0.5984,0.11506 -0.58208,-0.003 -0.78905,-0.0571 -0.45994,-0.1204 z m -5.80738,-15.86861 c 0.191,-0.0764 0.4192,-0.067 0.50712,0.0209 0.0879,0.0879 -0.0684,0.15045 -0.34727,0.13896 -0.30822,-0.0127 -0.37091,-0.0754 -0.15985,-0.15985 z M 127.9073,98.076597 c -0.32911,-0.419645 -0.31975,-0.429003 0.0999,-0.0999 0.25466,0.199721 0.46302,0.40808 0.46302,0.463021 0,0.217763 -0.21727,0.0776 -0.56291,-0.363125 z m 15.08125,-7.14375 c -0.32911,-0.419645 -0.31975,-0.429003 0.0999,-0.0999 0.44073,0.345644 0.58089,0.562917 0.36313,0.562917 -0.0549,0 -0.2633,-0.208359 -0.46302,-0.463021 z m -3.175,-3.175 c -0.32911,-0.419645 -0.31975,-0.429003 0.0999,-0.0999 0.25466,0.199721 0.46302,0.40808 0.46302,0.463021 0,0.217762 -0.21727,0.07761 -0.56291,-0.363125 z m 5.55625,-2.38125 c -0.32911,-0.419645 -0.31975,-0.429003 0.0999,-0.0999 0.25466,0.199721 0.46302,0.40808 0.46302,0.463021 0,0.217762 -0.21727,0.07761 -0.56291,-0.363125 z m 10.21192,-10.980209 -1.57921,-1.653646 1.65364,1.579219 c 1.5361,1.466959 1.77472,1.728073 1.57922,1.728073 -0.0409,0 -0.78508,-0.74414 -1.65365,-1.653646 z M 129.28485,62.931111 c 0.0127,-0.308226 0.0754,-0.370919 0.15985,-0.159853 0.0764,0.190995 0.067,0.4192 -0.0209,0.507119 -0.0879,0.08792 -0.15045,-0.06835 -0.13897,-0.347266 z M 113.43074,59.91045 c 0,-0.363802 0.0601,-0.51263 0.13345,-0.330729 0.0734,0.181901 0.0734,0.479558 0,0.661459 -0.0734,0.181901 -0.13345,0.03307 -0.13345,-0.33073 z m 0.2437,-5.181422 c 0.0127,-0.308227 0.0754,-0.37092 0.15985,-0.159854 0.0764,0.190995 0.067,0.419201 -0.0209,0.507119 -0.0879,0.08792 -0.15045,-0.06835 -0.13896,-0.347265 z"
         id="path876"
         sodipodi:nodetypes="ccccccccccsssssssssssssssssssssssssscssscssccscssscsss" />
      <path
         style="display:inline;fill:#996e98;stroke-width:0.264583"
         d="m 97.665227,195.17868 c 0.131702,-0.10914 0.328316,-0.3175 0.43692,-0.46302 0.112688,-0.15099 0.199204,-0.0658 0.201517,0.19844 0.0024,0.25738 -0.191794,0.46302 -0.436922,0.46302 -0.242533,0 -0.333217,-0.0893 -0.201515,-0.19844 z m -15.180932,-6.81302 c 0.0054,-0.43656 0.06469,-0.58312 0.131774,-0.32569 0.06708,0.25743 0.06267,0.61462 -0.0098,0.79375 -0.07248,0.17913 -0.127362,-0.0315 -0.12197,-0.46806 z m 15.579725,-2.66788 c 0.0127,-0.30823 0.07539,-0.37092 0.159851,-0.15985 0.07643,0.19099 0.06703,0.4192 -0.02088,0.50712 -0.08792,0.0879 -0.150452,-0.0684 -0.138964,-0.34727 z m 55.27703,-8.67681 c 0,-0.0549 0.20836,-0.2633 0.46302,-0.46302 0.41964,-0.3291 0.429,-0.31975 0.0999,0.0999 -0.34564,0.44073 -0.56291,0.58089 -0.56291,0.36312 z m 3.70416,-3.70416 c 0,-0.0549 0.20836,-0.2633 0.46302,-0.46302 0.41965,-0.32911 0.42901,-0.31975 0.0999,0.0999 -0.34564,0.44073 -0.56292,0.58089 -0.56292,0.36313 z m -26.46117,-12.53396 -4.62737,-4.69636 4.69636,4.62738 c 4.36325,4.29916 4.81592,4.76533 4.62737,4.76533 -0.0379,0 -2.1513,-2.11336 -4.69636,-4.69635 z m -75.464815,-0.2579 c 0.475549,-0.0589 1.189924,-0.0577 1.5875,0.003 0.397576,0.0604 0.0085,0.10855 -0.864635,0.10707 -0.873125,-0.002 -1.198414,-0.0509 -0.722865,-0.10977 z m 35.746406,-9.00252 c -0.329107,-0.41964 -0.319749,-0.429 0.0999,-0.0999 0.254662,0.19972 0.463021,0.40808 0.463021,0.46302 0,0.21776 -0.217273,0.0776 -0.562917,-0.36313 z m -7.9375,-0.26458 c -0.329107,-0.41965 -0.319749,-0.429 0.0999,-0.0999 0.254662,0.19972 0.463021,0.40808 0.463021,0.46302 0,0.21777 -0.217273,0.0776 -0.562917,-0.36312 z m 5.180677,-2.77813 -1.045885,-1.12448 1.124479,1.04589 c 0.618464,0.57523 1.124479,1.08125 1.124479,1.12448 0,0.20018 -0.230412,-1.3e-4 -1.203073,-1.04589 z m -45.413202,-0.11459 c 0.190995,-0.0764 0.419201,-0.067 0.507119,0.0209 0.08792,0.0879 -0.06835,0.15045 -0.347266,0.13896 -0.308226,-0.0127 -0.370919,-0.0754 -0.159853,-0.15985 z m 39.856952,-5.44166 -1.045885,-1.12448 1.124479,1.04589 c 0.618464,0.57523 1.12448,1.08125 1.12448,1.12448 0,0.20018 -0.230413,-1.3e-4 -1.203074,-1.04589 z m 20.624812,-1.32291 -0.50403,-0.59532 0.59531,0.50403 c 0.55945,0.47367 0.71576,0.6866 0.50403,0.6866 -0.0502,0 -0.3181,-0.26789 -0.59531,-0.59531 z m 26.61292,-4.10105 -4.62737,-4.69635 4.69636,4.62737 c 2.58299,2.54506 4.69635,4.65842 4.69635,4.69636 0,0.18855 -0.46617,-0.26412 -4.76534,-4.62738 z m -50.425421,2.51355 -0.504029,-0.59532 0.595312,0.50403 c 0.559446,0.47367 0.715762,0.6866 0.504029,0.6866 -0.05021,0 -0.318098,-0.26789 -0.595312,-0.59531 z m 21.568651,-0.92605 -0.64143,-0.7276 0.7276,0.64143 c 0.40019,0.35279 0.72761,0.68021 0.72761,0.72761 0,0.2075 -0.21426,0.0386 -0.81378,-0.64144 z m -23.561639,-0.79375 c -0.329107,-0.41964 -0.319749,-0.429 0.0999,-0.0999 0.44073,0.34564 0.580888,0.56292 0.363125,0.56292 -0.05494,0 -0.2633,-0.20836 -0.463021,-0.46303 z m 19.199397,-3.83645 -0.777105,-0.8599 0.859896,0.77711 c 0.801545,0.72437 0.981511,0.94268 0.777105,0.94268 -0.04554,0 -0.432488,-0.38695 -0.859896,-0.85989 z m -51.229839,-1.7021 c 0.190995,-0.0764 0.419201,-0.067 0.507119,0.0209 0.08792,0.0879 -0.06835,0.15045 -0.347265,0.13896 -0.308227,-0.0127 -0.37092,-0.0754 -0.159854,-0.15985 z m -5.966023,-0.2737 c 0.402182,-0.0608 0.997495,-0.0592 1.322917,0.004 0.325421,0.0628 -0.0037,0.11256 -0.731243,0.11057 -0.727604,-0.002 -0.993857,-0.0534 -0.591674,-0.11418 z m 52.562272,-2.38983 -0.641432,-0.7276 0.727605,0.64143 c 0.680056,0.59952 0.848939,0.81378 0.641432,0.81378 -0.04739,0 -0.374814,-0.32743 -0.727605,-0.72761 z m -2.659557,-2.38125 c -0.329107,-0.41964 -0.319749,-0.429 0.0999,-0.0999 0.44073,0.34564 0.580888,0.56291 0.363125,0.56291 -0.05494,0 -0.2633,-0.20836 -0.463021,-0.46302 z m 4.264247,-4.23333 -4.627372,-4.69636 4.696355,4.62738 c 2.582994,2.54505 4.696354,4.65841 4.696354,4.69635 0,0.18856 -0.466172,-0.26412 -4.765337,-4.62737 z m -6.11633,2.64583 c -0.329107,-0.41964 -0.319749,-0.429 0.0999,-0.0999 0.254661,0.19972 0.463021,0.40808 0.463021,0.46302 0,0.21776 -0.217273,0.0776 -0.562917,-0.36313 z m 30.832572,-7.27604 -0.50403,-0.59531 0.59531,0.50403 c 0.55945,0.47366 0.71576,0.68659 0.50403,0.68659 -0.0502,0 -0.3181,-0.26789 -0.59531,-0.59531 z m -6.35,-6.35 -0.50403,-0.59531 0.59531,0.50403 c 0.32742,0.27721 0.59531,0.5451 0.59531,0.59531 0,0.21173 -0.21293,0.0554 -0.68659,-0.50403 z m -19.159992,-12.30313 -4.627372,-4.69635 4.696355,4.62737 c 4.363251,4.29917 4.815927,4.76534 4.627372,4.76534 -0.03794,0 -2.151298,-2.11336 -4.696355,-4.69636 z M 56.500712,86.170347 51.87334,81.473993 l 4.696354,4.627372 c 4.363252,4.299164 4.815928,4.765336 4.627372,4.765336 -0.03794,0 -2.151298,-2.113359 -4.696354,-4.696354 z"
         id="path874" />
      <path
         style="display:inline;fill:#a4565f;stroke-width:0.264583"
         d="m 155.45771,174.87191 c 0.79043,-0.80036 1.49667,-1.45521 1.56943,-1.45521 0.0728,0 -0.51442,0.65485 -1.30484,1.45521 -0.79042,0.80037 -1.49667,1.45521 -1.56943,1.45521 -0.0728,0 0.51442,-0.65484 1.30484,-1.45521 z m -15.61325,-4.82864 -4.62737,-4.69636 4.69635,4.62737 c 4.36326,4.29917 4.81593,4.76534 4.62738,4.76534 -0.0379,0 -2.1513,-2.11336 -4.69636,-4.69635 z m 17.06846,-5.09323 c -2.17917,-2.18282 -3.9026,-3.96875 -3.82984,-3.96875 0.0728,0 1.91525,1.78593 4.09443,3.96875 2.17917,2.18281 3.9026,3.96875 3.82984,3.96875 -0.0728,0 -1.91525,-1.78594 -4.09443,-3.96875 z m -54.11013,-32.21303 -4.627367,-4.69635 4.696357,4.62737 c 4.36325,4.29917 4.81592,4.76534 4.62737,4.76534 -0.0379,0 -2.1513,-2.11336 -4.69636,-4.69636 z m 17.72709,-4.49791 -4.62737,-4.69636 4.69635,4.62738 c 4.36325,4.29916 4.81593,4.76533 4.62737,4.76533 -0.0379,0 -2.1513,-2.11336 -4.69635,-4.69635 z m 0.23367,-7.14375 c -0.32911,-0.41965 -0.31975,-0.42901 0.0999,-0.0999 0.25467,0.19972 0.46302,0.40808 0.46302,0.46302 0,0.21777 -0.21727,0.0776 -0.56291,-0.36312 z m -4.19959,-3.90261 c -0.64268,-0.65484 -1.10898,-1.19062 -1.03621,-1.19062 0.0728,0 0.65812,0.53578 1.3008,1.19062 0.64268,0.65485 1.10898,1.19063 1.03622,1.19063 -0.0728,0 -0.65812,-0.53578 -1.30081,-1.19063 z m -2.91041,-2.91041 c -0.64268,-0.65485 -1.10898,-1.19063 -1.03622,-1.19063 0.0728,0 0.65812,0.53578 1.3008,1.19063 0.64268,0.65484 1.10898,1.19062 1.03622,1.19062 -0.0728,0 -0.65812,-0.53578 -1.3008,-1.19062 z m -4.0025,-4.29948 c -0.32911,-0.41965 -0.31975,-0.42901 0.0999,-0.0999 0.25467,0.19972 0.46302,0.40808 0.46302,0.46302 0,0.21776 -0.21727,0.0776 -0.56291,-0.36312 z m 21.43125,-0.79375 c -0.32911,-0.41965 -0.31975,-0.42901 0.0999,-0.0999 0.44073,0.34565 0.58089,0.56292 0.36313,0.56292 -0.0549,0 -0.2633,-0.20836 -0.46302,-0.46302 z m -4.87099,-4.63021 -1.31297,-1.38906 1.38906,1.31297 c 1.29074,1.22003 1.5104,1.46515 1.31297,1.46515 -0.0418,0 -0.66693,-0.62508 -1.38906,-1.38906 z m -60.450181,-9.128126 -4.627372,-4.696354 4.696354,4.627372 c 4.363252,4.299164 4.815927,4.765338 4.627372,4.765338 -0.03794,0 -2.151298,-2.113361 -4.696354,-4.696356 z m 55.796171,4.233333 c -0.32911,-0.419645 -0.31975,-0.429003 0.0999,-0.0999 0.44073,0.345644 0.58089,0.562923 0.36313,0.562923 -0.0549,0 -0.2633,-0.208365 -0.46302,-0.463027 z m -38.069088,-8.73125 -4.627372,-4.696354 4.696354,4.627372 c 4.363252,4.299164 4.815927,4.765336 4.627372,4.765336 -0.03794,0 -2.151298,-2.113359 -4.696354,-4.696354 z M 52.005632,77.537638 c 0,-0.05494 0.208359,-0.2633 0.463021,-0.463021 0.419645,-0.329107 0.429003,-0.319749 0.0999,0.0999 -0.345644,0.44073 -0.562917,0.580888 -0.562917,0.363125 z"
         id="path872" />
      <path
         style="display:inline;fill:#fd4501;stroke-width:0.264583"
         d="m 153.40735,89.532058 c -1.79399,-0.320926 -4.21438,-1.309656 -5.68808,-2.323587 -1.58878,-1.093112 -3.88055,-3.623542 -4.7689,-5.265526 -1.53124,-2.830285 -2.10448,-6.678469 -1.49136,-10.011505 0.31143,-1.692968 1.67877,-4.870413 2.54988,-5.925471 l 0.53779,-0.651354 1.15604,0.756611 c 5.92421,3.877331 13.91706,11.894034 18.22767,18.282087 1.51661,2.247527 1.51147,2.294802 -0.36929,3.397004 -2.66664,1.562756 -6.99951,2.306002 -10.15375,1.741741 z"
         id="path870"
         sodipodi:nodetypes="ssssscssss" />
      <path
         style="display:inline;fill:#cc3b1a;stroke-width:0.264583"
         d="m 168.02542,117.59454 c -14.30904,-0.97276 -27.29598,-6.81727 -37.32822,-16.79881 -9.62386,-9.575231 -15.22847,-21.160253 -16.78294,-34.691214 -0.30609,-2.664302 -0.27748,-11.558686 0.0382,-11.873347 0.40407,-0.402783 7.86886,1.10757 12.56182,2.541638 l 2.67426,0.817195 0.15563,3.739912 c 0.27765,6.671813 1.59894,11.755445 4.579,17.617572 5.11465,10.061113 13.85979,17.451073 24.84186,20.992273 3.92937,1.267041 6.77241,1.787511 10.72443,1.963321 l 3.31609,0.14751 0.70454,2.4117 c 0.38749,1.32644 0.94123,3.48327 1.23053,4.79295 0.54182,2.45291 1.43332,8.0867 1.29833,8.20471 -0.24415,0.21342 -5.54445,0.30244 -8.01351,0.13459 z"
         id="path868" />
      <path
         style="display:inline;fill:#843a51;stroke-width:0.264583"
         d="m 147.11838,177.31931 -2.64087,-2.71198 2.71197,2.64087 c 2.5189,2.45285 2.83227,2.78309 2.64087,2.78309 -0.0391,0 -1.2595,-1.22039 -2.71197,-2.71198 z m 1.19275,-21.03438 -4.62737,-4.69635 4.69635,4.62737 c 4.36325,4.29916 4.81593,4.76534 4.62737,4.76534 -0.0379,0 -2.1513,-2.11336 -4.69635,-4.69636 z m -36.24792,-14.2875 -4.62737,-4.69635 4.69635,4.62737 c 2.583,2.54506 4.69636,4.65842 4.69636,4.69635 0,0.18856 -0.46617,-0.26412 -4.76534,-4.62737 z m -0.79375,-23.01875 -4.62737,-4.69635 4.69635,4.62737 c 2.583,2.54506 4.69636,4.65841 4.69636,4.69635 0,0.18856 -0.46617,-0.26412 -4.76534,-4.62737 z m -36.247915,-14.2875 -4.627372,-4.696354 4.696354,4.627374 c 4.363252,4.29916 4.815928,4.76533 4.627372,4.76533 -0.03794,0 -2.151298,-2.11335 -4.696354,-4.69635 z m -0.79375,-23.01875 -4.627372,-4.696354 4.696354,4.627372 c 4.363252,4.299164 4.815928,4.765336 4.627372,4.765336 -0.03794,0 -2.151298,-2.113359 -4.696354,-4.696354 z M 52.799382,76.743888 c 0,-0.05494 0.208359,-0.2633 0.463021,-0.463021 0.419645,-0.329107 0.429003,-0.319749 0.0999,0.0999 -0.345644,0.44073 -0.562917,0.580888 -0.562917,0.363125 z m 4.233333,-4.233333 c 0,-0.05494 0.20836,-0.2633 0.463021,-0.463021 0.419645,-0.329107 0.429003,-0.319749 0.0999,0.0999 -0.345644,0.44073 -0.562917,0.580887 -0.562917,0.363125 z"
         id="path866" />
      <path
         style="display:inline;fill:#a43131;stroke-width:0.264583"
         d="M 167.21761,148.96001 C 129.21911,134.77377 99.525822,106.25403 84.389571,69.405526 83.348192,66.870336 80.316048,58.521965 80.316048,58.189931 c 0,-0.05698 1.458516,-0.575744 3.241146,-1.152803 3.294877,-1.066593 8.252195,-2.258039 10.649479,-2.559502 l 1.322917,-0.16636 0.889952,2.601154 c 10.737568,31.383791 34.630518,58.06647 65.018308,72.60981 3.61369,1.72948 11.65255,5.03783 13.13851,5.40708 0.40156,0.0998 0.79367,0.28428 0.87136,0.40999 0.32047,0.51853 -1.40637,7.96754 -2.75488,11.88365 -1.05227,3.05583 -1.10894,3.17856 -1.45458,3.15011 -0.16633,-0.0137 -1.97562,-0.64957 -4.02065,-1.41305 z"
         id="path864" />
      <path
         style="display:inline;fill:#63276d;stroke-width:0.264583"
         d="m 115.94854,194.65763 c -0.0701,-0.1136 -0.68227,-1.73708 -1.36029,-3.60774 -4.79266,-13.22279 -12.08142,-25.79298 -21.591342,-37.23639 -3.262746,-3.92611 -11.505861,-12.22242 -15.194401,-15.29246 -8.602853,-7.16031 -17.455692,-12.90273 -26.9875,-17.50553 -3.985122,-1.92437 -11.262286,-4.93077 -14.353646,-5.92989 -0.763984,-0.24692 -1.388028,-0.58821 -1.386763,-0.75841 0.0088,-1.18012 1.767956,-8.63573 2.701031,-11.44725 0.989015,-2.980058 1.20043,-3.402746 1.662295,-3.323461 0.855186,0.146802 6.854669,2.348641 10.715625,3.932681 31.667163,12.99214 58.185091,37.7684 73.285651,68.47231 4.22775,8.59628 8.06681,18.50005 7.35212,18.96658 -1.62032,1.05772 -14.49507,4.29277 -14.84278,3.72956 z m -34.716396,-45.11957 -1.312971,-1.38907 1.389063,1.31298 c 1.29074,1.22003 1.5104,1.46515 1.312971,1.46515 -0.04185,0 -0.66693,-0.62508 -1.389063,-1.38906 z"
         id="path862" />
      <path
         style="display:inline;fill:#7c2c45;stroke-width:0.264583"
         d="M 100.11659,129.86476 C 72.855201,102.41869 50.518295,79.879023 50.479026,79.776606 50.261298,79.20876 59.363184,70.115702 61.192939,69.073085 c 0.307237,-0.175069 1.082,0.457505 3.240577,2.645834 3.985053,4.039984 78.254964,78.905971 88.205734,88.913661 l 8.20334,8.25025 -1.03788,1.27475 c -2.44743,3.00601 -9.25881,9.60912 -9.9122,9.60912 -0.11536,0 -22.51452,-22.45587 -49.77592,-49.90194 z"
         id="path860" />
      <path
         style="display:inline;fill:#401388;stroke-width:0.264583"
         d="m 92.619173,194.45926 c -3.045383,-0.58514 -6.059273,-1.31615 -8.598958,-2.08565 l -1.190625,-0.36074 -0.185206,-3.01423 C 81.922897,177.25645 77.769254,168.10203 69.567049,160.17686 62.139869,153.00054 52.464557,148.8703 41.915212,148.37272 l -3.608128,-0.17019 -0.862743,-2.80489 c -0.851278,-2.76763 -2.124535,-8.60371 -2.480392,-11.3691 l -0.182787,-1.42046 6.032547,0.13006 c 4.519145,0.0974 6.829068,0.27155 9.207548,0.69408 12.665363,2.24996 23.23062,7.89563 32.298124,17.2589 8.734287,9.01919 14.124773,20.40097 15.586585,32.91042 0.400698,3.42897 0.537562,9.78663 0.234984,10.91568 -0.207629,0.77478 -1.244385,0.76389 -5.521777,-0.058 z"
         id="path858" />
      <path
         style="display:inline;fill:#1f1f8b;stroke-width:0.264583"
         d="M 65.315933,183.26053 C 58.485907,178.5048 52.788431,172.97569 47.947392,166.40524 l -1.754481,-2.38125 0.591256,-0.47274 c 0.94978,-0.7594 3.384783,-1.9466 4.938758,-2.40792 1.850398,-0.54933 6.007975,-0.56039 8.076922,-0.0215 3.816482,0.99407 7.486689,3.99461 9.23735,7.55191 1.028972,2.09084 1.744662,4.90478 1.744662,6.85963 0,2.65683 -1.420622,7.0525 -2.7966,8.6532 l -0.501502,0.58342 z"
         id="path856" />
    </g>
  </g>
</svg>
