<?xml version="1.0" encoding="UTF-8" standalone="no"?>
<svg
   xmlns:dc="http://purl.org/dc/elements/1.1/"
   xmlns:cc="http://creativecommons.org/ns#"
   xmlns:rdf="http://www.w3.org/1999/02/22-rdf-syntax-ns#"
   xmlns:svg="http://www.w3.org/2000/svg"
   xmlns="http://www.w3.org/2000/svg"
   xmlns:sodipodi="http://sodipodi.sourceforge.net/DTD/sodipodi-0.dtd"
   xmlns:inkscape="http://www.inkscape.org/namespaces/inkscape"
   viewBox="0 0 32 32"
   version="1.1"
   id="svg4"
   sodipodi:docname="bibtex_file.svg"
   inkscape:version="0.92.5 (2060ec1f9f, 2020-04-08)">
  <metadata
     id="metadata10">
    <rdf:RDF>
      <cc:Work
         rdf:about="">
        <dc:format>image/svg+xml</dc:format>
        <dc:type
           rdf:resource="http://purl.org/dc/dcmitype/StillImage" />
      </cc:Work>
    </rdf:RDF>
  </metadata>
  <defs
     id="defs8" />
  <sodipodi:namedview
     pagecolor="#ffffff"
     bordercolor="#666666"
     borderopacity="1"
     objecttolerance="10"
     gridtolerance="10"
     guidetolerance="10"
     inkscape:pageopacity="0"
     inkscape:pageshadow="2"
     inkscape:window-width="1920"
     inkscape:window-height="1016"
     id="namedview6"
     showgrid="false"
     inkscape:zoom="14.75"
     inkscape:cx="10.508475"
     inkscape:cy="10.576271"
     inkscape:window-x="0"
     inkscape:window-y="27"
     inkscape:window-maximized="1"
     inkscape:current-layer="svg4" />
  <path
     style="line-height:normal;-inkscape-font-specification:'Bitstream Vera Sans';text-indent:0;text-align:start;text-transform:none"
     d="m 6,3 v 1 6 H 8 V 5 h 16 v 5 h 2 V 4 3 H 25 7 Z m 0,19 v 6 1 h 1 18 1 v -1 -6 h -2 v 5 H 8 v -5 z"
     id="path2"
     inkscape:connector-curvature="0"
     sodipodi:nodetypes="cccccccccccccccccccccccccc"
     sodipodi:insensitive="true" />
  <g
     aria-label="BibTeX"
     style="font-style:normal;font-weight:normal;font-size:10.66666698px;line-height:1.25;font-family:sans-serif;letter-spacing:0px;word-spacing:0px;fill:#000000;fill-opacity:1;stroke:none"
     id="text819">
    <path
       d="M 0.69153865,13.120895 H 4.0040386 q 0.828125,0 1.2695313,0.410157 0.4453125,0.410156 0.4453125,1.015625 0,0.507812 -0.3164063,0.871093 -0.2109375,0.242188 -0.6171875,0.382813 0.6171875,0.148437 0.90625,0.511719 0.2929688,0.359375 0.2929688,0.90625 0,0.445312 -0.2070313,0.800781 -0.2070312,0.355469 -0.5664062,0.5625 -0.2226563,0.128906 -0.671875,0.1875 -0.5976563,0.07813 -0.7929688,0.07813 H 0.69153865 Z m 1.78515625,2.246094 h 0.7695312 q 0.4140625,0 0.5742188,-0.140625 0.1640625,-0.144531 0.1640625,-0.414062 0,-0.25 -0.1640625,-0.390625 -0.1601563,-0.140625 -0.5625,-0.140625 h -0.78125 z m 0,2.25 h 0.9023437 q 0.4570313,0 0.6445313,-0.160156 0.1875,-0.164063 0.1875,-0.4375 0,-0.253906 -0.1875,-0.40625 -0.1835938,-0.15625 -0.6484375,-0.15625 H 2.4766949 Z"
       style="font-style:normal;font-variant:normal;font-weight:bold;font-stretch:normal;font-size:8px;font-family:'Arial Black';-inkscape-font-specification:'Arial Black,  Bold'"
       id="path821" />
    <path
       d="m 6.8634136,13.120895 h 1.5898438 v 1.082032 H 6.8634136 Z m 0,1.578125 h 1.5898438 v 4.148438 H 6.8634136 Z"
       style="font-style:normal;font-variant:normal;font-weight:bold;font-stretch:normal;font-size:8px;font-family:'Arial Black';-inkscape-font-specification:'Arial Black,  Bold'"
       id="path823" />
    <path
       d="m 9.4766949,13.120895 h 1.6054691 v 1.984375 q 0.238281,-0.25 0.539062,-0.375 0.304688,-0.125 0.671875,-0.125 0.757813,0 1.253906,0.546875 0.496094,0.542969 0.496094,1.5625 0,0.679688 -0.226562,1.199219 -0.226563,0.515625 -0.628907,0.773438 -0.398437,0.253906 -0.886718,0.253906 -0.417969,0 -0.765625,-0.179688 -0.261719,-0.140625 -0.570313,-0.527343 v 0.613281 H 9.4766949 Z m 1.5937501,3.640625 q 0,0.535157 0.199219,0.777344 0.203125,0.238281 0.511718,0.238281 0.285157,0 0.476563,-0.234375 0.195312,-0.238281 0.195312,-0.796875 0,-0.492187 -0.191406,-0.722656 -0.1875,-0.230469 -0.457031,-0.230469 -0.324219,0 -0.53125,0.242188 -0.203125,0.238281 -0.203125,0.726562 z"
       style="font-style:normal;font-variant:normal;font-weight:bold;font-stretch:normal;font-size:8px;font-family:'Arial Black';-inkscape-font-specification:'Arial Black,  Bold'"
       id="path825" />
    <path
       d="m 14.507945,13.120895 h 5.378906 v 1.414063 h -1.804687 v 4.3125 h -1.769532 v -4.3125 h -1.804687 z"
       style="font-style:normal;font-variant:normal;font-weight:bold;font-stretch:normal;font-size:8px;font-family:'Arial Black';-inkscape-font-specification:'Arial Black,  Bold'"
       id="path827" />
    <path
       d="m 24.707164,17.16777 h -3.1875 q 0.04297,0.382813 0.207031,0.570313 0.230469,0.269531 0.601562,0.269531 0.234375,0 0.445313,-0.117187 0.128906,-0.07422 0.277344,-0.261719 l 1.566406,0.144531 q -0.359375,0.625 -0.867188,0.898438 -0.507812,0.269531 -1.457031,0.269531 -0.824219,0 -1.296875,-0.230469 -0.472656,-0.234375 -0.785156,-0.738281 -0.308594,-0.507813 -0.308594,-1.191406 0,-0.972657 0.621094,-1.574219 0.625,-0.601563 1.722656,-0.601563 0.890625,0 1.40625,0.269532 0.515625,0.269531 0.785156,0.78125 0.269532,0.511718 0.269532,1.332031 z m -1.617188,-0.761718 q -0.04687,-0.460938 -0.25,-0.660157 -0.199219,-0.199218 -0.527344,-0.199218 -0.378906,0 -0.605468,0.300781 -0.144532,0.1875 -0.183594,0.558594 z"
       style="font-style:normal;font-variant:normal;font-weight:bold;font-stretch:normal;font-size:8px;font-family:'Arial Black';-inkscape-font-specification:'Arial Black,  Bold'"
       id="path829" />
    <path
       d="m 25.14857,13.120895 h 1.949219 l 1.015625,1.761719 0.984375,-1.761719 h 1.929687 l -1.78125,2.773438 1.949219,2.953125 h -1.988281 l -1.128907,-1.839844 -1.132812,1.839844 h -1.976563 l 1.976563,-2.984375 z"
       style="font-style:normal;font-variant:normal;font-weight:bold;font-stretch:normal;font-size:8px;font-family:'Arial Black';-inkscape-font-specification:'Arial Black,  Bold'"
       id="path831" />
  </g>
</svg>
