<?xml version="1.0" encoding="UTF-8" standalone="no"?>
<!-- Created with Inkscape (http://www.inkscape.org/) -->

<svg
   width="2.6805551in"
   height="2.6666665in"
   viewBox="0 0 68.0861 67.733329"
   version="1.1"
   id="svg5"
   inkscape:version="1.1.2 (0a00cf5339, 2022-02-04)"
   sodipodi:docname="coreportal.svg"
   xmlns:inkscape="http://www.inkscape.org/namespaces/inkscape"
   xmlns:sodipodi="http://sodipodi.sourceforge.net/DTD/sodipodi-0.dtd"
   xmlns="http://www.w3.org/2000/svg"
   xmlns:svg="http://www.w3.org/2000/svg">
  <sodipodi:namedview
     id="namedview7"
     pagecolor="#ffffff"
     bordercolor="#666666"
     borderopacity="1.0"
     inkscape:pageshadow="2"
     inkscape:pageopacity="0.0"
     inkscape:pagecheckerboard="0"
     inkscape:document-units="mm"
     showgrid="false"
     fit-margin-top="0"
     fit-margin-left="0"
     fit-margin-right="0"
     fit-margin-bottom="0"
     inkscape:snap-global="true"
     units="in"
     inkscape:zoom="1.9704154"
     inkscape:cx="104.29273"
     inkscape:cy="148.44586"
     inkscape:window-width="1920"
     inkscape:window-height="1016"
     inkscape:window-x="0"
     inkscape:window-y="0"
     inkscape:window-maximized="1"
     inkscape:current-layer="layer1" />
  <defs
     id="defs2" />
  <g
     inkscape:label="Calque 1"
     inkscape:groupmode="layer"
     id="layer1"
     transform="translate(-86.117496,-70.197274)">
    <rect
       style="fill:#ffffff;fill-opacity:0.5;stroke:none;stroke-width:0.252412"
       id="rect1306"
       width="68.225258"
       height="67.585342"
       x="86.025177"
       y="70.238708"
       ry="0" />
    <g
       id="g1282"
       transform="matrix(0.92625372,0,0,0.92625372,-21.465254,-30.154317)">
      <path
         style="fill:#f6f9d0;stroke-width:0.364366"
         d="m 165.85719,161.62983 c 0.45324,-0.0871 1.1091,-0.0838 1.45747,0.007 0.34836,0.0912 -0.0225,0.16251 -0.82408,0.15846 -0.8016,-0.004 -1.08663,-0.0787 -0.63339,-0.16581 z m 12.93075,-0.003 c 0.5511,-0.0835 1.4529,-0.0835 2.00401,0 0.5511,0.0835 0.1002,0.15179 -1.00201,0.15179 -1.10221,0 -1.55311,-0.0683 -1.002,-0.15179 z m 7.16281,-0.0802 3.0637,-0.20539 -0.0669,-3.09711 c -0.0368,-1.70341 0.0602,-2.91112 0.21559,-2.6838 0.15539,0.22731 0.61045,0.49523 1.01125,0.59537 0.63512,0.15868 0.61814,0.1875 -0.13221,0.22433 -0.8333,0.0409 -0.85633,0.12387 -0.71729,2.58441 0.10806,1.91243 0.0206,2.58936 -0.35305,2.73275 -0.27319,0.10483 -1.75401,0.16005 -3.29073,0.12272 l -2.79404,-0.0679 3.0637,-0.20539 z m -23.65037,-3.10035 v -3.07715 l -1.54856,-0.14168 c -1.20681,-0.11042 -1.1063,-0.13729 0.45546,-0.12176 l 2.00401,0.0199 -0.11695,3.1989 c -0.0643,1.7594 -0.26928,3.19891 -0.45546,3.19891 -0.18618,0 -0.3385,-1.38472 -0.3385,-3.07715 z m 6.74519,0.79986 c 0.17118,-3.73441 0.0705,-3.90692 -2.32121,-3.97819 -1.61259,-0.0481 -1.7547,-0.0924 -0.65937,-0.20595 1.13027,-0.11715 1.35173,-0.26164 1.1626,-0.75858 -0.18728,-0.49209 -0.14261,-0.52351 0.22519,-0.1584 0.25236,0.2505 0.73643,0.45545 1.07571,0.45545 0.33928,0 0.7164,0.25936 0.83804,0.57635 0.34642,0.90277 0.25885,6.34661 -0.10209,6.34661 -0.17779,0 -0.27628,-1.02478 -0.21887,-2.27729 z m 6.81051,-0.47368 c -0.0437,-1.72703 0.0887,-3.09603 0.32195,-3.32926 0.28524,-0.28524 0.28524,-0.46464 0,-0.64092 -0.21786,-0.13465 -0.39611,-0.0712 -0.39611,0.14105 0,0.24549 -1.09365,0.363 -3.00602,0.32299 l -3.00602,-0.0629 2.36838,-0.21039 2.36838,-0.21038 -1.94286,-1.00201 c -1.06857,-0.5511 -2.3109,-1.00201 -2.76073,-1.00201 -0.694,0 -0.79454,-0.159 -0.66379,-1.04983 0.12387,-0.84398 0.29825,-1.01213 0.88935,-0.85755 0.68278,0.17855 0.68948,0.21789 0.094,0.55117 -0.53577,0.29983 -0.16782,0.60905 2.23574,1.87887 1.58239,0.83598 3.00004,1.46061 3.15034,1.38807 0.3279,-0.15827 0.37064,-5.33557 0.0467,-5.65949 -0.12461,-0.12461 -1.06741,0.18298 -2.09511,0.68353 -1.0277,0.50055 -1.55026,0.65716 -1.16126,0.34802 0.389,-0.30914 0.83991,-0.56208 1.00201,-0.56208 0.1621,0 0.29472,-0.26389 0.29472,-0.58641 0,-0.46466 -0.2837,-0.55145 -1.36637,-0.41803 -0.75151,0.0926 -1.73529,0.0326 -2.1862,-0.1333 -0.75742,-0.27872 -0.81431,-0.50345 -0.74742,-2.95236 l 0.0724,-2.65067 0.12512,2.61006 0.12511,2.61006 2.07977,0.12269 c 1.14388,0.0675 2.53069,0.0708 3.08179,0.007 0.99841,-0.11488 1.00201,-0.12559 1.00201,-2.98146 0,-3.32835 0.0541,-3.28279 -3.71972,-3.1315 -1.34445,0.0539 -2.35955,-0.0394 -2.25579,-0.20726 0.28348,-0.45868 5.97551,-0.38188 5.97551,0.0806 0,0.21223 0.17825,0.2757 0.39611,0.14105 0.28524,-0.17628 0.28524,-0.35568 0,-0.64092 -0.57559,-0.57559 -0.51046,-5.53173 0.0791,-6.02104 0.30425,-0.2525 2.56563,-0.37286 6.28531,-0.33454 4.17679,0.043 5.04187,0.11576 3.07734,0.2587 l -2.73275,0.19884 0.0615,3.00925 c 0.0358,1.75225 -0.0783,2.92281 -0.27327,2.80233 -0.18414,-0.11381 -0.3348,-1.5156 -0.3348,-3.11508 v -2.90816 l -3.00602,0.10582 -3.00601,0.10583 v 2.91493 2.91493 l 2.55056,0.16481 2.55056,0.16482 -2.55056,0.19955 -2.55056,0.19955 -0.10749,2.88329 c -0.0742,1.99042 0.0314,2.96911 0.34093,3.16043 0.35497,0.21938 0.35491,0.38982 -2.4e-4,0.81775 -0.29022,0.3497 -0.41063,1.48543 -0.34094,3.21598 l 0.10774,2.67536 2.99372,0.10563 2.99373,0.10562 -0.005,-6.26436 c -0.003,-3.72523 0.1437,-6.41304 0.36183,-6.63117 0.24617,-0.24618 0.34173,0.64092 0.29055,2.69725 -0.042,1.68524 -0.24024,3.18705 -0.44064,3.33735 -0.23809,0.17857 -0.22213,0.36797 0.0461,0.54655 0.23485,0.15636 0.40899,1.28646 0.40707,2.64165 -0.002,1.30261 0.006,2.77829 0.0164,3.27929 0.10502,4.84378 0.0622,5.79605 -0.27013,6.00141 -0.49168,0.30387 -0.52391,-4.62022 -0.0335,-5.11067 0.33238,-0.33239 -5.04732,-0.31121 -6.07186,0.0239 -0.28346,0.0927 -0.4843,1.22164 -0.56348,3.16727 l -0.12303,3.02322 -0.0742,-2.93314 z m 0.2902,-10.20553 c 0,-0.31243 -0.16664,-0.46506 -0.37031,-0.33919 -0.20367,0.12588 -0.27597,0.3815 -0.16067,0.56806 0.31234,0.50539 0.53098,0.41115 0.53098,-0.22887 z m -18.72731,6.45864 c -0.10321,-0.16701 0.0439,-0.30364 0.32683,-0.30364 0.28297,0 0.43005,0.13663 0.32683,0.30364 -0.10321,0.167 -0.25028,0.30363 -0.32683,0.30363 -0.0765,0 -0.22362,-0.13663 -0.32683,-0.30363 z m 27.381,0.04 c 0.65131,-0.0808 1.71708,-0.0808 2.36838,0 0.65131,0.0808 0.11842,0.14696 -1.18419,0.14696 -1.30261,0 -1.83549,-0.0661 -1.18419,-0.14696 z m 4.22846,-3.19789 c -10e-4,-1.80361 0.0605,-2.58739 0.13691,-1.74173 0.0764,0.84565 0.0773,2.32134 0.002,3.27929 -0.0753,0.95795 -0.13783,0.26605 -0.13894,-1.53756 z m -26.62882,1.27528 c 0,-0.90181 0.0711,-1.27073 0.15791,-0.81982 0.0868,0.4509 0.0868,1.18874 0,1.63964 -0.0868,0.45091 -0.15791,0.082 -0.15791,-0.81982 z m 1.99587,-0.20841 c -1.41273,-0.76642 -1.25272,-1.03091 0.18218,-0.30116 1.37349,0.69852 1.61657,0.87956 1.15383,0.85935 -0.1837,-0.008 -0.78491,-0.25921 -1.33601,-0.55819 z m -1.09917,-1.65863 c 0.24716,-0.24902 0.54117,-0.36097 0.65335,-0.24879 0.11219,0.11219 -0.09,0.31593 -0.44938,0.45276 -0.51929,0.19773 -0.56114,0.15588 -0.20397,-0.20397 z m -0.99593,-1.23007 c 0,-1.27489 -3.7e-4,-1.27529 -1.73074,-1.30089 -2.89418,-0.0428 -3.55998,-0.64801 -0.74538,-0.67751 l 2.44282,-0.0256 0.12515,-2.45947 c 0.0759,-1.49098 0.13933,-0.84532 0.16118,1.63965 0.0198,2.25451 -0.029,4.09912 -0.1085,4.09912 -0.0795,0 -0.14453,-0.57388 -0.14453,-1.27528 z m 4.16875,-0.34427 c 0.38901,-0.31166 0.86724,-0.56665 1.06274,-0.56665 0.46294,0 0.25623,0.1683 -0.8591,0.69948 -0.85891,0.40906 -0.87054,0.40147 -0.20364,-0.13283 z m 1.95715,-0.81555 c 0.26302,-0.10525 0.57729,-0.0923 0.69837,0.0288 0.12107,0.12108 -0.0941,0.20719 -0.47823,0.19137 -0.42447,-0.0175 -0.51081,-0.10382 -0.22014,-0.22013 z m 8.95166,-0.40925 c 0.17446,-0.28227 2.77637,-0.14033 2.77637,0.15147 0,0.0783 -0.66554,0.14232 -1.47897,0.14232 -0.81343,0 -1.39726,-0.13221 -1.2974,-0.29379 z m 11.67239,-6.62917 c 0,-3.70742 0.0541,-5.22409 0.12024,-3.37038 0.0661,1.85371 0.0661,4.88706 0,6.74077 -0.0661,1.85371 -0.12024,0.33704 -0.12024,-3.37039 z m -29.4827,0.36437 -2.91493,-0.23073 2.80234,-0.0668 c 1.55192,-0.037 2.90281,0.0958 3.02752,0.29755 0.12385,0.2004 0.17452,0.3343 0.1126,0.29755 -0.0619,-0.0367 -1.42432,-0.17065 -3.02753,-0.29755 z m -5.01003,-0.24131 c 0.2505,-0.10108 0.66041,-0.10108 0.91091,0 0.25051,0.10108 0.0455,0.18378 -0.45545,0.18378 -0.50101,0 -0.70596,-0.0827 -0.45546,-0.18378 z m 8.26078,-0.61261 c -0.10333,-0.26926 -0.13076,-1.70395 -0.061,-3.1882 l 0.1269,-2.69865 0.0724,2.98402 0.0724,2.98403 1.36637,0.14292 1.36637,0.14293 -1.3778,0.0613 c -0.8643,0.0384 -1.44783,-0.12121 -1.56567,-0.4283 z m 4.6563,0.22519 c 1.55547,-0.16363 1.63943,-0.36053 1.59651,-3.74366 l -0.03,-2.36838 -2.36838,-0.0896 c -1.30261,-0.0493 -2.86028,-0.1716 -3.46148,-0.27182 l -1.0931,-0.18222 0.11848,-2.82529 c 0.16829,-4.01326 0.79244,-4.27544 0.79244,-0.33287 v 3.18472 l 3.00315,-0.10583 3.00315,-0.10582 0.003,-3.00518 c 10e-4,-1.65285 0.11921,-3.00556 0.26141,-3.00602 0.14219,-4.8e-4 0.30616,1.35187 0.36436,3.00518 l 0.10583,3.00602 h 2.91493 2.91492 l 0.2054,-3.09711 0.20539,-3.09711 0.0679,2.93314 c 0.0435,1.88023 -0.0891,3.09011 -0.36936,3.37039 -0.55148,0.55148 -5.46336,0.5851 -6.00734,0.0411 -0.26487,-0.26486 -0.47208,-0.2732 -0.62537,-0.0252 -0.12609,0.20401 -0.0626,0.47392 0.14106,0.5998 0.20367,0.12587 0.37031,1.51336 0.37031,3.0833 0,3.13454 -0.15349,3.34979 -2.30709,3.23552 -1.0871,-0.0577 -1.07578,-0.0695 0.19407,-0.20311 z m 18.42264,0.007 c 0.45324,-0.0871 1.1091,-0.0838 1.45746,0.007 0.34837,0.0912 -0.0225,0.16251 -0.82407,0.15846 -0.8016,-0.004 -1.08663,-0.0787 -0.63339,-0.16581 z m -3.55682,-9.92717 v -2.89754 l -2.27728,-0.11827 c -1.25251,-0.0651 0.14196,-0.14942 3.09882,-0.18748 2.95686,-0.0381 5.62305,0.0256 5.92487,0.14138 0.44737,0.17167 0.51201,0.72152 0.34991,2.9763 -0.26706,3.71461 -0.62047,3.89874 -0.47304,0.24645 l 0.11749,-2.91097 h -3.09131 -3.09131 l 0.0625,2.82384 c 0.0345,1.55839 -0.0906,2.82384 -0.27908,2.82384 -0.18786,0 -0.34156,-1.3039 -0.34156,-2.89755 z m -16.84767,-3.19001 c 0.45324,-0.0872 1.10909,-0.0838 1.45746,0.007 0.34837,0.0912 -0.0225,0.16251 -0.82407,0.15846 -0.80161,-0.004 -1.08663,-0.0787 -0.63339,-0.16581 z m 6.21274,0.009 c 0.26303,-0.10526 0.57729,-0.0923 0.69837,0.0288 0.12108,0.12108 -0.0941,0.2072 -0.47823,0.19138 -0.42447,-0.0175 -0.5108,-0.10383 -0.22014,-0.22014 z m 2.55056,0 c 0.26303,-0.10526 0.57729,-0.0923 0.69837,0.0288 0.12108,0.12108 -0.0941,0.2072 -0.47823,0.19138 -0.42447,-0.0175 -0.5108,-0.10383 -0.22014,-0.22014 z m 2.55057,0 c 0.26302,-0.10526 0.57729,-0.0923 0.69837,0.0288 0.12107,0.12108 -0.0941,0.2072 -0.47824,0.19138 -0.42446,-0.0175 -0.5108,-0.10383 -0.22013,-0.22014 z"
         id="path970" />
      <path
         style="fill:#e2e8a3;stroke-width:0.364366"
         d="m 165.3064,161.26219 c 0.5511,-0.0835 1.4529,-0.0835 2.00401,0 0.5511,0.0835 0.1002,0.15179 -1.00201,0.15179 -1.10221,0 -1.55311,-0.0683 -1.002,-0.15179 z m 3.39381,-0.2102 c 0.13683,-0.35934 0.34056,-0.56156 0.45275,-0.44938 0.11218,0.11218 2.3e-4,0.40619 -0.24878,0.65336 -0.35986,0.35717 -0.40171,0.31532 -0.20397,-0.20398 z m 2.26349,0.20391 c 0.857,-0.077 2.16872,-0.0759 2.91493,0.003 0.7462,0.0783 0.045,0.14127 -1.55819,0.13995 -1.60321,-0.001 -2.21375,-0.0654 -1.35674,-0.14235 z m 4.45385,-2.6317 v -2.89896 l -2.64165,-0.12575 -2.64166,-0.12575 2.82384,-0.0724 2.82384,-0.0724 v 3.09712 c 0,1.70341 -0.082,3.09711 -0.18219,3.09711 -0.1002,0 -0.18218,-1.30454 -0.18218,-2.89897 z m 0.80509,-0.10705 0.10583,-3.00602 2.55056,-0.0239 2.55056,-0.0239 -2.45947,0.13096 -2.45947,0.13096 v 2.69478 2.69479 l 1.36637,0.14293 1.36637,0.14292 -1.56329,0.0613 -1.56329,0.0613 z m 4.4736,2.72916 c 0.79906,-0.078 1.65988,-0.31364 1.91292,-0.52364 0.32113,-0.26651 0.46008,-0.26562 0.46008,0.003 0,0.21163 0.4509,0.44682 1.002,0.52264 0.55111,0.0758 -0.30971,0.1383 -1.91292,0.13886 -1.60321,7.2e-4 -2.26115,-0.0628 -1.46208,-0.14081 z m 6.74539,0.13715 c 0,-0.0768 0.40495,-0.21712 0.89989,-0.31173 0.49493,-0.0946 0.81319,-0.0317 0.70722,0.13971 -0.18658,0.3019 -1.60711,0.45395 -1.60711,0.17202 z M 168.93,157.33296 c 0.007,-0.60121 0.0891,-0.80304 0.18147,-0.44853 0.0924,0.35452 0.0863,0.84642 -0.0135,1.0931 -0.0998,0.24669 -0.1754,-0.0434 -0.16797,-0.64457 z m 0.68646,-0.39473 c 0.0175,-0.42447 0.10382,-0.51081 0.22014,-0.22014 0.10525,0.26302 0.0923,0.57729 -0.0288,0.69837 -0.12108,0.12107 -0.20719,-0.0941 -0.19137,-0.47823 z m 13.14594,-0.15182 c 0,-0.501 0.0827,-0.70596 0.18378,-0.45546 0.10108,0.2505 0.10108,0.66041 0,0.91092 -0.10108,0.2505 -0.18378,0.0455 -0.18378,-0.45546 z m 0.42829,-1.63965 c 0,-0.4393 0.56004,-0.54655 2.8542,-0.54655 2.29416,0 2.8542,0.10725 2.8542,0.54655 0,0.43931 -0.56004,0.54655 -2.8542,0.54655 -2.29416,0 -2.8542,-0.10724 -2.8542,-0.54655 z m 3.97766,-0.0814 c -0.6513,-0.0808 -1.71707,-0.0808 -2.36838,0 -0.6513,0.0808 -0.11842,0.14696 1.18419,0.14696 1.30261,0 1.8355,-0.0661 1.18419,-0.14696 z m -27.86747,-0.36485 c 0.6549,-0.0811 1.63868,-0.0794 2.1862,0.004 0.54751,0.0831 0.0117,0.14949 -1.19072,0.14744 -1.2024,-0.002 -1.65037,-0.0701 -0.99548,-0.15116 z m 15.22319,-0.31479 c -0.3868,-0.28283 -0.54075,-0.51424 -0.34213,-0.51424 0.19862,0 0.5698,0.20496 0.82485,0.45546 0.37484,0.36818 0.44118,-0.11417 0.34614,-2.517 -0.0647,-1.63485 0.005,-2.8959 0.15571,-2.80233 0.35903,0.22351 0.35533,5.49888 -0.004,5.72097 -0.15251,0.0943 -0.59376,-0.06 -0.98055,-0.34286 z m 1.77506,0.0872 c -0.10376,-0.27038 -0.13072,-1.62309 -0.0599,-3.00602 l 0.12872,-2.51441 0.0714,2.8091 0.0714,2.8091 3.00602,0.12275 3.00602,0.12276 -3.01746,0.0742 c -2.24956,0.0553 -3.06546,-0.0509 -3.2061,-0.41744 z m -8.71287,-0.23295 c -0.12765,-0.20655 0.0186,-0.26763 0.34286,-0.1432 0.63124,0.24223 0.74673,0.50339 0.22262,0.50339 -0.18858,0 -0.44304,-0.16209 -0.56548,-0.36019 z m 1.34374,-0.55072 c 0.007,-0.60121 0.0891,-0.80304 0.18147,-0.44853 0.0924,0.35452 0.0863,0.84642 -0.0135,1.0931 -0.0998,0.24669 -0.1754,-0.0434 -0.16797,-0.64457 z m 13.80364,-1.48783 c 0.0175,-0.42447 0.10382,-0.5108 0.22013,-0.22014 0.10526,0.26303 0.0923,0.57729 -0.0288,0.69837 -0.12108,0.12108 -0.20719,-0.0941 -0.19137,-0.47823 z m -13.77046,-1.4271 c 0.003,-1.00201 0.0735,-1.36867 0.15725,-0.81481 0.0838,0.55386 0.0815,1.37368 -0.005,1.82183 -0.0865,0.44815 -0.15501,-0.005 -0.15228,-1.00702 z m 7.91183,-2.36838 c 0,-0.2004 0.17365,-0.36436 0.38588,-0.36436 0.21222,0 0.28453,0.16396 0.16067,0.36436 -0.12385,0.2004 -0.29749,0.36437 -0.38587,0.36437 -0.0884,0 -0.16068,-0.16397 -0.16068,-0.36437 z m 2.1862,0 c -1.13591,-0.2391 -1.04632,-0.27367 0.81982,-0.3164 1.18581,-0.0271 2.09511,0.11017 2.09511,0.3164 0,0.40496 -0.99105,0.40496 -2.91493,0 z m 4.00803,0 c 0,-0.2004 0.16396,-0.36436 0.36436,-0.36436 0.2004,0 0.36437,0.16396 0.36437,0.36436 0,0.2004 -0.16397,0.36437 -0.36437,0.36437 -0.2004,0 -0.36436,-0.16397 -0.36436,-0.36437 z m 1.09309,-0.0589 c 0,-0.16802 1.06577,-0.30549 2.36838,-0.30549 1.30261,0 2.36838,0.14485 2.36838,0.32188 0,0.17704 -1.06577,0.31451 -2.36838,0.3055 -1.30261,-0.009 -2.36838,-0.15387 -2.36838,-0.32189 z m -8.61747,-3.22042 c 0,-1.70341 0.0628,-2.40026 0.13948,-1.54856 0.0767,0.85171 0.0767,2.24541 0,3.09711 -0.0767,0.85171 -0.13948,0.15486 -0.13948,-1.54855 z m 0.76153,-0.18218 0.0221,-2.91493 2.55056,-0.18219 c 1.40281,-0.1002 2.72819,-0.29794 2.94529,-0.43942 0.22045,-0.14367 0.39473,-0.023 0.39473,0.27327 0,0.41906 -0.59653,0.53052 -2.83946,0.53052 h -2.83947 l -0.1279,2.82384 -0.1279,2.82383 0.0221,-2.91492 z m 6.45601,2.00401 c 0,-0.50101 0.0827,-0.70596 0.18378,-0.45546 0.10108,0.2505 0.10108,0.66041 0,0.91092 -0.10108,0.2505 -0.18378,0.0455 -0.18378,-0.45546 z m -13.14594,-0.21255 c 0.0175,-0.42447 0.10382,-0.5108 0.22014,-0.22014 0.10525,0.26303 0.0923,0.57729 -0.0288,0.69837 -0.12108,0.12108 -0.20719,-0.0941 -0.19137,-0.47823 z m 0.97324,-4.76552 c 0.2505,-0.10108 0.66041,-0.10108 0.91092,0 0.2505,0.10108 0.0455,0.18378 -0.45546,0.18378 -0.501,0 -0.70596,-0.0827 -0.45546,-0.18378 z m 3.10405,-0.0112 c 0.35451,-0.0924 0.84641,-0.0863 1.09309,0.0135 0.24669,0.0998 -0.0434,0.1754 -0.64457,0.16797 -0.6012,-0.007 -0.80304,-0.0891 -0.44852,-0.18147 z m 9.37549,-0.33866 c 0,-0.408 0.14111,-0.48777 0.45545,-0.25746 0.67167,0.49214 3.79733,0.57391 4.64272,0.12147 0.58497,-0.31307 0.73168,-0.27943 0.73168,0.16778 0,0.4563 -0.5371,0.55937 -2.91493,0.55937 -2.44591,0 -2.91492,-0.0951 -2.91492,-0.59116 z m -7.65169,-3.03776 v -2.9002 l -3.00602,-0.12275 -3.00602,-0.12275 3.1882,-0.0742 3.18821,-0.0742 v 3.09711 c 0,1.70341 -0.082,3.09711 -0.18219,3.09711 -0.1002,0 -0.18218,-1.30509 -0.18218,-2.90019 z m 0.8863,-0.28682 0.0246,-2.82503 2.55056,-0.0291 2.55056,-0.0291 -2.44443,0.13647 -2.44444,0.13646 -0.13075,2.71764 -0.13074,2.71764 0.0246,-2.82504 z m -7.41612,1.88137 c 0.0175,-0.42447 0.10382,-0.51081 0.22014,-0.22014 0.10525,0.26302 0.0923,0.57729 -0.0288,0.69837 -0.12108,0.12107 -0.2072,-0.0941 -0.19138,-0.47823 z m 0.0631,-3.24894 c 0.004,-0.8016 0.0787,-1.08663 0.16581,-0.63339 0.0872,0.45324 0.0839,1.1091 -0.007,1.45747 -0.0912,0.34836 -0.1625,-0.0225 -0.15846,-0.82408 z m 13.75402,-0.34286 c 0,-0.48917 0.1343,-0.97241 0.29844,-1.07385 0.16414,-0.10145 0.22751,0.29879 0.14082,0.88941 -0.19112,1.3022 -0.43926,1.4064 -0.43926,0.18444 z m -18.29976,-1.19968 c 0.857,-0.077 2.16872,-0.0759 2.91493,0.003 0.74621,0.0783 0.045,0.14127 -1.55819,0.13995 -1.60321,-0.001 -2.21374,-0.0654 -1.35674,-0.14236 z m 19.6889,0.0184 c 0.26303,-0.10525 0.5773,-0.0923 0.69837,0.0288 0.12108,0.12108 -0.0941,0.2072 -0.47823,0.19138 -0.42446,-0.0175 -0.5108,-0.10383 -0.22014,-0.22014 z m 2.61889,-0.0753 c 1.51736,-0.18226 1.43585,-0.21337 -1.0931,-0.41725 l -2.73275,-0.22031 3.00602,-0.0656 c 2.45828,-0.0537 3.00602,0.034 3.00602,0.4809 0,0.42451 -0.42716,0.53234 -1.91292,0.48289 l -1.91292,-0.0637 z m -20.96217,-0.66866 c 1.70298,-0.0784 3.03287,-0.31513 3.21594,-0.57241 0.22103,-0.31062 0.2689,-0.27913 0.164,0.10786 -0.11604,0.42808 -0.81313,0.55215 -3.21594,0.57241 l -3.06778,0.0259 2.90378,-0.13372 z m 6.91841,3.7e-4 2.71945,-0.13078 0.1306,-2.99095 0.13061,-2.99096 -0.025,3.09711 -0.025,3.09711 -2.82503,0.0246 -2.82503,0.0246 2.71944,-0.13078 z m 3.6308,-0.22584 c -0.10333,-0.26926 -0.13076,-1.70395 -0.061,-3.1882 l 0.12689,-2.69855 0.0724,2.99128 0.0724,2.99128 3.00602,0.12276 3.00602,0.12275 -3.01746,0.0742 c -2.24352,0.0551 -3.06564,-0.0514 -3.20531,-0.41539 z m -7.33674,-3.70056 c 0.003,-1.002 0.0735,-1.36867 0.15725,-0.81481 0.0838,0.55386 0.0815,1.37368 -0.005,1.82183 -0.0865,0.44815 -0.15503,-0.005 -0.15229,-1.00702 z"
         id="path968" />
      <path
         style="fill:#b2cfe2;stroke-width:0.364366"
         d="m 122.34945,158.42606 c -0.001,-1.80362 0.0605,-2.5874 0.13692,-1.74174 0.0764,0.84566 0.0773,2.32134 0.002,3.2793 -0.0753,0.95795 -0.13783,0.26605 -0.13894,-1.53756 z m 13.84389,0.18218 c 0,-1.70341 0.0628,-2.40026 0.13948,-1.54856 0.0767,0.85171 0.0767,2.24541 0,3.09711 -0.0767,0.85171 -0.13948,0.15486 -0.13948,-1.54855 z m 5.5693,2.66939 c 0.22732,-0.16556 0.50354,-0.62894 0.61383,-1.02974 0.15811,-0.57461 0.18629,-0.54212 0.13324,0.15364 -0.037,0.4853 -0.31323,0.94869 -0.61383,1.02974 -0.36112,0.0974 -0.40633,0.0453 -0.13324,-0.15364 z m 14.47285,-2.85157 c -0.001,-1.80362 0.0605,-2.5874 0.13692,-1.74174 0.0764,0.84566 0.0773,2.32134 0.002,3.2793 -0.0755,0.95795 -0.13799,0.26605 -0.1391,-1.53756 z m -40.15206,2.00401 c 0,-0.501 0.0827,-0.70596 0.18378,-0.45546 0.10108,0.2505 0.10108,0.66041 0,0.91092 -0.10108,0.2505 -0.18378,0.0455 -0.18378,-0.45546 z m -0.0288,-3.12748 c 0.0175,-0.42446 0.10383,-0.5108 0.22014,-0.22013 0.10526,0.26302 0.0923,0.57729 -0.0288,0.69837 -0.12108,0.12107 -0.2072,-0.0941 -0.19138,-0.47824 z m 26.29748,-0.69836 c 0.004,-0.80161 0.0787,-1.08663 0.16581,-0.6334 0.0871,0.45324 0.0838,1.1091 -0.007,1.45747 -0.0912,0.34836 -0.16251,-0.0225 -0.15846,-0.82407 z m 13.05405,0.69836 c 0.0175,-0.42446 0.10382,-0.5108 0.22014,-0.22013 0.10525,0.26302 0.0923,0.57729 -0.0288,0.69837 -0.12108,0.12107 -0.2072,-0.0941 -0.19138,-0.47824 z m -19.19424,-2.8958 c -0.10166,-0.40699 -0.12569,-1.80069 -0.0534,-3.09711 l 0.13143,-2.35714 0.0702,2.80851 0.0702,2.80851 2.82384,0.10816 2.82384,0.10816 -2.84064,0.18044 c -2.62905,0.167 -2.85441,0.12532 -3.02548,-0.55953 z m -11.88709,0.29053 c 0.857,-0.077 2.16872,-0.0759 2.91492,0.003 0.74621,0.0783 0.045,0.14127 -1.55818,0.13994 -1.60321,-0.001 -2.21375,-0.0654 -1.35674,-0.14235 z m 21.65564,0.001 2.80933,-0.12767 0.13062,-2.99151 0.13061,-2.99152 -0.025,3.09711 -0.025,3.09711 -2.91493,0.0221 -2.91493,0.0221 2.80934,-0.12767 z m 10.27929,-0.22385 c -0.10332,-0.26926 -0.13076,-1.70395 -0.061,-3.1882 l 0.1269,-2.69865 0.0724,2.97566 c 0.0482,1.98148 0.22457,3.03705 0.52786,3.15943 0.35673,0.14395 0.35426,0.19002 -0.0114,0.21255 -0.2568,0.0158 -0.55143,-0.19154 -0.65476,-0.46079 z m -13.89035,-3.88273 c 0,-1.10221 0.0683,-1.55311 0.15179,-1.00201 0.0835,0.5511 0.0835,1.45291 0,2.00401 -0.0835,0.55111 -0.15179,0.1002 -0.15179,-1.002 z m -0.20713,-2.94414 c 0.12884,-0.49269 0.29401,-0.65786 0.38497,-0.38497 0.0876,0.26287 -0.0139,0.65118 -0.22565,0.86291 -0.27039,0.27039 -0.31781,0.12813 -0.15932,-0.47794 z m -19.86979,-2.45703 -0.0724,-3.03279 -3.06353,0.11786 c -1.68494,0.0648 -2.98698,-0.005 -2.89342,-0.15541 0.0936,-0.1503 1.47729,-0.27328 3.07496,-0.27328 2.09568,0 2.95719,0.13638 3.09272,0.48956 0.10333,0.26926 0.13076,1.70395 0.061,3.1882 l -0.1269,2.69865 z m 7.24369,2.27369 c 0.0175,-0.42446 0.10382,-0.5108 0.22013,-0.22013 0.10526,0.26302 0.0923,0.57729 -0.0288,0.69836 -0.12108,0.12108 -0.2072,-0.0941 -0.19138,-0.47823 z m 26.62454,-2.22542 c -0.03,-1.64148 0.0684,-3.06098 0.21868,-3.15444 0.1503,-0.0935 0.2274,0.83966 0.17132,2.0736 -0.17141,3.77214 -0.3326,4.21885 -0.39,1.08084 z m -19.93716,-0.38467 0.0246,-2.82503 h 3.06675 c 2.19334,0 3.09355,0.13231 3.16087,0.46456 0.0518,0.25552 0.0108,0.29651 -0.0911,0.0911 -0.10303,-0.20776 -1.45836,-0.37348 -3.05446,-0.37348 h -2.86923 l -0.13104,2.73394 -0.13104,2.73394 0.0246,-2.82503 z m 6.14087,0.0899 c 0.003,-1.00201 0.0735,-1.36868 0.15725,-0.81482 0.0837,0.55386 0.0815,1.37368 -0.005,1.82183 -0.0865,0.44815 -0.15501,-0.005 -0.15228,-1.00701 z m 13.04173,-2.21656 c 0.0175,-0.42447 0.10382,-0.51081 0.22014,-0.22014 0.10525,0.26302 0.0923,0.57729 -0.0288,0.69837 -0.12108,0.12107 -0.2072,-0.0941 -0.19138,-0.47823 z m -25.57442,-0.62363 c 0.16024,-0.15929 1.58751,-0.23989 3.17171,-0.17912 l 2.88036,0.1105 -3.17171,0.17912 c -1.74444,0.0985 -3.0406,0.0488 -2.88036,-0.1105 z m 21.08217,-0.1497 c 0.4509,-0.0868 1.18874,-0.0868 1.63965,0 0.4509,0.0868 0.082,0.1579 -0.81983,0.1579 -0.9018,0 -1.27072,-0.0711 -0.81982,-0.1579 z m -14.66315,-0.83179 c -0.12765,-0.20654 0.0186,-0.26762 0.34286,-0.14319 0.63124,0.24222 0.74673,0.50339 0.22261,0.50339 -0.18857,0 -0.44303,-0.16209 -0.56547,-0.3602 z m 19.23582,-1.46163 c 0,-1.10221 0.0683,-1.55311 0.15179,-1.00201 0.0835,0.55111 0.0835,1.45291 0,2.00402 -0.0835,0.5511 -0.15179,0.1002 -0.15179,-1.00201 z m -17.96312,1.30092 c 0,-0.1002 0.32793,-0.35769 0.72873,-0.57219 0.40081,-0.2145 0.72874,-0.30802 0.72874,-0.20782 0,0.1002 -0.32793,0.35768 -0.72874,0.57219 -0.4008,0.2145 -0.72873,0.30802 -0.72873,0.20782 z m 8.38042,-1.07975 c 0,-0.0788 0.25446,-0.24085 0.56547,-0.3602 0.32426,-0.12443 0.47052,-0.0633 0.34286,0.1432 -0.21397,0.34622 -0.90833,0.5121 -0.90833,0.217 z m -4.94039,-0.74762 c 0.389,-0.31166 0.86723,-0.56665 1.06273,-0.56665 0.46294,0 0.25624,0.1683 -0.8591,0.69948 -0.85891,0.40905 -0.87053,0.40147 -0.20363,-0.13283 z m -11.35187,-2.2063 c 0.003,-1.002 0.0735,-1.36867 0.15725,-0.81481 0.0837,0.55386 0.0815,1.37368 -0.005,1.82183 -0.0865,0.44815 -0.15501,-0.005 -0.15228,-1.00702 z m 9.36931,-0.18218 c -0.32841,-0.21223 -0.37335,-0.35543 -0.1126,-0.35879 0.23867,-0.003 0.53529,0.15839 0.65914,0.35879 0.27958,0.45237 0.15345,0.45237 -0.54654,0 z m -2.91493,-0.52504 c 0,-0.28878 0.14867,-0.61693 0.33038,-0.72924 0.18172,-0.1123 0.24457,0.12397 0.13969,0.52505 -0.22249,0.85079 -0.47007,0.95833 -0.47007,0.20419 z m 19.34016,-0.41624 c 0.0175,-0.42446 0.10382,-0.5108 0.22014,-0.22014 0.10525,0.26303 0.0923,0.5773 -0.0288,0.69837 -0.12108,0.12108 -0.2072,-0.0941 -0.19138,-0.47823 z m -4.48262,-0.41908 c 0.857,-0.077 2.16872,-0.0759 2.91493,0.003 0.7462,0.0783 0.045,0.14127 -1.55819,0.13995 -1.60321,-0.001 -2.21374,-0.0654 -1.35674,-0.14236 z m -4.94307,-0.72717 2.80933,-0.12767 0.13062,-2.99152 0.13061,-2.99151 -0.025,3.09711 -0.025,3.09711 -2.91493,0.0221 -2.91493,0.0221 2.80934,-0.12767 z m 4.93344,-0.001 c 0.85171,-0.0767 2.24541,-0.0767 3.09711,0 0.85171,0.0767 0.15486,0.13948 -1.54855,0.13948 -1.70342,0 -2.40027,-0.0628 -1.54856,-0.13948 z m 5.23448,-0.55303 c 0.0305,-0.5912 0.0879,-0.6465 0.2058,-0.19829 0.12898,0.49021 0.67819,0.64834 2.59939,0.74846 l 2.43585,0.12692 -2.64165,0.0714 c -2.52887,0.0683 -2.63985,0.0364 -2.59939,-0.74846 z m 0.0744,-3.1882 c 0,-1.30261 0.0661,-1.8355 0.14696,-1.18419 0.0808,0.6513 0.0808,1.71707 0,2.36838 -0.0808,0.6513 -0.14696,0.11841 -0.14696,-1.18419 z"
         id="path966" />
      <path
         style="fill:#92b3cf;stroke-width:0.364366"
         d="m 117.75664,161.25637 c 0.8517,-0.0767 2.2454,-0.0767 3.09711,0 0.8517,0.0767 0.15485,0.13948 -1.54856,0.13948 -1.70341,0 -2.40026,-0.0628 -1.54855,-0.13948 z m 19.85794,0.001 c 0.75151,-0.0786 1.98124,-0.0786 2.73275,0 0.7515,0.0786 0.13663,0.14293 -1.36637,0.14293 -1.50301,0 -2.11788,-0.0643 -1.36638,-0.14293 z m 12.09025,-3.37832 0.0249,-2.36838 1.36953,-0.0382 c 1.3631,-0.038 1.36361,-0.0375 0.10726,0.11212 l -1.26227,0.15032 -0.13217,2.25626 -0.13218,2.25626 0.0249,-2.36838 z m -31.94819,-2.45299 c 0.8517,-0.0767 2.2454,-0.0767 3.09711,0 0.8517,0.0767 0.15485,0.13948 -1.54856,0.13948 -1.70341,0 -2.40026,-0.0628 -1.54855,-0.13948 z m 20.04013,0 c 0.8517,-0.0767 2.2454,-0.0767 3.09711,0 0.8517,0.0767 0.15485,0.13948 -1.54856,0.13948 -1.70341,0 -2.40026,-0.0628 -1.54855,-0.13948 z m -9.02112,-3.66663 0.17912,-3.17172 0.1105,2.88037 c 0.0608,1.5842 -0.0198,3.01147 -0.17913,3.17171 -0.15929,0.16024 -0.20901,-1.13592 -0.11049,-2.88036 z m -5.71761,-0.43897 c 0,-1.10221 0.0683,-1.55311 0.15179,-1.00201 0.0835,0.55111 0.0835,1.45291 0,2.00402 -0.0835,0.5511 -0.15179,0.1002 -0.15179,-1.00201 z m 6.53393,-6.19422 c 0,-0.70141 0.075,-0.98834 0.16664,-0.63764 0.0917,0.3507 0.0917,0.92458 0,1.27528 -0.0917,0.3507 -0.16664,0.0638 -0.16664,-0.63764 z m 20.02663,-2.00401 c 0.007,-0.60121 0.0891,-0.80305 0.18147,-0.44853 0.0924,0.35452 0.0863,0.84641 -0.0135,1.0931 -0.0998,0.24669 -0.1754,-0.0434 -0.16797,-0.64457 z m -6.54509,-3.46148 c 0,-0.70141 0.075,-0.98834 0.16664,-0.63764 0.0916,0.3507 0.0916,0.92458 0,1.27528 -0.0916,0.3507 -0.16664,0.0638 -0.16664,-0.63764 z m 6.54509,-2.73275 c 0.007,-0.6012 0.0891,-0.80304 0.18147,-0.44852 0.0924,0.35452 0.0863,0.84641 -0.0135,1.0931 -0.0998,0.24669 -0.1754,-0.0434 -0.16797,-0.64458 z m -18.38042,-1.54207 c 0.8517,-0.0767 2.2454,-0.0767 3.09711,0 0.8517,0.0767 0.15485,0.13948 -1.54856,0.13948 -1.70341,0 -2.40026,-0.0628 -1.54855,-0.13948 z m -6.93108,-0.72491 c 0.64683,-0.0805 1.79459,-0.0818 2.55056,-0.003 0.75597,0.0789 0.22675,0.14474 -1.17606,0.14635 -1.40281,0.001 -2.02134,-0.0629 -1.3745,-0.14341 z m 4.46855,-2.94172 0.17912,-3.17171 0.1105,2.88036 c 0.0608,1.5842 -0.0198,3.01147 -0.17913,3.17172 -0.15929,0.16024 -0.20901,-1.13593 -0.11049,-2.88037 z m 20.84295,1.56504 c 0.007,-0.6012 0.0891,-0.80303 0.18147,-0.44852 0.0924,0.35452 0.0863,0.84641 -0.0135,1.0931 -0.0998,0.24669 -0.17541,-0.0434 -0.16799,-0.64458 z m -26.55684,-1.45746 c 0.002,-1.20241 0.0701,-1.65037 0.15116,-0.99548 0.0811,0.65489 0.0794,1.63868 -0.004,2.1862 -0.0831,0.54751 -0.14949,0.0117 -0.14744,-1.19072 z m 26.54334,-1.63965 c 0,-0.501 0.0827,-0.70596 0.18378,-0.45545 0.10108,0.2505 0.10108,0.66041 0,0.91091 -0.10108,0.2505 -0.18378,0.0455 -0.18378,-0.45546 z"
         id="path964" />
      <path
         style="fill:#b5c494;stroke-width:0.364366"
         d="m 157.83689,161.25637 c 0.85171,-0.0767 2.24541,-0.0767 3.09711,0 0.85171,0.0767 0.15486,0.13948 -1.54855,0.13948 -1.70341,0 -2.40026,-0.0628 -1.54856,-0.13948 z m 11.85999,-1.9194 c 0,-1.10221 0.0683,-1.55311 0.15179,-1.00201 0.0835,0.55111 0.0835,1.45291 0,2.00402 -0.0835,0.5511 -0.15179,0.1002 -0.15179,-1.00201 z m -14.22022,0 c 0,-0.90181 0.0711,-1.27073 0.15791,-0.81982 0.0868,0.4509 0.0868,1.18874 0,1.63964 -0.0868,0.45091 -0.15791,0.082 -0.15791,-0.81982 z m 6.55859,0 c 0,-0.90181 0.0711,-1.27073 0.1579,-0.81982 0.0868,0.4509 0.0868,1.18874 0,1.63964 -0.0868,0.45091 -0.1579,0.082 -0.1579,-0.81982 z m 2.15061,0.30308 c -0.035,-0.73512 -0.16977,-1.63693 -0.29946,-2.00402 -0.17988,-0.50914 -0.13113,-0.57115 0.20555,-0.26148 0.26478,0.24353 0.38459,1.0453 0.29946,2.00401 -0.13394,1.50854 -0.14545,1.52319 -0.20555,0.26149 z m 3.97314,-0.51563 c 0.0175,-0.42446 0.10382,-0.5108 0.22013,-0.22013 0.10526,0.26302 0.0923,0.57729 -0.0288,0.69837 -0.12107,0.12107 -0.20719,-0.0941 -0.19137,-0.47824 z m -5.12989,-2.52019 c 0,-0.70141 0.13104,-1.27529 0.2912,-1.27529 0.16016,0 0.2242,0.57388 0.14232,1.27529 -0.0819,0.7014 -0.21293,1.27528 -0.2912,1.27528 -0.0783,0 -0.14232,-0.57388 -0.14232,-1.27528 z m 0.72873,-0.17418 c 0,-0.14481 1.01709,-0.29381 2.2602,-0.33111 1.24312,-0.0373 2.18591,0.003 2.09511,0.0899 -0.29908,0.28578 -4.35531,0.51039 -4.35531,0.24117 z m 5.82986,-0.35087 c 0,-0.18857 0.16208,-0.44304 0.36019,-0.56547 0.20654,-0.12765 0.26763,0.0186 0.1432,0.34286 -0.24223,0.63123 -0.50339,0.74673 -0.50339,0.22261 z m -15.66774,-0.38587 -1.63965,-0.25491 1.52705,-0.0547 c 0.83988,-0.0301 1.62839,0.10924 1.75225,0.30964 0.12385,0.2004 0.17452,0.33974 0.11259,0.30964 -0.0619,-0.0301 -0.85044,-0.16943 -1.75224,-0.30964 z m 3.91693,-0.26679 c 0.85171,-0.0767 2.24541,-0.0767 3.09711,0 0.85171,0.0767 0.15486,0.13948 -1.54855,0.13948 -1.70341,0 -2.40026,-0.0628 -1.54856,-0.13948 z m 6.92296,0.01 c 0.4509,-0.0868 1.18874,-0.0868 1.63964,0 0.45091,0.0868 0.082,0.15791 -0.81982,0.15791 -0.90181,0 -1.27073,-0.0711 -0.81982,-0.15791 z m 2.45947,-1.66869 c -0.79818,-0.48471 -1.19815,-1.50993 -0.49803,-1.27655 0.39659,0.13219 1.67861,1.76215 1.36229,1.73201 -0.0745,-0.007 -0.46346,-0.21205 -0.86426,-0.45546 z m -5.22578,-0.62473 c 0,-0.501 0.0827,-0.70596 0.18378,-0.45546 0.10108,0.2505 0.10108,0.66041 0,0.91092 -0.10108,0.2505 -0.18378,0.0455 -0.18378,-0.45546 z m 6.18447,-0.48898 c -0.2232,-0.26894 -0.29793,-0.59687 -0.16607,-0.72874 0.42763,-0.42763 0.69077,-0.25535 0.74684,0.48899 0.0646,0.85782 -0.034,0.89854 -0.58077,0.23975 z m -3.05987,-0.28497 c 0.24716,-0.24901 0.54117,-0.36096 0.65335,-0.24878 0.11219,0.11219 -0.09,0.31592 -0.44938,0.45276 -0.51929,0.19773 -0.56115,0.15588 -0.20397,-0.20398 z m -0.67934,-0.44377 c 0.2232,-0.26893 0.28426,-0.62315 0.1357,-0.78714 -0.14856,-0.164 -0.0572,-0.1753 0.20304,-0.0251 0.36454,0.21036 0.37521,0.39105 0.0465,0.78715 -0.23467,0.28276 -0.50865,0.51411 -0.60885,0.51411 -0.1002,0 3.6e-4,-0.22004 0.22364,-0.48899 z m 6.27076,0.19421 c -0.0158,-0.26233 -0.19273,-0.37563 -0.39313,-0.25177 -0.2004,0.12385 -0.36437,0.13774 -0.36437,0.0309 0,-0.10688 0.53289,-0.45243 1.18419,-0.76788 0.68972,-0.33405 0.94262,-0.37599 0.60566,-0.10044 -0.31819,0.2602 -0.67417,0.71904 -0.79106,1.01964 -0.1463,0.37624 -0.22149,0.39792 -0.24129,0.0696 z m -5.30949,-1.15851 c -0.12766,-0.20655 0.0186,-0.26763 0.34286,-0.1432 0.63123,0.24222 0.74673,0.50339 0.22261,0.50339 -0.18857,0 -0.44304,-0.16209 -0.56547,-0.36019 z m 0.95148,-0.34188 c -0.36605,-0.22623 -0.34486,-0.33711 0.0968,-0.50659 0.31098,-0.11934 0.65533,-0.0715 0.76522,0.1063 0.28727,0.46481 -0.30937,0.74186 -0.86204,0.40029 z m 1.23213,-1.11976 c 0.12386,-0.2004 0.47114,-0.36437 0.77174,-0.36437 0.3006,0 0.44522,0.16397 0.32136,0.36437 -0.12385,0.2004 -0.47114,0.36437 -0.77174,0.36437 -0.3006,0 -0.44521,-0.16397 -0.32136,-0.36437 z m 2.20176,-1.79665 c -0.1153,-0.18656 -0.0177,-0.45784 0.21698,-0.60285 0.26059,-0.16106 0.32917,-0.106 0.17622,0.14147 -0.17328,0.28038 0.62275,0.44342 2.58536,0.52951 l 2.83573,0.1244 -2.80233,0.0733 c -1.54128,0.0403 -2.89666,-0.0793 -3.01196,-0.26586 z m -7.73652,-2.39356 c 0.002,-1.20241 0.0701,-1.65037 0.15116,-0.99548 0.0811,0.65489 0.0794,1.63868 -0.004,2.1862 -0.0831,0.54751 -0.14949,0.0117 -0.14744,-1.19072 z m -6.57226,-0.54655 c 0,-0.9018 0.0711,-1.27072 0.15791,-0.81982 0.0868,0.4509 0.0868,1.18874 0,1.63965 -0.0868,0.4509 -0.15791,0.082 -0.15791,-0.81983 z m 14.15562,-0.47419 c 0.0533,-1.63244 0.19216,-2.07518 0.64927,-2.07079 0.35228,0.003 0.43079,0.11108 0.19923,0.27327 -0.21021,0.14724 -0.43005,1.00554 -0.48854,1.90735 -0.15583,2.40285 -0.43924,2.31638 -0.35996,-0.10983 z m -15.78064,-3.054 c 0.26303,-0.10526 0.57729,-0.0923 0.69837,0.0288 0.12108,0.12107 -0.0941,0.20719 -0.47823,0.19137 -0.42447,-0.0175 -0.51081,-0.10383 -0.22014,-0.22014 z m 9.20623,-0.38874 c 0.0172,-0.38092 0.10276,-0.45427 0.21255,-0.18218 0.10108,0.2505 0.75367,0.45545 1.4502,0.45545 0.7515,0 1.17486,-0.14815 1.04123,-0.36436 -0.2805,-0.45386 1.00302,-0.48462 1.47568,-0.0354 0.19039,0.18094 0.67408,0.40787 1.07488,0.50428 0.40081,0.0964 -0.62397,0.1943 -2.27728,0.21755 -2.64616,0.0372 -3.00258,-0.0341 -2.97726,-0.59538 z m 8.44776,0.37618 c 0.55385,-0.0838 1.37368,-0.0815 1.82183,0.005 0.44814,0.0865 -0.005,0.15501 -1.00702,0.15228 -1.00201,-0.003 -1.36867,-0.0735 -0.81481,-0.15725 z m 3.11487,0.0126 c 0.26302,-0.10526 0.57729,-0.0923 0.69837,0.0288 0.12107,0.12107 -0.0941,0.20719 -0.47823,0.19137 -0.42447,-0.0175 -0.51081,-0.10382 -0.22014,-0.22014 z m -10.56661,-0.72873 c 0.26302,-0.10526 0.57729,-0.0923 0.69837,0.0287 0.12107,0.12108 -0.0941,0.2072 -0.47823,0.19138 -0.42447,-0.0175 -0.51081,-0.10383 -0.22014,-0.22014 z m 5.55942,-1.66403 c 0.0181,-1.09554 0.10623,-1.3427 0.30121,-0.84487 0.25784,0.65834 0.12219,2.39342 -0.18712,2.39342 -0.0768,0 -0.12818,-0.69685 -0.11409,-1.54855 z m -1.68488,0.42371 c -0.13465,-0.21787 -0.0623,-0.57859 0.16068,-0.80161 0.29774,-0.29774 0.40549,-0.19249 0.40549,0.39611 0,0.87977 -0.18928,1.01533 -0.56617,0.4055 z m -4.84179,-2.51882 c 0,-0.501 0.0827,-0.70596 0.18378,-0.45546 0.10108,0.25051 0.10108,0.66042 0,0.91092 -0.10108,0.2505 -0.18378,0.0455 -0.18378,-0.45546 z m 1.23917,-0.39903 c 0.11207,-0.18133 0.87728,-0.3297 1.70046,-0.3297 1.85005,0 1.69612,0.19989 -0.35559,0.46176 -0.88355,0.11276 -1.46112,0.056 -1.34487,-0.13206 z m -8.8392,-3.60899 c 0,-1.10221 0.0683,-1.55311 0.15179,-1.00201 0.0835,0.5511 0.0835,1.45291 0,2.00401 -0.0835,0.55111 -0.15179,0.1002 -0.15179,-1.002 z m 14.17546,-0.92061 c 0.0842,-2.26298 0.22747,-2.90588 0.65436,-2.93637 0.3006,-0.0215 0.35885,0.0264 0.12944,0.10647 -0.25971,0.0906 -0.4171,1.10911 -0.4171,2.69911 0,1.40448 -0.10677,2.66037 -0.23726,2.79086 -0.13049,0.1305 -0.18874,-1.06654 -0.12944,-2.66007 z m -7.69729,1.80116 c 0.0175,-0.42447 0.10382,-0.51081 0.22013,-0.22014 0.10526,0.26303 0.0923,0.57729 -0.0288,0.69837 -0.12108,0.12107 -0.20719,-0.0941 -0.19137,-0.47823 z m 3.25052,0.21254 c -0.41587,-0.26876 -0.26857,-0.35454 0.61614,-0.35878 0.63948,-0.003 1.26402,0.15838 1.38788,0.35878 0.28862,0.467 -1.28138,0.467 -2.00402,0 z m -2.18619,-0.38587 c 0,-0.21222 0.16396,-0.28453 0.36436,-0.16068 0.20041,0.12386 0.36437,0.2975 0.36437,0.38587 0,0.0884 -0.16396,0.16068 -0.36437,0.16068 -0.2004,0 -0.36436,-0.17364 -0.36436,-0.38587 z m 0.0517,-3.16669 -0.0517,-1.54856 h 2.97565 c 3.4516,0 3.72235,0.28169 0.38646,0.40207 -1.24796,0.045 -2.26901,0.17928 -2.26901,0.29833 0,0.11905 0.98378,0.18469 2.18619,0.14587 l 2.1862,-0.0706 v 1.14249 c 0,0.914 -0.0911,1.0514 -0.45546,0.68704 -0.2505,-0.2505 -0.45854,-0.65222 -0.4623,-0.8927 -0.005,-0.28999 -0.64876,-0.42036 -1.91293,-0.38711 -1.52423,0.0401 -1.91643,-0.0694 -1.95778,-0.54654 -0.0284,-0.32818 -0.16913,0.0592 -0.31266,0.86078 l -0.26095,1.45746 z m -3.77994,-1.44826 c 0.6549,-0.0811 1.63868,-0.0794 2.1862,0.004 0.54751,0.0831 0.0117,0.14948 -1.19072,0.14744 -1.2024,-0.002 -1.65037,-0.0701 -0.99548,-0.15116 z"
         id="path962" />
      <path
         style="fill:#c6d16a;stroke-width:0.364366"
         d="m 185.53295,161.26546 c 0.45324,-0.0872 1.1091,-0.0838 1.45747,0.007 0.34836,0.0912 -0.0225,0.16251 -0.82407,0.15847 -0.80161,-0.004 -1.08663,-0.0787 -0.6334,-0.16582 z m -13.48578,-0.38667 c -1.28216,-0.12044 -1.36638,-0.20375 -1.36638,-1.35183 0,-0.67292 -0.0803,-1.44185 -0.17835,-1.70874 -0.24167,-0.65752 0.52545,-1.75764 0.783,-1.1229 0.25268,0.6227 1.11473,0.57382 1.48292,-0.0841 0.37105,-0.66302 2.64919,-1.18804 2.64919,-0.61052 0,0.21916 -0.24595,0.30409 -0.54655,0.18874 -0.3006,-0.11535 -0.54655,-0.0282 -0.54655,0.19362 0,0.22184 0.22861,0.40335 0.50801,0.40335 0.38143,0 0.49491,0.52007 0.45546,2.08723 -0.0582,2.31259 -0.0463,2.30521 -3.24075,2.00515 z m 0.45545,-2.07693 c 0,-0.64984 -0.15169,-0.84127 -0.54655,-0.68975 -0.3006,0.11535 -0.54654,0.52011 -0.54654,0.89948 0,0.37936 0.24594,0.68975 0.54654,0.68975 0.33823,0 0.54655,-0.34286 0.54655,-0.89948 z m 4.00803,-0.3758 c 0,-2.36183 0.0865,-2.73199 0.63764,-2.72717 0.40051,0.004 0.48563,0.10513 0.22891,0.27327 -0.57992,0.37982 -0.61943,4.52263 -0.0466,4.88636 0.32483,0.20625 0.27257,0.29072 -0.1823,0.2947 -0.55109,0.005 -0.63764,-0.36534 -0.63764,-2.72716 z m 5.53652,1.82183 c 0.007,-0.60121 0.0891,-0.80305 0.18147,-0.44853 0.0924,0.35452 0.0863,0.84641 -0.0135,1.0931 -0.0998,0.24669 -0.17539,-0.0434 -0.16797,-0.64457 z m -0.0423,-2.58093 c 0.0175,-0.42447 0.10383,-0.5108 0.22014,-0.22014 0.10525,0.26303 0.0923,0.57729 -0.0288,0.69837 -0.12108,0.12108 -0.20719,-0.0941 -0.19137,-0.47823 z m -3.01201,-1.85819 c 0.26303,-0.10525 0.57729,-0.0923 0.69837,0.0288 0.12108,0.12108 -0.0941,0.2072 -0.47823,0.19138 -0.42447,-0.0175 -0.5108,-0.10383 -0.22014,-0.22014 z m -2.40648,-4.03239 0.10642,-2.82384 2.82384,-0.10642 c 1.55311,-0.0585 2.82386,0.0235 2.82389,0.18219 3e-5,0.15873 -1.2297,0.27012 -2.73274,0.24754 -2.43743,-0.0366 -2.73281,0.0323 -2.73281,0.63764 0,0.37328 0.16397,0.6787 0.36437,0.6787 0.2004,0 0.36437,0.32793 0.36437,0.72873 0,0.4008 -0.16397,0.72873 -0.36437,0.72873 -0.6664,0 -0.41449,2.11966 0.27327,2.29939 0.47125,0.12315 0.4197,0.17767 -0.1975,0.20891 -0.811,0.041 -0.83208,-0.0394 -0.72874,-2.78157 z m 2.03756,2.38659 c 0.34007,-0.34007 0.53441,-0.34007 0.87448,0 0.34007,0.34008 0.24291,0.43724 -0.43724,0.43724 -0.68015,0 -0.77731,-0.0972 -0.43724,-0.43724 z m 3.38093,-0.13967 c 0.0175,-0.42447 0.10383,-0.5108 0.22014,-0.22014 0.10525,0.26303 0.0923,0.57729 -0.0288,0.69837 -0.12108,0.12108 -0.20719,-0.0941 -0.19137,-0.47823 z m -8.53462,-1.10414 c -1.7001,-0.88458 -1.74193,-0.94399 -1.13614,-1.61338 0.34593,-0.38225 0.93764,-0.79296 1.31492,-0.91271 0.37729,-0.11974 0.60255,-0.35269 0.50059,-0.51767 -0.22055,-0.35686 0.73554,-0.78721 1.05009,-0.47266 0.1198,0.11979 0.19879,0.88733 0.17554,1.70563 -0.0232,0.81831 -0.11725,1.20089 -0.2089,0.85019 -0.22811,-0.87289 -0.84193,-0.80648 -0.84193,0.0911 0,0.40485 0.24291,0.72873 0.54655,0.72873 0.3006,0 0.54655,0.24595 0.54655,0.54655 0,0.6636 0.18012,0.70113 -1.94727,-0.40577 z m 10.78314,-4.04987 c 0.75151,-0.0786 1.98124,-0.0786 2.73275,0 0.7515,0.0786 0.13664,0.14293 -1.36637,0.14293 -1.50301,0 -2.11788,-0.0643 -1.36638,-0.14293 z m -7.714,-1.4653 c 0.02,-0.44457 0.0886,-0.48726 0.22628,-0.14096 0.15073,0.37901 0.26242,0.39168 0.47145,0.0535 0.21339,-0.34527 0.45377,-0.34696 1.08782,-0.008 0.44764,0.23957 1.53427,0.3783 2.41472,0.30827 0.88045,-0.07 1.60081,-0.003 1.60081,0.14858 0,0.15175 -1.31171,0.2759 -2.91492,0.2759 -2.54417,0 -2.91127,-0.0811 -2.88616,-0.63764 z m 7.16746,0.38049 c 0.4509,-0.0868 1.18874,-0.0868 1.63964,0 0.45091,0.0868 0.082,0.15791 -0.81982,0.15791 -0.90181,0 -1.27073,-0.0711 -0.81982,-0.15791 z m 3.27929,0.0158 c 0.2505,-0.10108 0.66041,-0.10108 0.91091,0 0.25051,0.10107 0.0456,0.18378 -0.45545,0.18378 -0.50101,0 -0.70596,-0.0827 -0.45546,-0.18378 z m 1.57732,-0.3356 c 0.0175,-0.42447 0.10382,-0.51081 0.22014,-0.22014 0.10525,0.26302 0.0923,0.57729 -0.0288,0.69837 -0.12108,0.12107 -0.20719,-0.0941 -0.19137,-0.47823 z m -17.26564,-0.40719 c -0.0973,-0.16015 -0.23488,-1.18483 -0.30585,-2.27706 l -0.12902,-1.98587 1.40914,-0.0913 c 0.77504,-0.0502 1.49344,-0.17557 1.59647,-0.27859 0.10302,-0.10302 0.45269,-0.0445 0.77704,0.12994 0.43994,0.23668 0.58974,0.85815 0.58974,2.44666 v 2.12938 l -1.88035,0.10901 c -1.03419,0.06 -1.95992,-0.022 -2.05717,-0.18219 z m 2.95623,-1.39392 c -0.11218,-0.11219 -0.31592,0.09 -0.45275,0.44938 -0.19774,0.5193 -0.15588,0.56115 0.20397,0.20397 0.24902,-0.24716 0.36097,-0.54117 0.24878,-0.65335 z m 2.40301,-1.7184 0.0357,-1.55125 1.82183,-0.0658 c 1.73014,-0.0625 1.75765,-0.0494 0.54655,0.26084 -0.7014,0.17967 -1.47123,0.25889 -1.71072,0.17604 -0.27566,-0.0954 -0.48932,0.37814 -0.58229,1.29042 l -0.14685,1.44106 0.0357,-1.55127 z m 5.34781,0.24021 c 0.0175,-0.42447 0.10383,-0.5108 0.22014,-0.22014 0.10525,0.26303 0.0923,0.5773 -0.0288,0.69837 -0.12108,0.12108 -0.20719,-0.0941 -0.19137,-0.47823 z m 4.98127,-1.85058 c 0.2505,-0.10107 0.66041,-0.10107 0.91091,0 0.25051,0.10108 0.0456,0.18379 -0.45545,0.18379 -0.50101,0 -0.70596,-0.0827 -0.45546,-0.18379 z m -10.28355,-1.14563 c -0.51542,-0.51542 -0.0614,-0.72516 1.1744,-0.54252 0.75151,0.11107 2.04757,0.22171 2.88014,0.24588 0.83256,0.0242 1.43429,0.17251 1.33717,0.32966 -0.19197,0.31061 -5.078,0.28069 -5.39171,-0.033 z m 6.59586,0.006 c -0.098,-0.15852 0.38425,-0.22256 1.0716,-0.14232 0.68734,0.0802 1.24972,0.20994 1.24972,0.28822 0,0.27421 -2.145,0.13939 -2.32132,-0.1459 z m 2.71814,0.1343 c 0.11462,-0.11461 0.68709,-0.24289 1.27216,-0.28506 0.58507,-0.0422 1.19922,-0.24759 1.36478,-0.45649 0.18556,-0.23414 0.24463,-0.1702 0.15401,0.16673 -0.0911,0.33884 -0.68899,0.59152 -1.57317,0.66489 -0.78439,0.0651 -1.33239,0.0245 -1.21778,-0.0901 z m -15.56603,-1.01688 c -0.28889,-0.46743 0.57093,-1.36596 1.10938,-1.15934 0.67184,0.25781 1.33511,-0.67851 0.93698,-1.3227 -0.2615,-0.42312 -0.42045,-0.43918 -0.78076,-0.0789 -0.72483,0.72484 -1.09261,0.52682 -0.96851,-0.52144 0.0776,-0.65566 0.35341,-1.00137 0.84403,-1.05806 0.4008,-0.0463 1.41173,-0.19459 2.2465,-0.32951 l 1.51777,-0.24531 -0.0711,2.48756 -0.0711,2.48755 -2.28317,0.0294 c -1.25575,0.0161 -2.37178,-0.11401 -2.48007,-0.28923 z m 3.4747,-0.67254 c -0.26233,-0.16213 -0.62527,-0.20312 -0.80653,-0.0911 -0.18127,0.11203 -0.11494,0.33634 0.14739,0.49847 0.26233,0.16213 0.62527,0.20312 0.80653,0.0911 0.18127,-0.11203 0.11494,-0.33634 -0.14739,-0.49847 z m 2.61413,-0.91977 c 0.0175,-0.42447 0.10382,-0.51081 0.22013,-0.22014 0.10525,0.26303 0.0923,0.57729 -0.0288,0.69837 -0.12108,0.12107 -0.20719,-0.0941 -0.19137,-0.47823 z m 5.46548,-0.36437 c 0.0175,-0.42446 0.10383,-0.5108 0.22014,-0.22014 0.10525,0.26303 0.0923,0.5773 -0.0288,0.69837 -0.12108,0.12108 -0.20719,-0.0941 -0.19137,-0.47823 z m -5.40972,-1.6093 c 0,-0.7014 0.075,-0.98834 0.16664,-0.63764 0.0916,0.3507 0.0916,0.92458 0,1.27528 -0.0916,0.3507 -0.16664,0.0638 -0.16664,-0.63764 z m -4.82129,-2.5425 -1.27528,-0.2765 1.2109,-0.048 c 0.94318,-0.0374 1.18418,-0.18895 1.08999,-0.68561 -0.074,-0.39001 -0.51996,-0.68348 -1.14845,-0.75569 -0.81022,-0.0931 -0.96919,-0.24721 -0.75168,-0.72874 0.15172,-0.33587 0.28758,-1.04359 0.30191,-1.57271 0.0237,-0.87514 0.18715,-0.98112 1.80931,-1.17324 0.98078,-0.11616 1.88538,-0.14808 2.01021,-0.0709 0.12482,0.0771 0.22417,1.34294 0.22076,2.81288 l -0.006,2.67262 -1.0931,0.0512 c -0.6012,0.0282 -1.66697,-0.0732 -2.36838,-0.22531 z m 3.27929,-0.73679 c 0,-0.4008 -0.16396,-0.72873 -0.36436,-0.72873 -0.2004,0 -0.36437,0.32793 -0.36437,0.72873 0,0.4008 0.16397,0.72873 0.36437,0.72873 0.2004,0 0.36436,-0.32793 0.36436,-0.72873 z m 1.60394,0.58486 c -0.10727,-0.27952 -0.12969,-1.14034 -0.0498,-1.91292 0.13964,-1.35081 0.14756,-1.3391 0.20646,0.3051 l 0.0613,1.70979 1.54856,0.13947 1.54855,0.13948 -1.55998,0.0637 c -1.0449,0.0426 -1.62439,-0.10416 -1.75502,-0.44458 z m 5.34778,-0.0687 c 0.0175,-0.42446 0.10383,-0.5108 0.22014,-0.22014 0.10525,0.26303 0.0923,0.5773 -0.0288,0.69837 -0.12108,0.12108 -0.20719,-0.0941 -0.19137,-0.47823 z m 6.55859,-2.18619 c 0.0175,-0.42447 0.10382,-0.51081 0.22014,-0.22014 0.10525,0.26303 0.0923,0.57729 -0.0288,0.69837 -0.12108,0.12107 -0.20719,-0.0941 -0.19137,-0.47823 z m -0.0288,-1.95166 c 0,-0.54835 -0.3062,-0.73876 -1.36637,-0.84966 l -1.36637,-0.14293 1.54856,-0.0613 c 1.42521,-0.0564 1.54855,0.0113 1.54855,0.84967 0,0.501 -0.082,0.91091 -0.18218,0.91091 -0.1002,0 -0.18219,-0.31803 -0.18219,-0.70674 z m -10.6577,-1.01751 c 0.85171,-0.0767 2.24541,-0.0767 3.09711,0 0.85171,0.0767 0.15486,0.13947 -1.54855,0.13947 -1.70341,0 -2.40026,-0.0628 -1.54856,-0.13947 z m 6.58136,0.0179 c 0.26303,-0.10525 0.57729,-0.0923 0.69837,0.0288 0.12108,0.12107 -0.0941,0.20719 -0.47823,0.19137 -0.42447,-0.0175 -0.5108,-0.10382 -0.22014,-0.22014 z"
         id="path960" />
      <path
         style="fill:#ced94d;stroke-width:0.364366"
         d="m 177.33782,160.86298 c -0.46243,-0.29375 -0.60129,-4.76836 -0.15037,-4.84519 0.12876,-0.0219 1.2651,-0.10114 2.5252,-0.17601 1.72638,-0.10258 2.33951,-0.01 2.48753,0.37578 0.29691,0.77372 -0.48534,1.96049 -1.37889,2.09196 -1.28446,0.18898 -1.25884,1.02745 0.0314,1.02745 0.80565,0 1.12346,-0.17179 1.12346,-0.60728 0,-0.334 0.0769,-0.53034 0.17095,-0.43632 0.094,0.094 0.0726,0.77721 -0.0477,1.51819 l -0.21865,1.34724 -2.04743,-0.006 c -1.12609,-0.003 -2.24908,-0.13368 -2.49554,-0.29024 z m 3.36304,-0.43291 c 0.12385,-0.2004 -0.0401,-0.36437 -0.36437,-0.36437 -0.32426,0 -0.48822,0.16397 -0.36437,0.36437 0.12386,0.2004 0.28782,0.36436 0.36437,0.36436 0.0765,0 0.24051,-0.16396 0.36437,-0.36436 z m 1.27528,-3.85005 c 0,-0.40449 -0.2837,-0.53716 -0.97391,-0.45545 -1.41852,0.16793 -1.54361,1.0262 -0.14955,1.0262 0.77689,0 1.12346,-0.17606 1.12346,-0.57075 z m 1.16822,1.93713 0.10706,-2.64166 h 2.73274 2.73275 v 2.55057 c 0,2.29571 -0.0728,2.55414 -0.72873,2.58637 -0.55473,0.0273 -0.57647,-3.7e-4 -0.0911,-0.11644 0.48253,-0.1152 0.63629,-0.52279 0.63207,-1.67545 -0.004,-1.1125 -0.10008,-1.37585 -0.35605,-0.97667 -0.19276,0.3006 -0.26118,0.83349 -0.15205,1.18419 0.12068,0.38783 0.008,0.63764 -0.28776,0.63764 -0.31793,0 -0.49941,-0.50437 -0.5244,-1.45746 -0.0313,-1.1949 0.0847,-1.45747 0.64381,-1.45747 0.37511,0 0.68202,-0.23335 0.68202,-0.51856 0,-0.40289 -0.56892,-0.50972 -2.55056,-0.47895 -2.32333,0.0361 -2.55006,0.10664 -2.54498,0.79184 0.004,0.56986 0.0827,0.63049 0.32363,0.25008 0.17493,-0.27617 0.50034,-0.38947 0.72315,-0.25177 0.49451,0.30563 0.50217,0.58905 0.0352,1.30046 -0.31892,0.48582 -0.39865,0.48582 -0.71757,0 -0.26063,-0.39703 -0.34538,-0.098 -0.30977,1.0931 0.0318,1.06557 0.10216,1.28882 0.2008,0.63764 0.20114,-1.32771 0.70907,-1.27686 0.90985,0.0911 0.13976,0.95227 0.0491,1.0931 -0.70334,1.0931 -0.83921,0 -0.86073,-0.0751 -0.75672,-2.64165 z m 2.11107,1.02351 c 0,-0.28878 0.16397,-0.62638 0.36437,-0.75024 0.2004,-0.12385 0.36436,0.11242 0.36436,0.52505 0,0.41263 -0.16396,0.75023 -0.36436,0.75023 -0.2004,0 -0.36437,-0.23627 -0.36437,-0.52504 z m -10.93098,-3.11862 c 0,-0.2004 0.15429,-0.36436 0.34286,-0.36436 0.18858,0 0.4442,0.16396 0.56806,0.36436 0.12385,0.2004 -0.0304,0.36437 -0.34286,0.36437 -0.31243,0 -0.56806,-0.16397 -0.56806,-0.36437 z m 3.1882,-2.09586 c -0.68857,-0.15525 -0.94321,-2.27653 -0.27327,-2.27653 0.2004,0 0.36437,-0.32793 0.36437,-0.72873 0,-0.4008 -0.16397,-0.72873 -0.36437,-0.72873 -0.2004,0 -0.36437,-0.30008 -0.36437,-0.66683 0,-0.58756 0.31402,-0.66336 2.64166,-0.63764 l 2.64165,0.0292 0.11756,1.44143 c 0.0647,0.79279 0.0162,1.98153 -0.1076,2.64166 -0.18993,1.01242 -0.38221,1.20022 -1.22888,1.20022 -0.55204,0 -1.19352,-0.18981 -1.42551,-0.4218 -0.28125,-0.28125 -0.5787,-0.30295 -0.8927,-0.0651 -0.25899,0.19617 -0.75783,0.29197 -1.10854,0.2129 z m 4.46349,-2.82308 c 0,-1.98377 -0.011,-2.00401 -1.0931,-2.00401 -1.33176,0 -1.39835,0.26635 -0.18218,0.72873 0.90471,0.34397 1.24429,1.05143 0.54655,1.13865 -0.20041,0.025 -0.56708,0.066 -0.81484,0.0911 -0.84316,0.0853 -0.73265,1.30989 0.15014,1.66383 1.34925,0.54095 1.39343,0.48964 1.39343,-1.61829 z m 1.35045,2.86865 c -0.14154,-0.14155 -0.25735,-1.37778 -0.25735,-2.74719 v -2.48984 l 1.73073,0.0546 c 1.06909,0.0337 1.34768,0.11262 0.72874,0.20638 -0.90045,0.13641 -1.00201,0.29925 -1.00201,1.60656 0,0.9617 -0.1353,1.37114 -0.39921,1.20804 -0.21956,-0.1357 -0.33447,-0.80123 -0.25534,-1.47896 0.0791,-0.67774 0.0128,-1.23225 -0.14735,-1.23225 -0.16016,0 -0.27218,1.02478 -0.24893,2.27729 0.0232,1.2525 0.11725,1.99035 0.2089,1.63964 0.18028,-0.68985 0.84193,-0.88531 0.84193,-0.24872 0,0.21495 0.30668,0.29159 0.68558,0.17133 0.4411,-0.14 0.76557,-0.009 0.90987,0.36688 0.20384,0.53119 0.28027,0.5285 0.83831,-0.0296 0.5758,-0.57579 0.64393,-0.57314 1.09415,0.0426 0.41392,0.56608 0.48011,0.30234 0.48011,-1.91308 v -2.56967 l -1.002,0.12488 c -0.99056,0.12346 -0.9916,0.12144 -0.0911,-0.17754 0.501,-0.16634 1.04194,-0.18803 1.20209,-0.0482 0.16014,0.13983 0.24213,1.38573 0.18218,2.76868 l -0.10899,2.51444 -2.56648,0.10554 c -1.41157,0.058 -2.68229,-0.0103 -2.82384,-0.15182 z m -9.00214,-2.3221 c 0,-0.4008 0.14485,-0.72873 0.32187,-0.72873 0.17703,0 0.40763,0.32793 0.51244,0.72873 0.12385,0.47363 0.0112,0.72873 -0.32187,0.72873 -0.28184,0 -0.51244,-0.32793 -0.51244,-0.72873 z m 12.98541,-0.54655 c -0.2676,-0.69736 0.10558,-1.69884 0.53431,-1.43387 0.42443,0.26231 0.42512,1.98042 7.3e-4,1.98042 -0.17896,0 -0.41976,-0.24595 -0.53512,-0.54655 z m -2.05443,-0.72873 c 0,-0.3006 0.16397,-0.54655 0.36437,-0.54655 0.2004,0 0.36436,0.24595 0.36436,0.54655 0,0.3006 -0.16396,0.54655 -0.36436,0.54655 -0.2004,0 -0.36437,-0.24595 -0.36437,-0.54655 z m -0.27327,-3.02023 c -1.03925,-0.10799 -1.18419,-0.25402 -1.18419,-1.19306 0,-0.58851 0.16396,-1.07002 0.36436,-1.07002 0.2004,0 0.36437,0.39073 0.36437,0.86828 0,0.71768 0.1738,0.85871 1.00201,0.81311 1.57206,-0.0865 1.91292,-0.49819 1.91292,-2.31016 0,-2.07086 0.31678,-1.84716 0.71098,0.50207 l 0.2964,1.76635 0.0429,-2.0951 c 0.0396,-1.93545 -0.0196,-2.09706 -0.77697,-2.12072 -0.777,-0.0243 -0.78176,-0.0407 -0.0911,-0.31463 0.98373,-0.39016 1.26826,0.14598 1.24409,2.34426 -0.0326,2.964 -0.33006,3.17909 -3.88574,2.80962 z m -8.21545,-0.5623 c -0.28469,-0.74187 0.13916,-4.63964 0.48151,-4.42806 0.15026,0.0929 1.20894,-0.0191 2.35262,-0.24876 2.51019,-0.50412 2.58895,-0.42171 2.57083,2.68957 l -0.0134,2.29049 -1.53463,0.11136 c -0.84405,0.0613 -1.88968,-0.0787 -2.32363,-0.31089 -0.60187,-0.32212 -0.85239,-0.31968 -1.05631,0.0103 -0.19436,0.31449 -0.32456,0.28338 -0.47704,-0.11398 z m 5.20943,-1.15423 c 0,-1.21455 -0.0607,-1.27528 -1.27528,-1.27528 -0.70141,0 -1.27528,0.14643 -1.27528,0.32538 0,0.41224 1.05879,0.83193 1.46516,0.58077 0.5307,-0.32798 0.8041,0.55874 0.34342,1.11382 -0.35476,0.42747 -0.32545,0.53059 0.15082,0.53059 0.4327,0 0.59116,-0.34183 0.59116,-1.27528 z m -2.1862,-2.36838 c 0,-0.2004 -0.0723,-0.36436 -0.16068,-0.36436 -0.0884,0 -0.26201,0.16396 -0.38587,0.36436 -0.12385,0.20041 -0.0515,0.36437 0.16068,0.36437 0.21223,0 0.38587,-0.16396 0.38587,-0.36437 z m 0.91092,0 c 0.12385,-0.2004 0.0515,-0.36436 -0.16068,-0.36436 -0.21223,0 -0.38587,0.16396 -0.38587,0.36436 0,0.20041 0.0723,0.36437 0.16068,0.36437 0.0884,0 0.26201,-0.16396 0.38587,-0.36437 z m 1.27528,-0.36436 c 0,-0.2004 -0.0723,-0.36437 -0.16068,-0.36437 -0.0884,0 -0.26202,0.16397 -0.38587,0.36437 -0.12386,0.2004 -0.0515,0.36436 0.16068,0.36436 0.21223,0 0.38587,-0.16396 0.38587,-0.36436 z m 1.23895,1.86131 c 0.0358,-2.6556 0.0503,-2.69473 1.03257,-2.79836 0.54794,-0.0578 1.10616,0.0727 1.24049,0.29008 0.14659,0.23718 0.0743,0.29019 -0.1807,0.13257 -0.27576,-0.17043 -0.50339,0.12961 -0.64839,0.85461 -0.1229,0.61449 -0.43948,1.11725 -0.7035,1.11725 -0.29859,0 -0.53615,0.58539 -0.62843,1.54856 -0.0816,0.8517 -0.13202,0.33658 -0.11204,-1.14471 z m 0.46741,-1.92963 c -0.11631,-0.29067 -0.20265,-0.20433 -0.22013,0.22014 -0.0158,0.3841 0.0703,0.5993 0.19137,0.47823 0.12108,-0.12108 0.13402,-0.43535 0.0288,-0.69837 z m -9.88117,2.87644 c 0.13683,-0.35935 0.34057,-0.56157 0.45275,-0.44938 0.11219,0.11218 2.4e-4,0.40619 -0.24878,0.65335 -0.35985,0.35717 -0.40171,0.31532 -0.20397,-0.20397 z m 11.4541,-1.89721 c 0,-0.3006 0.16397,-0.54655 0.36437,-0.54655 0.2004,0 0.36436,0.24595 0.36436,0.54655 0,0.30061 -0.16396,0.54655 -0.36436,0.54655 -0.2004,0 -0.36437,-0.24594 -0.36437,-0.54655 z m -5.91404,-3.30274 c -0.13217,-0.13218 -0.78217,-0.28355 -1.44444,-0.33637 -1.15084,-0.0918 -1.20144,-0.15851 -1.14354,-1.50776 0.0333,-0.77644 0.0743,-1.8698 0.0911,-2.42968 l 0.0305,-1.01797 2.64166,0.10705 c 2.60357,0.10551 2.64229,0.12157 2.68603,1.11357 0.0407,0.92354 0.0312,0.93098 -0.11537,0.0902 -0.13736,-0.78778 -0.29686,-0.88341 -1.13748,-0.68198 -1.28318,0.30749 -1.47023,0.49614 -0.4919,0.49614 0.43421,0 0.78947,0.16397 0.78947,0.36437 0,0.2004 -0.40992,0.36436 -0.91092,0.36436 -0.501,0 -0.91091,0.18308 -0.91091,0.40685 0,0.23988 0.38225,0.33377 0.93148,0.22877 1.19334,-0.22812 1.96319,0.54008 1.82882,1.82491 -0.089,0.85133 -0.29149,1.01716 -1.35442,1.10938 -0.68736,0.0596 -1.35789,2.9e-4 -1.49007,-0.13188 z m 2.63475,-1.6162 c 0,-0.2004 -0.57388,-0.36436 -1.27528,-0.36436 -0.70141,0 -1.27528,0.16396 -1.27528,0.36436 0,0.2004 0.57387,0.36437 1.27528,0.36437 0.7014,0 1.27528,-0.16397 1.27528,-0.36437 z m 1.34737,1.59029 c -0.13985,-0.13986 -0.23101,-1.41569 -0.20257,-2.83521 0.0401,-2.00262 0.10135,-2.27206 0.27328,-1.20248 0.12186,0.75814 0.38143,1.36071 0.57682,1.33905 0.19539,-0.0217 0.41401,0.13686 0.48582,0.35229 0.0718,0.21543 -0.12904,0.3917 -0.44635,0.3917 -0.39669,0 -0.5637,0.31301 -0.53464,1.002 0.026,0.61647 0.10638,0.75667 0.2089,0.36437 0.19604,-0.75018 0.84193,-0.86029 0.84193,-0.14354 0,0.46402 0.55253,0.51085 3.37038,0.2856 0.53192,-0.0425 0.64882,-0.45878 0.70505,-2.51044 0.0662,-2.41482 0.0699,-2.42344 0.2037,-0.47493 0.23363,3.40135 0.12039,3.55089 -2.74363,3.62317 -1.36643,0.0345 -2.59884,-0.0517 -2.73869,-0.19158 z m -10.05736,-0.84005 c -0.26233,-0.16213 -0.32866,-0.38644 -0.14739,-0.49847 0.18126,-0.11203 0.5442,-0.071 0.80653,0.0911 0.26233,0.16213 0.32866,0.38644 0.14739,0.49847 -0.18126,0.11203 -0.5442,0.071 -0.80653,-0.0911 z m 13.78806,-0.96019 c -0.32084,-0.3866 -0.35176,-0.65457 -0.0946,-0.81983 0.424,-0.27245 0.41725,-1.46995 -0.0122,-2.16482 -0.18183,-0.29418 -0.0444,-0.44906 0.39831,-0.44906 0.57181,0 0.68154,0.30849 0.71286,2.00402 0.0384,2.07883 -0.19267,2.40774 -1.00439,1.42969 z m -1.79878,-0.3366 c 0,-0.334 0.17626,-0.54852 0.39169,-0.47671 0.21544,0.0718 0.3917,0.28633 0.3917,0.47671 0,0.19039 -0.17626,0.40491 -0.3917,0.47671 -0.21543,0.0718 -0.39169,-0.1427 -0.39169,-0.47671 z m -1.45746,-2.16469 c 0,-0.55832 0.20559,-0.93242 0.51243,-0.93242 0.33438,0 0.4457,0.25521 0.32039,0.73441 -0.29288,1.11999 -0.83282,1.24836 -0.83282,0.19801 z m 1.45746,-0.56805 c 0,-0.2004 0.17364,-0.36437 0.38587,-0.36437 0.21223,0 0.28454,0.16397 0.16068,0.36437 -0.12386,0.2004 -0.2975,0.36437 -0.38587,0.36437 -0.0884,0 -0.16068,-0.16397 -0.16068,-0.36437 z m -6.83186,-1.73777 c -1.54781,-0.1259 -1.54857,-0.1267 -1.5901,-1.65357 -0.0229,-0.84018 -0.095,-1.9785 -0.16035,-2.52961 -0.11548,-0.97391 -0.0683,-1.002 1.68119,-1.002 h 1.8 v 1.27528 c 0,1.03237 0.1388,1.27528 0.72873,1.27528 0.4008,0 0.72873,0.16396 0.72873,0.36436 0,0.20041 -0.40991,0.36437 -0.91091,0.36437 -0.50101,0 -0.91092,0.16396 -0.91092,0.36437 0,0.2004 0.23254,0.36436 0.51675,0.36436 0.28421,0 0.77611,0.0995 1.0931,0.22117 0.42141,0.16171 0.57635,-0.002 0.57635,-0.60728 0,-0.45564 0.0976,-0.73086 0.21685,-0.61159 0.11928,0.11928 0.11168,0.69574 -0.0169,1.28104 -0.25058,1.14091 -0.36875,1.16906 -3.75254,0.89382 z m 4.7993,-0.0537 c -0.0845,-0.0835 -0.12901,-0.82134 -0.0989,-1.63964 l 0.0547,-1.48783 0.25491,1.63965 c 0.14021,0.9018 0.27954,1.3527 0.30964,1.002 0.0653,-0.76046 0.78346,-0.8672 0.78346,-0.11643 0,0.28666 0.36892,0.59376 0.81982,0.68245 0.45091,0.0887 0.19211,0.14107 -0.57509,0.11643 -0.7672,-0.0246 -1.46405,-0.11313 -1.54856,-0.19663 z m 4.46996,0.0738 c 0.50226,-0.0934 0.85611,-0.47922 0.9553,-1.04167 0.13723,-0.77815 0.15182,-0.76356 0.11316,0.11316 -0.0357,0.80858 -0.22351,1.01343 -0.9553,1.04167 -0.74678,0.0288 -0.76717,0.008 -0.11316,-0.11316 z m -13.36838,-0.83291 c 0,-0.4008 0.16397,-0.72873 0.36437,-0.72873 0.2004,0 0.36436,0.32793 0.36436,0.72873 0,0.4008 -0.16396,0.72873 -0.36436,0.72873 -0.2004,0 -0.36437,-0.32793 -0.36437,-0.72873 z m 13.11718,-0.3079 c 0,-0.36974 -0.33515,-0.97556 -0.74477,-1.34626 -0.8346,-0.7553 -0.82414,-2.17168 0.016,-2.17168 0.3568,0 0.54156,0.34786 0.53218,1.002 -0.008,0.5511 0.17352,1.00201 0.40316,1.00201 0.22965,0 0.40007,0.49152 0.37873,1.09226 -0.0413,1.16416 -0.58534,1.55604 -0.58534,0.42167 z m -3.46148,-1.14957 c 0.12386,-0.2004 0.2975,-0.36436 0.38587,-0.36436 0.0884,0 0.16068,0.16396 0.16068,0.36436 0,0.20041 -0.17364,0.36437 -0.38587,0.36437 -0.21223,0 -0.28453,-0.16396 -0.16068,-0.36437 z m -1.91948,-1.82183 c 0,-0.7014 0.075,-0.98834 0.16664,-0.63764 0.0916,0.35071 0.0916,0.92458 0,1.27528 -0.0916,0.35071 -0.16664,0.0638 -0.16664,-0.63764 z m 1.0796,-0.18218 c 0.007,-0.6012 0.0891,-0.80304 0.18147,-0.44852 0.0924,0.35451 0.0863,0.84641 -0.0135,1.0931 -0.0998,0.24668 -0.17538,-0.0434 -0.16795,-0.64458 z m 5.05886,-0.39473 c 0.0175,-0.42446 0.10382,-0.5108 0.22013,-0.22014 0.10526,0.26303 0.0923,0.5773 -0.0288,0.69837 -0.12108,0.12108 -0.20719,-0.0941 -0.19137,-0.47823 z"
         id="path958" />
      <path
         style="fill:#b8c774;stroke-width:0.364366"
         d="m 166.3084,160.83756 c -1.05255,-0.18596 -1.25589,-0.36542 -1.16426,-1.02754 0.0611,-0.44123 -0.15506,-1.20832 -0.48027,-1.70465 -0.55722,-0.85042 -0.54925,-0.9249 0.13831,-1.29287 0.40127,-0.21475 1.32391,-0.39046 2.05032,-0.39046 0.78771,0 1.22985,-0.14705 1.09555,-0.36436 -0.12386,-0.2004 -0.1393,-0.36437 -0.0343,-0.36437 0.60363,0 0.97923,1.58883 0.59492,2.51662 -0.28804,0.69542 -0.29989,1.28614 -0.0395,1.97096 0.41061,1.07997 0.34612,1.09956 -2.16072,0.65667 z m 3.71879,-2.32041 0.10705,-2.64166 2.00402,-0.074 c 1.1022,-0.0407 1.75806,0.0243 1.45746,0.14452 -0.3006,0.12018 -0.67767,0.44041 -0.83793,0.71162 -0.36568,0.61886 -1.22757,0.64091 -1.47235,0.0377 -0.25755,-0.63474 -1.02467,0.46538 -0.783,1.1229 0.0981,0.26689 0.17835,1.03582 0.17835,1.70874 0,1.14548 0.0871,1.2326 1.36638,1.36641 1.23984,0.12969 1.20462,0.1486 -0.38033,0.20418 l -1.7467,0.0613 z m 1.38234,0.49444 c 0,-0.37937 0.24594,-0.78413 0.54654,-0.89948 0.39486,-0.15152 0.54655,0.0399 0.54655,0.68975 0,0.55662 -0.20832,0.89948 -0.54655,0.89948 -0.3006,0 -0.54654,-0.31039 -0.54654,-0.68975 z m -3.76335,-5.64241 c -0.36481,-0.55677 -0.85691,-0.93802 -1.09354,-0.84721 -0.23664,0.0908 -0.63606,-0.0552 -0.88759,-0.32447 -0.37316,-0.39947 -0.25544,-0.59398 0.63956,-1.0568 0.60329,-0.31198 1.09689,-0.72698 1.09689,-0.92224 0,-0.19525 0.32793,-0.355 0.72873,-0.355 0.90853,0 1.02536,1.63003 0.14115,1.96934 -0.46664,0.17906 -0.49795,0.33348 -0.1521,0.75021 0.23952,0.2886 0.3803,0.81132 0.31284,1.16161 -0.10023,0.52045 -0.24389,0.45182 -0.78594,-0.37544 z m 5.3119,-0.14997 c -1.05211,-0.51205 -1.91292,-1.11845 -1.91292,-1.34756 0,-0.22909 0.63719,-0.77466 1.41598,-1.21237 1.743,-0.97962 2.47899,-1.05743 0.90106,-0.0953 -1.78424,1.08797 -1.75661,1.38807 0.22004,2.38971 1.00942,0.51152 1.83531,1.00925 1.83531,1.10607 0,0.29069 -0.45366,0.13564 -2.45947,-0.84059 z m -2.78485,-6.1183 c -0.35046,-0.91328 -0.25729,-3.41209 0.15602,-4.18436 0.28956,-0.54106 0.76921,-0.70478 2.06474,-0.70478 1.99454,0 1.90523,0.36024 -0.12187,0.49155 l -1.40914,0.0913 0.12395,1.98587 c 0.0682,1.09223 0.25723,2.12574 0.42013,2.2967 0.1629,0.17095 1.132,0.25293 2.15356,0.18218 1.02156,-0.0708 1.85728,-0.006 1.85716,0.14464 -1.3e-4,0.1503 -1.13044,0.27327 -2.51181,0.27327 -1.95411,0 -2.56067,-0.12793 -2.73274,-0.57635 z m 4.95099,-2.88513 c 0.007,-0.6012 0.0891,-0.80304 0.18147,-0.44852 0.0924,0.35452 0.0863,0.84641 -0.0135,1.0931 -0.0998,0.24668 -0.1754,-0.0434 -0.16797,-0.64458 z m -0.4354,-1.63964 c -0.3284,-0.21223 -0.37334,-0.35544 -0.1126,-0.35879 0.23868,-0.003 0.53529,0.15839 0.65915,0.35879 0.27958,0.45237 0.15344,0.45237 -0.54655,0 z m -7.48772,-1.79585 c -0.19038,-0.18612 -0.92003,-0.39107 -1.62143,-0.45546 -1.25702,-0.1154 -1.27542,-0.14144 -1.2853,-1.8186 l -0.01,-1.70152 1.55857,-0.23372 c 0.85722,-0.12855 1.55858,-0.38764 1.55858,-0.57577 0,-0.18812 0.22734,-0.34204 0.50519,-0.34204 0.77182,0 0.98577,2.26245 0.26439,2.79588 -0.47047,0.3479 -0.49674,0.52627 -0.13194,0.89613 0.99841,1.01224 0.17383,2.42428 -0.83804,1.4351 z m 2.79123,-2.39436 -0.0143,-2.73275 h 1.68737 c 1.80648,0 1.96227,0.33439 0.2397,0.51448 -0.82026,0.0857 -1.06671,0.31412 -1.15745,1.07252 -0.1243,1.03883 0.2456,1.23406 0.96851,0.51115 0.3603,-0.3603 0.51926,-0.34425 0.78076,0.0789 0.39813,0.64419 -0.26515,1.58051 -0.93698,1.3227 -0.54656,-0.20974 -1.39633,0.69505 -1.10123,1.17253 0.11278,0.18249 1.27471,0.31264 2.58208,0.28924 1.30736,-0.0234 2.37696,0.0804 2.37688,0.23073 -8e-5,0.1503 -1.21762,0.27327 -2.70563,0.27327 h -2.70547 l -0.0143,-2.73274 z m 5.08962,0.334 c 0.0175,-0.42447 0.10382,-0.5108 0.22014,-0.22014 0.10525,0.26303 0.0923,0.57729 -0.0288,0.69837 -0.12108,0.12108 -0.20719,-0.0941 -0.19137,-0.47823 z m -7.82295,-4.73437 c -0.15839,-0.41274 -0.60542,-0.54312 -1.58754,-0.46299 -1.26475,0.10319 -1.35936,0.0439 -1.26409,-0.79185 0.0566,-0.49686 0.13863,-1.31329 0.18219,-1.81429 0.0701,-0.80663 0.24606,-0.91092 1.53666,-0.91092 0.96707,0 1.4271,0.15239 1.36722,0.4529 -0.0496,0.2491 0.22191,0.64784 0.60343,0.8861 0.53726,0.33553 0.62236,0.62074 0.37743,1.26494 -0.19062,0.50139 -0.17704,0.91776 0.0342,1.04833 0.59121,0.36538 0.3893,0.90231 -0.33931,0.90231 -0.37936,0 -0.78896,-0.25854 -0.91021,-0.57453 z m 2.76576,-2.1495 0.0104,-2.72403 1.19735,-0.22462 c 0.65854,-0.12355 1.50066,-0.14649 1.87138,-0.051 0.37071,0.0955 0.10015,0.19266 -0.60126,0.21591 -1.13125,0.0375 -1.27822,0.15543 -1.30134,1.04427 -0.0143,0.55111 -0.15019,1.27681 -0.30191,1.61268 -0.21751,0.48153 -0.0585,0.63565 0.75168,0.72874 0.62849,0.0722 1.07448,0.36568 1.14845,0.75569 0.0942,0.49666 -0.14681,0.64825 -1.08999,0.68561 l -1.2109,0.048 1.27528,0.26844 1.27528,0.26843 -1.5174,0.048 -1.51739,0.048 0.0104,-2.72403 z m 5.09946,-0.73745 c 0.007,-0.6012 0.0891,-0.80304 0.18147,-0.44852 0.0924,0.35451 0.0863,0.84641 -0.0135,1.09309 -0.0998,0.24669 -0.17538,-0.0434 -0.16795,-0.64457 z m -7.35835,-1.70038 c 0,-0.167 0.24594,-0.30363 0.54654,-0.30363 0.30061,0 0.54655,0.13663 0.54655,0.30363 0,0.16701 -0.24594,0.30364 -0.54655,0.30364 -0.3006,0 -0.54654,-0.13663 -0.54654,-0.30364 z"
         id="path956" />
      <path
         style="fill:#a7b990;stroke-width:0.364366"
         d="m 160.17019,160.88896 -1.94799,-0.13504 0.12616,-1.58461 c 0.0694,-0.87154 0.003,-1.50861 -0.1471,-1.4157 -0.1503,0.0929 -0.27228,-0.29167 -0.27106,-0.8546 0.002,-0.99258 0.0663,-1.02656 2.12099,-1.12434 l 2.11877,-0.10082 -0.0259,2.74043 c -0.0143,1.50723 -0.0259,2.71102 -0.0259,2.67507 0,-0.036 -0.8766,-0.12612 -1.948,-0.20039 z m 2.93769,-0.3678 c -0.0235,-0.3507 0.0473,-1.58044 0.15724,-2.73274 l 0.1999,-2.09511 2.24152,0.0613 c 1.70312,0.0465 1.89183,0.0969 0.78567,0.20951 -2.10779,0.21466 -2.66174,0.96703 -2.35377,3.19689 0.23285,1.68595 0.25424,1.71651 0.29945,0.42778 0.0307,-0.87457 0.1914,-1.29967 0.43456,-1.14939 0.21224,0.13117 0.33521,0.67373 0.27328,1.2057 -0.099,0.85004 0.0419,0.9945 1.16267,1.19251 1.02921,0.18183 0.84758,0.23456 -0.94128,0.27327 -1.87168,0.0405 -2.2232,-0.0512 -2.25924,-0.58967 z m 1.19651,-4.09912 c 0.12385,-0.2004 0.0515,-0.36436 -0.16068,-0.36436 -0.21223,0 -0.38587,0.16396 -0.38587,0.36436 0,0.2004 0.0723,0.36437 0.16068,0.36437 0.0884,0 0.26201,-0.16397 0.38587,-0.36437 z m -6.68246,3.41593 c -0.0321,-0.62625 -0.13974,-1.69202 -0.23926,-2.36838 l -0.18095,-1.22973 0.38339,1.22215 c 0.21086,0.67218 0.31853,1.73795 0.23926,2.36838 l -0.14413,1.14623 z m 10.97191,-0.501 c 0,-0.90181 0.071,-1.27073 0.1579,-0.81982 0.0868,0.4509 0.0868,1.18874 0,1.63964 -0.0869,0.45091 -0.1579,0.082 -0.1579,-0.81982 z m -0.23101,-3.09711 c -0.11535,-0.3006 -0.0509,-0.54655 0.1432,-0.54655 0.19411,0 0.35293,0.24595 0.35293,0.54655 0,0.3006 -0.0644,0.54655 -0.1432,0.54655 -0.0788,0 -0.23757,-0.24595 -0.35293,-0.54655 z m -8.97738,-1.94791 c 0,-0.19373 -0.36892,-0.27139 -0.81982,-0.17257 -0.65865,0.14436 -0.71238,0.10293 -0.27328,-0.21071 0.48582,-0.34702 0.48582,-0.39386 0,-0.42158 -0.36819,-0.021 -0.30873,-0.13339 0.18218,-0.34434 0.65383,-0.28096 0.62931,-0.31578 -0.2386,-0.33876 -0.92008,-0.0244 -0.95866,-0.10126 -0.78982,-1.57416 0.26355,-2.29913 0.2331,-2.26877 2.39349,-2.38676 2.33474,-0.12751 2.34364,-0.11499 2.28061,3.20658 l -0.0449,2.36838 -1.34491,0.11309 c -0.7397,0.0622 -1.34491,-0.0454 -1.34491,-0.23917 z m -1.16704,-3.92502 -0.12366,-1.41439 -0.17575,1.7138 c -0.0967,0.94259 -0.041,1.57906 0.12365,1.41439 0.16468,-0.16468 0.24377,-0.93589 0.17576,-1.7138 z m 6.9058,2.20305 c -0.5511,-0.29898 -1.002,-0.68244 -1.002,-0.85213 0,-0.41295 2.14721,-1.2861 2.44079,-0.99252 0.12717,0.12717 -0.0245,0.23122 -0.33707,0.23122 -0.47909,0 -1.23565,1.03828 -0.92811,1.2737 0.0548,0.042 0.4276,0.25945 0.8284,0.48332 0.4008,0.22386 0.56477,0.40544 0.36436,0.40351 -0.2004,-0.002 -0.81526,-0.24813 -1.36637,-0.5471 z m -5.73876,-4.87801 c 0.41641,-0.28031 0.22749,-0.36925 -0.7935,-0.3735 l -1.34004,-0.006 0.21267,-2.06063 c 0.15467,-1.49862 0.0989,-1.99034 -0.20433,-1.80291 -0.27599,0.17058 -0.33846,0.053 -0.18472,-0.34762 0.41659,-1.08561 0.95854,0.46717 0.76435,2.18997 -0.11378,1.00948 -0.0304,1.53537 0.24331,1.53537 0.28786,0 0.34917,-0.61056 0.19863,-1.97818 -0.20276,-1.84212 -0.15813,-2.00083 0.64885,-2.30765 1.15872,-0.44054 3.00035,-0.4193 3.02558,0.0349 0.0111,0.2004 0.0302,1.47113 0.0424,2.82384 l 0.0221,2.45947 -1.59092,0.10022 c -1.16554,0.0734 -1.4448,0.002 -1.04439,-0.26769 z m 3.82308,-7.39312 c -0.10935,-0.4509 -0.15347,-1.67946 -0.098,-2.73013 l 0.10079,-1.91031 2.1862,0.061 c 1.79777,0.0502 1.91135,0.0858 0.63929,0.20044 -1.06274,0.0958 -1.66548,0.36095 -1.92574,0.84726 -0.26627,0.49751 -0.26207,0.70786 0.0141,0.70786 0.48607,0 0.32688,2.61007 -0.18514,3.03549 -0.20085,0.16689 0.0753,0.20717 0.61531,0.0898 0.53882,-0.11715 1.08139,-0.0484 1.20569,0.15271 0.13498,0.21839 -0.29357,0.3657 -1.06382,0.3657 -1.03579,0 -1.329,-0.16147 -1.48867,-0.81982 z m 5.3706,-1.00201 c 0,-0.7014 0.075,-0.98834 0.16664,-0.63764 0.0916,0.3507 0.0916,0.92458 0,1.27528 -0.0916,0.35071 -0.16664,0.0638 -0.16664,-0.63764 z m -3.43214,-2.79946 c 0.26302,-0.10526 0.57729,-0.0923 0.69836,0.0287 0.12108,0.12108 -0.0941,0.20719 -0.47823,0.19137 -0.42446,-0.0175 -0.5108,-0.10382 -0.22013,-0.22014 z m 3.37637,-0.32801 c 0.0175,-0.42447 0.10383,-0.51081 0.22014,-0.22014 0.10525,0.26303 0.0923,0.57729 -0.0288,0.69837 -0.12108,0.12108 -0.20719,-0.0941 -0.19137,-0.47823 z m -9.50228,-1.94885 c -0.501,-0.15231 -1.19785,-0.23471 -1.54855,-0.1831 -0.47214,0.0695 -0.6362,-0.15789 -0.63206,-0.87595 0.004,-0.75996 0.082,-0.85152 0.35878,-0.42321 0.27377,0.42362 0.36416,0.3007 0.4019,-0.54655 l 0.0487,-1.0931 0.27814,1.0931 c 0.27662,1.08708 0.27839,1.08775 0.32126,0.12145 0.0237,-0.5344 0.24807,-1.05434 0.49857,-1.15542 0.2505,-0.10108 -0.11842,-0.20967 -0.81983,-0.24131 -0.7014,-0.0317 -1.07032,-0.14024 -0.81982,-0.24132 0.2505,-0.10108 0.45546,-0.34376 0.45546,-0.53928 0,-0.19553 -0.16397,-0.25417 -0.36437,-0.13032 -0.2004,0.12386 -0.36436,0.0738 -0.36436,-0.11115 0,-0.33804 2.52436,-0.79976 4.37252,-0.79976 h 0.99152 l -0.0404,2.73212 -0.0404,2.73213 -1.09309,-0.0307 c -0.60121,-0.0169 -1.50301,-0.15532 -2.00402,-0.30763 z m 4.00803,-0.0248 c 0,-0.2004 0.18404,-0.36437 0.40898,-0.36437 0.25688,0 0.28862,-0.16938 0.0853,-0.45545 -0.178,-0.25051 -0.29898,-0.70141 -0.26883,-1.00201 0.0301,-0.3006 0.0927,-1.20241 0.13911,-2.00401 0.0464,-0.80161 0.15928,-1.17053 0.25093,-0.81983 0.0916,0.35071 0.29945,0.63764 0.46179,0.63764 0.43505,0 0.73137,1.42258 0.34594,1.66079 -0.18159,0.11223 -0.33016,0.58655 -0.33016,1.05405 0,0.72049 0.26369,0.90495 1.73073,1.2107 l 1.73074,0.36071 -2.27728,0.0431 c -1.304,0.0247 -2.27729,-0.11265 -2.27729,-0.32129 z m 5.53652,-1.27528 c 0.007,-0.60121 0.0891,-0.80304 0.18147,-0.44852 0.0924,0.35451 0.0863,0.84641 -0.0135,1.09309 -0.0998,0.24669 -0.17538,-0.0434 -0.16795,-0.64457 z m 0,-2.1862 c 0.007,-0.6012 0.0891,-0.80304 0.18147,-0.44852 0.0924,0.35452 0.0863,0.84641 -0.0135,1.0931 -0.0998,0.24669 -0.17538,-0.0434 -0.16795,-0.64458 z m -4.44342,-1.25492 c 0,-0.13997 0.85695,-0.29359 1.90433,-0.34138 1.04738,-0.0478 1.82622,-0.0169 1.73074,0.0686 -0.31614,0.28314 -3.63507,0.53222 -3.63507,0.2728 z"
         id="path954" />
      <path
         style="fill:#d1de38;stroke-width:0.364366"
         d="m 184.76961,160.91589 c -0.1336,-0.1336 -0.24291,-0.62549 -0.24291,-1.0931 0,-1.18513 -0.64749,-1.06699 -0.83212,0.15182 -0.0986,0.65118 -0.16895,0.42793 -0.20081,-0.63764 -0.0356,-1.19109 0.0491,-1.49013 0.30978,-1.0931 0.31892,0.48582 0.39865,0.48582 0.71757,0 0.46701,-0.71141 0.45935,-0.99483 -0.0352,-1.30046 -0.22281,-0.1377 -0.54823,-0.0244 -0.72315,0.25177 -0.24095,0.38041 -0.31941,0.31978 -0.32363,-0.25008 -0.005,-0.6852 0.22165,-0.75575 2.54498,-0.79184 1.98163,-0.0308 2.55056,0.0761 2.55056,0.47895 0,0.28521 -0.30691,0.51856 -0.68203,0.51856 -0.55915,0 -0.67514,0.26257 -0.64381,1.45747 0.025,0.95309 0.20647,1.45746 0.5244,1.45746 0.29571,0 0.40845,-0.24981 0.28777,-0.63764 -0.10914,-0.3507 -0.0407,-0.88359 0.15205,-1.18419 0.25639,-0.39983 0.35196,-0.14308 0.35604,0.95646 0.005,1.39352 -0.0774,1.5196 -1.13306,1.73074 -1.46822,0.29364 -2.32259,0.28871 -2.62647,-0.0152 z m 1.21455,-1.60042 c 0,-0.41263 -0.16396,-0.6489 -0.36436,-0.52505 -0.2004,0.12386 -0.36437,0.46146 -0.36437,0.75024 0,0.28877 0.16397,0.52504 0.36437,0.52504 0.2004,0 0.36436,-0.3376 0.36436,-0.75023 z m -6.01204,1.1146 c -0.12385,-0.2004 0.0401,-0.36437 0.36437,-0.36437 0.32426,0 0.48822,0.16397 0.36437,0.36437 -0.12386,0.2004 -0.28782,0.36436 -0.36437,0.36436 -0.0765,0 -0.24051,-0.16396 -0.36437,-0.36436 z m -0.0977,-1.52869 c 0.0799,-0.23958 0.58542,-0.55333 1.12346,-0.69722 0.81177,-0.2171 0.97827,-0.14297 0.97827,0.43559 0,0.53597 -0.25984,0.69722 -1.12346,0.69722 -0.70951,0 -1.06997,-0.1605 -0.97827,-0.43559 z m 0.004,-2.20606 c 0.23217,-0.70712 2.09735,-0.80965 2.09735,-0.1153 0,0.39469 -0.34657,0.57075 -1.12346,0.57075 -0.73562,0 -1.07184,-0.15723 -0.97391,-0.45545 z m 6.24337,-2.98981 c -0.1443,-0.37605 -0.46876,-0.50688 -0.90986,-0.36688 -0.37891,0.12026 -0.68559,0.0436 -0.68559,-0.17133 0,-0.63659 -0.66165,-0.44113 -0.84193,0.24872 -0.0916,0.35071 -0.18565,-0.38714 -0.2089,-1.63964 -0.0232,-1.25251 0.0888,-2.27729 0.24894,-2.27729 0.16016,0 0.22646,0.55451 0.14734,1.23225 -0.0791,0.67773 0.0358,1.34326 0.25535,1.47896 0.26432,0.16336 0.3992,-0.253 0.3992,-1.23224 0,-1.28253 0.1089,-1.48269 0.81983,-1.50702 0.4509,-0.0154 1.35272,-0.0564 2.00404,-0.0911 l 1.18421,-0.063 -3e-5,2.52911 c -2e-5,2.18185 -0.0659,2.43896 -0.48013,1.87251 -0.45023,-0.61571 -0.51836,-0.61836 -1.09415,-0.0426 -0.55805,0.55805 -0.63448,0.56074 -0.83832,0.0296 z m 2.0482,-2.54527 c 0,-0.48917 -0.14679,-0.98013 -0.32619,-1.09101 -0.42873,-0.26497 -0.80191,0.73651 -0.53431,1.43387 0.32766,0.85388 0.8605,0.64157 0.8605,-0.34286 z m -2.1862,-0.38587 c 0,-0.3006 -0.16396,-0.54655 -0.36436,-0.54655 -0.2004,0 -0.36437,0.24595 -0.36437,0.54655 0,0.3006 0.16397,0.54655 0.36437,0.54655 0.2004,0 0.36436,-0.24595 0.36436,-0.54655 z m -5.40145,2.34702 c -0.88279,-0.35394 -0.9933,-1.57858 -0.15014,-1.66383 0.24776,-0.025 0.61443,-0.066 0.81484,-0.0911 0.69774,-0.0872 0.35816,-0.79468 -0.54655,-1.13865 -1.21617,-0.46238 -1.14958,-0.72873 0.18218,-0.72873 1.08206,0 1.0931,0.0203 1.0931,2.00401 0,2.10793 -0.0442,2.15924 -1.39343,1.61829 z m 2.9092,-6.8105 c -0.0414,-1.09929 0.087,-1.54856 0.44269,-1.54856 0.27556,0 0.59447,-0.4673 0.7087,-1.03844 0.17787,-0.88934 0.36752,-1.02929 1.32082,-0.97468 2.73868,0.15688 2.57435,0.008 2.52775,2.2864 l -0.0429,2.0951 -0.2964,-1.76635 c -0.3942,-2.34923 -0.71098,-2.57293 -0.71098,-0.50207 0,1.81197 -0.34086,2.22361 -1.91292,2.31016 -0.82821,0.0456 -1.00201,-0.0954 -1.00201,-0.81311 0,-1.29865 -0.66036,-1.04717 -0.82952,0.31591 -0.12739,1.02652 -0.15472,0.978 -0.20527,-0.36436 z m 2.49225,-2.09511 c 0,-0.3006 -0.16396,-0.54655 -0.36436,-0.54655 -0.2004,0 -0.36437,0.24595 -0.36437,0.54655 0,0.30061 0.16397,0.54655 0.36437,0.54655 0.2004,0 0.36436,-0.24594 0.36436,-0.54655 z m -4.75,2.56652 c 0.46068,-0.55508 0.18728,-1.4418 -0.34342,-1.11382 -0.40637,0.25116 -1.46516,-0.16853 -1.46516,-0.58077 0,-0.17895 0.57387,-0.32538 1.27528,-0.32538 1.21455,0 1.27528,0.0607 1.27528,1.27528 0,0.93345 -0.15846,1.27528 -0.59116,1.27528 -0.47627,0 -0.50558,-0.10312 -0.15082,-0.53059 z m -1.99077,-3.11307 c 0.12386,-0.2004 0.2975,-0.36436 0.38587,-0.36436 0.0884,0 0.16068,0.16396 0.16068,0.36436 0,0.20041 -0.17364,0.36437 -0.38587,0.36437 -0.21223,0 -0.28453,-0.16396 -0.16068,-0.36437 z m 0.91092,0 c 0,-0.2004 0.17364,-0.36436 0.38587,-0.36436 0.21223,0 0.28453,0.16396 0.16068,0.36436 -0.12386,0.20041 -0.2975,0.36437 -0.38587,0.36437 -0.0884,0 -0.16068,-0.16396 -0.16068,-0.36437 z m 3.30806,-0.21254 c 0.0175,-0.42447 0.10382,-0.51081 0.22013,-0.22014 0.10526,0.26302 0.0923,0.57729 -0.0287,0.69837 -0.12108,0.12107 -0.2072,-0.0941 -0.19138,-0.47823 z m -2.03278,-0.15182 c 0.12385,-0.2004 0.2975,-0.36437 0.38587,-0.36437 0.0884,0 0.16068,0.16397 0.16068,0.36437 0,0.2004 -0.17364,0.36436 -0.38587,0.36436 -0.21223,0 -0.28454,-0.16396 -0.16068,-0.36436 z m 2.04628,-3.37039 c -0.0291,-0.68899 0.13795,-1.002 0.53464,-1.002 0.31731,0 0.50177,-0.20496 0.40991,-0.45546 -0.0918,-0.2505 -0.35146,-0.41447 -0.57691,-0.36437 -0.25256,0.0561 -0.39336,-0.4334 -0.3668,-1.27528 0.0426,-1.34879 0.0465,-1.3523 0.30617,-0.27327 l 0.26306,1.0931 0.466,-1.0931 c 0.2725,-0.63923 0.53831,-0.89767 0.64017,-0.62243 0.13633,0.36836 0.28863,0.37568 0.70075,0.0337 0.39469,-0.32756 0.63076,-0.33279 0.94266,-0.0209 0.54625,0.54624 0.64946,2.00076 0.16411,2.31263 -0.25718,0.16526 -0.22626,0.43323 0.0946,0.81982 0.81013,0.97615 1.12877,0.64233 0.98895,-1.03607 -0.0738,-0.88571 0.004,-1.82851 0.17313,-2.0951 0.18457,-0.29116 0.3095,0.49743 0.31286,1.97476 0.005,2.08236 -0.0922,2.46728 -0.63207,2.51044 -2.81785,0.22524 -3.37038,0.17842 -3.37038,-0.2856 0,-0.71676 -0.64589,-0.60664 -0.84193,0.14353 -0.10252,0.3923 -0.1829,0.25211 -0.2089,-0.36436 z m 2.56295,-1.18419 c 0,-0.19038 -0.17626,-0.4049 -0.3917,-0.47671 -0.21543,-0.0718 -0.39169,0.14271 -0.39169,0.47671 0,0.33401 0.17626,0.54853 0.39169,0.47671 0.21544,-0.0718 0.3917,-0.28632 0.3917,-0.47671 z m -6.61324,0.54655 c 0,-0.2004 0.57387,-0.36436 1.27528,-0.36436 0.7014,0 1.27528,0.16396 1.27528,0.36436 0,0.2004 -0.57388,0.36437 -1.27528,0.36437 -0.70141,0 -1.27528,-0.16397 -1.27528,-0.36437 z m 0,-1.46856 c 0,-0.19429 0.40991,-0.35327 0.91091,-0.35327 0.501,0 0.91092,-0.16396 0.91092,-0.36436 0,-0.2004 -0.35526,-0.36437 -0.78947,-0.36437 -0.98405,0 -0.7899,-0.1889 0.51619,-0.50223 0.91538,-0.2196 1.00201,-0.15038 1.00201,0.80062 0,0.93767 -0.12658,1.04576 -1.27528,1.08894 -0.70141,0.0264 -1.27528,-0.11103 -1.27528,-0.30533 z m 5.92094,-3.52688 c -0.4509,-0.086 -0.81982,-0.39091 -0.81982,-0.67757 0,-0.73751 -0.64198,-0.64872 -0.84193,0.11643 -0.0916,0.3507 -0.18566,-0.5511 -0.2089,-2.00401 l -0.0423,-2.64165 h 2.32588 c 2.6399,0 2.76101,0.14734 2.77027,3.37038 0.004,1.46496 -0.10236,1.73074 -0.69396,1.73074 -0.38441,0 -0.91729,0.059 -1.18418,0.13102 -0.2669,0.0721 -0.85418,0.0607 -1.30509,-0.0253 z m 2.68045,-1.56398 c 0.0213,-0.60074 -0.14908,-1.09226 -0.37873,-1.09226 -0.22964,0 -0.41106,-0.45091 -0.40316,-1.00201 0.009,-0.65414 -0.17538,-1.002 -0.53218,-1.002 -0.84018,0 -0.85064,1.41638 -0.016,2.17168 0.40963,0.3707 0.74477,0.97652 0.74477,1.34626 0,1.13437 0.544,0.74249 0.58535,-0.42167 z m -3.50027,-0.7279 c 0,-0.2004 -0.0723,-0.36436 -0.16068,-0.36436 -0.0884,0 -0.26201,0.16396 -0.38587,0.36436 -0.12385,0.20041 -0.0516,0.36437 0.16068,0.36437 0.21223,0 0.38587,-0.16396 0.38587,-0.36437 z m -3.91693,1.20032 c -1.1105,-0.21389 -1.04271,-0.83595 0.0911,-0.83595 0.501,0 0.91091,-0.16396 0.91091,-0.36437 0,-0.2004 -0.32793,-0.36436 -0.72873,-0.36436 -0.5856,0 -0.72873,-0.24291 -0.72873,-1.23674 0,-1.0902 0.1079,-1.23051 0.91065,-1.18419 0.8596,0.0496 0.91068,0.17003 0.91092,2.14765 1.4e-4,1.15231 -0.12272,2.07278 -0.27302,2.04549 -0.1503,-0.0273 -0.64219,-0.12068 -1.09309,-0.20753 z"
         id="path952" />
      <path
         style="fill:#8eaba8;stroke-width:0.364366"
         d="m 150.2763,160.925 c -0.43486,-0.11711 -0.52182,-0.66669 -0.42556,-2.68944 0.11359,-2.38675 0.17306,-2.54225 0.97221,-2.54225 1.24304,0 2.00391,0.36883 2.00391,0.9714 0,0.29099 0.16397,0.42774 0.36437,0.30388 0.2004,-0.12385 0.36436,-0.0515 0.36436,0.16068 0,0.21223 -0.12297,0.38572 -0.27327,0.38553 -0.1503,-1.9e-4 -0.24863,0.73765 -0.2185,1.63965 0.0455,1.36261 -0.0573,1.63998 -0.60784,1.63998 -0.36444,0 -0.88098,0.0625 -1.14787,0.13888 -0.2669,0.0764 -0.73121,0.0726 -1.03181,-0.008 z m -8.35165,-4.7155 c 0.0175,-0.42447 0.10382,-0.51081 0.22014,-0.22014 0.10525,0.26302 0.0923,0.57729 -0.0288,0.69837 -0.12108,0.12107 -0.20719,-0.0941 -0.19137,-0.47823 z m 1.06433,-4.45855 v -2.87799 l 2.91493,-0.0703 2.91493,-0.0703 v 2.97286 c 0,2.56117 -0.0798,2.94224 -0.57635,2.7517 -0.317,-0.12164 -1.34177,-0.23269 -2.27729,-0.24677 -1.28542,-0.0194 -1.52292,-0.10211 -0.97221,-0.33876 0.40081,-0.17223 0.53319,-0.32467 0.2942,-0.33875 -0.25127,-0.0148 -0.36711,-0.37138 -0.27467,-0.84544 0.62973,-3.22942 0.64538,-3.08062 -0.34387,-3.26973 -0.5136,-0.0982 -1.01965,-0.0927 -1.12456,0.0122 -0.32959,0.3296 -0.20708,4.01055 0.13772,4.13805 0.18066,0.0668 0.0987,0.33287 -0.18218,0.59128 -0.43451,0.39976 -0.51065,0.0407 -0.51065,-2.40818 z m -1.19867,-4.43806 c 0.10481,-0.4008 0.25342,-0.72873 0.33025,-0.72873 0.0768,0 0.13969,0.32793 0.13969,0.72873 0,0.40081 -0.14862,0.72874 -0.33026,0.72874 -0.18164,0 -0.24449,-0.32793 -0.13968,-0.72874 z m 8.09455,0.63764 c -0.2828,-0.95141 -0.33506,-2.28395 -0.15003,-3.82584 l 0.22954,-1.91292 h 1.43125 c 1.0293,0 1.43124,0.15349 1.43124,0.54655 0,0.3006 0.25768,0.54655 0.57263,0.54655 0.37059,0 0.54919,0.28924 0.50621,0.81982 -0.13961,1.72358 0.0282,2.45947 0.56081,2.45947 0.3006,0 0.54655,0.18309 0.54655,0.40686 0,0.22378 -0.31566,0.32432 -0.70147,0.22343 -0.4921,-0.12869 -0.6436,-0.0326 -0.50757,0.32187 0.15112,0.39381 -0.2569,0.50531 -1.84909,0.50531 -1.12365,0 -2.05518,-0.041 -2.07007,-0.0911 z m 0.26839,-2.18619 c -0.10108,-0.2505 -0.18379,-0.0455 -0.18379,0.45546 0,0.501 0.0827,0.70596 0.18379,0.45545 0.10107,-0.2505 0.10107,-0.66041 0,-0.91091 z m -0.0747,-4.62049 c 0.1153,-0.18656 0.0522,-0.43647 -0.14014,-0.55536 -0.3658,-0.22608 -0.29065,-2.97075 0.0918,-3.35322 0.12124,-0.12124 0.0785,-0.48582 -0.095,-0.81017 -0.48876,-0.91375 2.68893,-1.059 3.21961,-0.14717 0.20823,0.35779 0.38359,0.44558 0.38968,0.19508 0.013,-0.53638 1.10418,-0.62639 1.10418,-0.0911 0,0.2004 -0.20495,0.36687 -0.45546,0.36994 -0.30363,0.004 -0.27327,0.12332 0.0911,0.35879 0.44664,0.28864 0.40425,0.35422 -0.23191,0.35878 -0.64553,0.005 -0.82174,0.29427 -1.03199,1.69629 -0.18521,1.23511 -0.12272,1.77363 0.23191,1.99843 0.29974,0.19001 -0.25455,0.30986 -1.44899,0.31331 -1.10247,0.003 -1.84427,-0.1403 -1.7248,-0.33361 z m -5.19817,-1.81884 c 0.0688,-0.9029 0.20653,-1.0251 1.00707,-0.89357 0.6389,0.10497 0.77287,0.0503 0.43069,-0.17574 -0.41934,-0.27701 -0.41934,-0.36282 0,-0.55103 0.27317,-0.12261 0.15091,-0.13876 -0.2717,-0.0359 -0.85765,0.20877 -1.89545,-0.6969 -1.25332,-1.09376 0.21013,-0.12987 0.38206,-0.0352 0.38206,0.21047 0,0.24563 0.10277,0.34383 0.22837,0.21822 0.30903,-0.30902 2.32219,0.75806 2.32219,1.23089 0,0.20708 0.16396,0.27517 0.36436,0.15132 0.20041,-0.12386 0.36437,-0.13774 0.36437,-0.0309 0,0.38002 -2.01249,1.20315 -2.51019,1.02669 -0.28394,-0.10067 -0.40484,-0.0155 -0.27537,0.194 0.12695,0.2054 -0.0165,0.46835 -0.31871,0.58432 -0.42052,0.16137 -0.53081,-0.0346 -0.46982,-0.83507 z m -1.34485,-1.24046 c -0.57129,-0.7147 -0.58869,-1.33157 -0.0315,-1.11777 0.27845,0.10685 0.58907,0.51086 0.69025,0.8978 0.20786,0.79484 -0.11344,0.90214 -0.65871,0.21997 z m -0.54655,-2.14454 c 0,-0.38021 0.4223,-0.35422 1.0885,0.067 0.42594,0.2693 0.36743,0.32951 -0.27327,0.28125 -0.44838,-0.0338 -0.81523,-0.19049 -0.81523,-0.34824 z m 0.0668,-4.20376 -0.0668,-3.00602 h 2.92391 2.92391 l -0.0721,2.93123 -0.0721,2.93123 -1.94506,-0.1074 c -2.17311,-0.11998 -2.60378,-0.7161 -0.76683,-1.06143 0.65919,-0.12392 0.89151,-0.24689 0.51628,-0.27327 -0.564,-0.0396 -0.60363,-0.14271 -0.22867,-0.59452 0.37962,-0.45741 0.32397,-0.54655 -0.34125,-0.54655 -0.4904,0 -0.69896,-0.15516 -0.54448,-0.4051 0.1377,-0.22281 0.0244,-0.54823 -0.25177,-0.72315 -0.35494,-0.22481 -0.18169,-0.33033 0.59096,-0.35995 1.06765,-0.0409 1.07189,-0.0484 0.18218,-0.31979 -0.65963,-0.20123 -0.76015,-0.33402 -0.36437,-0.48136 0.3006,-0.11191 0.7925,-0.29502 1.0931,-0.40691 0.3006,-0.11189 -0.27327,-0.16587 -1.27528,-0.11996 l -1.82183,0.0835 -0.20646,2.73274 -0.20645,2.73275 z m 6.89874,1.56264 c 0.1973,-0.71454 0.23861,-1.4935 0.0918,-1.73103 -0.1468,-0.23752 -0.26741,-0.93217 -0.26801,-1.54366 l -0.001,-1.11179 2.70899,-0.0639 c 1.84255,-0.0435 2.41765,0.0323 1.79809,0.23695 -0.87579,0.28926 -0.87931,0.30226 -0.0911,0.33718 0.89833,0.0398 1.15739,0.76505 0.27328,0.76505 -0.41317,0 -0.5528,0.46684 -0.57216,1.91293 -0.018,1.34594 -0.11256,1.69693 -0.31896,1.18418 -0.27221,-0.67618 -0.3032,-0.66305 -0.42985,0.18219 -0.12031,0.80291 -0.33884,0.92396 -1.8431,1.02098 l -1.70661,0.11007 z"
         id="path950" />
      <path
         style="fill:#96ad98;stroke-width:0.364366"
         d="m 152.14313,160.84242 c 0.85562,-0.20602 0.9512,-0.39268 0.91092,-1.779 -0.0247,-0.85186 0.078,-1.54871 0.22827,-1.54856 0.1503,1.6e-4 0.27327,-0.17336 0.27327,-0.38559 0,-0.21223 -0.16396,-0.28453 -0.36436,-0.16068 -0.2004,0.12386 -0.36437,-0.0168 -0.36437,-0.3125 0,-0.29573 -0.20495,-0.62039 -0.45546,-0.72147 -0.2505,-0.10108 0.32338,-0.19672 1.27528,-0.21254 l 1.73074,-0.0288 v 2.73275 2.73274 l -2.0951,-0.0431 c -1.42015,-0.0292 -1.78715,-0.11726 -1.13919,-0.27327 z m 4.32739,-2.41636 c 0,-2.48984 0.0648,-2.73275 0.72873,-2.73275 0.56992,0 0.72873,0.24291 0.72873,1.1146 0,0.61303 0.12298,1.0386 0.27328,0.9457 0.1503,-0.0929 0.2165,0.54416 0.1471,1.4157 l -0.12616,1.58461 1.94799,0.13504 c 1.60202,0.11105 1.44645,0.14701 -0.87583,0.20244 l -2.82384,0.0674 z m 1.11459,-0.96405 -0.38339,-1.22215 0.18095,1.22973 c 0.0995,0.67636 0.20719,1.74213 0.23926,2.36838 l 0.0583,1.13865 0.14413,-1.14623 c 0.0793,-0.63043 -0.0284,-1.6962 -0.23926,-2.36838 z m 0.98052,-1.64565 c 0.2505,-0.10107 0.66041,-0.10107 0.91091,0 0.2505,0.10108 0.0455,0.18379 -0.45546,0.18379 -0.501,0 -0.70596,-0.0827 -0.45545,-0.18379 z m -2.09511,-4.11998 v -2.90383 l 1.36169,0.0512 c 0.74894,0.0282 1.15885,0.11881 0.91092,0.20145 -0.25426,0.0847 -0.45078,0.76304 -0.45078,1.55586 0,0.77307 -0.12297,1.4816 -0.27327,1.5745 -0.1503,0.0929 -0.21456,-0.59427 -0.1428,-1.52705 0.16858,-2.19099 -0.15828,-1.86614 -0.40161,0.39914 -0.17917,1.66807 -0.15124,1.73167 0.77135,1.75635 0.86208,0.0231 0.8848,0.0567 0.22851,0.33876 -0.49091,0.21095 -0.55037,0.32332 -0.18218,0.34434 0.48582,0.0277 0.48582,0.0746 0,0.42158 -0.4391,0.31364 -0.38537,0.35507 0.27328,0.21071 0.4509,-0.0988 0.81982,-0.0311 0.81982,0.15058 0,0.18164 -0.65586,0.33025 -1.45747,0.33025 h -1.45746 z m -2.6665,-4.16006 c -0.13603,-0.35448 0.0155,-0.45056 0.50757,-0.32187 0.38581,0.10089 0.70147,3.5e-4 0.70147,-0.22343 0,-0.22377 -0.24595,-0.40686 -0.54655,-0.40686 -0.53262,0 -0.70042,-0.73589 -0.56081,-2.45947 0.043,-0.53058 -0.13562,-0.81982 -0.50621,-0.81982 -0.31495,0 -0.57263,-0.24595 -0.57263,-0.54655 0,-0.38172 0.38461,-0.54655 1.27528,-0.54655 h 1.27528 v 2.91493 c 0,2.6171 -0.0705,2.91493 -0.68975,2.91493 -0.37936,0 -0.777,-0.22739 -0.88365,-0.50531 z m 2.6665,-2.46428 v -2.86027 l 1.54856,0.0231 c 1.19968,0.0179 1.37914,0.0917 0.79657,0.32753 -0.67164,0.2719 -0.7287,0.51603 -0.53404,2.28456 0.15071,1.3692 0.0895,1.98012 -0.19842,1.98012 -0.27375,0 -0.35709,-0.5259 -0.24331,-1.53537 0.19419,-1.72281 -0.34776,-3.27558 -0.76435,-2.18998 -0.15374,0.40064 -0.0913,0.5182 0.18472,0.34763 0.30327,-0.18744 0.359,0.30428 0.20433,1.80291 l -0.21267,2.06062 h 1.30968 c 1.72226,0 1.40551,0.26977 -0.54589,0.46491 l -1.54518,0.15452 z m -6.50106,1.14776 c 0,-0.50101 0.0827,-0.70596 0.18379,-0.45546 0.10107,0.2505 0.10107,0.66041 0,0.91091 -0.10108,0.25051 -0.18379,0.0455 -0.18379,-0.45545 z m 4.04159,-5.00034 c -1.26048,-0.15643 -1.30084,-0.25744 -0.95032,-2.37807 0.17775,-1.07538 0.39029,-1.36756 0.99799,-1.37196 0.63208,-0.005 0.67301,-0.0696 0.22561,-0.35878 -0.36437,-0.23547 -0.39473,-0.35507 -0.0911,-0.35879 0.25051,-0.003 0.45546,-0.16954 0.45546,-0.36994 0,-0.51598 -1.00244,-0.45415 -1.17805,0.0727 -0.0911,0.27336 -0.23466,0.20513 -0.38329,-0.18218 -0.19546,-0.50937 -0.0134,-0.61922 1.02623,-0.61922 h 1.26384 v 2.91493 c 0,1.60321 -0.041,2.88869 -0.0911,2.85662 -0.0501,-0.0321 -0.62398,-0.12445 -1.27528,-0.20527 z m -0.89353,-7.6512 c 0.17021,-0.89043 0.2183,-0.91836 0.47041,-0.27327 0.19015,0.48656 0.28908,0.10096 0.30642,-1.19437 0.0194,-1.44609 0.15899,-1.91293 0.57216,-1.91293 0.86198,0 0.63666,-0.66405 -0.27328,-0.80539 -0.74846,-0.11626 -0.73261,-0.14578 0.18219,-0.33918 l 1.002,-0.21184 v 2.86441 2.8644 h -1.22475 c -1.13657,0 -1.2111,-0.0714 -1.03515,-0.99183 z m 3.353,-1.84994 v -2.84176 l 1.36637,0.19287 1.36638,0.19288 -1.18419,0.12141 c -0.65131,0.0668 -1.18419,0.28467 -1.18419,0.4842 0,0.19953 0.16396,0.26145 0.36436,0.13759 0.2004,-0.12385 0.36437,-0.0652 0.36437,0.13032 0,0.19552 -0.20496,0.4382 -0.45546,0.53928 -0.2505,0.10108 0.11842,0.20967 0.81982,0.24132 0.70141,0.0316 1.07033,0.14023 0.81983,0.24131 -0.2505,0.10108 -0.47486,0.62102 -0.49857,1.15542 -0.0429,0.9663 -0.0446,0.96563 -0.32126,-0.12145 l -0.27814,-1.0931 -0.0487,1.0931 c -0.0377,0.84725 -0.12813,0.97017 -0.4019,0.54655 -0.27623,-0.42745 -0.35442,-0.33275 -0.35878,0.43453 -0.004,0.73299 0.15566,0.95457 0.63206,0.87623 0.3507,-0.0577 1.04755,0.0174 1.54855,0.16678 0.71866,0.21431 0.54564,0.27931 -0.81982,0.30797 l -1.73074,0.0363 z m -6.52982,0.44302 c 0.0175,-0.42446 0.10382,-0.5108 0.22014,-0.22013 0.10525,0.26302 0.0923,0.57729 -0.0288,0.69836 -0.12108,0.12108 -0.2072,-0.0941 -0.19138,-0.47823 z"
         id="path948" />
      <path
         style="fill:#5592ca;stroke-width:0.364366"
         d="m 117.11251,160.85516 c -0.42995,-0.14591 -0.47128,-4.05463 -0.0499,-4.71873 0.17516,-0.27606 0.56618,-0.36444 0.95398,-0.21562 0.36144,0.13869 1.33212,0.26722 2.15707,0.28561 l 1.4999,0.0334 0.10762,2.24409 0.10762,2.24409 -2.20922,0.12429 c -1.21506,0.0684 -2.37025,0.0696 -2.56708,0.003 z m 19.68225,-2.4076 c 0,-2.16318 0.45845,-2.847 1.10223,-1.64408 0.53499,0.99963 0.10927,3.62659 -0.58771,3.62659 -0.38007,0 -0.51452,-0.51804 -0.51452,-1.98251 z m 1.88993,-0.84133 c 0.15147,-0.79475 1.75373,-1.10319 1.75373,-0.3376 0,0.50589 -0.72863,0.97524 -1.51398,0.97524 -0.19871,0 -0.3066,-0.28694 -0.23975,-0.63764 z m -15.0049,-3.91693 c -0.14949,-0.4008 -0.22369,-0.97468 -0.16488,-1.27528 0.0588,-0.3006 0.11946,-1.16891 0.1348,-1.92957 l 0.0279,-1.38302 2.45948,0.10774 2.45947,0.10774 -0.0681,1.82183 c -0.0375,1.002 -0.0785,2.15294 -0.0911,2.55763 -0.0205,0.65637 -0.26389,0.73504 -2.25434,0.72874 -1.89422,-0.006 -2.27244,-0.11719 -2.50319,-0.73581 z m 13.11497,-1.80033 c 0,-2.1903 0.44483,-3.25642 1.05233,-2.5221 0.14305,0.17292 0.19619,1.33918 0.11807,2.59169 -0.10294,1.65054 -0.28354,2.27729 -0.65622,2.27729 -0.38945,0 -0.51418,-0.56933 -0.51418,-2.34688 z m 3.20365,0.77805 c -0.10561,-0.55249 -0.0745,-1.53228 0.0692,-2.17732 l 0.26121,-1.17279 0.28202,1.39024 c 0.15934,0.78547 0.12925,1.73263 -0.0692,2.17732 -0.33949,0.76083 -0.3576,0.75358 -0.54323,-0.21745 z m -3.16528,-6.87585 c -0.0447,-1.23774 -0.11256,-2.42649 -0.15088,-2.64165 -0.0383,-0.21516 0.25826,-0.3912 0.65906,-0.3912 0.4008,0 0.71233,0.20496 0.69229,0.45546 -0.02,0.2505 -0.061,1.43924 -0.0911,2.64165 -0.0388,1.55374 -0.19547,2.1862 -0.54141,2.1862 -0.34479,0 -0.51044,-0.65635 -0.56797,-2.25046 z m -19.72264,1.51643 c -0.53167,-0.32852 -0.21476,-4.0032 0.37753,-4.37769 0.83788,-0.52976 3.49414,-0.42081 3.97882,0.1632 0.24707,0.29769 0.3819,1.3399 0.31789,2.45714 l -0.11116,1.94017 -2.12983,0.002 c -1.17141,10e-4 -2.26637,-0.082 -2.43325,-0.18516 z m 13.58114,0.1242 c -0.2987,-0.11781 -0.45546,-0.98824 -0.45546,-2.52908 0,-2.48072 0.41233,-3.07262 1.73074,-2.48445 0.3507,0.15645 1.32285,0.24219 2.16033,0.19054 l 1.52269,-0.0939 -0.14422,2.26546 c -0.0793,1.246 -0.19066,2.30278 -0.24741,2.34839 -0.25487,0.20486 -4.15879,0.46395 -4.56667,0.30307 z m 8.28933,-1.53574 c 0,-0.36363 0.81014,-1.13373 1.19268,-1.13373 0.59887,0 0.0837,1.20627 -0.55504,1.29971 -0.35071,0.0513 -0.63764,-0.0234 -0.63764,-0.16598 z m -8.52362,-4.98937 c -0.12164,-0.31699 -0.22117,-1.54673 -0.22117,-2.73275 v -2.15639 h 1.92294 c 2.62606,0 3.38889,0.59556 3.35092,2.61609 -0.0423,2.25221 -0.33519,2.5832 -2.03196,2.29653 -0.92731,-0.15667 -1.42007,-0.10237 -1.42007,0.15647 0,0.6177 -1.35294,0.46559 -1.60066,-0.17995 z m 6.43679,-1.98342 c 0,-1.75645 0.32705,-2.02625 1.74445,-1.43915 1.13838,0.47154 1.43475,1.08399 0.52456,1.08399 -0.3006,0 -0.54655,-0.18404 -0.54655,-0.40898 0,-0.28375 -0.16628,-0.27098 -0.54303,0.0417 -0.34363,0.28519 -0.46292,0.76985 -0.32486,1.3199 0.15591,0.62119 0.0651,0.86922 -0.31821,0.86922 -0.3834,0 -0.53636,-0.41825 -0.53636,-1.46667 z m -13.01885,-5.06682 c -0.11533,-0.1866 -0.22881,-1.18821 -0.25218,-2.22581 -0.0511,-2.26916 0.30028,-2.57788 2.78723,-2.44858 l 1.82183,0.0947 0.10774,2.45947 0.10774,2.45947 h -2.18134 c -1.19974,0 -2.2757,-0.15267 -2.39102,-0.33927 z"
         id="path946" />
      <path
         style="fill:#6993b2;stroke-width:0.364366"
         d="m 116.51517,158.42606 c 0.001,-1.60321 0.0654,-2.21375 0.14236,-1.35675 0.077,0.85701 0.0759,2.16872 -0.002,2.91493 -0.0783,0.74621 -0.14127,0.045 -0.13995,-1.55818 z m 19.91522,0.14201 c 0,-1.88193 0.13044,-2.48248 0.57635,-2.65359 0.54521,-0.20922 4.87294,-0.32402 4.9035,-0.13008 0.008,0.0501 0.1075,1.26467 0.22135,2.69904 l 0.207,2.60795 -2.9541,-0.0454 -2.9541,-0.0454 z m 1.63504,0.43181 c 0.25169,-1.48975 -0.30135,-3.1339 -0.92459,-2.74872 -0.19034,0.11764 -0.34608,1.10602 -0.34608,2.1964 0,1.46447 0.13445,1.98251 0.51452,1.98251 0.31469,0 0.60837,-0.55546 0.75615,-1.43019 z m 1.79664,-0.97717 c 0.31699,-0.12164 0.57635,-0.46098 0.57635,-0.75408 0,-0.76559 -1.60226,-0.45715 -1.75373,0.3376 -0.12726,0.66768 0.21097,0.78732 1.17738,0.41648 z m -1.91759,-6.06415 c 0.0996,-2.15585 0.0219,-2.64165 -0.42275,-2.64165 -0.39938,0 -0.60138,0.58349 -0.75681,2.18619 l -0.21202,2.1862 -0.0613,-2.41993 -0.0613,-2.41992 2.82384,0.0515 2.82384,0.0515 0.10641,2.82384 0.10642,2.82383 h -2.23423 -2.23422 z m 2.66634,-1.25141 -0.28202,-1.39024 -0.26121,1.17279 c -0.14366,0.64504 -0.17479,1.62483 -0.0692,2.17732 0.18563,0.97103 0.20374,0.97828 0.54323,0.21745 0.19843,-0.44469 0.22852,-1.39185 0.0692,-2.17732 z m 2.74253,3.47127 c 0,-0.16882 0.20495,-0.30945 0.45545,-0.31252 0.34791,-0.004 0.34292,-0.077 -0.0211,-0.30784 -0.32454,-0.20583 -0.45063,-1.02179 -0.39521,-2.55761 0.0561,-1.55392 0.19864,-2.1381 0.45838,-1.87835 0.20735,0.20734 0.69038,0.37699 1.0734,0.37699 0.60848,0 0.66328,0.17253 0.43404,1.36637 -0.45225,2.35511 -0.4537,2.4532 -0.0404,2.72717 0.247,0.16373 0.12082,0.29293 -0.32489,0.33266 -0.4008,0.0357 0.17308,0.18047 1.27528,0.32164 l 2.00402,0.25667 -2.45947,-0.009 c -1.35271,-0.005 -2.45947,-0.14725 -2.45947,-0.31607 z m -26.72017,-6.37971 c -0.1336,-0.13359 -0.22406,-1.4863 -0.20101,-3.00602 0.0357,-2.35388 0.083,-2.54941 0.31944,-1.32026 0.15264,0.79356 0.19524,2.05633 0.0947,2.80615 l -0.18285,1.3633 2.50507,0.12851 2.50507,0.12851 -2.39874,0.0714 c -1.31931,0.0393 -2.50805,-0.0379 -2.64165,-0.17155 z m 13.26899,0.0961 c 0.0835,-0.0807 1.29957,-0.20117 2.70238,-0.26759 1.84072,-0.0872 2.61949,-0.27446 2.79823,-0.673 0.1804,-0.40224 0.25462,-0.32956 0.27327,0.26759 0.0245,0.78536 -0.0995,0.81983 -2.95004,0.81983 -1.63661,0 -2.90734,-0.0661 -2.82384,-0.14683 z m 8.03619,-2.72276 0.0851,-2.86958 2.02731,0.0457 2.02731,0.0457 0.10778,1.84529 c 0.0593,1.01491 -0.0596,2.28564 -0.26425,2.82384 -0.33622,0.8843 -0.55004,0.97855 -2.22019,0.97855 h -1.84814 z m 2.43568,0.19351 c 0.138,-0.70661 -0.33337,-0.78845 -0.95585,-0.16598 -0.62209,0.62209 -0.54103,0.97093 0.20041,0.86247 0.3507,-0.0513 0.69065,-0.36472 0.75544,-0.69649 z m -3.83074,-0.0567 c 0.002,-1.20241 0.0701,-1.65037 0.15116,-0.99548 0.0811,0.65489 0.0794,1.63868 -0.004,2.1862 -0.0831,0.54751 -0.14948,0.0117 -0.14744,-1.19072 z m -1.12147,-0.18218 c 0,-0.70141 0.075,-0.98834 0.16663,-0.63764 0.0917,0.3507 0.0917,0.92458 0,1.27528 -0.0917,0.3507 -0.16663,0.0638 -0.16663,-0.63764 z m -14.12761,-2.21044 c -0.13209,-0.21373 -0.16202,-0.46675 -0.0665,-0.56226 0.0955,-0.0955 0.27075,0.0794 0.38941,0.3886 0.24638,0.64206 0.0364,0.75499 -0.3229,0.17366 z m 10.76378,-1.72982 c 0,-0.18509 0.67627,-0.25841 1.50282,-0.16294 1.01769,0.11756 1.61475,0.0139 1.84957,-0.32108 0.28086,-0.40066 0.31876,-0.3908 0.19944,0.0519 -0.16352,0.60666 -3.55183,1.0189 -3.55183,0.43213 z m 4.6153,-0.31068 c -0.1336,-0.1336 -0.2404,-1.40432 -0.23733,-2.82384 0.003,-1.4195 0.12605,-2.41695 0.27328,-2.21655 0.14723,0.2004 0.51364,0.41316 0.81424,0.47281 0.3006,0.0596 1.41779,0.54263 2.48263,1.0733 l 1.93608,0.96486 -1.38953,0.73184 c -0.76424,0.40251 -1.51251,0.69836 -1.66281,0.65744 -0.1503,-0.0409 -0.27327,0.072 -0.27327,0.25097 0,0.17896 -0.20496,0.40403 -0.45546,0.50016 -0.29807,0.11438 -0.45546,-0.18062 -0.45546,-0.85371 0,-0.56567 0.20496,-1.23345 0.45546,-1.48395 0.34412,-0.34412 0.45546,-0.34858 0.45546,-0.0182 0,0.24048 0.24595,0.43724 0.54655,0.43724 0.3006,0 0.54655,-0.16396 0.54655,-0.36437 0,-0.2004 -0.062,-0.36436 -0.13769,-0.36436 -0.0757,0 -0.71131,-0.23968 -1.41241,-0.53262 l -1.27473,-0.53261 0.0759,2.17226 c 0.0417,1.19475 0.0488,2.17226 0.0157,2.17226 -0.0331,0 -0.1695,-0.10931 -0.3031,-0.24291 z m 6.68563,-1.67001 c 0.003,-0.95724 0.12054,-1.3673 0.30666,-1.07386 0.1656,0.26108 0.53201,0.42504 0.81424,0.36436 0.29779,-0.064 0.46219,0.11907 0.39171,0.43623 -0.0668,0.3006 -0.14879,0.71051 -0.18218,0.91091 -0.0677,0.40632 -0.64345,0.89678 -1.06274,0.90534 -0.1503,0.003 -0.27076,-0.69127 -0.26769,-1.54298 z m -7.9506,-0.45546 c 0.007,-0.6012 0.0891,-0.80304 0.18147,-0.44852 0.0924,0.35452 0.0863,0.84641 -0.0135,1.0931 -0.0998,0.24668 -0.1754,-0.0434 -0.16797,-0.64458 z m 9.94903,-0.52656 c -0.4008,-0.16124 -0.85171,-0.22202 -1.00201,-0.13507 -0.1503,0.087 -0.27327,-0.0975 -0.27327,-0.40996 0,-0.31243 -0.16397,-0.56805 -0.36437,-0.56805 -0.2004,0 -0.36436,-0.2306 -0.36436,-0.51244 0,-0.33637 0.25534,-0.44566 0.74318,-0.31809 0.40875,0.10689 0.65612,0.28141 0.54971,0.38782 -0.25435,0.25436 0.51484,1.17144 0.98253,1.17144 0.2004,0 0.13934,-0.27229 -0.13571,-0.60509 -0.45677,-0.55269 -0.43034,-0.56167 0.30522,-0.10361 0.4943,0.30781 0.65427,0.59481 0.41423,0.74316 -0.25908,0.16012 -0.22343,0.30836 0.10563,0.43921 0.27317,0.10864 0.33272,0.19895 0.13232,0.20069 -0.2004,0.002 -0.6923,-0.12877 -1.0931,-0.29001 z m -10.54516,-1.67122 c -0.38901,-0.29423 -0.63495,-0.54751 -0.54655,-0.56284 0.0884,-0.0153 0.44767,-0.0828 0.79837,-0.14994 0.42746,-0.0818 0.63764,0.10751 0.63764,0.57442 0,0.82334 0.0134,0.82126 -0.88946,0.13836 z m 8.54122,-4.63408 7e-5,-2.64165 1.91285,-0.0748 c 1.05207,-0.0412 1.6669,0.0128 1.3663,0.11996 -1.6249,0.57914 -1.64282,0.60077 -0.72873,0.87963 0.88971,0.27142 0.88547,0.27886 -0.18218,0.31979 -0.77265,0.0296 -0.9459,0.13514 -0.59096,0.35995 0.27617,0.17492 0.38947,0.50034 0.25177,0.72315 -0.15448,0.24994 0.0541,0.4051 0.54448,0.4051 0.66522,0 0.72087,0.0891 0.34125,0.54655 -0.37496,0.45181 -0.33533,0.55487 0.22867,0.59452 0.37523,0.0264 0.10837,0.1546 -0.59303,0.28493 -0.71711,0.13325 -1.23541,0.43121 -1.18419,0.68077 0.0501,0.24409 -0.23684,0.4438 -0.63764,0.4438 -0.66173,0 -0.72873,-0.24289 -0.72866,-2.64166 z m -18.6642,-3.0911 c 0.85701,-0.077 2.16872,-0.0759 2.91493,0.002 0.74621,0.0783 0.045,0.14127 -1.55819,0.13995 -1.60321,-0.001 -2.21374,-0.0654 -1.35674,-0.14236 z"
         id="path944" />
      <path
         style="fill:#527ca4;stroke-width:0.364366"
         d="m 119.76065,160.88954 2.09511,-0.13147 v -2.33201 -2.33202 l -2.09511,-0.13147 -2.0951,-0.13147 2.27728,-0.0689 2.27729,-0.0689 v 2.73275 2.73274 l -2.27729,-0.0689 -2.27728,-0.0689 z m 3.55257,-6.6752 c 0,-0.21223 0.16396,-0.28453 0.36436,-0.16068 0.20041,0.12386 0.36437,0.2975 0.36437,0.38587 0,0.0884 -0.16396,0.16068 -0.36437,0.16068 -0.2004,0 -0.36436,-0.17364 -0.36436,-0.38587 z m 1.91292,0.1347 c 0.3507,-0.0916 0.92458,-0.0916 1.27528,0 0.3507,0.0917 0.0638,0.16664 -0.63764,0.16664 -0.7014,0 -0.98834,-0.075 -0.63764,-0.16664 z m 3.25924,-0.65974 c 0.007,-0.60121 0.0891,-0.80304 0.18146,-0.44853 0.0924,0.35452 0.0863,0.84642 -0.0135,1.0931 -0.0998,0.24669 -0.17539,-0.0434 -0.16796,-0.64457 z m 8.21829,0.6696 c 0.2505,-0.10108 0.66041,-0.10108 0.91091,0 0.2505,0.10108 0.0455,0.18378 -0.45545,0.18378 -0.50101,0 -0.70596,-0.0827 -0.45546,-0.18378 z m -8.21829,-2.8558 c 0.007,-0.6012 0.0891,-0.80304 0.18146,-0.44852 0.0924,0.35452 0.0863,0.84641 -0.0135,1.0931 -0.0998,0.24668 -0.17539,-0.0434 -0.16796,-0.64458 z m -5.1434,-1.002 c -0.0158,-0.95191 0.10228,-1.73074 0.26244,-1.73074 0.16016,0 0.23026,0.61487 0.15578,1.36637 -0.20966,2.11531 -0.38655,2.26943 -0.41822,0.36437 z m 4.708,-1.36638 c -0.46708,-0.30185 -0.45384,-0.35401 0.0911,-0.35878 0.3507,-0.003 0.63764,0.15838 0.63764,0.35878 0,0.44439 -0.0411,0.44439 -0.72873,0 z m -2.98325,-0.2489 c 0.26303,-0.10525 0.57729,-0.0923 0.69837,0.0288 0.12107,0.12108 -0.0941,0.20719 -0.47823,0.19137 -0.42447,-0.0175 -0.51081,-0.10382 -0.22014,-0.22013 z m 1.45746,0 c 0.26303,-0.10525 0.5773,-0.0923 0.69837,0.0288 0.12108,0.12108 -0.0941,0.20719 -0.47823,0.19137 -0.42446,-0.0175 -0.5108,-0.10382 -0.22014,-0.22013 z m -4.85062,-3.79392 c 0,-1.58407 0.12298,-2.88013 0.27328,-2.88013 0.1503,0 0.27327,1.22006 0.27327,2.71124 0,1.49118 -0.12297,2.78724 -0.27327,2.88013 -0.1503,0.0929 -0.27328,-1.12716 -0.27328,-2.71124 z m -3.00602,2.33419 c 0.35071,-0.0916 0.92458,-0.0916 1.27528,0 0.35071,0.0916 0.0638,0.16664 -0.63764,0.16664 -0.7014,0 -0.98834,-0.075 -0.63764,-0.16664 z m 11.5003,0.002 c 0.26303,-0.10526 0.5773,-0.0923 0.69837,0.0288 0.12108,0.12107 -0.0941,0.20719 -0.47823,0.19137 -0.42446,-0.0175 -0.5108,-0.10382 -0.22014,-0.22014 z m 2.71691,-0.004 c 0.35452,-0.0924 0.84641,-0.0863 1.0931,0.0135 0.24669,0.0998 -0.0434,0.1754 -0.64458,0.16797 -0.6012,-0.007 -0.80304,-0.0891 -0.44852,-0.18147 z m -2.96333,-2.75339 c -0.0273,-1.35271 0.0745,-2.45947 0.22628,-2.45947 0.15174,0 0.22679,0.77883 0.16676,1.73074 -0.1888,2.99405 -0.34162,3.27741 -0.39304,0.72873 z m -13.16122,-1.82183 c -0.005,-0.53894 0.3422,-0.63764 2.24135,-0.63764 2.65068,0 2.72819,0.25622 0.12145,0.4015 -1.00201,0.0558 -1.94229,0.27528 -2.08952,0.48766 -0.1595,0.23006 -0.26995,0.1284 -0.27328,-0.25152 z m 15.57107,-0.51459 c 0.2505,-0.10107 0.66041,-0.10107 0.91091,0 0.2505,0.10108 0.0456,0.18379 -0.45546,0.18379 -0.501,0 -0.70596,-0.0827 -0.45545,-0.18379 z m -2.35029,-3.76671 c 0,-1.10221 0.0683,-1.55311 0.15179,-1.00201 0.0835,0.55111 0.0835,1.45291 0,2.00402 -0.0835,0.5511 -0.15179,0.1002 -0.15179,-1.00201 z m -0.10918,-2.63903 c 0,-0.15174 1.10676,-0.25357 2.45947,-0.22628 2.54867,0.0514 2.26532,0.20425 -0.72874,0.39305 -0.9519,0.06 -1.73073,-0.015 -1.73073,-0.16677 z m -6.49493,-3.09973 0.0636,-1.73074 0.13948,1.54855 0.13948,1.54856 h 2.37732 2.37733 l -0.12099,-2.55138 c -0.0665,-1.40326 0.002,-2.55102 0.15228,-2.55056 0.1503,4.5e-4 0.27328,1.23055 0.27328,2.73356 v 2.73275 h -2.73275 -2.73274 z m -0.0214,-2.73275 c -0.0308,-0.72938 0.13122,-1.00049 0.59538,-0.99642 0.40467,0.004 0.48663,0.10338 0.22433,0.27327 -0.22732,0.14723 -0.49523,0.59562 -0.59537,0.99643 -0.13955,0.55855 -0.19194,0.49473 -0.22433,-0.27328 z"
         id="path942" />
    </g>
  </g>
</svg>
