<?xml version="1.0" encoding="UTF-8" standalone="no"?>
<!-- Created with Inkscape (http://www.inkscape.org/) -->

<svg
   width="125.48113mm"
   height="125.48113mm"
   viewBox="0 0 125.48113 125.48113"
   version="1.1"
   id="svg5"
   inkscape:version="1.1.2 (0a00cf5339, 2022-02-04)"
   sodipodi:docname="googlescholar.svg"
   xmlns:inkscape="http://www.inkscape.org/namespaces/inkscape"
   xmlns:sodipodi="http://sodipodi.sourceforge.net/DTD/sodipodi-0.dtd"
   xmlns="http://www.w3.org/2000/svg"
   xmlns:svg="http://www.w3.org/2000/svg">
  <sodipodi:namedview
     id="namedview7"
     pagecolor="#ffffff"
     bordercolor="#666666"
     borderopacity="1.0"
     inkscape:pageshadow="2"
     inkscape:pageopacity="0.0"
     inkscape:pagecheckerboard="0"
     inkscape:document-units="mm"
     showgrid="false"
     fit-margin-top="0"
     fit-margin-left="0"
     fit-margin-right="0"
     fit-margin-bottom="0"
     height="125.48113mm"
     inkscape:zoom="0.69664703"
     inkscape:cx="200.24488"
     inkscape:cy="391.15935"
     inkscape:window-width="1920"
     inkscape:window-height="1016"
     inkscape:window-x="0"
     inkscape:window-y="0"
     inkscape:window-maximized="1"
     inkscape:current-layer="layer1" />
  <defs
     id="defs2" />
  <g
     inkscape:label="Calque 1"
     inkscape:groupmode="layer"
     id="layer1"
     transform="translate(-52.128502,-105.7125)">
    <g
       id="g545"
       transform="translate(114.28457,-91.035176)">
      <path
         style="fill:#f8bd10;stroke-width:0.352778"
         d="m -43.237779,292.7944 c -5.524086,-12.31214 -5.464832,-27.36925 0.157602,-40.04839 l 0.900339,-2.03036 6.809553,5.29148 c 3.745255,2.91031 7.336041,5.72897 7.979525,6.26369 l 1.169972,0.97221 -0.726528,2.99861 c -0.981968,4.05289 -0.981533,9.35604 0.0011,13.40555 l 0.727627,2.99861 -1.34746,1.12552 c -0.741103,0.61904 -4.331977,3.43392 -7.979721,6.25529 l -6.632261,5.12977 z m 11.678437,-48.98792 c 0,-5.9391 0.08697,-7.06434 0.617361,-7.98775 0.464805,-0.80923 0.508392,-1.11326 0.176389,-1.23036 -0.616438,-0.21742 -0.550159,-1.50803 0.115202,-2.24324 0.470476,-0.51987 0.550147,-1.70644 0.51706,-7.7007 -0.03395,-6.15103 0.03232,-7.08613 0.50216,-7.08613 0.2977,0 0.541272,0.17574 0.541272,0.39052 0,0.21479 0.198438,0.3141 0.440973,0.22069 0.346729,-0.13354 0.403275,1.19664 0.264583,6.22406 -0.182704,6.62283 -0.01547,7.81698 1.146359,8.18572 0.537957,0.17075 0.637933,0.42031 0.462024,1.15332 -0.433993,1.80844 -0.485184,2.52447 -0.166399,2.32744 0.190129,-0.1175 0.321905,2.84229 0.321905,7.23021 v 7.42915 h -2.469445 -2.469444 z"
         id="path69"
         sodipodi:nodetypes="sscsscsscsscsssssssssssssscccs" />
      <path
         style="fill:#4286f3;stroke-width:0.352778"
         d="m 30.705936,307.34999 c -2.134306,-1.65491 -5.446018,-4.2392 -7.359357,-5.74287 -1.91334,-1.50367 -3.641119,-2.83581 -3.839507,-2.9603 -0.198388,-0.12449 0.773476,-1.29627 2.159699,-2.60396 1.386222,-1.3077 3.250371,-3.54881 4.142549,-4.98025 1.449793,-2.3261 3.309116,-7.06311 3.309116,-8.43066 0,-0.44352 -1.901592,-0.51572 -13.581945,-0.51572 H 1.9545465 v -8.99584 -8.99583 l 3.6159722,-0.059 c 10.4451543,-0.17034 35.8580133,-0.19355 39.1280583,-0.0357 l 3.762089,0.18156 0.431624,3.04066 c 0.593947,4.1842 0.235324,14.02898 -0.66355,18.21555 -1.913658,8.91296 -5.880555,16.81545 -11.240552,22.39238 l -2.401697,2.4989 z"
         id="path67"
         sodipodi:nodetypes="ssssssscccsscssscs" />
      <path
         style="fill:#e94336;stroke-width:0.352778"
         d="m -28.031564,261.76182 c -0.873125,-0.68772 -4.315576,-3.37262 -7.649891,-5.96644 -3.334314,-2.59383 -6.149304,-4.85668 -6.255531,-5.02856 -0.217961,-0.35266 3.023653,-5.65733 5.095058,-8.33768 0.749733,-0.97014 2.245024,-2.63159 3.322868,-3.69212 l 1.959718,-1.92823 v 6.95531 6.95531 h 2.469444 2.469445 v -7.33777 c 0,-4.23604 -0.143676,-7.48146 -0.339893,-7.67768 -0.536285,-0.53628 0.484313,-3.01503 1.624998,-3.94667 0.912366,-0.74516 1.242129,-0.80317 3.477395,-0.61172 7.48261,0.64089 16.1281669,3.45857 22.28236112,7.26207 l 1.13913708,0.70403 2.5220154,-1.42913 c 6.5302974,-3.70049 14.0679664,-6.19535 20.8521794,-6.90178 2.319105,-0.24149 2.369203,-0.2283 4.419449,1.164 1.140566,0.77454 2.831585,2.10101 3.757824,2.94771 l 1.684066,1.53944 -6.833419,6.81199 -6.833418,6.812 -1.739544,-1.43818 c -6.991258,-5.78005 -17.8636016,-7.51226 -26.9495766,-4.29367 -7.7526154,2.74627 -13.4191174,7.85364 -17.1739964,15.47939 -0.883729,1.79476 -1.630722,3.25095 -1.659984,3.23599 -0.02926,-0.015 -0.76758,-0.58989 -1.640705,-1.27761 z"
         id="path65"
         sodipodi:nodetypes="ssssscccccssssscsssscccsssss" />
      <path
         style="fill:#33a752;stroke-width:0.352778"
         d="m -3.1607313,322.11515 c -10.1902617,-1.56181 -17.2262477,-4.32861 -24.1516497,-9.49729 -5.445852,-4.06445 -10.341539,-9.60537 -13.899908,-15.73189 l -0.949532,-1.63482 1.685267,-1.3913 c 2.924268,-2.41417 14.276035,-11.08959 14.358025,-10.97291 0.04315,0.0614 0.350548,0.84653 0.683114,1.74473 1.496678,4.04225 5.217899,9.02475 8.962859,12.00073 6.9106966,5.49168 15.51861896,7.67951 24.155695,6.13954 3.702936,-0.66023 6.834287,-1.7443 9.263222,-3.20693 1.114848,-0.67133 2.076273,-1.2206 2.136496,-1.2206 0.06022,0 1.770546,1.30969 3.800718,2.91042 2.030173,1.60073 5.453712,4.25979 7.607861,5.90903 2.154153,1.64923 3.917097,3.11398 3.917654,3.25499 0.0014,0.33736 -3.228435,2.89599 -5.509429,4.36458 -4.752069,3.05957 -11.13651,5.55726 -17.067336,6.67701 -2.9078633,0.54901 -12.8500195,0.98316 -14.9930563,0.65471 z"
         id="path63"
         sodipodi:nodetypes="ssscssssssssscsss" />
      <path
         style="fill:#565656;stroke-width:0.352778"
         d="m -21.769759,231.083 c 0.242535,-0.0979 0.63941,-0.0979 0.881945,0 0.242535,0.0979 0.0441,0.17793 -0.440972,0.17793 -0.48507,0 -0.683507,-0.0801 -0.440973,-0.17793 z m -2.661215,-5.93997 -0.07763,-5.99723 -8.307988,-2.62388 c -4.569394,-1.44314 -8.36894,-2.72251 -8.443438,-2.84305 -0.0745,-0.12054 9.422829,-3.97937 21.10517,-8.57518 l 21.2406186,-8.35601 7.0489798,2.61877 c 8.6211626,3.20285 26.3751306,9.77701 32.0080076,11.85232 2.279827,0.83996 4.145139,1.62387 4.145139,1.74203 0,0.11817 -3.81,1.47597 -8.466666,3.01734 l -8.466667,2.80249 -0.07906,6.00342 -0.07907,6.00342 -0.106009,-5.94344 c -0.08039,-4.50702 -0.210482,-5.90505 -0.538293,-5.78459 -0.237759,0.0874 -6.023364,2.01945 -12.856898,4.29351 l -12.4246199,4.13468 -12.6226111,-4.04809 -12.622611,-4.04809 -0.18936,5.8744 -0.189359,5.8744 z m 48.544375,5.57984 c 0.25466,-0.10191 0.558931,-0.0894 0.676159,0.0279 0.117224,0.11723 -0.09114,0.2006 -0.463021,0.18529 -0.410969,-0.0169 -0.494559,-0.10052 -0.213138,-0.21314 z"
         id="path61" />
      <path
         style="fill:#020101;stroke-width:0.352778"
         d="m -2.9318173,236.5764 c -6.2218711,-3.22013 -14.6695267,-5.60225 -19.8962747,-5.61046 l -1.322917,-0.002 v -5.80396 -5.80396 l 1.499306,0.46287 c 0.824618,0.25458 6.545727,2.08379 12.7135746,4.06492 l 11.2142726,3.60207 12.4218388,-4.13375 c 6.832014,-2.27356 12.620279,-4.20673 12.862814,-4.29593 0.341588,-0.12562 0.440972,1.15823 0.440972,5.6964 v 5.85858 h -1.188512 c -4.501275,0 -13.030588,2.54995 -19.5171273,5.8349 -2.4750783,1.25345 -4.6629038,2.26187 -4.8618352,2.24095 -0.1989314,-0.0209 -2.16368134,-0.97067 -4.3661118,-2.11053 z"
         id="path59" />
    </g>
  </g>
</svg>
