<?xml version="1.0" encoding="UTF-8" standalone="no"?>
<svg
   viewBox="0 0 32 32"
   version="1.1"
   id="svg4"
   sodipodi:docname="html_w_file.svg"
   inkscape:version="1.1.2 (0a00cf5339, 2022-02-04)"
   xmlns:inkscape="http://www.inkscape.org/namespaces/inkscape"
   xmlns:sodipodi="http://sodipodi.sourceforge.net/DTD/sodipodi-0.dtd"
   xmlns="http://www.w3.org/2000/svg"
   xmlns:svg="http://www.w3.org/2000/svg">
  <defs
     id="defs8" />
  <sodipodi:namedview
     id="namedview6"
     pagecolor="#ffffff"
     bordercolor="#666666"
     borderopacity="1.0"
     inkscape:pageshadow="2"
     inkscape:pageopacity="0.0"
     inkscape:pagecheckerboard="0"
     showgrid="false"
     inkscape:zoom="24.4375"
     inkscape:cx="16"
     inkscape:cy="15.97954"
     inkscape:window-width="1920"
     inkscape:window-height="1016"
     inkscape:window-x="0"
     inkscape:window-y="0"
     inkscape:window-maximized="1"
     inkscape:current-layer="svg4" />
  <path
     style="text-indent:0;text-align:start;line-height:normal;text-transform:none;block-progression:tb;-inkscape-font-specification:Bitstream Vera Sans;fill:#ffffff"
     d="M 6 3 L 6 4 L 6 10 L 8 10 L 8 5 L 24 5 L 24 10 L 26 10 L 26 4 L 26 3 L 25 3 L 7 3 L 6 3 z M 5 12 L 5 20 L 7 20 L 7 17 L 8 17 L 8 20 L 10 20 L 10 12 L 8 12 L 8 15 L 7 15 L 7 12 L 5 12 z M 11 12 L 11 14 L 12 14 L 12 20 L 14 20 L 14 14 L 15 14 L 15 12 L 11 12 z M 16 12 L 16 13 L 16 20 L 18 20 L 18 15.34375 L 18.1875 15.59375 L 19 16.65625 L 19.8125 15.59375 L 20 15.34375 L 20 20 L 22 20 L 22 13 L 22 12 L 21 12 L 20.5 12 L 20 12 L 19.6875 12.40625 L 19 13.3125 L 18.3125 12.40625 L 18 12 L 17.5 12 L 17 12 L 16 12 z M 23 12 L 23 19 L 23 20 L 24 20 L 27 20 L 27 18 L 25 18 L 25 12 L 23 12 z M 6 22 L 6 28 L 6 29 L 7 29 L 25 29 L 26 29 L 26 28 L 26 22 L 24 22 L 24 27 L 8 27 L 8 22 L 6 22 z"
     id="path2" />
</svg>
