<?xml version="1.0" encoding="UTF-8" standalone="no"?>
<svg
   viewBox="0 0 32 32"
   version="1.1"
   id="svg4"
   sodipodi:docname="odt_w_file.svg"
   inkscape:version="1.1.2 (0a00cf5339, 2022-02-04)"
   xmlns:inkscape="http://www.inkscape.org/namespaces/inkscape"
   xmlns:sodipodi="http://sodipodi.sourceforge.net/DTD/sodipodi-0.dtd"
   xmlns="http://www.w3.org/2000/svg"
   xmlns:svg="http://www.w3.org/2000/svg"
   xmlns:rdf="http://www.w3.org/1999/02/22-rdf-syntax-ns#"
   xmlns:cc="http://creativecommons.org/ns#"
   xmlns:dc="http://purl.org/dc/elements/1.1/">
  <metadata
     id="metadata10">
    <rdf:RDF>
      <cc:Work
         rdf:about="">
        <dc:format>image/svg+xml</dc:format>
        <dc:type
           rdf:resource="http://purl.org/dc/dcmitype/StillImage" />
      </cc:Work>
    </rdf:RDF>
  </metadata>
  <defs
     id="defs8" />
  <sodipodi:namedview
     pagecolor="#ffffff"
     bordercolor="#666666"
     borderopacity="1"
     objecttolerance="10"
     gridtolerance="10"
     guidetolerance="10"
     inkscape:pageopacity="0"
     inkscape:pageshadow="2"
     inkscape:window-width="1920"
     inkscape:window-height="1016"
     id="namedview6"
     showgrid="false"
     inkscape:zoom="14.75"
     inkscape:cx="-4.8813559"
     inkscape:cy="10.338983"
     inkscape:window-x="0"
     inkscape:window-y="0"
     inkscape:window-maximized="1"
     inkscape:current-layer="svg4"
     inkscape:pagecheckerboard="0" />
  <path
     style="line-height:normal;-inkscape-font-specification:'Bitstream Vera Sans';text-indent:0;text-align:start;text-transform:none;fill:#ffffff"
     d="m 6,3 v 1 6 H 8 V 5 h 16 v 5 h 2 V 4 3 H 25 7 Z m 0,19 v 6 1 h 1 18 1 v -1 -6 h -2 v 5 H 8 v -5 z"
     id="path2"
     inkscape:connector-curvature="0"
     sodipodi:nodetypes="cccccccccccccccccccccccccc" />
  <g
     aria-label="ODT"
     style="font-style:normal;font-weight:normal;font-size:10.6667px;line-height:1.25;font-family:sans-serif;letter-spacing:0px;word-spacing:0px;display:inline;fill:#ffffff;fill-opacity:1;stroke:none"
     id="text824">
    <path
       d="m 7.0751457,16.05588 q 0,-1.402344 0.78125,-2.183594 0.78125,-0.78125 2.1757813,-0.78125 1.429687,0 2.203125,0.769531 0.773437,0.765625 0.773437,2.148438 0,1.003906 -0.339843,1.648437 -0.335938,0.640625 -0.976563,1 -0.636719,0.355469 -1.589844,0.355469 -0.9687495,0 -1.6054683,-0.308594 Q 7.8642082,18.395723 7.469677,17.727755 7.0751457,17.059786 7.0751457,16.05588 Z m 1.7695313,0.0078 q 0,0.867188 0.3203125,1.246094 0.3242187,0.378906 0.8789065,0.378906 0.570312,0 0.882812,-0.371094 0.3125,-0.371093 0.3125,-1.332031 0,-0.808594 -0.328125,-1.179687 -0.324219,-0.375 -0.882812,-0.375 -0.5351565,0 -0.8593753,0.378906 Q 8.844677,15.18868 8.844677,16.06368 Z"
       style="font-style:normal;font-variant:normal;font-weight:normal;font-stretch:normal;font-size:8px;font-family:'Arial Black';-inkscape-font-specification:'Arial Black, ';fill:#ffffff"
       id="path826" />
    <path
       d="m 13.985302,13.188692 h 2.628906 q 0.777344,0 1.253906,0.210938 0.480469,0.210937 0.792969,0.605468 0.3125,0.394532 0.453125,0.917969 0.140625,0.523438 0.140625,1.109375 0,0.917969 -0.210937,1.425781 -0.207032,0.503907 -0.578125,0.847657 -0.371094,0.339843 -0.796875,0.453125 -0.582032,0.15625 -1.054688,0.15625 h -2.628906 z m 1.769531,1.296875 v 3.128906 h 0.433594 q 0.554687,0 0.789062,-0.121093 0.234375,-0.125 0.367188,-0.429688 0.132812,-0.308594 0.132812,-0.996094 0,-0.910156 -0.296875,-1.246093 -0.296875,-0.335938 -0.984375,-0.335938 z"
       style="font-style:normal;font-variant:normal;font-weight:normal;font-stretch:normal;font-size:8px;font-family:'Arial Black';-inkscape-font-specification:'Arial Black, ';fill:#ffffff"
       id="path828" />
    <path
       d="m 19.782177,13.188692 h 5.378906 v 1.414063 h -1.804687 v 4.3125 h -1.769532 v -4.3125 h -1.804687 z"
       style="font-style:normal;font-variant:normal;font-weight:normal;font-stretch:normal;font-size:8px;font-family:'Arial Black';-inkscape-font-specification:'Arial Black, ';fill:#ffffff"
       id="path830" />
  </g>
</svg>
