<?xml version="1.0" encoding="UTF-8" standalone="no"?>
<!-- Created with Inkscape (http://www.inkscape.org/) -->

<svg
   width="2.6805551in"
   height="2.6666665in"
   viewBox="0 0 68.0861 67.733329"
   version="1.1"
   id="svg5"
   inkscape:version="1.1.2 (0a00cf5339, 2022-02-04)"
   sodipodi:docname="scimago.svg"
   xmlns:inkscape="http://www.inkscape.org/namespaces/inkscape"
   xmlns:sodipodi="http://sodipodi.sourceforge.net/DTD/sodipodi-0.dtd"
   xmlns="http://www.w3.org/2000/svg"
   xmlns:svg="http://www.w3.org/2000/svg">
  <sodipodi:namedview
     id="namedview7"
     pagecolor="#ffffff"
     bordercolor="#666666"
     borderopacity="1.0"
     inkscape:pageshadow="2"
     inkscape:pageopacity="0.0"
     inkscape:pagecheckerboard="0"
     inkscape:document-units="mm"
     showgrid="false"
     fit-margin-top="0"
     fit-margin-left="0"
     fit-margin-right="0"
     fit-margin-bottom="0"
     inkscape:snap-global="true"
     units="in"
     inkscape:zoom="0.49260384"
     inkscape:cx="-494.31203"
     inkscape:cy="384.69047"
     inkscape:window-width="1920"
     inkscape:window-height="1016"
     inkscape:window-x="0"
     inkscape:window-y="0"
     inkscape:window-maximized="1"
     inkscape:current-layer="layer1" />
  <defs
     id="defs2" />
  <g
     inkscape:label="Calque 1"
     inkscape:groupmode="layer"
     id="layer1"
     transform="translate(-86.117496,-70.197274)">
    <g
       id="g1101"
       transform="translate(23.700685,-78.272706)">
      <path
         style="fill:#fcfcfc;stroke-width:0.352778"
         d="m 74.151907,193.96736 c -1.629297,-0.52329 -4.503155,-2.83728 -4.503155,-3.62588 0,-0.21707 0.583114,-0.79092 1.295809,-1.2752 l 1.295809,-0.88053 1.330029,1.2016 c 2.410587,2.17783 6.260133,2.47837 8.423899,0.65768 0.837702,-0.70488 1.060009,-1.17472 1.060009,-2.24033 0,-1.91945 -1.246526,-2.83273 -5.510741,-4.03753 -4.262949,-1.20444 -5.017735,-1.57867 -6.431336,-3.18867 -0.993013,-1.13098 -1.110086,-1.49734 -1.104897,-3.4576 0.0043,-1.61096 0.214821,-2.56142 0.79375,-3.58298 2.275092,-4.01456 10.318859,-4.51579 14.1405,-0.88113 l 1.464112,1.39248 -1.234722,1.04739 c -0.679097,0.57607 -1.336996,1.05166 -1.461995,1.05688 -0.125004,0.005 -0.734702,-0.46451 -1.354886,-1.04385 -3.042066,-2.84172 -8.613118,-1.84444 -8.613118,1.54183 0,0.70701 0.252095,1.53758 0.560211,1.84569 0.30812,0.30812 2.443307,1.10941 4.744861,1.78064 6.335207,1.84762 8.076141,3.59261 7.775123,7.79326 -0.188821,2.63495 -1.250319,4.27416 -3.516439,5.43025 -1.944988,0.99226 -6.752244,1.23701 -9.152823,0.466 z m 16.839899,0.36673 c -0.194028,-0.0647 -0.78136,-0.21196 -1.305182,-0.32719 l -0.952409,-0.20952 0.59471,-1.6046 c 0.493105,-1.33047 0.716079,-1.56961 1.305182,-1.3998 2.151779,0.62024 3.901941,0.6057 4.697797,-0.039 1.242102,-1.00625 1.463209,-2.78686 1.472318,-11.85689 l 0.0084,-8.37847 h 1.763889 1.763889 l -0.002,9.4368 c -10e-4,5.19025 -0.15883,10.00146 -0.350542,10.69158 -0.415643,1.49619 -1.840392,2.90757 -3.492489,3.45973 -1.092828,0.36523 -4.649822,0.5122 -5.503608,0.22739 z M 105.98486,182.2866 v -11.86809 l 5.62468,0.17947 c 5.01325,0.15997 5.80699,0.27087 7.3018,1.02018 2.29716,1.15152 2.9847,2.2195 3.20633,4.9806 0.29623,3.69047 -1.08008,6.4907 -3.59874,7.32193 l -1.20118,0.39643 3.1148,4.83059 3.11479,4.8306 -1.77183,0.10823 c -0.97451,0.0595 -1.96306,0.0348 -2.19678,-0.0548 -0.23373,-0.0897 -1.74974,-2.24183 -3.36892,-4.78254 l -2.94397,-4.61946 h -1.70021 -1.70021 v 4.7625 4.7625 h -1.94028 -1.94028 z m 10.53814,-1.22179 c 1.42367,-0.49629 1.80908,-1.23843 1.80908,-3.48351 0,-1.44405 -0.17243,-1.97555 -0.86591,-2.66903 -0.79841,-0.7984 -1.12841,-0.8659 -4.23333,-0.8659 h -3.36742 v 3.70416 3.70417 h 2.76958 c 1.52326,0 3.27286,-0.17545 3.888,-0.38989 z"
         id="path1117" />
      <path
         style="fill:#f9e2d8;stroke-width:0.352778"
         d="m 96.612416,179.33803 c 0,-4.75368 0.04994,-6.69837 0.11097,-4.32153 0.06103,2.37684 0.06103,6.26622 0,8.64306 -0.06103,2.37684 -0.11097,0.43215 -0.11097,-4.32153 z M 85.125973,182.954 c -0.43881,-0.55952 -0.426332,-0.572 0.133195,-0.13319 0.587639,0.46086 0.774516,0.75056 0.484166,0.75056 -0.07325,0 -0.351067,-0.27782 -0.617361,-0.61737 z m -14.11111,-2.11666 c -0.43881,-0.55953 -0.426332,-0.57201 0.133195,-0.1332 0.587639,0.46086 0.774516,0.75056 0.484166,0.75056 -0.07325,0 -0.351067,-0.27781 -0.617361,-0.61736 z m 11.288888,-5.64445 c -0.43881,-0.55952 -0.426332,-0.572 0.133195,-0.13319 0.339548,0.26629 0.617361,0.5441 0.617361,0.61736 0,0.29035 -0.289698,0.10347 -0.750556,-0.48417 z"
         id="path1115" />
      <path
         style="fill:#f7d7c8;stroke-width:0.352778"
         d="m 98.22375,193.31595 c 0,-0.0733 0.277812,-0.35107 0.617361,-0.61736 0.559527,-0.43881 0.572004,-0.42633 0.133195,0.13319 -0.460858,0.58764 -0.750556,0.77452 -0.750556,0.48417 z M 69.676604,177.01558 c 0.01693,-0.41097 0.100521,-0.49456 0.213134,-0.21314 0.101907,0.25466 0.08938,0.55893 -0.02783,0.67616 -0.117224,0.11722 -0.200603,-0.0911 -0.185286,-0.46302 z m 7.997842,-3.55563 c 0.242535,-0.0979 0.63941,-0.0979 0.881944,0 0.242535,0.0979 0.0441,0.17794 -0.440972,0.17794 -0.485069,0 -0.683507,-0.0801 -0.440972,-0.17794 z"
         id="path1113" />
      <path
         style="fill:#f4c9b5;stroke-width:0.352778"
         d="m 78.049272,191.09149 c 0.25466,-0.10191 0.558931,-0.0894 0.676159,0.0279 0.117224,0.11723 -0.09114,0.2006 -0.463021,0.18529 -0.410968,-0.0169 -0.494559,-0.10052 -0.213138,-0.21314 z m 14.794617,0.007 c 0.242535,-0.0979 0.63941,-0.0979 0.881945,0 0.242534,0.0979 0.0441,0.17793 -0.440972,0.17793 -0.48507,0 -0.683507,-0.0801 -0.440973,-0.17793 z m 17.991661,-6.36533 c 0.43657,-0.0841 1.15094,-0.0841 1.5875,0 0.43657,0.0841 0.0794,0.15288 -0.79375,0.15288 -0.87312,0 -1.23031,-0.0688 -0.79375,-0.15288 z"
         id="path1111" />
      <path
         style="fill:#f0b093;stroke-width:0.352778"
         d="m 77.857548,194.61578 c 0.343242,-0.0894 0.819492,-0.0836 1.058334,0.0131 0.238841,0.0966 -0.04199,0.16982 -0.624075,0.16263 -0.582083,-0.007 -0.777501,-0.0863 -0.434259,-0.1757 z m 14.990455,-0.005 c 0.438823,-0.0844 1.073823,-0.0812 1.411111,0.007 0.337287,0.0883 -0.02177,0.15733 -0.797864,0.15342 -0.776111,-0.004 -1.052071,-0.0762 -0.613247,-0.16054 z m -22.350824,-2.66091 -0.672038,-0.79375 0.79375,0.67203 c 0.745927,0.63155 0.954349,0.91547 0.672038,0.91547 -0.06694,0 -0.42413,-0.35719 -0.79375,-0.79375 z m 29.997311,-12.25903 c 0,-5.14174 0.0493,-7.24517 0.10959,-4.67431 0.0603,2.57087 0.0603,6.77775 0,9.34862 -0.0603,2.57086 -0.10959,0.46743 -0.10959,-4.67431 z m -13.531776,7.9081 c 0.01693,-0.41096 0.10052,-0.49456 0.213134,-0.21314 0.101907,0.25467 0.08938,0.55894 -0.02783,0.67616 -0.117228,0.11723 -0.200604,-0.0911 -0.185286,-0.46302 z M 122.3016,177.39775 c 0.004,-0.77611 0.0762,-1.05207 0.16054,-0.61324 0.0844,0.43882 0.0812,1.07382 -0.007,1.41111 -0.0883,0.33728 -0.15734,-0.0218 -0.15343,-0.79787 z"
         id="path1109" />
      <path
         style="fill:#eb956e;stroke-width:0.352778"
         d="m 110.00361,189.56859 c 0,-2.61938 0.0555,-3.69094 0.12341,-2.38125 0.0679,1.30968 0.0679,3.45281 0,4.7625 -0.0679,1.30968 -0.12341,0.23812 -0.12341,-2.38125 z M 73.484307,189.304 c -0.438809,-0.55952 -0.426332,-0.572 0.133195,-0.13319 0.587639,0.46086 0.774516,0.75056 0.484166,0.75056 -0.07325,0 -0.351067,-0.27782 -0.617361,-0.61737 z m 36.532373,-8.31674 c -0.0987,-0.25709 -0.12662,-1.96365 -0.0621,-3.79236 l 0.11723,-3.32492 0.0732,3.59914 0.0732,3.59913 2.20486,0.12525 2.20487,0.12525 -2.21594,0.068 c -1.56478,0.048 -2.26864,-0.0694 -2.3953,-0.39947 z M 77.321668,169.91684 c 0.436563,-0.0841 1.150938,-0.0841 1.5875,0 0.436563,0.0841 0.07938,0.15289 -0.79375,0.15289 -0.873125,0 -1.230312,-0.0688 -0.79375,-0.15289 z"
         id="path1107" />
      <path
         style="fill:#e98557;stroke-width:0.352778"
         d="m 85.125973,182.60123 c -0.43881,-0.55953 -0.426332,-0.57201 0.133195,-0.1332 0.587639,0.46086 0.774516,0.75056 0.484166,0.75056 -0.07325,0 -0.351067,-0.27782 -0.617361,-0.61736 z m -14.11111,-1.41111 c -0.43881,-0.55953 -0.426332,-0.57201 0.133195,-0.1332 0.587639,0.46086 0.774516,0.75056 0.484166,0.75056 -0.07325,0 -0.351067,-0.27782 -0.617361,-0.61736 z m 11.123982,-5.82084 -0.672038,-0.79375 0.79375,0.67204 c 0.745927,0.63155 0.954348,0.91546 0.672038,0.91546 -0.06694,0 -0.424131,-0.35719 -0.79375,-0.79375 z"
         id="path1105" />
      <path
         style="fill:#e67541;stroke-width:0.352778"
         d="m 62.416811,182.33664 v -33.86666 h 32.984717 35.101382 v 33.86666 33.86667 H 95.401528 62.416811 Z m 20.54481,11.63837 c 2.896962,-1.16064 4.632138,-4.28384 4.186467,-7.53537 -0.46367,-3.38284 -2.377849,-4.92069 -7.974337,-6.4066 -1.649235,-0.43788 -3.432873,-1.01441 -3.963637,-1.28116 -1.943686,-0.97687 -1.592545,-3.63064 0.601708,-4.54746 2.3148,-0.96718 4.836354,-0.43114 6.510228,1.38398 0.470386,0.51008 1.026011,0.92505 1.234722,0.92216 0.208714,-0.003 1.014479,-0.54569 1.79059,-1.20624 l 1.411111,-1.20098 -1.234722,-1.30766 c -4.080213,-4.32124 -13.039505,-3.72584 -15.189389,1.00943 -0.82991,1.82794 -0.874078,4.49995 -0.101307,6.12845 0.815156,1.71782 2.526756,2.71482 6.82403,3.97499 4.615571,1.3535 5.433049,1.91122 5.574576,3.8032 0.08896,1.18923 -0.04781,1.54541 -0.829535,2.16032 -1.189578,0.93572 -2.888224,1.25458 -4.998039,0.93819 -1.276145,-0.19137 -1.977743,-0.56719 -3.037759,-1.6272 -0.758098,-0.7581 -1.478745,-1.376 -1.601441,-1.37311 -0.122693,0.003 -0.85107,0.5365 -1.618612,1.18581 -1.378948,1.16654 -1.388469,1.19136 -0.80101,2.08793 2.170158,3.31208 8.635647,4.72652 13.216356,2.89132 z m 13.243298,0.51125 c 1.980473,-0.54998 3.627861,-2.16586 4.093541,-4.01527 0.24092,-0.95676 0.39473,-5.14961 0.39473,-10.76001 v -9.19239 h -2.116662 -2.116667 v 8.83077 c 0,6.87117 -0.112268,9.09947 -0.505918,10.04161 -0.580634,1.38965 -1.657417,1.80885 -3.658373,1.42421 -2.520491,-0.4845 -2.556615,-0.46968 -3.247142,1.33213 -0.574615,1.49937 -0.587319,1.72094 -0.109185,1.90441 2.112722,0.81073 5.23797,0.99764 7.265676,0.43454 z m 14.013271,-4.91767 v -4.58611 l 1.49931,0.0145 1.4993,0.0145 2.79345,4.4291 c 1.5364,2.436 2.98187,4.5014 3.21216,4.58977 0.23029,0.0884 1.37679,0.11282 2.54779,0.0543 l 2.12908,-0.10635 -3.11263,-4.82788 -3.11262,-4.82788 1.0198,-0.22399 c 1.29699,-0.28486 3.01876,-2.23285 3.49759,-3.95714 1.20717,-4.34696 -0.53071,-8.25368 -4.11428,-9.24884 -0.73291,-0.20353 -3.7535,-0.37094 -6.71242,-0.37202 l -5.37986,-0.002 v 11.81805 11.81806 h 2.11667 2.11666 z m 0,-12.04417 v -3.57751 l 2.9423,0.18357 c 4.28706,0.26746 4.92402,0.78145 4.88063,3.93842 -0.0152,1.10658 -0.23619,1.63164 -0.94246,2.23927 -0.79926,0.68764 -1.32081,0.79375 -3.90153,0.79375 h -2.97894 z"
         id="path1103"
         sodipodi:nodetypes="ccccccccccssccscccssscsssscsccssscccsssscsccccscccccscscccccccccsssscc" />
    </g>
  </g>
</svg>
