<?xml version="1.0" encoding="UTF-8" standalone="no"?>
<!-- Created with Inkscape (http://www.inkscape.org/) -->

<svg
   width="67.733757mm"
   height="67.753464mm"
   viewBox="0 0 67.733757 67.753464"
   version="1.1"
   id="svg5"
   xmlns="http://www.w3.org/2000/svg"
   xmlns:svg="http://www.w3.org/2000/svg">
  <defs
     id="defs2" />
  <g
     id="layer1"
     transform="translate(-33.321505,-128.05885)">
    <g
       id="g4963"
       transform="translate(-75.994685,67.376593)">
      <path
         style="fill:#fefdfd;stroke-width:0.264583"
         d="m 124.79702,109.49813 c -2.67004,-0.52991 -7.16087,-2.45453 -7.67739,-3.29029 -0.0799,-0.12926 0.17838,-0.81468 0.57393,-1.52314 l 0.71918,-1.28811 2.00017,1.12463 c 2.91796,1.64068 5.03561,2.28881 7.55641,2.31272 2.41493,0.0229 3.77922,-0.31166 5.30494,-1.30096 2.62391,-1.70138 3.17808,-4.88798 1.23341,-7.09235 -0.59072,-0.66961 -3.27409,-1.90033 -7.8269,-3.589787 -4.71351,-1.749094 -5.52625,-2.176608 -7.06694,-3.71729 -1.5729,-1.572897 -2.22793,-3.4907 -2.03086,-5.94588 0.43442,-5.411952 6.37231,-8.588125 13.57891,-7.263351 1.69507,0.311601 5.23984,1.610786 6.01864,2.205879 0.459,0.35073 0.45009,0.425641 -0.20414,1.716717 l -0.6841,1.349985 -1.03252,-0.526754 c -4.37415,-2.231525 -9.37338,-2.498188 -12.16765,-0.64903 -1.30129,0.861156 -1.93072,2.012791 -1.93072,3.532563 0,1.482053 0.52633,2.606518 1.67077,3.569506 1.18409,0.996339 1.88142,1.321155 6.89017,3.209431 5.06123,1.908058 6.41954,2.626354 7.74882,4.09771 1.27007,1.405813 1.74297,2.655554 1.74297,4.606201 0,2.20037 -0.60897,3.8531 -1.98271,5.38103 -2.6864,2.98793 -7.2297,4.11351 -12.43439,3.08057 z m 30.1598,0.0191 c -7.07016,-1.46718 -11.24479,-7.29858 -11.24479,-15.707486 0,-10.567622 6.26288,-16.662517 16.53646,-16.092919 3.05428,0.169338 6.4583,0.871454 6.65026,1.371687 0.15239,0.397112 -0.37024,2.515969 -0.62057,2.515969 -0.0922,0 -1.18893,-0.192652 -2.4372,-0.428116 -3.06091,-0.577388 -7.4904,-0.389091 -9.58598,0.407499 -3.00269,1.14141 -5.00043,3.32881 -6.12077,6.701838 -0.82126,2.472624 -0.82122,8.313052 8e-5,10.923386 1.07258,3.408972 3.33547,5.812352 6.51838,6.923062 1.813,0.63267 8.03863,0.64945 10.27299,0.0277 l 1.50219,-0.41802 0.30712,1.28023 c 0.16892,0.70413 0.23576,1.39571 0.14854,1.53684 -0.60134,0.97298 -8.7146,1.62491 -11.92671,0.95835 z"
         id="path4979" />
      <path
         style="fill:#fee7ce;stroke-width:0.264583"
         d="m 127.25826,106.82373 c 0.19099,-0.0764 0.4192,-0.067 0.50711,0.0209 0.0879,0.0879 -0.0684,0.15045 -0.34726,0.13896 -0.30823,-0.0127 -0.37092,-0.0754 -0.15985,-0.15985 z m 1.5875,0 c 0.19099,-0.0764 0.4192,-0.067 0.50711,0.0209 0.0879,0.0879 -0.0684,0.15045 -0.34726,0.13896 -0.30823,-0.0127 -0.37092,-0.0754 -0.15985,-0.15985 z m 6.70597,-5.64009 c 0,-0.36381 0.0601,-0.51263 0.13345,-0.33073 0.0734,0.1819 0.0734,0.47956 0,0.66146 -0.0734,0.1819 -0.13345,0.0331 -0.13345,-0.33073 z m 3.70416,-0.26459 c 0,-0.3638 0.0601,-0.51263 0.13345,-0.33073 0.0734,0.18191 0.0734,0.47956 0,0.66146 -0.0734,0.1819 -0.13345,0.0331 -0.13345,-0.33073 z"
         id="path4977" />
      <path
         style="fill:#fed8af;stroke-width:0.264583"
         d="m 136.56828,107.16916 c 0,-0.0549 0.20836,-0.2633 0.46302,-0.46302 0.41965,-0.32911 0.42901,-0.31975 0.0999,0.0999 -0.34564,0.44073 -0.56292,0.58089 -0.56292,0.36313 z m -8.51627,-0.34543 c 0.19099,-0.0764 0.4192,-0.067 0.50711,0.0209 0.0879,0.0879 -0.0684,0.15045 -0.34726,0.13896 -0.30823,-0.0127 -0.37092,-0.0754 -0.15985,-0.15985 z m 11.18299,-5.00068 c 0.0127,-0.30823 0.0754,-0.37092 0.15985,-0.15986 0.0764,0.191 0.067,0.4192 -0.0209,0.50712 -0.0879,0.0879 -0.15045,-0.0683 -0.13897,-0.34726 z m 11.09161,-17.67264 c 0,-0.05494 0.20836,-0.263302 0.46303,-0.463021 0.41964,-0.329108 0.429,-0.319749 0.0999,0.0999 -0.34564,0.440729 -0.56292,0.580887 -0.56292,0.363126 z m -2.51354,-2.545939 c 0.26339,-0.291041 0.53842,-0.529166 0.61119,-0.529166 0.0728,0 -0.0832,0.238125 -0.3466,0.529166 -0.26339,0.291042 -0.53843,0.529167 -0.61119,0.529167 -0.0728,0 0.0832,-0.238125 0.3466,-0.529167 z"
         id="path4975" />
      <path
         style="fill:#fec991;stroke-width:0.264583"
         d="m 143.51417,93.643012 c 0.003,-0.582083 0.0571,-0.789053 0.12041,-0.459935 0.0633,0.329117 0.0609,0.805367 -0.005,1.058333 -0.0662,0.252965 -0.118,-0.01632 -0.11506,-0.598398 z"
         id="path4973" />
      <path
         style="fill:#fead57;stroke-width:0.264583"
         d="m 128.58117,109.99873 c 0.191,-0.0764 0.4192,-0.067 0.50712,0.0209 0.0879,0.0879 -0.0684,0.15045 -0.34726,0.13896 -0.30823,-0.0127 -0.37092,-0.0754 -0.15986,-0.15985 z m 30.1625,0 c 0.191,-0.0764 0.4192,-0.067 0.50712,0.0209 0.0879,0.0879 -0.0683,0.15045 -0.34727,0.13896 -0.30822,-0.0127 -0.37091,-0.0754 -0.15985,-0.15985 z m -1.07487,-3.43407 c 0.1819,-0.0734 0.47956,-0.0734 0.66146,0 0.1819,0.0734 0.0331,0.13345 -0.33073,0.13345 -0.3638,0 -0.51263,-0.0601 -0.33073,-0.13345 z m 2.92695,-0.005 c 0.191,-0.0764 0.4192,-0.067 0.50712,0.0209 0.0879,0.0879 -0.0684,0.15045 -0.34726,0.13897 -0.30823,-0.0127 -0.37092,-0.0754 -0.15986,-0.15986 z M 143.48922,95.098221 c 0,-0.363802 0.0601,-0.512631 0.13346,-0.33073 0.0734,0.181902 0.0734,0.479558 0,0.661459 -0.0734,0.181901 -0.13346,0.03307 -0.13346,-0.330729 z m 4.01166,-1.322917 c 0,-0.945885 0.048,-1.332838 0.10672,-0.859896 0.0587,0.472943 0.0587,1.246849 0,1.719792 -0.0587,0.472943 -0.10672,0.08599 -0.10672,-0.859896 z m -4.01166,-1.5875 c 0,-0.363802 0.0601,-0.51263 0.13346,-0.330729 0.0734,0.181901 0.0734,0.479557 0,0.661458 -0.0734,0.181901 -0.13346,0.03307 -0.13346,-0.330729 z m -24.1526,-0.992187 c -0.32911,-0.419645 -0.31975,-0.429004 0.0999,-0.0999 0.25466,0.19972 0.46302,0.40808 0.46302,0.46302 0,0.217763 -0.21727,0.07761 -0.56291,-0.363124 z m -2.03134,-5.490104 c 0.005,-0.436563 0.0647,-0.583125 0.13177,-0.325694 0.0671,0.257431 0.0627,0.614618 -0.01,0.79375 -0.0725,0.179132 -0.12736,-0.03149 -0.12197,-0.468056 z m 40.62811,-4.805437 c 0.1819,-0.0734 0.47955,-0.0734 0.66145,0 0.1819,0.0734 0.0331,0.133452 -0.33073,0.133452 -0.3638,0 -0.51263,-0.06005 -0.33072,-0.133452 z m 2.64583,0 c 0.1819,-0.0734 0.47956,-0.0734 0.66146,0 0.1819,0.0734 0.0331,0.133452 -0.33073,0.133452 -0.3638,0 -0.51263,-0.06005 -0.33073,-0.133452 z m -33.58555,-3.445095 c 0.191,-0.07643 0.4192,-0.06703 0.50712,0.02089 0.0879,0.08792 -0.0683,0.150453 -0.34726,0.138964 -0.30823,-0.01269 -0.37092,-0.07539 -0.15986,-0.159852 z m 1.30638,0.0055 c 0.1819,-0.0734 0.47956,-0.0734 0.66146,0 0.1819,0.0734 0.0331,0.133452 -0.33073,0.133452 -0.3638,0 -0.51263,-0.06005 -0.33073,-0.133452 z"
         id="path4971" />
      <path
         style="fill:#fe992e;stroke-width:0.264583"
         d="m 127.37905,109.99612 c 0.25743,-0.0671 0.61462,-0.0627 0.79375,0.01 0.17913,0.0725 -0.0315,0.12736 -0.46806,0.12197 -0.43656,-0.005 -0.58312,-0.0647 -0.32569,-0.13177 z m 1.99587,0.003 c 0.191,-0.0764 0.4192,-0.067 0.50712,0.0209 0.0879,0.0879 -0.0683,0.15045 -0.34726,0.13896 -0.30823,-0.0127 -0.37092,-0.0754 -0.15986,-0.15985 z m 28.29388,0.006 c 0.1819,-0.0734 0.47956,-0.0734 0.66146,0 0.1819,0.0734 0.0331,0.13345 -0.33073,0.13345 -0.3638,0 -0.51263,-0.0601 -0.33073,-0.13345 z m 1.98941,-0.008 c 0.25743,-0.0671 0.61462,-0.0627 0.79375,0.01 0.17913,0.0725 -0.0315,0.12736 -0.46805,0.12197 -0.43657,-0.005 -0.58313,-0.0647 -0.3257,-0.13177 z m -0.66341,-3.44336 c 0.32912,-0.0633 0.80537,-0.0609 1.05834,0.005 0.25296,0.0662 -0.0163,0.118 -0.5984,0.11507 -0.58208,-0.003 -0.78905,-0.0571 -0.45994,-0.12041 z M 117.27459,84.625131 c 0.0127,-0.308225 0.0754,-0.370919 0.15985,-0.159853 0.0764,0.190997 0.067,0.4192 -0.0209,0.507119 -0.0879,0.08792 -0.15045,-0.06835 -0.13896,-0.347266 z m 9.4545,-3.730567 c 0.191,-0.07643 0.4192,-0.06703 0.50712,0.02089 0.0879,0.08792 -0.0683,0.150453 -0.34727,0.138964 -0.30822,-0.01269 -0.37092,-0.07539 -0.15985,-0.159852 z m 32.39492,-0.0016 c 0.25466,-0.06655 0.67138,-0.06655 0.92604,0 0.25466,0.06655 0.0463,0.121 -0.46302,0.121 -0.50932,0 -0.71768,-0.05445 -0.46302,-0.121 z m -32.92409,-3.437943 c 0.191,-0.07643 0.4192,-0.06703 0.50712,0.02089 0.0879,0.08792 -0.0684,0.150453 -0.34726,0.138964 -0.30823,-0.01269 -0.37092,-0.07539 -0.15986,-0.159852 z m 32.13034,-0.0088 c 0.40018,-0.06062 1.05503,-0.06062 1.45521,0 0.40018,0.06062 0.0728,0.110222 -0.72761,0.110222 -0.80036,0 -1.12778,-0.0496 -0.7276,-0.110222 z"
         id="path4969" />
      <path
         style="fill:#fe8200;stroke-width:0.264583"
         d="m 109.34257,123.47478 c 0.0145,-2.72851 0.10487,-4.72281 0.20081,-4.43177 0.0959,0.29104 0.48454,1.12448 0.86355,1.85208 0.37901,0.72761 0.83179,1.76372 1.00616,2.30247 0.32555,1.0058 0.47413,1.09847 2.24127,1.39784 0.56698,0.0961 1.30871,0.35669 1.64829,0.57919 0.33958,0.22251 1.11395,0.51612 1.72081,0.65247 0.60687,0.13635 1.45436,0.49783 1.88333,0.80328 0.64724,0.46088 0.92414,0.5111 1.62758,0.29521 0.55441,-0.17016 1.07174,-0.17038 1.49546,-5.3e-4 0.35631,0.14273 1.39197,0.40749 2.30147,0.58835 1.64388,0.3269 1.65365,0.32526 1.65365,-0.27875 0,-0.33417 0.072,-0.79517 0.15995,-1.02443 0.13976,-0.3642 0.25848,-0.34668 0.94025,0.13878 0.47936,0.34134 1.02991,0.5079 1.42754,0.43189 0.53882,-0.10311 0.64726,-0.0192 0.64726,0.50092 0,0.68735 0.71525,0.86202 1.26768,0.30959 0.17335,-0.17335 0.76271,-0.34767 1.30969,-0.38738 0.54698,-0.0397 1.97014,-0.294 3.16257,-0.56509 2.01716,-0.45857 2.25694,-0.58753 3.44478,-1.85274 0.93625,-0.99724 1.41668,-1.32326 1.80162,-1.22259 0.38792,0.10144 0.66278,-0.0908 1.05314,-0.73644 l 0.52823,-0.8737 0.0821,0.99219 c 0.0927,1.1198 -0.12106,1.05014 3.35746,1.09427 l 2.38125,0.0302 0.0837,0.72761 c 0.0531,0.46181 0.24121,0.7276 0.51485,0.7276 0.23712,0 0.91383,0.53045 1.50378,1.17878 l 1.07265,1.17877 2.17476,-1.02549 2.17476,-1.0255 0.16573,0.88342 0.16573,0.88342 2.15743,0.1422 c 1.18658,0.0782 3.14784,0.13182 4.35835,0.11913 1.31564,-0.0138 2.32135,0.0974 2.50031,0.27631 0.22279,0.22278 -6.78787,0.29938 -27.40249,0.29938 H 109.3162 Z m 66.85434,4.54906 c 0.64526,-0.45196 0.77458,-1.41241 0.25952,-1.92747 -0.25181,-0.25181 -0.25512,-0.37388 -0.0142,-0.5228 0.1729,-0.10685 0.35732,-0.9651 0.40983,-1.90721 0.0562,-1.00866 0.11644,-0.38033 0.14646,1.52821 l 0.051,3.24115 h -0.72033 -0.72033 z m 0.32345,-10.10884 c 0,-1.61413 -0.0927,-1.92717 -0.94641,-3.19481 -0.94164,-1.39825 -0.95199,-1.40449 -2.05052,-1.23515 -2.01984,0.31135 -4.47077,1.22994 -4.59998,1.72403 -0.13572,0.51902 -1.67168,0.87796 -2.65569,0.62062 -0.50535,-0.13216 -0.59531,-0.0511 -0.59531,0.53663 0,0.439 -0.14522,0.69232 -0.39688,0.69232 -0.32758,0 -0.39687,-0.48507 -0.39687,-2.77813 v -2.77812 l -3.37344,0.0313 c -1.85539,0.0172 -3.73062,0.11446 -4.16719,0.21609 -0.45068,0.10492 -1.30834,0.0354 -1.98437,-0.16073 -0.93074,-0.2701 -5.39216,-0.34614 -20.43906,-0.34838 -16.93206,-0.003 -19.24844,-0.0506 -19.24844,-0.39974 0,-0.21828 -0.10919,-0.39688 -0.24265,-0.39688 -0.28916,0 -2.59606,0.94023 -3.28533,1.33902 -0.26689,0.15441 -0.83244,0.2045 -1.25677,0.1113 -0.63116,-0.13862 -0.77321,-0.0814 -0.78088,0.3146 -0.005,0.26622 -0.17953,0.7817 -0.3875,1.1455 -0.34055,0.59573 -0.37905,0.26476 -0.38749,-3.33097 l -0.009,-3.99242 0.67391,-0.30706 c 0.37065,-0.16888 1.13927,-0.30705 1.70805,-0.30705 h 1.03415 l -0.38514,1.0916 c -0.21182,0.60038 -0.38514,1.61468 -0.38514,2.254 0,1.13284 0.0185,1.15808 0.72761,0.99263 0.40018,-0.0934 1.20385,-0.42537 1.78593,-0.73777 l 1.05834,-0.56801 0.0682,-16.2006 0.0682,-16.200598 h 13.6147 c 13.15316,0 13.62391,-0.01721 13.88647,-0.507823 0.1979,-0.369781 0.18245,-0.539505 -0.0568,-0.624373 -0.51859,-0.183928 1.44854,-1.955248 2.40459,-2.16523 0.79031,-0.173581 0.83866,-0.140274 0.83866,0.577653 0,0.419021 -0.10369,0.874965 -0.23042,1.01321 -0.12673,0.138245 -0.30759,0.578776 -0.40191,0.978958 l -0.1715,0.727605 h 7.4595 7.45949 l -0.57529,-0.612366 c -0.3164,-0.3368 -0.57528,-0.682796 -0.57528,-0.768878 0,-0.155869 2.27602,-1.000006 2.69628,-1.000006 0.12143,0 -0.0784,0.473884 -0.44401,1.053075 -0.36562,0.579192 -0.66477,1.114973 -0.66477,1.190625 0,0.36113 1.00984,0.06788 1.71837,-0.499012 0.73751,-0.590073 0.76318,-0.667782 0.37097,-1.123165 -0.74081,-0.860145 -0.73278,-1.017724 0.0533,-1.046571 0.59616,-0.02188 0.76774,0.08793 0.76774,0.491328 0,0.365015 0.12446,0.471743 0.41852,0.358902 0.23018,-0.08833 0.5576,-0.163246 0.7276,-0.166482 0.17,-0.0032 0.0114,-0.238713 -0.35237,-0.523284 l -0.66145,-0.5174 0.73612,-0.0059 c 0.50034,-0.004 0.80127,-0.181953 0.93948,-0.55557 0.18746,-0.506745 0.24233,-0.477282 0.70248,0.377154 0.43349,0.804942 0.71696,0.981559 2.15536,1.342873 l 1.65623,0.41603 1.16686,-1.234992 1.16685,-1.234991 1.00826,0.623137 1.00826,0.623137 1.27848,-1.390411 1.27849,-1.390409 V 95.07975 c 0,16.24008 -0.0901,24.6247 -0.26458,24.6247 -0.15031,0 -0.26459,-0.77288 -0.26459,-1.78947 z m -43.53812,-8.52617 c 5.15795,-1.72161 7.91786,-7.101 5.81165,-11.327617 -1.25589,-2.520241 -2.9298,-3.610917 -9.17323,-5.977057 -5.23104,-1.982464 -6.11551,-2.426565 -7.18053,-3.605408 -1.2835,-1.420685 -1.5001,-2.978302 -0.65194,-4.688345 0.76892,-1.550288 2.03518,-2.306384 4.53009,-2.704947 2.30939,-0.368927 4.53001,-0.02097 7.591,1.189466 1.27548,0.504377 2.39354,0.917049 2.48458,0.917049 0.16251,0 1.49734,-2.480384 1.49734,-2.78237 0,-0.08477 -0.8632,-0.561218 -1.91823,-1.058771 -7.43945,-3.508465 -15.17809,-2.101992 -17.93701,3.259993 -1.69905,3.302115 -0.40381,7.671164 2.93207,9.890364 0.80595,0.536162 3.3658,1.686362 5.68854,2.555999 2.32274,0.869638 4.75985,1.813338 5.41578,2.097109 2.55825,1.106752 3.6683,2.744978 3.32303,4.904165 -0.36307,2.27053 -1.70765,3.54205 -4.52028,4.27464 -3.09367,0.8058 -5.59978,0.37864 -9.65265,-1.64529 -1.38245,-0.69037 -2.59606,-1.29264 -2.6969,-1.33838 -0.10085,-0.0457 -0.5477,0.54956 -0.993,1.32291 l -0.80962,1.40609 0.59611,0.49294 c 0.74691,0.61763 3.70207,2.10388 5.05704,2.54336 3.50275,1.13611 7.69871,1.24455 10.60616,0.2741 z m 32.10986,-0.0239 c 1.09597,-0.28031 2.0427,-0.55967 2.10383,-0.6208 0.20819,-0.20818 -0.54823,-3.06262 -0.81158,-3.06262 -0.14423,0 -1.21206,0.19246 -2.37296,0.42769 -1.50018,0.30398 -3.0385,0.39675 -5.31807,0.32072 -2.90454,-0.0969 -3.37087,-0.18353 -4.93966,-0.91787 -2.27237,-1.06369 -3.42149,-2.10787 -4.45627,-4.04931 -1.0998,-2.06344 -1.60726,-4.531037 -1.6081,-7.819768 -0.002,-6.817287 2.53626,-10.808542 7.75706,-12.198633 2.24769,-0.59847 6.73532,-0.468854 10.3738,0.299626 0.79329,0.167549 0.81535,0.144101 1.12448,-1.195126 0.17342,-0.751315 0.31532,-1.467558 0.31532,-1.591652 0,-0.387726 -2.74608,-1.045811 -5.57566,-1.336181 -9.20324,-0.944432 -15.51659,2.945849 -17.62838,10.862592 -0.3277,1.228494 -0.45876,2.740178 -0.45876,5.291666 0,3.988538 0.38062,5.909635 1.71233,8.642616 1.95139,4.00471 5.98933,6.8341 10.70568,7.50146 2.25057,0.31846 6.73503,0.0446 9.07694,-0.5544 z m 5.34285,-17.838624 c 0,-0.218281 0.23433,-0.631206 0.52073,-0.917612 0.47298,-0.47298 0.4809,-0.543034 0.0863,-0.763847 -0.57024,-0.319119 -2.41584,1.510083 -1.87189,1.85525 0.55273,0.350743 1.26483,0.252897 1.26483,-0.173791 z M 144.69871,75.888369 c -0.0879,-0.08792 -0.31613,-0.09732 -0.50712,-0.02089 -0.21107,0.08446 -0.14837,0.147157 0.15985,0.159853 0.27892,0.01149 0.43519,-0.05105 0.34727,-0.138965 z m -35.3812,13.190581 c -7.2e-4,-1.346068 0.088,-2.443177 0.19713,-2.43802 0.10914,0.0052 0.46112,0.155386 0.78217,0.333843 0.41838,0.232552 0.51635,0.4335 0.34587,0.709355 -0.14438,0.233598 -0.13478,0.509119 0.0244,0.700934 0.16514,0.198985 0.16874,0.373872 0.01,0.472159 -0.13892,0.08586 -0.205,0.36435 -0.14684,0.618869 0.0582,0.254516 -0.19055,0.819943 -0.55269,1.256506 l -0.65844,0.79375 z m -0.001,-16.152812 c 0,-0.756708 0.0498,-1.375833 0.11065,-1.375833 0.67092,0 0.86919,0.365537 0.67215,1.239186 -0.36416,1.614641 -0.7828,1.68772 -0.7828,0.136647 z m 0,-8.916457 v -3.307292 h 5.82083 c 3.20146,0 5.82084,0.103006 5.82084,0.228902 0,0.125896 -0.24677,0.542615 -0.54837,0.926042 -0.50348,0.640068 -0.70745,0.697139 -2.4915,0.697139 -1.06871,0 -1.98281,0.117727 -2.03131,0.261616 -0.0485,0.143889 -1.07457,0.459315 -2.28015,0.700947 l -2.19194,0.439331 -0.93968,1.680303 c -0.51682,0.924167 -0.98896,1.680303 -1.0492,1.680303 -0.0602,0 -0.10952,-1.488281 -0.10952,-3.307291 z m 67.24019,0.529166 c -0.18417,-0.509323 -0.44622,-0.926041 -0.58232,-0.926041 -0.1361,0 -0.24746,-0.178594 -0.24746,-0.396875 0,-0.218282 -0.22151,-0.396875 -0.49224,-0.396875 -0.27074,0 -0.93087,-0.297657 -1.46696,-0.661459 -0.92766,-0.629528 -1.15796,-0.661458 -4.77074,-0.661458 h -3.79602 l -0.16602,0.661458 c -0.22539,0.898027 -0.58915,0.832728 -1.61793,-0.290443 -0.83019,-0.906361 -0.93949,-0.946419 -2.28464,-0.837316 -1.28038,0.10385 -3.18079,0.741893 -5.00878,1.681648 -0.87074,0.447643 -2.10064,0.618696 -5.35273,0.744453 -2.19819,0.085 -2.69063,0.18678 -3.19463,0.660266 -0.32772,0.307876 -0.66052,0.495109 -0.73955,0.416073 -0.12506,-0.125052 -1.04779,0.02568 -3.32278,0.542793 -0.46759,0.106285 -0.59531,0.01909 -0.59531,-0.406436 0,-0.297964 -0.35719,-1.249337 -0.79375,-2.114163 -0.43656,-0.864825 -0.79375,-1.635336 -0.79375,-1.712246 0,-0.07691 8.03672,-0.139837 17.85938,-0.139837 h 17.85937 v 2.38125 c 0,1.309687 -0.0356,2.38125 -0.0791,2.38125 -0.0435,0 -0.22983,-0.416719 -0.414,-0.926042 z M 137.98426,61.95916 c 0.30462,-1.057075 0.38688,-1.129048 1.37226,-1.200691 l 1.04822,-0.07621 -1.28802,1.20069 c -0.7084,0.66038 -1.32592,1.200691 -1.37226,1.200691 -0.0463,0 0.0616,-0.506016 0.2398,-1.12448 z"
         id="path4967" />
      <path
         style="fill:#fd8200;stroke-width:0.264583"
         d="m 164.42056,128.13634 c -0.17896,-0.17896 -1.18467,-0.2901 -2.50031,-0.27631 -1.21051,0.0127 -3.17177,-0.0409 -4.35835,-0.11913 l -2.15743,-0.1422 -0.16573,-0.88342 -0.16573,-0.88342 -2.17476,1.0255 -2.17476,1.02549 -1.07265,-1.17877 c -0.58995,-0.64833 -1.26666,-1.17878 -1.50378,-1.17878 -0.27364,0 -0.46171,-0.26579 -0.51485,-0.7276 l -0.0837,-0.72761 -2.38125,-0.0302 c -3.47852,-0.0441 -3.26479,0.0255 -3.35746,-1.09427 l -0.0821,-0.99219 -0.52823,0.8737 c -0.39036,0.64568 -0.66522,0.83788 -1.05314,0.73644 -0.38494,-0.10067 -0.86537,0.22535 -1.80162,1.22259 -1.18784,1.26521 -1.42762,1.39417 -3.44478,1.85274 -1.19243,0.27109 -2.61559,0.52537 -3.16257,0.56509 -0.54698,0.0397 -1.13634,0.21403 -1.30969,0.38738 -0.55243,0.55243 -1.26768,0.37776 -1.26768,-0.30959 0,-0.52009 -0.10844,-0.60403 -0.64726,-0.50103 -0.39763,0.076 -0.94818,-0.0905 -1.42754,-0.43189 -0.68177,-0.48546 -0.80049,-0.50298 -0.94025,-0.13878 -0.088,0.22926 -0.15995,0.69025 -0.15995,1.02443 0,0.604 -0.01,0.60565 -1.65365,0.27875 -0.9095,-0.18086 -1.94516,-0.44562 -2.30147,-0.58835 -0.42372,-0.16974 -0.94105,-0.16952 -1.49546,5.3e-4 -0.70344,0.21589 -0.98034,0.16566 -1.62758,-0.29521 -0.42897,-0.30545 -1.27646,-0.66693 -1.88333,-0.80328 -0.60686,-0.13635 -1.38123,-0.42996 -1.72081,-0.65247 -0.33958,-0.2225 -1.08131,-0.48314 -1.64829,-0.57919 -1.76755,-0.29944 -1.91585,-0.39211 -2.23702,-1.39784 -0.17204,-0.53875 -0.68541,-1.68842 -1.14082,-2.55481 -0.77258,-1.46977 -0.82705,-1.75326 -0.81349,-4.23333 0.009,-1.64698 0.15997,-3.0379 0.39687,-3.65659 0.33918,-0.88577 0.46198,-0.98104 1.0877,-0.84376 0.38794,0.0851 0.92373,0.0284 1.19062,-0.126 0.68927,-0.39868 2.99617,-1.33891 3.28533,-1.33891 0.13346,0 0.24265,0.1786 0.24265,0.39688 0,0.34911 2.31638,0.39722 19.24844,0.39974 15.0469,0.002 19.50832,0.0783 20.43906,0.34838 0.67603,0.19618 1.53369,0.26565 1.98437,0.16073 0.43657,-0.10163 2.3118,-0.19887 4.16719,-0.21609 l 3.37344,-0.0313 v 2.77812 c 0,2.29306 0.0693,2.77813 0.39687,2.77813 0.25166,0 0.39688,-0.25332 0.39688,-0.69232 0,-0.5877 0.09,-0.66879 0.59531,-0.53663 0.98401,0.25734 2.51997,-0.1016 2.65569,-0.62062 0.12921,-0.49409 2.58014,-1.41268 4.59998,-1.72403 1.09853,-0.16934 1.10888,-0.1631 2.05052,1.23515 0.85368,1.26764 0.94641,1.58068 0.94641,3.19481 0,1.09138 0.11012,1.78947 0.28228,1.78947 0.38017,0 0.0134,5.62064 -0.38343,5.87596 -0.20767,0.13362 -0.19699,0.28173 0.0372,0.51594 0.51506,0.51506 0.38574,1.47551 -0.25952,1.92747 -0.48597,0.34039 -1.53306,0.41188 -6.0325,0.41188 -3.69877,0 -5.54046,-0.096 -5.74385,-0.29938 z m -52.45853,-19.37377 c 0,-0.63932 0.17734,-1.66503 0.39408,-2.27935 l 0.39409,-1.11694 -1.25398,0.11071 c -0.68969,0.0609 -1.46234,0.20409 -1.717,0.31823 -0.43472,0.19485 -0.46302,-0.23328 -0.46302,-7.005697 v -7.213229 l 0.6848,-0.897816 c 0.37664,-0.4938 0.62407,-1.056076 0.54984,-1.249505 -0.0742,-0.193427 -0.0148,-0.471819 0.13201,-0.618649 0.17956,-0.17956 0.17255,-0.325305 -0.0214,-0.445172 -0.195,-0.120518 -0.20455,-0.334796 -0.0295,-0.66189 0.2138,-0.399489 0.12182,-0.540443 -0.52845,-0.809793 l -0.78731,-0.326113 v -6.132692 c 0,-4.03058 0.0977,-6.230434 0.28515,-6.417843 0.15683,-0.156833 0.38157,-0.712653 0.49941,-1.235156 0.18208,-0.807322 0.13926,-0.973811 -0.28515,-1.108512 -0.42977,-0.136406 -0.49941,-0.429473 -0.49941,-2.10181 0,-1.785258 0.0862,-2.09278 1.05965,-3.781236 l 1.05964,-1.837932 2.16599,-0.434432 c 1.19129,-0.238938 2.23597,-0.547675 2.32151,-0.686081 0.0855,-0.138407 1.04307,-0.287161 2.12784,-0.330565 1.89843,-0.07596 1.9923,-0.110748 2.50582,-0.92862 l 0.53351,-0.849704 4.27743,-0.01019 c 3.18224,-0.0076 4.3116,0.07449 4.41088,0.320537 0.10676,0.264583 0.13763,0.264583 0.15434,0 0.0158,-0.249842 1.04991,-0.330729 4.22833,-0.330729 h 4.20744 l -0.35833,1.190625 c -0.19708,0.654844 -0.31855,1.190625 -0.26993,1.190625 0.0486,0 0.668,-0.534512 1.3764,-1.187803 0.70841,-0.653292 1.47083,-1.189073 1.69425,-1.190625 0.45151,-0.0031 2.10731,3.120951 2.10731,3.975978 0,0.412503 0.13128,0.499359 0.59531,0.393882 2.27499,-0.517111 3.19772,-0.667845 3.32278,-0.542793 0.079,0.07904 0.41183,-0.108197 0.73955,-0.416073 0.504,-0.473486 0.99644,-0.575264 3.19463,-0.660266 3.25209,-0.125757 4.48199,-0.29681 5.35273,-0.744453 1.82799,-0.939755 3.7284,-1.577798 5.00878,-1.681648 1.34515,-0.109103 1.45445,-0.06904 2.28464,0.837316 1.02878,1.123171 1.39254,1.18847 1.61793,0.290443 l 0.16602,-0.661458 h 3.79602 c 3.61278,0 3.84308,0.03193 4.77074,0.661458 0.53609,0.363802 1.19622,0.661459 1.46696,0.661459 0.27073,0 0.49224,0.178593 0.49224,0.396875 0,0.218281 0.10614,0.396875 0.23586,0.396875 0.55713,0 1.08706,2.186288 1.08706,4.484815 v 2.357441 l -1.27849,1.39041 -1.27848,1.390411 -1.00826,-0.623137 -1.00826,-0.623137 -1.16685,1.234991 -1.16686,1.234992 -1.65623,-0.41603 c -1.4384,-0.361314 -1.72187,-0.537931 -2.15536,-1.342873 -0.46015,-0.854436 -0.51502,-0.883899 -0.70248,-0.377154 -0.13821,0.373617 -0.43914,0.551571 -0.93948,0.55557 l -0.73612,0.0059 0.66145,0.5174 c 0.36381,0.284571 0.52237,0.520048 0.35237,0.523284 -0.17,0.0032 -0.49742,0.07815 -0.7276,0.166482 -0.29406,0.112841 -0.41852,0.0061 -0.41852,-0.358902 0,-0.403396 -0.17158,-0.513205 -0.76774,-0.491328 -0.78611,0.02885 -0.79414,0.186426 -0.0533,1.046571 0.39221,0.455383 0.36654,0.533092 -0.37097,1.123165 -0.70853,0.566887 -1.71837,0.860142 -1.71837,0.499012 0,-0.07565 0.29915,-0.611433 0.66477,-1.190625 0.36563,-0.579191 0.56544,-1.053075 0.44401,-1.053075 -0.42026,0 -2.69628,0.844137 -2.69628,1.000006 0,0.08608 0.25888,0.432078 0.57528,0.768878 l 0.57529,0.612366 h -7.45949 -7.4595 l 0.1715,-0.727605 c 0.0943,-0.400182 0.27518,-0.840713 0.40191,-0.978958 0.12673,-0.138245 0.23042,-0.594189 0.23042,-1.01321 0,-0.717927 -0.0483,-0.751234 -0.83866,-0.577653 -0.95605,0.209982 -2.92318,1.981302 -2.40459,2.16523 0.23928,0.08487 0.25473,0.254592 0.0568,0.624373 -0.26256,0.490607 -0.73331,0.507823 -13.88647,0.507823 h -13.6147 l -0.0682,16.200598 -0.0682,16.200601 -1.05834,0.56801 c -0.58208,0.3124 -1.38575,0.6444 -1.78593,0.73777 -0.7091,0.16545 -0.72761,0.14021 -0.72761,-0.99263 z m 57.20809,-17.062433 c -0.54395,-0.345167 1.30165,-2.174369 1.87189,-1.85525 0.39457,0.220813 0.38665,0.290867 -0.0863,0.763847 -0.2864,0.286406 -0.52073,0.699331 -0.52073,0.917612 0,0.426688 -0.7121,0.524534 -1.26483,0.173791 z M 144.19159,75.867481 c 0.19099,-0.07643 0.4192,-0.06703 0.50712,0.02089 0.0879,0.08792 -0.0684,0.150453 -0.34727,0.138964 -0.30822,-0.01269 -0.37092,-0.07539 -0.15985,-0.159852 z"
         id="path4965" />
    </g>
  </g>
</svg>
