<?xml version="1.0" encoding="UTF-8" standalone="no"?>
<!-- Created with Inkscape (http://www.inkscape.org/) -->

<svg
   width="113.18173mm"
   height="113.18173mm"
   viewBox="0 0 113.18174 113.18173"
   version="1.1"
   id="svg5"
   inkscape:version="1.1.2 (0a00cf5339, 2022-02-04)"
   sodipodi:docname="wos.svg"
   xmlns:inkscape="http://www.inkscape.org/namespaces/inkscape"
   xmlns:sodipodi="http://sodipodi.sourceforge.net/DTD/sodipodi-0.dtd"
   xmlns="http://www.w3.org/2000/svg"
   xmlns:svg="http://www.w3.org/2000/svg">
  <sodipodi:namedview
     id="namedview7"
     pagecolor="#ffffff"
     bordercolor="#666666"
     borderopacity="1.0"
     inkscape:pageshadow="2"
     inkscape:pageopacity="0.0"
     inkscape:pagecheckerboard="0"
     inkscape:document-units="mm"
     showgrid="false"
     fit-margin-top="0"
     fit-margin-left="0"
     fit-margin-right="0"
     fit-margin-bottom="0"
     height="113.18173mm"
     inkscape:zoom="0.98520767"
     inkscape:cx="75.618575"
     inkscape:cy="290.80163"
     inkscape:window-width="1920"
     inkscape:window-height="1016"
     inkscape:window-x="0"
     inkscape:window-y="0"
     inkscape:window-maximized="1"
     inkscape:current-layer="layer1" />
  <defs
     id="defs2" />
  <g
     inkscape:label="Calque 1"
     inkscape:groupmode="layer"
     id="layer1"
     transform="translate(-18.24247,-66.319104)">
    <g
       id="g351"
       transform="translate(143.47988,-9.2161338)">
      <path
         style="fill:#a6d8a2;stroke-width:0.352778"
         d="m -76.314181,187.30598 c -0.414479,-0.58208 -0.674225,-1.05833 -0.577211,-1.05833 0.09701,0 0.51551,0.47625 0.929989,1.05833 0.414478,0.58208 0.674225,1.05833 0.577211,1.05833 -0.09701,0 -0.51551,-0.47625 -0.929989,-1.05833 z m -5.820833,-9.17222 c -0.301008,-0.58209 -0.467911,-1.05834 -0.370897,-1.05834 0.09701,0 0.422667,0.47625 0.723674,1.05834 0.301008,0.58208 0.467911,1.05833 0.370897,1.05833 -0.09701,0 -0.422667,-0.47625 -0.723674,-1.05833 z m -5.731863,-12.7 c 0.07847,-0.29104 0.527124,-0.55848 0.996996,-0.59431 0.673625,-0.0514 0.705086,-0.0241 0.148756,0.12901 -0.388056,0.10678 -0.836705,0.37421 -0.996996,0.5943 -0.192567,0.2644 -0.243032,0.22063 -0.148756,-0.129 z m 6.08464,-1.78724 c 1.358195,-0.36587 2.623387,-0.61773 2.811537,-0.55968 0.396416,0.12229 -4.141279,1.30437 -4.824317,1.25674 -0.251164,-0.0175 0.654586,-0.33119 2.01278,-0.69706 z m 57.679166,-1.56415 c 0.658206,-0.6791 1.276114,-1.23472 1.373128,-1.23472 0.09701,0 -0.362144,0.55562 -1.02035,1.23472 -0.658205,0.6791 -1.276113,1.23472 -1.373127,1.23472 -0.09701,0 0.362144,-0.55562 1.020349,-1.23472 z m -53.79861,0.52916 c 0.388056,-0.16675 0.943681,-0.30318 1.234722,-0.30318 0.333545,0 0.268337,0.11208 -0.176389,0.30318 -0.388055,0.16676 -0.94368,0.30319 -1.234722,0.30319 -0.333544,0 -0.268337,-0.11208 0.176389,-0.30319 z m 3.675884,-1.08299 c 1.051599,-0.37326 1.973016,-0.61764 2.047593,-0.54306 0.164567,0.16456 -3.048698,1.28382 -3.58146,1.2475 -0.207969,-0.0142 0.482272,-0.33117 1.533867,-0.70444 z m 54.708838,-3.67951 c 1.249969,-1.26118 2.352047,-2.29305 2.44906,-2.29305 0.09701,0 -0.846313,1.03187 -2.096283,2.29305 -1.249969,1.26119 -2.352047,2.29306 -2.449061,2.29306 -0.09701,0 0.846314,-1.03187 2.096284,-2.29306 z m -46.919444,0.70556 c 0.485069,-0.27729 1.040694,-0.50417 1.234722,-0.50417 0.194028,0 -0.0441,0.22688 -0.529167,0.50417 -0.485069,0.27729 -1.040694,0.50417 -1.234722,0.50417 -0.194028,0 0.0441,-0.22688 0.529167,-0.50417 z m 3.204397,-1.36775 c 0.360817,-0.32654 3.145603,-1.62687 3.145603,-1.46881 0,0.20053 -2.662361,1.60184 -3.043354,1.60184 -0.137083,0 -0.183092,-0.0599 -0.102249,-0.13303 z m 4.909491,-2.49469 c 0,-0.097 0.47625,-0.42266 1.058334,-0.72367 0.582083,-0.30101 1.058333,-0.46791 1.058333,-0.3709 0,0.097 -0.47625,0.42267 -1.058333,0.72368 -0.582084,0.301 -1.058334,0.46791 -1.058334,0.37089 z m 17.271369,-12.27714 c 1.461897,-1.55758 1.778631,-1.83765 1.778631,-1.57276 0,0.0566 -0.754062,0.81068 -1.675694,1.67569 l -1.675695,1.57276 z m 4.233333,-3.88056 c 1.461897,-1.55758 1.778631,-1.83765 1.778631,-1.57276 0,0.0566 -0.754062,0.81068 -1.675694,1.6757 l -1.675694,1.57276 z m 3.366131,-3.79236 c 0.757852,-0.77611 1.45729,-1.41111 1.554304,-1.41111 0.09701,0 -0.443674,0.635 -1.201526,1.41111 -0.757851,0.77611 -1.457289,1.41111 -1.554303,1.41111 -0.09701,0 0.443674,-0.635 1.201525,-1.41111 z m 2.985287,-1.60355 c -0.24887,-0.29988 -0.704871,-0.44922 -1.013333,-0.33188 -0.452025,0.17195 -0.474525,0.12639 -0.115951,-0.23481 0.359354,-0.36199 0.594868,-0.29818 1.224922,0.33188 0.429017,0.42901 0.684816,0.78003 0.568445,0.78003 -0.116374,0 -0.415212,-0.24535 -0.664083,-0.54522 z"
         id="path363" />
      <path
         style="fill:#aa9ad9;stroke-width:0.352778"
         d="m -31.890883,131.30251 c -0.855243,-0.97014 -0.855243,-0.97014 0.04681,-0.17886 0.730574,0.64086 0.995588,0.70792 1.394096,0.35278 0.417707,-0.37226 0.421468,-0.34524 0.02491,0.17885 -0.579456,0.76578 -0.452861,0.79624 -1.465799,-0.35277 z m -5.447972,-5.82084 -3.52116,-3.61597 3.615972,3.52116 c 3.358529,3.27047 3.776349,3.71079 3.52116,3.71079 -0.05215,0 -1.679335,-1.62719 -3.615972,-3.61598 z m -24.511437,-17.55069 c -1.455209,-0.75691 -2.522809,-1.38405 -2.372445,-1.39365 0.375017,-0.0239 5.194667,2.41879 5.194667,2.63281 0,0.2382 0.11624,0.28924 -2.822222,-1.23916 z m 40.379794,-3.26319 -1.750628,-1.85209 1.852083,1.75063 c 1.018646,0.96284 1.852084,1.79628 1.852084,1.85208 0,0.26324 -0.326824,-0.0296 -1.953539,-1.75062 z"
         id="path361" />
      <path
         style="fill:#a3a3a3;stroke-width:0.352778"
         d="m -109.3871,166.24891 c 0.33955,-0.0887 0.89518,-0.0887 1.23472,0 0.33955,0.0887 0.0617,0.16134 -0.61736,0.16134 -0.67909,0 -0.95691,-0.0726 -0.61736,-0.16134 z m 15.882891,-24.45126 c 0,-0.87313 0.0688,-1.23032 0.152883,-0.79375 0.08409,0.43656 0.08409,1.15093 0,1.5875 -0.08409,0.43656 -0.152883,0.0794 -0.152883,-0.79375 z m -0.300063,-9.525 c 0,-3.97757 0.05145,-5.60476 0.114332,-3.61598 0.06288,1.98879 0.06288,5.24316 0,7.23195 -0.06288,1.98878 -0.114332,0.3616 -0.114332,-3.61597 z m -26.141438,0 c 0,-1.26118 0.064,-1.77712 0.14228,-1.14653 0.0783,0.63059 0.0783,1.66246 0,2.29305 -0.0782,0.63059 -0.14228,0.11466 -0.14228,-1.14652 z m 26.427263,-9.525 c 0,-0.6791 0.0726,-0.95691 0.161335,-0.61736 0.08873,0.33954 0.08873,0.89517 0,1.23472 -0.08873,0.33955 -0.161335,0.0617 -0.161335,-0.61736 z m 2.789967,-15.16945 c 0,-0.29104 0.136434,-0.84666 0.303188,-1.23472 0.191107,-0.44473 0.303188,-0.50993 0.303188,-0.17639 0,0.29104 -0.136433,0.84667 -0.303188,1.23472 -0.191107,0.44473 -0.303188,0.50994 -0.303188,0.17639 z m 1.034521,-3.37674 c -0.03632,-0.53276 1.082936,-3.74602 1.247503,-3.58146 0.07458,0.0746 -0.169802,0.996 -0.543066,2.0476 -0.373263,1.05159 -0.690262,1.74183 -0.704437,1.53386 z"
         id="path359" />
      <path
         style="fill:#5c32bc;stroke-width:0.352778"
         d="m -36.80307,125.9477 c -13.452503,-13.61733 -28.906572,-22.18812 -47.0844,-26.112882 -1.933987,-0.417565 -3.571554,-0.814419 -3.639029,-0.881899 -0.736703,-0.736698 6.908782,-15.380042 11.091107,-21.242728 l 1.551573,-2.174953 2.548012,0.701824 c 19.824795,5.460537 39.169865,16.56705 52.538682,30.163838 l 2.718446,2.7648 -1.162685,2.66307 c -1.427389,3.26936 -3.165673,6.37318 -6.510232,11.62443 -1.215461,1.90838 -6.043207,8.50486 -6.167205,8.42667 -0.03489,-0.022 -2.682811,-2.69148 -5.884269,-5.93217 z"
         id="path357" />
      <path
         style="fill:#14aa02;stroke-width:0.352778"
         d="m -77.601333,184.92461 c -3.466581,-5.21284 -5.856242,-9.53498 -8.092384,-14.63658 -2.11613,-4.82779 -2.204518,-5.20705 -1.213544,-5.20705 1.339846,0 11.512673,-2.76664 15.531969,-4.22414 14.036826,-5.09009 28.265197,-14.81082 38.38812,-26.22651 1.000813,-1.12862 1.972751,-1.95742 2.159868,-1.84178 1.674975,1.03519 9.00618,12.38077 11.959681,18.50849 l 1.943072,4.03134 -3.328716,3.20061 c -13.893676,13.35896 -31.299393,23.53522 -49.216591,28.77451 -2.658784,0.77747 -5.008626,1.41354 -5.221877,1.41347 -0.213247,-6e-5 -1.522568,-1.70662 -2.909598,-3.79236 z"
         id="path355" />
      <path
         style="fill:#010101;stroke-width:0.352778"
         d="m -111.20755,166.0892 c -2.0199,-0.16401 -3.72541,-0.35107 -3.79003,-0.41569 -0.32188,-0.32189 -2.38777,-9.47778 -3.11865,-13.8217 -2.68687,-15.96921 -1.91944,-33.84367 2.12004,-49.37858 0.50305,-1.93461 0.95909,-3.561921 1.01341,-3.616249 1.09517,-1.095163 25.247962,-0.68895 26.612771,0.447591 0.06325,0.05267 -0.385138,1.657098 -0.99642,3.565398 -3.493255,10.90523 -4.410075,17.07177 -4.397721,29.57906 0.01221,12.35684 0.945779,18.54245 4.388661,29.07807 0.586775,1.7956 1.066864,3.31212 1.066864,3.37004 0,0.88312 -16.271665,1.73017 -22.898925,1.19206 z"
         id="path353" />
    </g>
  </g>
</svg>
