<?xml version="1.0" encoding="UTF-8" standalone="no"?>
<svg
   viewBox="0 0 32 32"
   version="1.1"
   id="svg4"
   sodipodi:docname="xml_w_file.svg"
   inkscape:version="1.1.2 (0a00cf5339, 2022-02-04)"
   xmlns:inkscape="http://www.inkscape.org/namespaces/inkscape"
   xmlns:sodipodi="http://sodipodi.sourceforge.net/DTD/sodipodi-0.dtd"
   xmlns="http://www.w3.org/2000/svg"
   xmlns:svg="http://www.w3.org/2000/svg">
  <defs
     id="defs8" />
  <sodipodi:namedview
     id="namedview6"
     pagecolor="#ffffff"
     bordercolor="#666666"
     borderopacity="1.0"
     inkscape:pageshadow="2"
     inkscape:pageopacity="0.0"
     inkscape:pagecheckerboard="0"
     showgrid="false"
     inkscape:zoom="24.4375"
     inkscape:cx="16"
     inkscape:cy="15.97954"
     inkscape:window-width="1920"
     inkscape:window-height="1016"
     inkscape:window-x="0"
     inkscape:window-y="0"
     inkscape:window-maximized="1"
     inkscape:current-layer="svg4" />
  <path
     d="M 6 3 L 6 10 L 8 10 L 8 5 L 24 5 L 24 10 L 26 10 L 26 3 L 6 3 z M 7 12 L 9 16 L 7 20 L 9 20 L 10 18 L 11 20 L 13 20 L 11 16 L 13 12 L 11 12 L 10 14 L 9 12 L 7 12 z M 14 12 L 14 20 L 16 20 L 16 15.332031 L 17 16.666016 L 18 15.332031 L 18 20 L 20 20 L 20 12 L 18 12 L 17 13.332031 L 16 12 L 14 12 z M 22 12 L 22 20 L 26 20 L 26 18 L 24 18 L 24 12 L 22 12 z M 6 22 L 6 29 L 26 29 L 26 22 L 24 22 L 24 27 L 8 27 L 8 22 L 6 22 z"
     id="path2"
     style="fill:#ffffff" />
</svg>
